<svg xmlns="http://www.w3.org/2000/svg" xmlns:xlink="http://www.w3.org/1999/xlink" viewBox="0 0 1111.62 1646.08"><defs><style>.cls-1{isolation:isolate;}.cls-2{fill:#beb4bd;}.cls-3{fill:url(#linear-gradient);}.cls-4{fill:url(#linear-gradient-2);}.cls-5{fill:#f5e8d7;}.cls-6,.cls-7{mix-blend-mode:multiply;opacity:0.3;}.cls-6{fill:url(#linear-gradient-3);}.cls-7{fill:url(#linear-gradient-4);}</style><linearGradient id="linear-gradient" x1="67.56" y1="1500.34" x2="244.26" y2="1500.34" gradientUnits="userSpaceOnUse"><stop offset="0" stop-color="#ff8f84"/><stop offset="1" stop-color="#fa6fba"/></linearGradient><linearGradient id="linear-gradient-2" y1="677.3" x2="1043.47" y2="677.3" gradientUnits="userSpaceOnUse"><stop offset="0" stop-color="#311944"/><stop offset="1" stop-color="#9f3976"/></linearGradient><linearGradient id="linear-gradient-3" x1="521.73" y1="677.3" x2="1043.47" y2="677.3" xlink:href="#linear-gradient-2"/><linearGradient id="linear-gradient-4" x1="155.91" y1="1500.34" x2="244.26" y2="1500.34" xlink:href="#linear-gradient"/></defs><g class="cls-1"><g id="Layer_2" data-name="Layer 2"><g id="Illustration"><path class="cls-2" d="M68.15,0H1105.31a6.31,6.31,0,0,1,6.31,6.31v1342a6.31,6.31,0,0,1-6.31,6.31H68.15a0,0,0,0,1,0,0V0A0,0,0,0,1,68.15,0Z"/><polygon class="cls-3" points="244.26 1646.09 155.91 1554.41 67.56 1646.09 67.56 1354.59 244.26 1354.59 244.26 1646.09"/><path class="cls-4" d="M0,0H1037.16a6.31,6.31,0,0,1,6.31,6.31v1342a6.31,6.31,0,0,1-6.31,6.31H0a0,0,0,0,1,0,0V0A0,0,0,0,1,0,0Z"/><rect class="cls-2" x="46.49" width="42.14" height="945.37"/><rect class="cls-2" x="46.49" y="1052.88" width="42.14" height="301.71"/><rect class="cls-5" x="354.03" y="321.1" width="335.41" height="68.8"/><rect class="cls-5" x="279.92" y="401.08" width="483.64" height="68.8" transform="translate(957.21 -86.26) rotate(90)"/><path class="cls-6" d="M1043.47,1320.17V34.42A46.74,46.74,0,0,0,998.41,0H521.73V1354.59H998.41A46.73,46.73,0,0,0,1043.47,1320.17Z"/><polygon class="cls-7" points="155.91 1354.59 155.91 1554.41 244.26 1646.09 244.26 1354.59 155.91 1354.59"/></g></g></g></svg>