<svg width="91" height="98" viewBox="0 0 91 98" fill="none" xmlns="http://www.w3.org/2000/svg">
<path d="M56.1792 40.6553C59.8137 40.6553 62.7635 43.8395 62.7635 47.7629V60.9628H62.7485V65.0243H28.8864V52.8398H28.8939V47.7629C28.8939 43.8395 31.8399 40.6553 35.4782 40.6553H56.1792ZM83.4419 47.7629C83.4419 45.8779 82.7482 44.07 81.5134 42.7371C80.2786 41.4041 78.6039 40.6553 76.8576 40.6553H64.1594C65.638 42.5845 66.526 45.062 66.526 47.7629V52.8398H66.5109V65.0243H80.6201C81.3685 65.0243 82.0862 64.7033 82.6154 64.1321C83.1446 63.5608 83.4419 62.786 83.4419 61.9781V47.7629ZM25.124 60.9628H25.1315V47.7629L25.1654 46.8694C25.3347 44.5137 26.1812 42.3693 27.4981 40.6553H14.7772L14.2355 40.6797C12.5886 40.8264 11.0531 41.6363 9.93377 42.9485C8.81441 44.2606 8.19302 45.9791 8.19296 47.7629V61.9781C8.19296 63.6596 9.45715 65.0243 11.0148 65.0243H25.124V60.9628ZM45.8174 12.2249C48.811 12.2249 51.682 13.5086 53.7988 15.7936C55.9156 18.0786 57.1048 21.1778 57.1048 24.4093C57.1048 27.6409 55.9156 30.74 53.7988 33.0251C51.682 35.3101 48.811 36.5938 45.8174 36.5938C42.8239 36.5938 39.9529 35.3101 37.8361 33.0251C35.7193 30.74 34.5301 27.6409 34.5301 24.4093C34.5301 21.1778 35.7193 18.0786 37.8361 15.7936C39.9529 13.5086 42.8239 12.2249 45.8174 12.2249ZM70.2734 16.2863C72.768 16.2863 75.1605 17.3561 76.9245 19.2603C78.6885 21.1645 79.6795 23.7471 79.6795 26.4401C79.6795 29.133 78.6885 31.7157 76.9245 33.6198C75.1605 35.524 72.768 36.5938 70.2734 36.5938C67.7787 36.5938 65.3862 35.524 63.6222 33.6198C61.8582 31.7157 60.8672 29.133 60.8672 26.4401C60.8672 23.7471 61.8582 21.1645 63.6222 19.2603C65.3862 17.3561 67.7787 16.2863 70.2734 16.2863ZM21.3615 16.2863C23.8562 16.2863 26.2487 17.3561 28.0127 19.2603C29.7767 21.1645 30.7676 23.7471 30.7677 26.4401C30.7676 29.133 29.7767 31.7157 28.0127 33.6198C26.2487 35.524 23.8562 36.5938 21.3615 36.5938C18.8669 36.5938 16.4744 35.524 14.7104 33.6198C12.9464 31.7157 11.9554 29.133 11.9554 26.4401C11.9554 23.7471 12.9464 21.1645 14.7104 19.2603C16.4744 17.3561 18.8669 16.2863 21.3615 16.2863ZM8.19296 72.1319C8.19296 71.324 8.49026 70.5492 9.01946 69.9779C9.54866 69.4067 10.2664 69.0857 11.0148 69.0857H80.6201C81.3685 69.0857 82.0862 69.4067 82.6154 69.9779C83.1446 70.5492 83.4419 71.324 83.4419 72.1319V74.1626C83.4419 78.202 81.9554 82.076 79.3094 84.9323C76.6635 87.7886 73.0747 89.3932 69.3327 89.3932H22.3021C18.5602 89.3932 14.9714 87.7886 12.3254 84.9323C9.67946 82.076 8.19296 78.202 8.19296 74.1626V72.1319Z" fill="#327A6D"/>
</svg>
