<svg xmlns="http://www.w3.org/2000/svg" xmlns:xlink="http://www.w3.org/1999/xlink" viewBox="0 0 2420.27 2392.71"><defs><style>.cls-1{isolation:isolate;}.cls-2{fill:#f4f7fa;}.cls-10,.cls-11,.cls-12,.cls-13,.cls-14,.cls-15,.cls-16,.cls-17,.cls-18,.cls-19,.cls-2,.cls-20,.cls-23,.cls-24,.cls-25,.cls-29,.cls-3,.cls-30,.cls-31,.cls-32,.cls-33,.cls-34,.cls-35,.cls-4,.cls-5,.cls-6,.cls-7,.cls-8,.cls-9{fill-rule:evenodd;}.cls-3{fill:url(#linear-gradient);}.cls-4,.cls-5{fill:#fff;}.cls-4{mix-blend-mode:screen;opacity:0.16;}.cls-6{fill:#aeb1ba;}.cls-7{fill:url(#linear-gradient-2);}.cls-8{fill:url(#linear-gradient-3);}.cls-9{fill:url(#linear-gradient-4);}.cls-10{fill:#343267;}.cls-11{fill:#6a3656;}.cls-12{fill:#434279;}.cls-13{fill:url(#linear-gradient-5);}.cls-14{fill:#784363;}.cls-15{fill:url(#linear-gradient-6);}.cls-16{fill:#f7b9bd;}.cls-17{fill:url(#linear-gradient-7);}.cls-18{fill:#231f20;opacity:0.4;}.cls-19{fill:#f9b19d;}.cls-20{fill:#e98879;}.cls-21,.cls-22,.cls-26,.cls-27,.cls-28{fill:none;stroke-linecap:round;stroke-linejoin:round;}.cls-21{stroke:#784363;}.cls-21,.cls-26,.cls-27,.cls-28{stroke-width:0.71px;}.cls-22{stroke:#e98879;stroke-width:0.57px;}.cls-23{fill:#f8cec1;}.cls-24{fill:#f0efed;}.cls-25{fill:#8e516b;}.cls-26{stroke:#343267;}.cls-27{stroke:#8e516b;}.cls-28{stroke:#f7b9bd;}.cls-29{fill:#9bc6d9;}.cls-30{fill:url(#linear-gradient-8);}.cls-31{fill:url(#linear-gradient-9);}.cls-32{fill:url(#linear-gradient-10);}.cls-33{fill:url(#linear-gradient-11);}.cls-34{fill:url(#linear-gradient-12);}.cls-35{fill:url(#linear-gradient-13);}</style><linearGradient id="linear-gradient" x1="1647.48" y1="1820.41" x2="2173.6" y2="1820.41" gradientUnits="userSpaceOnUse"><stop offset="0" stop-color="#ffc444"/><stop offset="1" stop-color="#f36f56"/></linearGradient><linearGradient id="linear-gradient-2" x1="1681.08" y1="2092.24" x2="2217.67" y2="2092.24" xlink:href="#linear-gradient"/><linearGradient id="linear-gradient-3" x1="211.68" y1="1897.22" x2="653.07" y2="1897.22" gradientUnits="userSpaceOnUse"><stop offset="0" stop-color="#e38ddd"/><stop offset="1" stop-color="#9571f6"/></linearGradient><linearGradient id="linear-gradient-4" x1="174.71" y1="2125.27" x2="624.88" y2="2125.27" xlink:href="#linear-gradient-3"/><linearGradient id="linear-gradient-5" x1="1212.99" y1="668.53" x2="1568.65" y2="668.53" gradientUnits="userSpaceOnUse"><stop offset="0" stop-color="#311944"/><stop offset="1" stop-color="#a03976"/></linearGradient><linearGradient id="linear-gradient-6" x1="571.99" y1="1552.96" x2="1415.39" y2="1552.96" gradientUnits="userSpaceOnUse"><stop offset="0" stop-color="#444b8c"/><stop offset="1" stop-color="#26264f"/></linearGradient><linearGradient id="linear-gradient-7" x1="968.62" y1="653.53" x2="1226.53" y2="653.53" xlink:href="#linear-gradient-6"/><linearGradient id="linear-gradient-8" x1="1695.35" y1="674.81" x2="1836.36" y2="674.81" xlink:href="#linear-gradient-3"/><linearGradient id="linear-gradient-9" x1="363.2" y1="733.3" x2="504.22" y2="733.3" xlink:href="#linear-gradient"/><linearGradient id="linear-gradient-10" x1="1700.46" y1="1084.24" x2="1788.98" y2="1084.24" xlink:href="#linear-gradient-3"/><linearGradient id="linear-gradient-11" x1="638.96" y1="1128.59" x2="727.47" y2="1128.59" xlink:href="#linear-gradient"/><linearGradient id="linear-gradient-12" x1="373.58" y1="456.75" x2="677.63" y2="456.75" gradientUnits="userSpaceOnUse"><stop offset="0" stop-color="#ff9085"/><stop offset="1" stop-color="#fb6fbb"/></linearGradient><linearGradient id="linear-gradient-13" x1="2124.48" y1="823.9" x2="2275.23" y2="823.9" xlink:href="#linear-gradient-12"/></defs><g class="cls-1"><g id="Layer_2" data-name="Layer 2"><g id="Illustration"><path class="cls-2" d="M207,1628.67c100.32,0,182.4,87.77,182.4,195.06h0c0,195.76,149.76,355.92,332.79,355.92h1261c237.77,0,432.31-208.06,432.31-462.35h0c0-254.3-194.54-462.37-432.31-462.37h0c-47.72,0-86.77-41.75-86.77-92.78h0c0-51,39-92.79,86.77-92.79h226.21c116,0,210.9-101.5,210.9-225.56h0c0-123.92-94.68-225.33-210.5-225.56H2004c-100.32,0-182.39-87.78-182.39-195.07h0c0-195.76-149.76-355.92-332.79-355.92H433.19C195.41,67.25.87,275.31.87,529.61h0C.87,783.91,195.41,992,433.19,992h0c47.72,0,86.76,41.76,86.76,92.8h0c0,51-39,92.79-86.76,92.79H207c-276,0-276,451.12,0,451.12Z"/><path class="cls-3" d="M2169.66,1481.64c-33.82-141.54-166.83-67.67-226,51.21-56.14,112.73-185.54,537.51-296.16,682.39L1683,2236.6c206.64-146.78,530-573.76,486.69-755Z"/><path class="cls-4" d="M1669.91,2228.75c273.37-262.88,427.43-761,428-762.65a5.85,5.85,0,1,0-11.17-3.5c-.54,1.69-154.76,500.34-427.06,760l10.27,6.18Z"/><path class="cls-5" d="M1836.12,1547.93c-62.7-104.18-150-11.74-167.08,97.91-14.18,90.88-12.7,385.82-46.48,554.39l46.79,28.17c119.33-189.24,240.79-557.47,166.77-680.47Z"/><path class="cls-6" d="M1652.25,2218.11c125.57-277.52,122.78-663,122.77-664.4a4.89,4.89,0,1,0-9.78,0c0,1.4,2.78,384.4-121.31,659.38l8.32,5Z"/><path class="cls-7" d="M2151.18,1905.18c112.69,14.72,66.15,124-21.36,179.72-59.21,37.67-238.81,117.26-374.45,195.28l-74.29-44.71c132.13-162,353.62-345.53,470.1-330.29Z"/><path class="cls-4" d="M1707.61,2251.43c192.66-176.68,460.41-291.31,461.48-291.77a4.58,4.58,0,1,1,3.64,8.4c-1.07.46-266,113.9-457,288.23l-8.07-4.86Z"/><path class="cls-8" d="M215,1613c28.38-118.74,140-56.77,189.63,43,47.09,94.56,155.65,450.93,248.46,572.48l-29.78,17.93C449.93,2123.24,178.66,1765,215,1613Z"/><path class="cls-4" d="M634.24,2239.8c-229.33-220.54-358.59-638.4-359-639.82a4.92,4.92,0,0,1,9.38-3c.44,1.42,129.83,419.78,358.27,637.58l-8.62,5.19Z"/><path class="cls-5" d="M494.8,1668.64c52.6-87.42,125.83-9.86,140.18,82.14,11.9,76.23,10.65,323.67,39,465.09l-39.26,23.64c-100.11-158.77-202-467.69-139.92-570.87Z"/><path class="cls-6" d="M649.06,2230.88c-105.34-232.83-103-556.24-103-557.41a4.11,4.11,0,1,1,8.21,0c0,1.16-2.33,322.48,101.77,553.18l-7,4.2Z"/><path class="cls-9" d="M230.49,1968.34c-94.55,12.35-55.5,104.07,17.92,150.78,49.67,31.59,200.35,98.38,314.14,163.83l62.33-37.51C514,2109.51,328.21,1955.56,230.49,1968.34Z"/><path class="cls-4" d="M602.62,2258.83C441,2110.6,216.36,2014.44,215.46,2014.05a3.84,3.84,0,1,0-3.05,7c.89.4,223.17,95.56,383.44,241.81l6.77-4.07Z"/><path class="cls-10" d="M220.76,2392.71a33.76,33.76,0,0,0,33.66-33.66v-2.81a33.75,33.75,0,0,0-33.66-33.65h0a33.76,33.76,0,0,0-33.67,33.65v2.81a33.76,33.76,0,0,0,33.67,33.66Zm-26.3-227.23H2225.81a50.65,50.65,0,0,1,50.49,50.5h0a50.64,50.64,0,0,1-50.49,50.49H2055.44a28.14,28.14,0,0,0-28,28.06h0a28.15,28.15,0,0,0,28,28.06h62.34a35.17,35.17,0,0,1,35.06,35.06h0a35.17,35.17,0,0,1-35.06,35.06H308.07A35.15,35.15,0,0,1,273,2357.65h0a35.16,35.16,0,0,1,35.06-35.06h49.1a28.14,28.14,0,0,0,28.05-28.06h0a28.14,28.14,0,0,0-28.05-28.06H194.46A50.63,50.63,0,0,1,144,2216h0a50.66,50.66,0,0,1,50.49-50.5Z"/><path class="cls-10" d="M1029.91,260.59c-2.78,51.9-12.46,74.16-59.2,88.33-74.31,22.52-72,75.48-41.28,140.63,6.05,12.82,17.14,32.68-1.26,64.18-35,60-38.08,147.42,90.8,161.93S1146,603.12,1146,603.12l6.35-28.14s86.23-29,52.65-131.6,17.24-39.93,17.24-39.93l11.66,28s102.74-24.64,102.71-85.21c-.14-269.59-296.86-270.25-306.74-85.67Z"/><path class="cls-11" d="M1251.69,398.28s-47.1,38.36-69.57,71.91-80.56,144.27-80.56,144.27l17.25,60.82,33.58,8.16,83.5-81.68,15.8-203.48Z"/><path class="cls-12" d="M1229.77,1008.16s-19.65,82.87-19.65,159.1,61.73,978.43,61.73,978.43.22,7.95,6.8,7.95,52.19,1.58,76.47,0c0,0,4.54-1.82,5.44-8.4s19.53-958.91,19.53-958.91l208.75,957.54s2.5,9.53,8.17,9.53h85.54s7-.23,7.27-10.9-65.36-591.77-69-646.23-20.88-449.24-64-510.52-327.08,22.41-327.08,22.41Z"/><path class="cls-10" d="M1514,1800.58l74.84,343.29s2.5,9.53,8.17,9.53h27.38L1514,1800.58Z"/><path class="cls-5" d="M1231.1,984.64s-5.31,16.76-2.58,22.66,173.12,32.91,328.33-21.55c0,0,7.33-8.65,2.07-29.73s-240.32-18.38-240.32-18.38l-87.5,47Z"/><path class="cls-13" d="M1231.1,984.64C1360.39,1016,1558.92,956,1558.92,956s12.71-26.78,9.08-35.4-20.42-67.62-20.42-82.14,9.07-17.25,5.44-26.32-18.14-33.59-18.14-46.3S1547.58,588,1547.58,588c-56.26-72.62-9.07-221.46-9.07-221.46s-4.08-4.09-15-7.26-96.17-15.9-96.17-15.9l-113.67,22.14s-57,30.07-62,32.79S1219.91,499,1217.2,546.22s12.69,213.29,12.69,224.19-10,20.88-8.17,26.32,5.45,10.89,7.27,17.25-6.33,86.35-11.8,120.71c-2.33,14.66-13,43,12.38,49.58l1.53.37Z"/><path class="cls-14" d="M1227,851.15c-1.66,18.22-4,40.11-6.37,58.69l191-72.53,7-45.9-182.44,26.32L1227,851.15Z"/><polygon class="cls-14" points="1387.12 539.1 1408.18 535.06 1396.66 561.11 1390.91 613.66 1355.13 750.12 1307.94 772.81 1387.12 539.1 1387.12 539.1"/><path class="cls-15" d="M1008,866.59s-6,16.77-28.14,36.52C642.13,1205,785.34,1733.3,573,2076.11c0,0-2.7,8.18.91,12.37s16.6,25.65,59.61,33c0,0-5,27.57-10.54,47.48,0,0-2,5.85,2.21,8.88s39.77,20.2,89.73,21.78l-2.22,14.09s-.89,5.56,4.83,6.57,93.41,33.34,271.78,12.12a9.61,9.61,0,0,0,4.78-6.37,10.57,10.57,0,0,0,5.28,8.34c5.06,2.75,100.38,32,262.59-4.25,0,0,3.94-1.39,4.27-7s-3.55-27.74-3.55-27.74,50.89-.48,90.58-20.3a11.37,11.37,0,0,0,5.52-9.61,70.12,70.12,0,0,0-1.37-13.87s37.42-4.85,55.58-14.21a9.09,9.09,0,0,0,2.37-7.61c-.51-5-51.12-36.52-72.78-550.52s-167.42-577.92-164.15-706.55l-8.9-13.87-141.28-1L1008,866.59Z"/><path class="cls-16" d="M1184.29,921.5a173.07,173.07,0,0,1-5.9-48.79l-8.9-13.87-77.18-.55-26.75,30.23,118.73,33Z"/><path class="cls-16" d="M1010.86,842.53s-3.86,17.25-2.49,24.06,64,23.14,114.36,21.33,48.33-9.3,49-12.49.22-22,.22-22l-161.1-10.9Z"/><path class="cls-17" d="M1042.93,449.87c-8.61,19.17-76.08,79.53-74.27,137.62s29,159.74,31.76,172.45-1.36,63.08,0,69.88,10.44,12.71,10.44,12.71c76.25,24.5,161.1,10.9,161.1,10.9s6.81-4.09,6.35-14.07,3.64-38.13,26.34-87.14,27.22-86.22,16-107.86-84.49-127.67-84.49-127.67-13.54-16.61-8.54-27.74l-84.65-39.08Z"/><path class="cls-18" d="M1203.77,754.11l.88-1.89c12.47-27,19.46-50.37,21.36-69.56-.09.13-13.81,21.75-60.86-4.49-47.2-26.32-111.87.68-111.87.68l-33-4.82,79,164.42s68.37-23.45,68.37-28.89c0-2.47,17.25-28.09,36.13-55.45Z"/><path class="cls-19" d="M1042.93,449.87c-6,13.37-40.62,46.76-60.42,85.45,4.64,1.88,11.59.6,22-7.32,32.22-24.51,59.9-26.77,82.14-2.27s55.1,39.23,73.16,25.52c-13.43-19.71-23.68-34.56-23.68-34.56s-13.54-16.61-8.54-27.74l-84.65-39.08Z"/><path class="cls-20" d="M1134,513.76c-3.6-5.26-10.11-16.53-6.4-24.81l-55.31-25.54L1134,513.76Z"/><path class="cls-21" d="M1354,403S1331.33,552.7,1331.33,579s-7.26,111.63-4.54,198.76-9.07,166.1-9.07,178.81,6.35,37.09,6.35,37.09"/><path class="cls-19" d="M1329.23,644.47c5.46-9.48,13.87-23.63,19.53-36.5.77-1.75.88-35.14,1.47-39.31s16.27-30,17.9-32.24,17.19-10.44,18.39-11.25,3.6,1.36,3.6,1.36,8.82-5.11,9.38-5.56,4.78.85,5.29,5.4c0,0,4,1.72,4.93,4s-2.09,6.9-13.9,17.11l-7.48,21.28s12.28-15.31,13.44-16.56,10.49-9.44,11.06-10.12,4.23,3.06,1.47,6.45-7.11,8.84-7.11,8.84-7.64,17.79-7.48,19.54-.14,23.64-7,34.76c-1.34,2.13-5.37,4.66-8.18,8.14-8.15,10.08-21.67,49.18-21.67,49.18l-33.61-24.51Z"/><path class="cls-22" d="M1390.12,526.52s-12.7,8.43-14.54,9.87a17.14,17.14,0,0,0-3.52,4.07c-3.89,5.95-6.53,14.79-9.83,21.54m42.57-35.63L1389.27,538a13.8,13.8,0,0,0-3.72,4.14c-1,2.15-9.2,21.43-9.2,21.43"/><path class="cls-19" d="M1191.47,872.9s-138.87-146.12-164.28-187-40.84-91.67-24.5-128,57.18-30.85,57.18-30.85,14.52.9,33.58,31.76,145.22,229.63,145.22,229.63L1347.6,615.25l31.61,12-83.59,213.43c-17.87,45.62-59.4,79.53-104.15,32.25Z"/><path class="cls-19" d="M1140.85,345.63h0a46.74,46.74,0,0,0-61.61,23.44l-33.88,75.46a46.75,46.75,0,0,0,23.43,61.62h0a46.75,46.75,0,0,0,61.62-23.44l33.88-75.47a46.75,46.75,0,0,0-23.44-61.61Z"/><path class="cls-20" d="M1064.8,401.2l-18.43,41.08L1117.05,500a46.16,46.16,0,0,0,13.36-17.24l31-69.09c-33.08-12.51-82-27.89-82-27.89L1064.8,401.2Z"/><path class="cls-19" d="M1335.06,222.73h0a46.75,46.75,0,0,0-33.74,56.63l20.31,80.2a46.76,46.76,0,0,0,56.64,33.74h0A46.77,46.77,0,0,0,1412,336.67l-20.31-80.2a46.76,46.76,0,0,0-56.64-33.74Z"/><path class="cls-20" d="M1305.54,296l16.09,63.52a46.05,46.05,0,0,0,9.81,18.85l73.68-69-2.83-11.16-80.76-15.51s-7,5.74-16,13.25Z"/><path class="cls-19" d="M1203.65,195c-53-15.82-109.32,14.6-125.14,67.6l-21.1,70.66-5.07,17a100,100,0,0,0-4,21.9c7.51,107.26,122.93,141.72,188,56.13a100.67,100.67,0,0,0,8.7-20.48l5.07-17,21.1-70.66c15.82-53-14.6-109.31-67.62-125.14Z"/><path class="cls-20" d="M1255.93,371.55l15.34-51.37q1.07-3.65,1.88-7.31c-17.33-28.18-40.78-61.75-48.93-62.58-13.47-1.39-108.78-7.29-117.4-5s-26.32,49.93-26.32,49.93,83.71,27.58,118.56-13.67l7.6-2.67s5.95,66,49.27,92.69Z"/><path class="cls-20" d="M1207.62,405.35a13.23,13.23,0,1,0,8.57,16.62,13.22,13.22,0,0,0-8.57-16.62Z"/><path class="cls-20" d="M1099.23,370.74a13.23,13.23,0,1,0,8.58,16.62,13.22,13.22,0,0,0-8.58-16.62Z"/><path class="cls-10" d="M1107.34,324.34a3.68,3.68,0,0,1-1.28-7.24c10.5-2,22.83,1.11,30.16,9.14a3.68,3.68,0,0,1-5.43,5c-5.89-6.45-15.15-8.16-23.45-6.86Z"/><path class="cls-10" d="M1217.9,391.54a9.21,9.21,0,0,0-17.64-5.27,3.69,3.69,0,0,1-7.07-2.11,16.58,16.58,0,0,1,32.4,3.22,2.71,2.71,0,0,0,2.28.22,1.06,1.06,0,0,1,1.35.62,1,1,0,0,1-.62,1.35,4.54,4.54,0,0,1-3,.08v.08a4.89,4.89,0,0,0,3.18.6,1.06,1.06,0,0,1,.32,2.09,6.88,6.88,0,0,1-3.76-.49v0a6.43,6.43,0,0,0,3,1.37,1.06,1.06,0,0,1-.36,2.09,8.51,8.51,0,0,1-3.26-1.29,3.69,3.69,0,0,1-6.89-2.58Z"/><path class="cls-10" d="M1264,378.48s-56.28-41.75-48.11-102.56c0,0,.56-2.61-1.26-2.84s-10.63,21.64-5.55,47.31c0,0,1.36,4.09-.91,5s-13.85-21.11-8.4-48.33c0,0-40.18,35.77-105.29,12.26,0,0-26.32,28.13-25.41,74.42s27.23,116.18-67.16,111.65S1023.71,371,1023.71,371s59.91-165.19,66.26-168.82,93.34-33.07,93.34-33.07l61.87,22.18,51.74,86.22-32.89,101Z"/><path class="cls-10" d="M1230.29,361.05c-6.24-5.65-14.93-9.29-23.39-7.12a3.68,3.68,0,0,1-1.82-7.14c10.53-2.68,22.53,1.49,30.23,8.89a3.68,3.68,0,0,1-5,5.37Z"/><path class="cls-12" d="M1269.26,186.73a61.71,61.71,0,0,0-8.78-22.57,160,160,0,0,0-37.32-21.27c-14.52,41.05-64.3,97.3-130.19,67.15a159.46,159.46,0,0,1-38.17-24.12,127.15,127.15,0,0,0-11,18.53c18.68,19.35,45.8,35.55,85.16,42.68,76.43,13.84,118.32-24.6,140.27-60.4Z"/><path class="cls-10" d="M1101,356.63a9.2,9.2,0,1,1,17.63,5.26,3.69,3.69,0,0,0,7.07,2.11,16.58,16.58,0,0,0-23.77-19.33,16.42,16.42,0,0,0-5.09,4.27,2.76,2.76,0,0,1-2-1.07,1,1,0,0,0-1.47-.22,1.05,1.05,0,0,0-.22,1.48,4.65,4.65,0,0,0,2.43,1.68l0,.07a5,5,0,0,1-3-1.24,1.06,1.06,0,0,0-1.41,1.57,6.85,6.85,0,0,0,3.41,1.64v0a6.62,6.62,0,0,1-3.29-.52,1.06,1.06,0,0,0-.84,1.94,8.54,8.54,0,0,0,3.43.71,3.69,3.69,0,0,0,7.18,1.62Z"/><path class="cls-23" d="M1171.3,391.17s4.55,14.35,3.07,19.64-10.3,0-11.13-3.4,3.19-20.09,8.06-16.24Z"/><path class="cls-20" d="M1120.64,415.18a2.62,2.62,0,1,1,3.43-3.95c.08,0,25.5,22.15,47.78,14.52a2.62,2.62,0,1,1,1.68,5c-25.13,8.6-52.8-15.45-52.89-15.53Z"/><path class="cls-20" d="M1430.46,171.58c.75,0,1.49,0,2.23,0h0a29.94,29.94,0,1,1-23.76,9.76c.6,8.85,3.65,19.44,15,18.8l-3-17c-1.19-6.87,4.75-11,9.51-11.59Z"/><path class="cls-19" d="M1296.21,45.5c55.68-8.61,108.28,29.89,116.89,85.57l11.49,74.22,2.76,17.85a103,103,0,0,1,1,22.65C1405.84,353,1284.6,371.72,1230.8,276.34a101.34,101.34,0,0,1-5.93-21.87l-2.76-17.86-11.49-74.22c-8.61-55.67,29.9-108.27,85.59-116.89Z"/><path class="cls-20" d="M1307.77,44.39a102.25,102.25,0,0,1,65.8,20.74l8.73,56.7-8.16-6.35L1335,146.68l-40.64,5-79.06,41-4.68-30.25a102.21,102.21,0,0,1,21.9-80.25c25.64-13,52.44-26.42,75.25-37.75Z"/><path class="cls-20" d="M1263,257.15a13.48,13.48,0,1,1-11,15.59,13.48,13.48,0,0,1,11-15.59Z"/><path class="cls-20" d="M1377.19,237.27a13.47,13.47,0,1,1-11,15.59,13.48,13.48,0,0,1,11-15.59Z"/><path class="cls-10" d="M1375.45,189.33a3.74,3.74,0,0,0,2.29-7.13c-10.32-3.45-23.18-2-31.69,5a3.75,3.75,0,1,0,4.79,5.76c6.84-5.69,16.42-6.13,24.61-3.67Z"/><path class="cls-10" d="M1246.29,209.32c7.08-4.84,16.36-7.31,24.6-3.95a3.74,3.74,0,1,0,2.81-6.94c-10.24-4.18-22.93-1.64-31.72,4.77a3.74,3.74,0,0,0,4.31,6.12Z"/><path class="cls-23" d="M1301.65,247.89s-6.6,13.84-5.84,19.39,10.4,1.44,11.71-1.89-.43-20.72-5.87-17.5Z"/><path class="cls-20" d="M1349.42,279.15a2.67,2.67,0,1,0-2.91-4.47c-.09.05-28.8,18.82-50.23,8a2.67,2.67,0,0,0-2.38,4.77c24.17,12.16,55.43-8.27,55.52-8.33Z"/><path class="cls-10" d="M1359.19,225.75a3.71,3.71,0,1,1-7.3,1.33,16.52,16.52,0,0,1,32.51-5.94,3.72,3.72,0,0,1-7.32,1.34,9.09,9.09,0,0,0-17.89,3.27Z"/><path class="cls-10" d="M1255.11,241.91a3.72,3.72,0,1,1-7.31,1.33,16.52,16.52,0,0,1,32.51-5.94,3.72,3.72,0,1,1-7.31,1.34,9.09,9.09,0,1,0-17.89,3.27Z"/><path class="cls-24" d="M1411.53,334.83l15.83,8.52-41.12,66.23a5,5,0,0,1-4.54,2.15c-3-.34-25.65-18.3-25.65-18.3l55.48-58.6Z"/><path class="cls-24" d="M1356.05,393.43l-34.42-33.87-7.94,5.93,16.72,42.87s1.48,2.62,4.88,1.25,20.76-16.18,20.76-16.18Z"/><path class="cls-10" d="M1424.32,203.55s-21.14-6.83-19.78-34.06c0,0-20.88-14.07-30.4-26.77s-3.18-38.58-3.18-38.58c-11.45,9.15-30.23,48-54.94,53-15.46,3.16-32.69-7-20.63-24.18,0,0-46.75,54-92.13,44-57-12.53-73-93.24-33.13-71.7-41.59-54,28.42-120.79,76.55-66.1,0,0,72.75-39.18,92.71-39.18s54.46,15.43,59.91,49.92c0,0,33.58,5.45,39.93,17.25s-1.11,105.24-1.11,105.24-17.31,8.49-13.8,31.14Z"/><path class="cls-12" d="M1158.21,61.48c3.52-20.4,19.07-37.07,38.19-41.52,10.49,35.34,54.23,88.3,112.82,61.49,41.69-19.07,58.53-48.2,65.33-69.59a64.9,64.9,0,0,1,7.8,6.27c-8.25,34.47-32.64,82.16-104,95.09C1212.9,125.07,1177,92.15,1158.21,61.48Z"/><path class="cls-25" d="M1605.73,2140.66s27.41-34.11,60.92-7c0,0,18.28,7.4,25.14,24.65s19.79,25.07,22.07,44-3,33.71-27,33.71H1648c-17.13,0-42.64,2.87-51.4-20.14s0-44-3-55.88,12.18-19.31,12.18-19.31Z"/><path class="cls-11" d="M1605.73,2140.66s27.41-34.11,60.92-7a48.39,48.39,0,0,1,8,4.48c2,14.94,3.55,30.87,2.1,34.94-2.91,8.13-46.19,6.39-52.29,3.49-4.56-2.17-14.94-24.25-19.92-35.3.71-.42,1.14-.62,1.14-.62Z"/><path class="cls-24" d="M1711.3,2236H1597.75a6.79,6.79,0,0,1-6.75-6.76V2216.7a6.76,6.76,0,0,1,6.75-6.74H1711.3a6.77,6.77,0,0,1,6.76,6.74v12.53a6.8,6.8,0,0,1-6.76,6.76Z"/><path class="cls-19" d="M1099.57,817.66s-43-8.73-55.14-13.53-11.82,6.06-6.77,12.32,16.72,12.63,19.32,14.22,1.12,3.12-6.55,5.61-34.92,7.69-39.57,6.25-8.26-9.94-10.19-11.72c0,0-7,10.29-4.25,14.94s10.66,12.46,17.11,13.44c0,0-1.1,10.49,1.61,12.91s9.19,4.64,9.19,4.64,1.81,5.14,4.8,7.54a36.76,36.76,0,0,0,6.58,4s5.77,5.36,8.25,7.09,23.71,2.58,29.54-3.09c.91-.89,23.58-8.15,34.34-15.76,3.39-2.41,7-8,7.53-9.2,9.08-18.52-8-47.59-8-47.59l-7.82-2.1Z"/><path class="cls-11" d="M1538.51,366.51C1613.82,407,1609.35,476,1583,560.37c-16.4,52.44-54.37,132.41-109.62,234.29,0,0-20.88,29-61.72,42.65S1109.67,888,1109.67,888s-3.86,0-4.08-2.94-8.35-48-7.44-71.16c0,0,0-6.36,9.53-10s263.54-73.47,263.54-73.47,11.8-20.87,30-17.25l111.64-316.76s11-37.12,25.7-29.93Z"/><path class="cls-10" d="M1357.75,399.07s37.43-23.58,41.36-25.19,13,16.42,13.87,28.53-20.61,30.93-24.69,34.16-19.23-11.09-32.24-25.06l1.7-12.44Z"/><path class="cls-10" d="M1351.48,399l-17.22-14.63a4.7,4.7,0,0,0-5.6,1.44c-2.37,3-9,16.67-9,16.67s-2.55,4.82-1.75,8.41,6.6,19.44,6.6,19.44,3.13,3.69,6.85,2.43,20.56-21.94,20.56-21.94l-.43-11.82Z"/><path class="cls-10" d="M1355.67,393.2h0a6.71,6.71,0,0,1,6.7,6.68v10.44a6.72,6.72,0,0,1-6.7,6.71h0a6.73,6.73,0,0,1-6.69-6.71V399.88a6.71,6.71,0,0,1,6.69-6.68Z"/><path class="cls-26" d="M1346.34,1019.2c3.64,35.14,33.75,167.13,33.75,167.13m-62.29-167.57s26.26,108.7,31.27,118.23,24,18.16,24,18.16M1258,1013.92s-8.08,23.47-20.56,27.1m236.82-33.48s23.22,53,85.38,44.37m-18.34-61s27,80.05,32,127.24,52.64,495.12,52.64,495.12M1395.33,1188.5l-57.19-7.26"/><path class="cls-10" d="M1362.66,1200.3c.82,11.17-17,131.06-31.39,225.14,5,46.29,8.89,97.33,11.27,153.82,6,143.61,14.37,249.54,23.21,327.78,5.72-280.13,14.1-708.82,14.33-720.47l-25.75-3.28a24.72,24.72,0,0,1,8.33,17Z"/><path class="cls-21" d="M1534.88,765.86s-8.88,34.63-57,50.51m71.53,11.74s-16.17,20.48-63.82,22.75M1355.83,954.78s82.59-14.51,128.88-40.84"/><path class="cls-27" d="M1371.22,730.45s25.45-.75,34.07,27.84m-4.12-45.09,16.6,3.33"/><path class="cls-28" d="M1023.84,870.39c-38.56,161.94-181.44,194.74-230.54,605.38M633.48,2121.45s105.35-259,145.29-567.63m-63.89,645.77s107.45-395.26,154.65-729.27,101.66-410.25,101.66-410.25M994.05,2226s24.33-613.18,49.74-863.69m47.27-477.06s-30.94,239.26-47.27,362.7m218.85,947.43s-38.8-239.28-39.14-513.58-52.64-655.31-74.43-729.73m208.3,1199.53s-52.19-153-66.71-559.66m-290.24-832s10.66,21.47,51.95,30.1"/><path class="cls-29" d="M386.28,327.05H626.81a31.86,31.86,0,0,1,31.77,31.76V582.89a3.55,3.55,0,0,1-6.06,2.51l-54.13-54.13H386.28a31.87,31.87,0,0,1-31.77-31.77V358.81a31.86,31.86,0,0,1,31.77-31.76Z"/><path class="cls-5" d="M2327.45,1505.06a5.41,5.41,0,0,1,7.65,7.65l-17.2,17.2a5.4,5.4,0,1,1-7.64-7.64l17.19-17.21Zm19.75,36.86a5.41,5.41,0,0,1,0,10.82h-24.32a5.41,5.41,0,1,1,0-10.82Zm-12.1,40a5.41,5.41,0,0,1-7.65,7.64l-17.19-17.2a5.41,5.41,0,1,1,7.64-7.65l17.2,17.21Zm-36.85,19.74a5.41,5.41,0,1,1-10.82,0v-24.32a5.41,5.41,0,1,1,10.82,0v24.32Zm-40-12.1a5.41,5.41,0,0,1-7.66-7.64l17.21-17.21a5.41,5.41,0,1,1,7.65,7.65l-17.2,17.2Zm-19.75-36.85a5.41,5.41,0,1,1,0-10.82h24.33a5.41,5.41,0,0,1,0,10.82Zm12.09-40a5.41,5.41,0,0,1,7.66-7.65l17.2,17.21a5.41,5.41,0,1,1-7.65,7.64l-17.21-17.2Zm36.87-19.75a5.41,5.41,0,0,1,10.82,0v24.32a5.41,5.41,0,1,1-10.82,0V1493Z"/><path class="cls-4" d="M2218.36,962.76c69.58,0,126.32-56.75,126.32-126.32s-56.74-126.32-126.32-126.32-126.31,56.74-126.31,126.32,56.74,126.32,126.31,126.32Z"/><path class="cls-30" d="M1721.8,691.45a26.87,26.87,0,0,1,5,.48l.61.13V624.48a8.47,8.47,0,0,1,7.35-8.29l93.53-10.9a6.87,6.87,0,0,1,.88,0,7.14,7.14,0,0,1,4.78,1.81,7.24,7.24,0,0,1,2.34,4.55c0,.32,0,.62,0,.9v96.17a26.46,26.46,0,1,1-26.46-26.46,26.1,26.1,0,0,1,5,.48l.61.13v-28l-67.25,7.84v55.22a26.46,26.46,0,1,1-26.47-26.46Z"/><path class="cls-31" d="M389.67,749.94a27,27,0,0,1,5,.48l.6.12V683a8.52,8.52,0,0,1,7.36-8.28l93.52-10.91a7.3,7.3,0,0,1,8.06,7.21v96.18a26.47,26.47,0,1,1-21.45-26l.6.12v-28l-67.24,7.85V776.4a26.46,26.46,0,1,1-26.46-26.46Z"/><path class="cls-32" d="M1726.92,1097.82a27.19,27.19,0,0,1,5,.48l.59.12v-67.58a8.38,8.38,0,0,1,2.15-5.5,8.25,8.25,0,0,1,5.21-2.77l41-4.79a6.92,6.92,0,0,1,.87,0,7.15,7.15,0,0,1,7.12,6.37,7,7,0,0,1,.06.89v29.9c0,10.25-8.1,11-8.1,11l-12.75,1.48-14.74,1.72v55.23a26.46,26.46,0,1,1-26.47-26.47Z"/><path class="cls-33" d="M665.42,1142.18a26.18,26.18,0,0,1,5,.48l.61.13V1075.2a8.47,8.47,0,0,1,7.35-8.28l41-4.78a7,7,0,0,1,.88-.05,7.13,7.13,0,0,1,7.12,6.36c0,.32.05.61.05.89v29.91c0,10.25-8.09,11-8.09,11l-12.75,1.48-14.75,1.71v55.24a26.46,26.46,0,1,1-26.46-26.47Z"/><path class="cls-34" d="M405.34,327.05H645.87a31.85,31.85,0,0,1,31.76,31.76V582.89a3.54,3.54,0,0,1-6,2.51l-54.13-54.13H405.34a31.86,31.86,0,0,1-31.76-31.77V358.81a31.85,31.85,0,0,1,31.76-31.76Z"/><path class="cls-5" d="M457.18,373.62h0a43.34,43.34,0,0,1,61.1,0l7.32,7.32,7.33-7.32a43.34,43.34,0,0,1,61.1,0h0a43.31,43.31,0,0,1,0,61.08L586.69,442,525.6,503.12,464.52,442l-7.34-7.33a43.32,43.32,0,0,1,0-61.08Z"/><path class="cls-5" d="M2199.85,950.22c69.58,0,126.32-56.74,126.32-126.32s-56.74-126.31-126.32-126.31-126.31,56.74-126.31,126.31,56.74,126.32,126.31,126.32Z"/><path class="cls-35" d="M2136.2,769.52h0a40.31,40.31,0,0,1,56.84,0l6.81,6.82,6.82-6.82a40.31,40.31,0,0,1,56.84,0h0a40.32,40.32,0,0,1,0,56.83l-6.82,6.83L2199.85,890,2143,833.18l-6.82-6.83a40.32,40.32,0,0,1,0-56.83Z"/><path class="cls-5" d="M539.68,1315a5.41,5.41,0,1,1,7.65,7.64l-17.2,17.21a5.41,5.41,0,0,1-7.65-7.66l17.2-17.19Zm19.75,36.85a5.41,5.41,0,0,1,0,10.82H535.1a5.41,5.41,0,0,1,0-10.82Zm-12.1,40a5.41,5.41,0,0,1-7.65,7.65l-17.2-17.19a5.41,5.41,0,1,1,7.65-7.65l17.2,17.19Zm-36.86,19.76a5.41,5.41,0,0,1-10.82,0V1387.3a5.41,5.41,0,1,1,10.82,0v24.32Zm-40-12.11a5.41,5.41,0,0,1-7.65-7.65l17.2-17.19a5.41,5.41,0,1,1,7.65,7.65l-17.2,17.19Zm-19.75-36.85a5.41,5.41,0,1,1,0-10.82H475a5.41,5.41,0,0,1,0,10.82Zm12.1-40a5.41,5.41,0,1,1,7.65-7.64l17.2,17.19a5.41,5.41,0,1,1-7.65,7.66l-17.2-17.21Zm36.85-19.75a5.41,5.41,0,0,1,10.82,0v24.32a5.41,5.41,0,1,1-10.82,0v-24.32Z"/><path class="cls-5" d="M1670.44,204.27a5.11,5.11,0,1,1,7.23,7.23l-16.26,16.26a5.11,5.11,0,0,1-7.23-7.23l16.26-16.26Zm18.67,34.85a5.11,5.11,0,1,1,0,10.22h-23a5.11,5.11,0,1,1,0-10.22ZM1677.67,277a5.11,5.11,0,0,1-7.23,7.22l-16.26-16.25a5.11,5.11,0,0,1,7.23-7.23L1677.67,277Zm-34.84,18.67a5.12,5.12,0,0,1-10.23,0v-23a5.12,5.12,0,0,1,10.23,0v23ZM1605,284.18a5.11,5.11,0,1,1-7.24-7.22L1614,260.7a5.11,5.11,0,0,1,7.23,7.23L1605,284.18Zm-18.67-34.84a5.11,5.11,0,1,1,0-10.22h23a5.11,5.11,0,1,1,0,10.22Zm11.43-37.84a5.12,5.12,0,1,1,7.24-7.23l16.26,16.26a5.11,5.11,0,0,1-7.23,7.23l-16.27-16.26Zm34.85-18.66a5.12,5.12,0,1,1,10.23,0v23a5.12,5.12,0,0,1-10.23,0v-23Z"/><path class="cls-29" d="M738.17,269.13h12.49a5.47,5.47,0,0,0,5.46-5.46V251.18a5.47,5.47,0,0,0-5.46-5.45H738.17a5.46,5.46,0,0,0-5.46,5.45v12.49a5.47,5.47,0,0,0,5.46,5.46Z"/><path class="cls-5" d="M781.47,269.13H794a5.48,5.48,0,0,0,5.47-5.46V251.18a5.47,5.47,0,0,0-5.47-5.45H781.47a5.46,5.46,0,0,0-5.45,5.45v12.49a5.46,5.46,0,0,0,5.45,5.46Z"/><path class="cls-29" d="M824.78,269.13h12.49a5.48,5.48,0,0,0,5.47-5.46V251.18a5.47,5.47,0,0,0-5.47-5.45H824.78a5.46,5.46,0,0,0-5.45,5.45v12.49a5.46,5.46,0,0,0,5.45,5.46Z"/><path class="cls-5" d="M868.09,269.13h12.49a5.47,5.47,0,0,0,5.46-5.46V251.18a5.47,5.47,0,0,0-5.46-5.45H868.09a5.47,5.47,0,0,0-5.46,5.45v12.49a5.47,5.47,0,0,0,5.46,5.46Z"/><path class="cls-29" d="M911.4,269.13h12.49a5.47,5.47,0,0,0,5.46-5.46V251.18a5.47,5.47,0,0,0-5.46-5.45H911.4a5.47,5.47,0,0,0-5.46,5.45v12.49a5.47,5.47,0,0,0,5.46,5.46Z"/><path class="cls-5" d="M826.35,221.92h12.5a5.47,5.47,0,0,0,5.45-5.46V204a5.46,5.46,0,0,0-5.45-5.46h-12.5a5.47,5.47,0,0,0-5.46,5.46v12.49a5.48,5.48,0,0,0,5.46,5.46Z"/><path class="cls-29" d="M869.66,221.92h12.49a5.48,5.48,0,0,0,5.46-5.46V204a5.47,5.47,0,0,0-5.46-5.46H869.66A5.47,5.47,0,0,0,864.2,204v12.49a5.48,5.48,0,0,0,5.46,5.46Z"/><path class="cls-5" d="M913,221.92h12.49a5.47,5.47,0,0,0,5.45-5.46V204a5.46,5.46,0,0,0-5.45-5.46H913A5.48,5.48,0,0,0,907.5,204v12.49a5.48,5.48,0,0,0,5.47,5.46Z"/><path class="cls-29" d="M1800.38,1298.8h12.48a5.48,5.48,0,0,0,5.46-5.46v-12.49a5.47,5.47,0,0,0-5.46-5.46h-12.48a5.47,5.47,0,0,0-5.46,5.46v12.49a5.48,5.48,0,0,0,5.46,5.46Z"/><path class="cls-5" d="M1843.69,1298.8h12.48a5.49,5.49,0,0,0,5.47-5.46v-12.49a5.48,5.48,0,0,0-5.47-5.46h-12.48a5.48,5.48,0,0,0-5.47,5.46v12.49a5.49,5.49,0,0,0,5.47,5.46Z"/><path class="cls-29" d="M1887,1298.8h12.48a5.49,5.49,0,0,0,5.47-5.46v-12.49a5.48,5.48,0,0,0-5.47-5.46H1887a5.47,5.47,0,0,0-5.46,5.46v12.49a5.47,5.47,0,0,0,5.46,5.46Z"/><path class="cls-5" d="M1930.3,1298.8h12.49a5.49,5.49,0,0,0,5.46-5.46v-12.49a5.48,5.48,0,0,0-5.46-5.46H1930.3a5.48,5.48,0,0,0-5.46,5.46v12.49a5.49,5.49,0,0,0,5.46,5.46Z"/><path class="cls-29" d="M1973.61,1298.8h12.49a5.49,5.49,0,0,0,5.46-5.46v-12.49a5.48,5.48,0,0,0-5.46-5.46h-12.49a5.47,5.47,0,0,0-5.46,5.46v12.49a5.48,5.48,0,0,0,5.46,5.46Z"/><path class="cls-5" d="M1888.56,1251.59h12.49a5.48,5.48,0,0,0,5.46-5.47v-12.49a5.47,5.47,0,0,0-5.46-5.46h-12.49a5.48,5.48,0,0,0-5.46,5.46v12.49a5.49,5.49,0,0,0,5.46,5.47Z"/><path class="cls-29" d="M1931.87,1251.59h12.48a5.48,5.48,0,0,0,5.47-5.47v-12.49a5.48,5.48,0,0,0-5.47-5.46h-12.48a5.47,5.47,0,0,0-5.46,5.46v12.49a5.48,5.48,0,0,0,5.46,5.47Z"/><path class="cls-5" d="M1975.18,1251.59h12.49a5.47,5.47,0,0,0,5.45-5.47v-12.49a5.46,5.46,0,0,0-5.45-5.46h-12.49a5.47,5.47,0,0,0-5.46,5.46v12.49a5.48,5.48,0,0,0,5.46,5.47Z"/><path class="cls-5" d="M211.36,397.64a9.35,9.35,0,1,0-9.35-9.35,9.37,9.37,0,0,0,9.35,9.35Z"/><path class="cls-5" d="M655.74,841.29a9.35,9.35,0,1,0-9.35-9.35,9.37,9.37,0,0,0,9.35,9.35Z"/><path class="cls-5" d="M1942.79,841.07a9.35,9.35,0,1,0-9.35-9.35,9.36,9.36,0,0,0,9.35,9.35Z"/><path class="cls-5" d="M1724.19,1393.3a9.35,9.35,0,1,0-9.35-9.34,9.36,9.36,0,0,0,9.35,9.34Z"/><path class="cls-5" d="M295,1298.86a9.35,9.35,0,1,0-9.35-9.34,9.36,9.36,0,0,0,9.35,9.34Z"/><path class="cls-5" d="M674.63,1488.71a9.35,9.35,0,1,0-9.35-9.36,9.37,9.37,0,0,0,9.35,9.36Z"/><path class="cls-5" d="M2178.63,1663.66a9.34,9.34,0,1,0-9.35-9.34,9.35,9.35,0,0,0,9.35,9.34Z"/></g></g></g></svg>