<svg width="165" height="50" viewBox="0 0 165 50" fill="none" xmlns="http://www.w3.org/2000/svg">
<path d="M17.1993 16C19.5016 16 21.6685 16.5452 23.6999 17.3631C24.7833 17.772 25.1896 18.9987 24.9187 19.9529C24.5125 21.0433 23.429 21.5886 22.3456 21.1796C21.2622 20.907 20.0433 20.4981 18.8245 20.2255C17.7411 20.0892 16.7931 20.0892 15.7096 20.0892C14.2199 20.2255 12.7302 20.6344 11.2405 21.4523C7.71939 23.3606 5.41712 26.223 4.46912 30.0396C3.65655 33.9925 4.46912 37.5364 6.63597 40.8078C8.66739 43.5339 11.3759 45.3059 14.6262 45.8511C16.1159 46.1237 16.6576 47.2142 16.3868 48.3047C16.1159 49.5314 15.1679 50.2129 13.8136 49.9403C11.5114 49.5314 9.34453 48.5773 7.44854 47.3505C3.65655 44.6244 1.21885 41.0804 0.406284 36.446C0.135428 35.3555 0 34.2651 0 33.0383C0.135428 29.0854 1.35428 25.4052 3.92741 22.2701C5.41712 20.3618 7.31311 18.8624 9.47996 17.772C11.2405 16.9541 13.0011 16.2726 15.0325 16.1363C15.7096 16.1363 16.3868 16 17.1993 16Z" fill="#24A858"/>
<path d="M28 25.0288C28 17.4577 28 9.75134 28 2.18023C28 0.963448 28.75 0.152258 29.75 0.0170596C30.75 -0.118139 31.625 0.557853 31.875 1.77464C31.875 2.18023 32 2.58583 32 2.99142C32 17.728 32 32.5999 32 47.3365C32 48.8237 31.5 49.4997 30.5 49.9053C29.25 50.3109 28 49.3645 28 48.0125C28 40.4414 28 32.7351 28 25.0288Z" fill="#24A858"/>
<path d="M25 33C25 33.281 25 33.562 25 33.7025C25 38.3388 25 42.9752 25 47.6116C25 49.0165 24 50 22.7143 50C21.4286 50 20.4286 49.0165 20.4286 47.6116C20.4286 44.5207 20.4286 41.2893 20.4286 38.1983C20.4286 37.9174 20.4286 37.6364 20.4286 37.4959C19.4286 37.3554 18.5714 37.3554 17.7143 37.3554C16.7143 37.2149 16 36.3719 16 35.2479C16 34.124 16.7143 33.1405 17.7143 33.1405C20.2857 33 22.5714 33 25 33Z" fill="#24A858"/>
<path d="M53.1853 12.806C55.4884 12.806 57.501 13.2548 59.2231 14.1523C60.9452 15.0498 62.2731 16.3146 63.2068 17.9465C64.1612 19.558 64.6384 21.4244 64.6384 23.5459C64.6384 25.647 64.1612 27.5134 63.2068 29.1453C62.2731 30.7772 60.9348 32.042 59.192 32.9395C57.4698 33.837 55.4676 34.2858 53.1853 34.2858H45V12.806H53.1853ZM52.8429 29.7573C54.8555 29.7573 56.422 29.2167 57.5425 28.1356C58.6629 27.0545 59.2231 25.5246 59.2231 23.5459C59.2231 21.5672 58.6629 20.0271 57.5425 18.9256C56.422 17.8241 54.8555 17.2733 52.8429 17.2733H50.322V29.7573H52.8429Z" fill="#24A858"/>
<path d="M72.9346 12.806V34.2858H67.6126V12.806H72.9346Z" fill="#24A858"/>
<path d="M91.2946 19.5987C90.9003 18.8848 90.3298 18.3442 89.5828 17.9771C88.8566 17.5895 87.9956 17.3957 86.9996 17.3957C85.2775 17.3957 83.8977 17.9567 82.8603 19.0786C81.8229 20.1801 81.3042 21.659 81.3042 23.5153C81.3042 25.494 81.8436 27.0443 82.9226 28.1662C84.0222 29.2677 85.5265 29.8185 87.4354 29.8185C88.7425 29.8185 89.8422 29.4921 90.7344 28.8394C91.6473 28.1866 92.3112 27.2483 92.7262 26.0243H85.9726V22.169H97.5502V27.0341C97.156 28.3396 96.4817 29.5533 95.5273 30.6752C94.5936 31.7972 93.4005 32.7049 91.9481 33.3985C90.4958 34.092 88.8566 34.4388 87.0308 34.4388C84.8729 34.4388 82.9433 33.9798 81.2419 33.0619C79.5613 32.1236 78.2438 30.8282 77.2893 29.1759C76.3557 27.5236 75.8888 25.6368 75.8888 23.5153C75.8888 21.3938 76.3557 19.507 77.2893 17.8547C78.2438 16.182 79.5613 14.8866 81.2419 13.9687C82.9226 13.0304 84.8418 12.5612 86.9996 12.5612C89.6139 12.5612 91.8133 13.1834 93.5977 14.4277C95.4028 15.672 96.5958 17.3957 97.1768 19.5987H91.2946Z" fill="#24A858"/>
<path d="M105.82 12.806V34.2858H100.498V12.806H105.82Z" fill="#24A858"/>
<path d="M117.862 12.806C120.165 12.806 122.178 13.2548 123.9 14.1523C125.622 15.0498 126.95 16.3146 127.884 17.9465C128.838 19.558 129.315 21.4244 129.315 23.5459C129.315 25.647 128.838 27.5134 127.884 29.1453C126.95 30.7772 125.612 32.042 123.869 32.9395C122.147 33.837 120.145 34.2858 117.862 34.2858H109.677V12.806H117.862ZM117.52 29.7573C119.532 29.7573 121.099 29.2167 122.219 28.1356C123.34 27.0545 123.9 25.5246 123.9 23.5459C123.9 21.5672 123.34 20.0271 122.219 18.9256C121.099 17.8241 119.532 17.2733 117.52 17.2733H114.999V29.7573H117.52Z" fill="#24A858"/>
<path d="M137.612 16.9979V21.3428H144.739V25.3818H137.612V30.0939H145.672V34.2858H132.29V12.806H145.672V16.9979H137.612Z" fill="#24A858"/>
<path d="M157.033 34.5C155.435 34.5 154.003 34.245 152.738 33.735C151.472 33.2251 150.455 32.4703 149.688 31.4708C148.941 30.4713 148.546 29.2677 148.505 27.8602H154.169C154.252 28.6558 154.532 29.2677 155.01 29.6961C155.487 30.1041 156.109 30.3081 156.877 30.3081C157.665 30.3081 158.288 30.1347 158.744 29.7879C159.201 29.4207 159.429 28.921 159.429 28.2886C159.429 27.7582 159.242 27.3197 158.869 26.9729C158.516 26.6261 158.07 26.3405 157.531 26.1161C157.012 25.8917 156.265 25.6368 155.29 25.3512C153.879 24.9228 152.727 24.4944 151.835 24.0661C150.943 23.6377 150.175 23.0053 149.532 22.169C148.889 21.3326 148.567 20.2413 148.567 18.895C148.567 16.8959 149.304 15.3354 150.777 14.2135C152.25 13.0712 154.169 12.5 156.535 12.5C158.941 12.5 160.881 13.0712 162.355 14.2135C163.828 15.3354 164.616 16.9061 164.72 18.9256H158.962C158.921 18.232 158.661 17.6915 158.184 17.3039C157.707 16.8959 157.095 16.6919 156.348 16.6919C155.705 16.6919 155.186 16.8653 154.792 17.2121C154.398 17.5385 154.2 18.0178 154.2 18.6502C154.2 19.3438 154.532 19.8843 155.196 20.2719C155.86 20.6595 156.898 21.0777 158.309 21.5264C159.72 21.9956 160.861 22.4444 161.732 22.8727C162.624 23.3011 163.392 23.9233 164.035 24.7392C164.678 25.5552 165 26.6057 165 27.8908C165 29.1147 164.678 30.2265 164.035 31.226C163.413 32.2255 162.5 33.0211 161.296 33.6127C160.093 34.2042 158.672 34.5 157.033 34.5Z" fill="#24A858"/>
<path d="M49.9231 38.3281V39.474H48.2367V44.1998H46.6864V39.474H45V38.3281H49.9231Z" fill="#24A858"/>
<path d="M52.2515 40.3104C52.4329 40.0539 52.6595 39.8532 52.9315 39.7082C53.2035 39.5576 53.5057 39.4823 53.8382 39.4823V40.9963H53.4121C53.0252 40.9963 52.7351 41.0743 52.5417 41.2305C52.3483 41.381 52.2515 41.6487 52.2515 42.0335V44.1998H50.7012V39.5325H52.2515V40.3104Z" fill="#24A858"/>
<path d="M54.271 41.8578C54.271 41.3783 54.3677 40.9572 54.5611 40.5948C54.7606 40.2323 55.0295 39.9535 55.368 39.7584C55.7065 39.5632 56.0843 39.4656 56.5013 39.4656C56.8579 39.4656 57.1692 39.5325 57.4352 39.6664C57.7072 39.8002 57.9157 39.9758 58.0608 40.1933V39.5325H59.6111V44.1998H58.0608V43.539C57.9096 43.7565 57.6981 43.9322 57.4261 44.066C57.1601 44.1998 56.8489 44.2667 56.4923 44.2667C56.0812 44.2667 55.7065 44.1691 55.368 43.974C55.0295 43.7732 54.7606 43.4916 54.5611 43.1292C54.3677 42.7612 54.271 42.3374 54.271 41.8578ZM58.0608 41.8662C58.0608 41.5093 57.952 41.2277 57.7344 41.0214C57.5228 40.8151 57.2629 40.7119 56.9546 40.7119C56.6464 40.7119 56.3835 40.8151 56.1659 41.0214C55.9543 41.2221 55.8485 41.5009 55.8485 41.8578C55.8485 42.2147 55.9543 42.4991 56.1659 42.711C56.3835 42.9173 56.6464 43.0204 56.9546 43.0204C57.2629 43.0204 57.5228 42.9173 57.7344 42.711C57.952 42.5046 58.0608 42.223 58.0608 41.8662Z" fill="#24A858"/>
<path d="M63.8153 39.4823C64.4077 39.4823 64.8791 39.6608 65.2297 40.0177C65.5863 40.369 65.7646 40.8541 65.7646 41.473V44.1998H64.2233V41.6654C64.2233 41.3532 64.1357 41.1106 63.9604 40.9377C63.7851 40.7649 63.5494 40.6784 63.2532 40.6784C62.957 40.6784 62.7213 40.7649 62.546 40.9377C62.3707 41.1106 62.2831 41.3532 62.2831 41.6654V44.1998H60.7327V39.5325H62.2831V40.1515C62.4403 39.9452 62.6518 39.7835 62.9178 39.6664C63.1837 39.5437 63.4829 39.4823 63.8153 39.4823Z" fill="#24A858"/>
<path d="M68.9001 44.2667C68.4588 44.2667 68.066 44.197 67.7214 44.0576C67.3769 43.9182 67.1049 43.7286 66.9054 43.4888C66.706 43.2435 66.5942 42.9703 66.57 42.6691H68.1022C68.1204 42.8309 68.202 42.9619 68.347 43.0623C68.4921 43.1626 68.6704 43.2128 68.8819 43.2128C69.0754 43.2128 69.2234 43.1794 69.3262 43.1125C69.435 43.04 69.4894 42.948 69.4894 42.8364C69.4894 42.7026 69.4138 42.605 69.2627 42.5437C69.1116 42.4768 68.8668 42.4043 68.5283 42.3262C68.1657 42.2481 67.8635 42.1673 67.6217 42.0836C67.3799 41.9944 67.1714 41.8578 66.9961 41.6738C66.8208 41.4842 66.7332 41.2305 66.7332 40.9126C66.7332 40.645 66.8118 40.4024 66.9689 40.1849C67.1321 39.9619 67.3678 39.7862 67.6761 39.658C67.9904 39.5297 68.3621 39.4656 68.7913 39.4656C69.4259 39.4656 69.9246 39.6106 70.2872 39.9006C70.6559 40.1905 70.8675 40.5753 70.9219 41.0548H69.4894C69.4652 40.8931 69.3866 40.7649 69.2537 40.6701C69.1267 40.5753 68.9575 40.5279 68.7459 40.5279C68.5646 40.5279 68.4256 40.5613 68.3289 40.6283C68.2322 40.6896 68.1838 40.776 68.1838 40.8875C68.1838 41.0214 68.2594 41.1217 68.4105 41.1887C68.5676 41.2556 68.8094 41.3225 69.1358 41.3894C69.5105 41.4786 69.8158 41.5678 70.0515 41.6571C70.2872 41.7407 70.4927 41.8801 70.668 42.0753C70.8494 42.2649 70.9431 42.5214 70.9491 42.8448C70.9491 43.118 70.8645 43.3634 70.6952 43.5809C70.532 43.7928 70.2933 43.96 69.979 44.0827C69.6707 44.2054 69.3111 44.2667 68.9001 44.2667Z" fill="#24A858"/>
<path d="M74.4362 40.7203H73.6021V44.1998H72.0517V40.7203H71.4896V39.5325H72.0517V39.3987C72.0517 38.8243 72.23 38.3894 72.5867 38.0939C72.9433 37.7928 73.4661 37.6422 74.1552 37.6422C74.27 37.6422 74.3546 37.645 74.409 37.6506V38.8634C74.1128 38.8467 73.9043 38.8857 73.7834 38.9805C73.6625 39.0753 73.6021 39.2454 73.6021 39.4907V39.5325H74.4362V40.7203Z" fill="#24A858"/>
<path d="M77.4676 44.2667C76.972 44.2667 76.5247 44.1691 76.1258 43.974C75.7329 43.7788 75.4216 43.5 75.1919 43.1375C74.9683 42.7751 74.8565 42.3513 74.8565 41.8662C74.8565 41.3866 74.9713 40.9656 75.201 40.6032C75.4307 40.2351 75.745 39.9535 76.1439 39.7584C76.5428 39.5632 76.9901 39.4656 77.4857 39.4656C77.9814 39.4656 78.4287 39.5632 78.8276 39.7584C79.2265 39.9535 79.5408 40.2351 79.7705 40.6032C80.0002 40.9656 80.115 41.3866 80.115 41.8662C80.115 42.3457 79.9972 42.7695 79.7614 43.1375C79.5317 43.5 79.2144 43.7788 78.8094 43.974C78.4105 44.1691 77.9632 44.2667 77.4676 44.2667ZM77.4676 43.0288C77.7638 43.0288 78.0146 42.9284 78.2201 42.7277C78.4317 42.527 78.5374 42.2398 78.5374 41.8662C78.5374 41.4926 78.4347 41.2054 78.2292 41.0046C78.0297 40.8039 77.7819 40.7035 77.4857 40.7035C77.1835 40.7035 76.9327 40.8039 76.7332 41.0046C76.5338 41.1998 76.434 41.487 76.434 41.8662C76.434 42.2398 76.5307 42.527 76.7242 42.7277C76.9236 42.9284 77.1714 43.0288 77.4676 43.0288Z" fill="#24A858"/>
<path d="M82.4879 40.3104C82.6692 40.0539 82.8959 39.8532 83.1679 39.7082C83.4399 39.5576 83.7421 39.4823 84.0745 39.4823V40.9963H83.6484C83.2616 40.9963 82.9714 41.0743 82.778 41.2305C82.5846 41.381 82.4879 41.6487 82.4879 42.0335V44.1998H80.9375V39.5325H82.4879V40.3104Z" fill="#24A858"/>
<path d="M91.2709 39.4823C91.8995 39.4823 92.3982 39.658 92.7669 40.0093C93.1416 40.3606 93.329 40.8485 93.329 41.473V44.1998H91.7877V41.6654C91.7877 41.3643 91.7 41.1329 91.5247 40.9712C91.3555 40.8039 91.1198 40.7203 90.8176 40.7203C90.5153 40.7203 90.2766 40.8039 90.1013 40.9712C89.9321 41.1329 89.8475 41.3643 89.8475 41.6654V44.1998H88.3061V41.6654C88.3061 41.3643 88.2185 41.1329 88.0432 40.9712C87.874 40.8039 87.6383 40.7203 87.336 40.7203C87.0338 40.7203 86.7951 40.8039 86.6198 40.9712C86.4505 41.1329 86.3659 41.3643 86.3659 41.6654V44.1998H84.8156V39.5325H86.3659V40.118C86.5231 39.9229 86.7286 39.7695 86.9824 39.658C87.2363 39.5409 87.5234 39.4823 87.8438 39.4823C88.2245 39.4823 88.563 39.5576 88.8592 39.7082C89.1614 39.8587 89.3971 40.0734 89.5664 40.3522C89.7417 40.0957 89.9804 39.8866 90.2826 39.7249C90.5849 39.5632 90.9143 39.4823 91.2709 39.4823Z" fill="#24A858"/>
<path d="M94.105 41.8578C94.105 41.3783 94.2017 40.9572 94.3951 40.5948C94.5946 40.2323 94.8636 39.9535 95.202 39.7584C95.5405 39.5632 95.9183 39.4656 96.3354 39.4656C96.692 39.4656 97.0033 39.5325 97.2692 39.6664C97.5412 39.8002 97.7497 39.9758 97.8948 40.1933V39.5325H99.4452V44.1998H97.8948V43.539C97.7437 43.7565 97.5321 43.9322 97.2601 44.066C96.9942 44.1998 96.6829 44.2667 96.3263 44.2667C95.9153 44.2667 95.5405 44.1691 95.202 43.974C94.8636 43.7732 94.5946 43.4916 94.3951 43.1292C94.2017 42.7612 94.105 42.3374 94.105 41.8578ZM97.8948 41.8662C97.8948 41.5093 97.786 41.2277 97.5684 41.0214C97.3568 40.8151 97.0969 40.7119 96.7887 40.7119C96.4804 40.7119 96.2175 40.8151 95.9999 41.0214C95.7883 41.2221 95.6826 41.5009 95.6826 41.8578C95.6826 42.2147 95.7883 42.4991 95.9999 42.711C96.2175 42.9173 96.4804 43.0204 96.7887 43.0204C97.0969 43.0204 97.3568 42.9173 97.5684 42.711C97.786 42.5046 97.8948 42.223 97.8948 41.8662Z" fill="#24A858"/>
<path d="M102.625 44.2667C102.184 44.2667 101.791 44.197 101.446 44.0576C101.102 43.9182 100.83 43.7286 100.63 43.4888C100.431 43.2435 100.319 42.9703 100.295 42.6691H101.827C101.845 42.8309 101.927 42.9619 102.072 43.0623C102.217 43.1626 102.395 43.2128 102.607 43.2128C102.8 43.2128 102.948 43.1794 103.051 43.1125C103.16 43.04 103.214 42.948 103.214 42.8364C103.214 42.7026 103.139 42.605 102.988 42.5437C102.836 42.4768 102.592 42.4043 102.253 42.3262C101.89 42.2481 101.588 42.1673 101.347 42.0836C101.105 41.9944 100.896 41.8578 100.721 41.6738C100.546 41.4842 100.458 41.2305 100.458 40.9126C100.458 40.645 100.537 40.4024 100.694 40.1849C100.857 39.9619 101.093 39.7862 101.401 39.658C101.715 39.5297 102.087 39.4656 102.516 39.4656C103.151 39.4656 103.649 39.6106 104.012 39.9006C104.381 40.1905 104.592 40.5753 104.647 41.0548H103.214C103.19 40.8931 103.111 40.7649 102.978 40.6701C102.852 40.5753 102.682 40.5279 102.471 40.5279C102.289 40.5279 102.15 40.5613 102.054 40.6283C101.957 40.6896 101.909 40.776 101.909 40.8875C101.909 41.0214 101.984 41.1217 102.135 41.1887C102.292 41.2556 102.534 41.3225 102.861 41.3894C103.235 41.4786 103.541 41.5678 103.776 41.6571C104.012 41.7407 104.218 41.8801 104.393 42.0753C104.574 42.2649 104.668 42.5214 104.674 42.8448C104.674 43.118 104.589 43.3634 104.42 43.5809C104.257 43.7928 104.018 43.96 103.704 44.0827C103.396 44.2054 103.036 44.2667 102.625 44.2667Z" fill="#24A858"/>
<path d="M106.402 39.0474C106.13 39.0474 105.906 38.9749 105.731 38.8299C105.562 38.6794 105.477 38.4954 105.477 38.2779C105.477 38.0548 105.562 37.8708 105.731 37.7258C105.906 37.5753 106.13 37.5 106.402 37.5C106.668 37.5 106.886 37.5753 107.055 37.7258C107.23 37.8708 107.318 38.0548 107.318 38.2779C107.318 38.4954 107.23 38.6794 107.055 38.8299C106.886 38.9749 106.668 39.0474 106.402 39.0474ZM107.173 39.5325V44.1998H105.622V39.5325H107.173Z" fill="#24A858"/>
<path d="M112.602 38.3281C113.273 38.3281 113.859 38.4507 114.361 38.6961C114.863 38.9414 115.25 39.2872 115.522 39.7333C115.8 40.1738 115.939 40.684 115.939 41.2639C115.939 41.8383 115.8 42.3485 115.522 42.7946C115.25 43.2407 114.86 43.5864 114.352 43.8318C113.85 44.0771 113.267 44.1998 112.602 44.1998H110.218V38.3281H112.602ZM112.502 42.9619C113.089 42.9619 113.545 42.8141 113.871 42.5186C114.198 42.223 114.361 41.8048 114.361 41.2639C114.361 40.723 114.198 40.302 113.871 40.0009C113.545 39.6998 113.089 39.5493 112.502 39.5493H111.768V42.9619H112.502Z" fill="#24A858"/>
<path d="M117.585 39.0474C117.313 39.0474 117.089 38.9749 116.914 38.8299C116.745 38.6794 116.66 38.4954 116.66 38.2779C116.66 38.0548 116.745 37.8708 116.914 37.7258C117.089 37.5753 117.313 37.5 117.585 37.5C117.851 37.5 118.068 37.5753 118.237 37.7258C118.413 37.8708 118.5 38.0548 118.5 38.2779C118.5 38.4954 118.413 38.6794 118.237 38.8299C118.068 38.9749 117.851 39.0474 117.585 39.0474ZM118.355 39.5325V44.1998H116.805V39.5325H118.355Z" fill="#24A858"/>
<path d="M121.401 39.4656C121.758 39.4656 122.069 39.5325 122.335 39.6664C122.607 39.8002 122.815 39.9758 122.96 40.1933V39.5325H124.511V44.1915C124.511 44.6208 124.417 45.0084 124.23 45.3541C124.048 45.7054 123.767 45.9842 123.387 46.1905C123.012 46.3968 122.543 46.5 121.981 46.5C121.232 46.5 120.624 46.3355 120.159 46.0065C119.693 45.6831 119.427 45.2426 119.361 44.6849H120.893C120.942 44.8634 121.056 45.0028 121.238 45.1032C121.419 45.2091 121.643 45.2621 121.909 45.2621C122.229 45.2621 122.483 45.1757 122.67 45.0028C122.864 44.8355 122.96 44.5651 122.96 44.1915V43.5307C122.809 43.7481 122.601 43.9266 122.335 44.066C122.069 44.1998 121.758 44.2667 121.401 44.2667C120.984 44.2667 120.606 44.1691 120.268 43.974C119.929 43.7732 119.66 43.4916 119.461 43.1292C119.267 42.7612 119.171 42.3374 119.171 41.8578C119.171 41.3783 119.267 40.9572 119.461 40.5948C119.66 40.2323 119.929 39.9535 120.268 39.7584C120.606 39.5632 120.984 39.4656 121.401 39.4656ZM122.96 41.8662C122.96 41.5093 122.852 41.2277 122.634 41.0214C122.422 40.8151 122.163 40.7119 121.854 40.7119C121.546 40.7119 121.283 40.8151 121.066 41.0214C120.854 41.2221 120.748 41.5009 120.748 41.8578C120.748 42.2147 120.854 42.4991 121.066 42.711C121.283 42.9173 121.546 43.0204 121.854 43.0204C122.163 43.0204 122.422 42.9173 122.634 42.711C122.852 42.5046 122.96 42.223 122.96 41.8662Z" fill="#24A858"/>
<path d="M126.412 39.0474C126.14 39.0474 125.916 38.9749 125.741 38.8299C125.572 38.6794 125.487 38.4954 125.487 38.2779C125.487 38.0548 125.572 37.8708 125.741 37.7258C125.916 37.5753 126.14 37.5 126.412 37.5C126.678 37.5 126.896 37.5753 127.065 37.7258C127.24 37.8708 127.328 38.0548 127.328 38.2779C127.328 38.4954 127.24 38.6794 127.065 38.8299C126.896 38.9749 126.678 39.0474 126.412 39.0474ZM127.183 39.5325V44.1998H125.632V39.5325H127.183Z" fill="#24A858"/>
<path d="M131.126 42.987V44.1998H130.337C129.775 44.1998 129.337 44.0743 129.023 43.8234C128.708 43.5669 128.551 43.1515 128.551 42.5771V40.7203H127.935V39.5325H128.551V38.395H130.101V39.5325H131.117V40.7203H130.101V42.5939C130.101 42.7333 130.138 42.8336 130.21 42.895C130.283 42.9563 130.404 42.987 130.573 42.987H131.126Z" fill="#24A858"/>
<path d="M131.681 41.8578C131.681 41.3783 131.778 40.9572 131.971 40.5948C132.171 40.2323 132.44 39.9535 132.778 39.7584C133.117 39.5632 133.495 39.4656 133.912 39.4656C134.268 39.4656 134.58 39.5325 134.845 39.6664C135.117 39.8002 135.326 39.9758 135.471 40.1933V39.5325H137.021V44.1998H135.471V43.539C135.32 43.7565 135.108 43.9322 134.836 44.066C134.57 44.1998 134.259 44.2667 133.903 44.2667C133.492 44.2667 133.117 44.1691 132.778 43.974C132.44 43.7732 132.171 43.4916 131.971 43.1292C131.778 42.7612 131.681 42.3374 131.681 41.8578ZM135.471 41.8662C135.471 41.5093 135.362 41.2277 135.145 41.0214C134.933 40.8151 134.673 40.7119 134.365 40.7119C134.057 40.7119 133.794 40.8151 133.576 41.0214C133.365 41.2221 133.259 41.5009 133.259 41.8578C133.259 42.2147 133.365 42.4991 133.576 42.711C133.794 42.9173 134.057 43.0204 134.365 43.0204C134.673 43.0204 134.933 42.9173 135.145 42.711C135.362 42.5046 135.471 42.223 135.471 41.8662Z" fill="#24A858"/>
<path d="M139.693 38.0102V44.1998H138.143V38.0102H139.693Z" fill="#24A858"/>
<path d="M145.123 38.3281C145.794 38.3281 146.38 38.4507 146.882 38.6961C147.383 38.9414 147.77 39.2872 148.042 39.7333C148.32 40.1738 148.459 40.684 148.459 41.2639C148.459 41.8383 148.32 42.3485 148.042 42.7946C147.77 43.2407 147.38 43.5864 146.873 43.8318C146.371 44.0771 145.788 44.1998 145.123 44.1998H142.738V38.3281H145.123ZM145.023 42.9619C145.609 42.9619 146.066 42.8141 146.392 42.5186C146.718 42.223 146.882 41.8048 146.882 41.2639C146.882 40.723 146.718 40.302 146.392 40.0009C146.066 39.6998 145.609 39.5493 145.023 39.5493H144.289V42.9619H145.023Z" fill="#24A858"/>
<path d="M154.095 41.7909C154.095 41.9247 154.086 42.0641 154.067 42.2091H150.559C150.583 42.4991 150.683 42.7221 150.858 42.8783C151.039 43.0288 151.26 43.1041 151.52 43.1041C151.907 43.1041 152.176 42.9535 152.327 42.6524H153.977C153.892 42.9591 153.738 43.2351 153.514 43.4805C153.297 43.7258 153.022 43.9182 152.689 44.0576C152.357 44.197 151.985 44.2667 151.574 44.2667C151.078 44.2667 150.637 44.1691 150.25 43.974C149.864 43.7788 149.561 43.5 149.344 43.1375C149.126 42.7751 149.017 42.3513 149.017 41.8662C149.017 41.381 149.123 40.9572 149.335 40.5948C149.552 40.2323 149.855 39.9535 150.241 39.7584C150.628 39.5632 151.072 39.4656 151.574 39.4656C152.064 39.4656 152.499 39.5604 152.88 39.75C153.26 39.9396 153.557 40.21 153.768 40.5613C153.986 40.9126 154.095 41.3225 154.095 41.7909ZM152.508 41.4145C152.508 41.1691 152.417 40.974 152.236 40.829C152.055 40.684 151.828 40.6115 151.556 40.6115C151.296 40.6115 151.075 40.6812 150.894 40.8206C150.719 40.96 150.61 41.158 150.568 41.4145H152.508Z" fill="#24A858"/>
<path d="M156.971 44.2667C156.529 44.2667 156.136 44.197 155.792 44.0576C155.447 43.9182 155.175 43.7286 154.976 43.4888C154.776 43.2435 154.665 42.9703 154.64 42.6691H156.173C156.191 42.8309 156.272 42.9619 156.418 43.0623C156.563 43.1626 156.741 43.2128 156.952 43.2128C157.146 43.2128 157.294 43.1794 157.397 43.1125C157.506 43.04 157.56 42.948 157.56 42.8364C157.56 42.7026 157.484 42.605 157.333 42.5437C157.182 42.4768 156.937 42.4043 156.599 42.3262C156.236 42.2481 155.934 42.1673 155.692 42.0836C155.45 41.9944 155.242 41.8578 155.067 41.6738C154.891 41.4842 154.804 41.2305 154.804 40.9126C154.804 40.645 154.882 40.4024 155.039 40.1849C155.203 39.9619 155.438 39.7862 155.747 39.658C156.061 39.5297 156.433 39.4656 156.862 39.4656C157.496 39.4656 157.995 39.6106 158.358 39.9006C158.726 40.1905 158.938 40.5753 158.992 41.0548H157.56C157.536 40.8931 157.457 40.7649 157.324 40.6701C157.197 40.5753 157.028 40.5279 156.816 40.5279C156.635 40.5279 156.496 40.5613 156.399 40.6283C156.303 40.6896 156.254 40.776 156.254 40.8875C156.254 41.0214 156.33 41.1217 156.481 41.1887C156.638 41.2556 156.88 41.3225 157.206 41.3894C157.581 41.4786 157.886 41.5678 158.122 41.6571C158.358 41.7407 158.563 41.8801 158.739 42.0753C158.92 42.2649 159.014 42.5214 159.02 42.8448C159.02 43.118 158.935 43.3634 158.766 43.5809C158.603 43.7928 158.364 43.96 158.049 44.0827C157.741 44.2054 157.382 44.2667 156.971 44.2667Z" fill="#24A858"/>
<path d="M159.66 41.8578C159.66 41.3783 159.757 40.9572 159.95 40.5948C160.149 40.2323 160.418 39.9535 160.757 39.7584C161.095 39.5632 161.473 39.4656 161.89 39.4656C162.247 39.4656 162.558 39.5325 162.824 39.6664C163.096 39.8002 163.305 39.9758 163.45 40.1933V39.5325H165V44.1998H163.45V43.539C163.299 43.7565 163.087 43.9322 162.815 44.066C162.549 44.1998 162.238 44.2667 161.881 44.2667C161.47 44.2667 161.095 44.1691 160.757 43.974C160.418 43.7732 160.149 43.4916 159.95 43.1292C159.757 42.7612 159.66 42.3374 159.66 41.8578ZM163.45 41.8662C163.45 41.5093 163.341 41.2277 163.123 41.0214C162.912 40.8151 162.652 40.7119 162.344 40.7119C162.035 40.7119 161.772 40.8151 161.555 41.0214C161.343 41.2221 161.237 41.5009 161.237 41.8578C161.237 42.2147 161.343 42.4991 161.555 42.711C161.772 42.9173 162.035 43.0204 162.344 43.0204C162.652 43.0204 162.912 42.9173 163.123 42.711C163.341 42.5046 163.45 42.223 163.45 41.8662Z" fill="#24A858"/>
<rect x="-20.5" y="-158.5" width="205" height="228" rx="4.5" stroke="#7B61FF" stroke-dasharray="10 5"/>
</svg>
