<?xml version="1.0" standalone="no"?>
<!DOCTYPE svg PUBLIC "-//W3C//DTD SVG 20010904//EN"
 "http://www.w3.org/TR/2001/REC-SVG-20010904/DTD/svg10.dtd">
<svg version="1.0" xmlns="http://www.w3.org/2000/svg"
 width="512.000000pt" height="512.000000pt" viewBox="0 0 512.000000 512.000000"
 preserveAspectRatio="xMidYMid meet">

<g transform="translate(0.000000,512.000000) scale(0.100000,-0.100000)"
fill="#000000" stroke="none">
<path d="M2380 4954 c-241 -27 -382 -56 -555 -111 -507 -163 -948 -491 -1244
-927 -208 -307 -338 -639 -397 -1018 -25 -158 -25 -518 0 -676 74 -473 259
-879 561 -1230 382 -445 916 -731 1515 -814 123 -17 478 -16 600 1 698 96
1291 459 1679 1026 207 303 338 637 397 1017 25 157 25 518 1 675 -82 521
-313 985 -671 1347 -369 374 -830 607 -1363 691 -93 15 -448 28 -523 19z m34
-1048 c29 -14 74 -44 99 -67 l46 -40 57 47 c71 57 132 84 204 91 196 18 361
-212 306 -427 -36 -138 -147 -299 -351 -509 -71 -73 -143 -140 -159 -148 -19
-10 -45 -13 -72 -10 -53 6 -117 59 -258 216 -237 263 -323 434 -298 590 23
138 106 244 222 282 46 15 147 3 204 -25z m1150 -806 c139 -35 256 -116 328
-227 87 -132 104 -215 83 -396 -19 -162 -19 -321 1 -408 15 -65 18 -71 55 -90
59 -30 117 -86 147 -143 27 -51 27 -53 30 -294 l3 -242 -28 -29 c-23 -23 -53
-34 -158 -59 -155 -38 -384 -78 -515 -91 -127 -12 -303 6 -565 60 -204 41
-268 61 -298 91 l-29 28 4 243 c3 240 3 242 30 292 29 56 72 100 134 138 33
21 42 33 48 64 16 94 18 223 7 389 -15 206 -5 280 50 392 39 80 143 186 226
230 133 70 300 90 447 52z m-1694 -30 c52 -11 121 -25 154 -31 72 -12 106 -29
139 -69 38 -45 47 -90 47 -246 0 -160 -12 -209 -64 -270 -18 -22 -44 -65 -59
-96 -25 -56 -114 -157 -166 -189 l-25 -16 77 -51 c67 -46 92 -56 204 -83 71
-17 144 -39 163 -49 46 -24 102 -84 131 -140 23 -43 24 -55 27 -287 l4 -243
-29 -29 c-23 -23 -52 -34 -158 -59 -151 -37 -379 -77 -515 -91 -132 -13 -333
10 -605 68 -186 40 -229 54 -258 83 l-28 28 3 242 c3 233 4 245 27 288 29 56
85 116 131 140 19 10 92 31 161 48 99 24 141 40 195 74 38 23 72 47 76 52 3 5
-17 26 -45 48 -62 45 -100 93 -136 169 -15 31 -42 74 -59 95 -51 62 -62 109
-62 274 0 137 2 149 26 198 41 82 112 131 228 158 84 19 292 11 416 -16z"/>
<path d="M2205 3811 c-76 -46 -122 -148 -112 -248 13 -122 187 -364 415 -578
l54 -49 131 134 c207 211 324 385 335 498 6 65 -21 153 -60 197 -87 100 -197
86 -327 -42 -35 -35 -70 -63 -79 -63 -8 0 -46 30 -85 66 -38 36 -88 75 -111
85 -53 24 -122 24 -161 0z"/>
<path d="M3344 3010 c-237 -35 -404 -215 -404 -437 0 -36 5 -129 11 -207 8
-102 8 -168 1 -241 -6 -54 -10 -101 -8 -103 12 -11 140 36 198 74 78 50 85 72
34 103 -95 59 -175 194 -184 310 -5 77 -3 80 78 106 71 23 122 49 190 96 92
64 153 80 328 86 175 6 175 6 212 -79 48 -111 46 -233 -5 -346 -25 -55 -124
-167 -156 -177 -12 -4 -19 -16 -19 -30 0 -32 117 -108 196 -129 l56 -15 -6 37
c-18 116 -18 272 -1 391 26 184 8 277 -74 385 -93 124 -285 200 -447 176z"/>
<path d="M3427 2676 c-26 -7 -78 -34 -115 -59 -58 -40 -138 -81 -194 -100 -25
-9 -22 -33 11 -102 117 -244 460 -238 573 10 27 59 32 180 9 233 l-13 32 -112
-1 c-61 0 -132 -6 -159 -13z"/>
<path d="M3309 2112 c-14 -37 -12 -44 48 -126 l56 -79 24 29 c72 90 95 134 89
166 l-6 33 -101 0 c-97 0 -102 -1 -110 -23z"/>
<path d="M3182 1995 l-21 -16 52 -104 c28 -58 54 -105 57 -105 3 0 20 12 38
28 l33 27 -61 85 c-77 107 -72 103 -98 85z"/>
<path d="M3556 1918 l-67 -93 33 -28 c18 -15 36 -26 40 -25 4 2 30 49 57 105
50 102 50 106 14 126 -7 4 -37 -29 -77 -85z"/>
<path d="M2980 1919 c-135 -34 -149 -39 -180 -66 -60 -50 -67 -77 -73 -305
l-7 -206 108 -26 c263 -62 532 -101 640 -93 121 10 511 80 625 113 17 5 17 19
11 212 -7 228 -14 255 -74 305 -32 27 -48 33 -183 66 l-78 19 -58 -116 c-32
-65 -68 -125 -79 -135 -11 -10 -38 -21 -59 -24 -32 -4 -46 1 -88 31 -71 51
-71 51 -113 18 -55 -44 -85 -55 -125 -48 -46 9 -66 33 -131 164 -31 61 -57
112 -59 111 -1 0 -36 -9 -77 -20z"/>
<path d="M1444 2972 c-111 -39 -135 -74 -142 -202 l-4 -85 21 32 c23 37 29 38
225 54 l149 12 22 -27 22 -28 143 26 c78 15 151 24 161 21 10 -3 28 -27 41
-53 l23 -47 3 50 c9 129 -23 205 -85 205 -15 0 -53 7 -83 15 -171 47 -403 59
-496 27z"/>
<path d="M1486 2659 c-43 -5 -81 -11 -85 -14 -3 -4 -6 -50 -6 -103 0 -84 3
-104 25 -146 31 -61 86 -118 142 -148 36 -19 58 -23 138 -23 84 0 101 3 146
27 98 52 163 151 171 262 5 67 -16 153 -36 148 -6 -1 -81 -14 -167 -28 -148
-25 -156 -26 -174 -9 -11 10 -20 24 -20 32 0 14 -14 15 -134 2z"/>
<path d="M1597 2093 c-8 -19 -4 -31 27 -75 20 -29 47 -66 59 -82 l24 -29 56
79 c31 43 57 83 57 89 -1 32 -19 38 -116 39 -91 1 -97 0 -107 -21z"/>
<path d="M1473 1995 l-22 -16 50 -102 c27 -56 53 -103 57 -105 4 -1 22 10 40
25 l33 28 -61 85 c-77 107 -72 103 -97 85z"/>
<path d="M1848 1918 l-67 -93 32 -27 c18 -15 36 -28 40 -28 4 0 31 47 59 105
49 102 50 106 32 120 -10 8 -21 15 -24 15 -3 0 -36 -42 -72 -92z"/>
<path d="M1270 1919 c-135 -34 -149 -39 -180 -66 -60 -50 -67 -77 -74 -305
l-7 -206 108 -26 c264 -62 532 -101 641 -93 121 10 510 80 624 113 16 5 17 22
11 212 -6 228 -13 255 -73 305 -32 27 -48 33 -183 66 l-77 19 -59 -124 c-51
-106 -64 -126 -94 -140 -47 -22 -93 -13 -150 32 -51 40 -50 40 -122 -12 -42
-30 -56 -35 -88 -31 -21 3 -48 14 -59 24 -11 10 -47 71 -79 136 -33 64 -60
117 -62 116 -1 0 -36 -9 -77 -20z"/>
</g>
</svg>
