<svg xmlns="http://www.w3.org/2000/svg" xmlns:xlink="http://www.w3.org/1999/xlink" viewBox="0 0 2819.39 2800"><defs><style>.cls-1{isolation:isolate;}.cls-2{fill:#f4f7fa;}.cls-3{fill:url(#linear-gradient);}.cls-4,.cls-8{fill:#fff;}.cls-4{mix-blend-mode:screen;opacity:0.16;}.cls-5{fill:url(#linear-gradient-2);}.cls-6{fill:url(#linear-gradient-3);}.cls-13,.cls-7{fill:#d8dee8;}.cls-11,.cls-12,.cls-13,.cls-23,.cls-30,.cls-33,.cls-44,.cls-9{mix-blend-mode:multiply;opacity:0.3;}.cls-9{fill:url(#linear-gradient-4);}.cls-10{fill:#bfc8d6;}.cls-11{fill:url(#linear-gradient-5);}.cls-12{fill:url(#linear-gradient-6);}.cls-14{fill:url(#linear-gradient-7);}.cls-15{fill:url(#linear-gradient-8);}.cls-16{fill:url(#linear-gradient-9);}.cls-17{fill:url(#linear-gradient-10);}.cls-18{fill:url(#linear-gradient-11);}.cls-19{fill:url(#linear-gradient-12);}.cls-20{fill:url(#linear-gradient-13);}.cls-21{fill:url(#linear-gradient-14);}.cls-22{fill:url(#linear-gradient-15);}.cls-23{fill:url(#linear-gradient-16);}.cls-24{fill:url(#linear-gradient-17);}.cls-25{fill:url(#linear-gradient-18);}.cls-26{fill:url(#linear-gradient-19);}.cls-27{fill:url(#linear-gradient-20);}.cls-28{fill:url(#linear-gradient-21);}.cls-29{fill:url(#linear-gradient-22);}.cls-30{fill:url(#linear-gradient-23);}.cls-31{fill:url(#linear-gradient-24);}.cls-32{fill:url(#linear-gradient-25);}.cls-33{fill:url(#linear-gradient-26);}.cls-34{fill:url(#linear-gradient-27);}.cls-35{fill:url(#linear-gradient-28);}.cls-36{fill:url(#linear-gradient-29);}.cls-37{fill:url(#linear-gradient-30);}.cls-38{fill:url(#linear-gradient-31);}.cls-39{fill:url(#linear-gradient-32);}.cls-40{fill:url(#linear-gradient-33);}.cls-41{fill:url(#linear-gradient-34);}.cls-42{fill:url(#linear-gradient-35);}.cls-43{fill:url(#linear-gradient-36);}.cls-44{fill:url(#linear-gradient-37);}.cls-45{fill:url(#linear-gradient-38);}.cls-46{fill:url(#linear-gradient-39);}.cls-47{fill:url(#linear-gradient-40);}.cls-48{fill:url(#linear-gradient-41);}.cls-49{fill:url(#linear-gradient-42);}</style><linearGradient id="linear-gradient" x1="-78.17" y1="450.42" x2="1380.87" y2="450.42" gradientTransform="translate(279.34 780.59) rotate(-0.74)" gradientUnits="userSpaceOnUse"><stop offset="0" stop-color="#ffc444"/><stop offset="1" stop-color="#f36f56"/></linearGradient><linearGradient id="linear-gradient-2" x1="9752.06" y1="2351.95" x2="10704.07" y2="833.26" gradientTransform="matrix(-0.94, -0.33, -0.33, 0.94, 11724.98, 2561.76)" gradientUnits="userSpaceOnUse"><stop offset="0" stop-color="#e38ddd"/><stop offset="1" stop-color="#9571f6"/></linearGradient><linearGradient id="linear-gradient-3" x1="868.36" y1="2601.88" x2="1827.36" y2="2601.88" gradientTransform="matrix(0.98, 0.21, -0.21, 0.98, -320.13, -1241.62)" gradientUnits="userSpaceOnUse"><stop offset="0" stop-color="#ff9085"/><stop offset="1" stop-color="#fb6fbb"/></linearGradient><linearGradient id="linear-gradient-4" x1="714.64" y1="1300.58" x2="1638.19" y2="1300.58" gradientUnits="userSpaceOnUse"><stop offset="0" stop-color="#fff"/><stop offset="1" stop-color="#d8dee8"/></linearGradient><linearGradient id="linear-gradient-5" x1="453.48" y1="2166.51" x2="1937.77" y2="2166.51" xlink:href="#linear-gradient-4"/><linearGradient id="linear-gradient-6" x1="550.13" y1="2032.72" x2="1854.93" y2="2032.72" xlink:href="#linear-gradient-4"/><linearGradient id="linear-gradient-7" x1="-116.31" y1="-7775.15" x2="-79.68" y2="-7775.15" gradientTransform="matrix(0.07, -1, 1, 0.07, 9570.15, 1921.26)" gradientUnits="userSpaceOnUse"><stop offset="0" stop-color="#444b8c"/><stop offset="1" stop-color="#3e4177"/></linearGradient><linearGradient id="linear-gradient-8" x1="-151.61" y1="-8363.84" x2="-23.98" y2="-7951.91" gradientTransform="matrix(0.07, -1, 1, 0.07, 9570.15, 1921.26)" xlink:href="#linear-gradient"/><linearGradient id="linear-gradient-9" x1="-214.79" y1="-8344.27" x2="-153.57" y2="-8146.7" gradientTransform="matrix(0.07, -1, 1, 0.07, 9570.15, 1921.26)" xlink:href="#linear-gradient"/><linearGradient id="linear-gradient-10" x1="1838.1" y1="1507.7" x2="1974.03" y2="1507.7" gradientTransform="matrix(1, 0, 0, 1, 0, 0)" xlink:href="#linear-gradient-7"/><linearGradient id="linear-gradient-11" x1="1923.81" y1="241.24" x2="2211.18" y2="703.26" gradientUnits="userSpaceOnUse"><stop offset="0" stop-color="#311944"/><stop offset="1" stop-color="#893976"/></linearGradient><linearGradient id="linear-gradient-12" x1="1935" y1="231.49" x2="2222.84" y2="694.27" gradientTransform="matrix(1, 0, 0, 1, 0, 0)" xlink:href="#linear-gradient-3"/><linearGradient id="linear-gradient-13" x1="2011.78" y1="503.13" x2="2044.6" y2="503.13" gradientTransform="matrix(1, 0, 0, 1, 0, 0)" xlink:href="#linear-gradient-3"/><linearGradient id="linear-gradient-14" x1="2156.77" y1="509.22" x2="2191.82" y2="509.22" gradientTransform="matrix(1, 0, 0, 1, 0, 0)" xlink:href="#linear-gradient-3"/><linearGradient id="linear-gradient-15" x1="2059.74" y1="558.21" x2="2146.94" y2="558.21" gradientTransform="matrix(1, 0, 0, 1, 0, 0)" xlink:href="#linear-gradient-3"/><linearGradient id="linear-gradient-16" x1="1758.28" y1="571.04" x2="2440.64" y2="571.04" gradientTransform="matrix(1, 0, 0, 1, 0, 0)" xlink:href="#linear-gradient-3"/><linearGradient id="linear-gradient-17" x1="1694.02" y1="1416.51" x2="1765.15" y2="1549.18" gradientUnits="userSpaceOnUse"><stop offset="0" stop-color="#ffc444"/><stop offset="0.46" stop-color="#ffc244"/><stop offset="0.63" stop-color="#febb46"/><stop offset="0.75" stop-color="#fcb048"/><stop offset="0.84" stop-color="#fa9f4c"/><stop offset="0.93" stop-color="#f78951"/><stop offset="1" stop-color="#f36f56"/></linearGradient><linearGradient id="linear-gradient-18" x1="12819.3" y1="2020.01" x2="12741.1" y2="1762.16" gradientTransform="matrix(-0.99, 0.12, 0.12, 0.99, 14726.01, -699)" gradientUnits="userSpaceOnUse"><stop offset="0" stop-color="#444b8c"/><stop offset="1" stop-color="#26264f"/></linearGradient><linearGradient id="linear-gradient-19" x1="12751.89" y1="1969.8" x2="12751.89" y2="1555.55" gradientTransform="matrix(-0.99, 0.12, 0.12, 0.99, 14726.01, -699)" xlink:href="#linear-gradient"/><linearGradient id="linear-gradient-20" x1="12904.42" y1="1969.8" x2="12904.42" y2="1555.54" gradientTransform="matrix(-0.99, 0.12, 0.12, 0.99, 14726.01, -699)" xlink:href="#linear-gradient"/><linearGradient id="linear-gradient-21" x1="12933.22" y1="1985.46" x2="12855.02" y2="1727.61" xlink:href="#linear-gradient-18"/><linearGradient id="linear-gradient-22" x1="12716.07" y1="1075.92" x2="12678.03" y2="1931.91" gradientTransform="matrix(-0.99, 0.12, 0.12, 0.99, 14726.01, -699)" gradientUnits="userSpaceOnUse"><stop offset="0" stop-color="#aa80f9"/><stop offset="1" stop-color="#6165d7"/></linearGradient><linearGradient id="linear-gradient-23" x1="12716.07" y1="1075.92" x2="12678.03" y2="1931.91" xlink:href="#linear-gradient-22"/><linearGradient id="linear-gradient-24" x1="13296.03" y1="1440.07" x2="12598.55" y2="1408.36" xlink:href="#linear-gradient-22"/><linearGradient id="linear-gradient-25" x1="16421.9" y1="1323.91" x2="16845.41" y2="2113.83" gradientTransform="matrix(-1, 0, 0, 1, 18910.61, 0)" gradientUnits="userSpaceOnUse"><stop offset="0" stop-color="#311944"/><stop offset="1" stop-color="#a03976"/></linearGradient><linearGradient id="linear-gradient-26" x1="310.58" y1="-674.39" x2="696.88" y2="119.98" gradientTransform="translate(1759.21 2003.19) rotate(-16.77)" xlink:href="#linear-gradient-25"/><linearGradient id="linear-gradient-27" x1="12808.73" y1="251.85" x2="12719.51" y2="396.18" gradientTransform="matrix(-0.99, 0.12, 0.12, 0.99, 14726.01, -699)" xlink:href="#linear-gradient-17"/><linearGradient id="linear-gradient-28" x1="16838.17" y1="1100.73" x2="17261.68" y2="1890.65" xlink:href="#linear-gradient-25"/><linearGradient id="linear-gradient-29" x1="-494.56" y1="1294.36" x2="-230.8" y2="1964.58" gradientTransform="translate(2911.92)" xlink:href="#linear-gradient-18"/><linearGradient id="linear-gradient-30" x1="12250.95" y1="3973.14" x2="12062.9" y2="3896.21" gradientTransform="matrix(-0.98, -0.2, -0.2, 0.98, 14229.82, 453.93)" xlink:href="#linear-gradient"/><linearGradient id="linear-gradient-31" x1="492.52" y1="2255.58" x2="517.92" y2="2397.59" gradientTransform="translate(950.47)" xlink:href="#linear-gradient"/><linearGradient id="linear-gradient-32" x1="11379.18" y1="2654.59" x2="11361.07" y2="2864.11" gradientTransform="matrix(-1, 0, 0, 1, 12962.76, 0)" gradientUnits="userSpaceOnUse"><stop offset="0" stop-color="#6165d7"/><stop offset="0.83" stop-color="#9e7bf3"/></linearGradient><linearGradient id="linear-gradient-33" x1="11149.5" y1="2634.74" x2="11131.39" y2="2844.27" xlink:href="#linear-gradient-32"/><linearGradient id="linear-gradient-34" x1="11116.34" y1="2551.74" x2="11226.29" y2="2551.74" gradientTransform="matrix(-1, 0, 0, 1, 12962.76, 0)" xlink:href="#linear-gradient-18"/><linearGradient id="linear-gradient-35" x1="11253.74" y1="2548.21" x2="11372.15" y2="2548.21" gradientTransform="matrix(-1, 0, 0, 1, 12962.76, 0)" xlink:href="#linear-gradient-18"/><linearGradient id="linear-gradient-36" x1="675.2" y1="2051.1" x2="818.41" y2="2851.62" gradientTransform="translate(950.47)" xlink:href="#linear-gradient-18"/><linearGradient id="linear-gradient-37" x1="11213.08" y1="2330.39" x2="11417.44" y2="2053.6" gradientTransform="matrix(-1, 0, 0, 1, 12962.76, 0)" xlink:href="#linear-gradient-18"/><linearGradient id="linear-gradient-38" x1="1017.93" y1="1989.79" x2="1161.14" y2="2790.31" gradientTransform="translate(950.47)" xlink:href="#linear-gradient-18"/><linearGradient id="linear-gradient-39" x1="11221.09" y1="1831.65" x2="11228.85" y2="1969.4" gradientTransform="matrix(-1, 0, 0, 1, 12962.76, 0)" xlink:href="#linear-gradient"/><linearGradient id="linear-gradient-40" x1="10797.19" y1="1921.2" x2="10854.45" y2="1843.65" gradientTransform="matrix(-1, 0, 0, 1, 12962.76, 0)" xlink:href="#linear-gradient"/><linearGradient id="linear-gradient-41" x1="577.43" y1="2068.59" x2="720.65" y2="2869.11" gradientTransform="translate(950.47)" xlink:href="#linear-gradient-18"/><linearGradient id="linear-gradient-42" x1="9182.35" y1="-1041.15" x2="9058.84" y2="-699.45" gradientTransform="matrix(-0.88, 0.48, 0.48, 0.88, 10224.43, -1897.14)" xlink:href="#linear-gradient-18"/></defs><g class="cls-1"><g id="Layer_2" data-name="Layer 2"><g id="Illustration"><path class="cls-2" d="M2774.29,1196C2698,696.42,2385.07,82.7,1766.89,18.48c0,0-469.35-57.09-932,29.43C560.26,99.26,319.48,252.13,167.12,471.83s-203.25,487.61-141.49,743c40.12,165.89,67.23,337.58,59.79,508-13,296.68-5.5,573.6,282.41,750.53,257.08,158,580.61,297.31,889.27,321.71,209.76,16.59,445-10.25,647.16-64.86C2934.56,2452,2850.61,1695.51,2774.29,1196Z"/><path class="cls-3" d="M1388.81,2166.68c56.38-20.34,151.3-54.58,216.81-146.93,119.09-167.88,63.66-418.84-33.61-575.34C1488.45,1310,1342.28,1227.31,1050,1062,774.63,906.25,682.58,891.41,654.57,789.21,614.64,643.53,761.34,526.3,689.28,363.33,680.63,343.77,650.93,276.6,587.05,254c-109.37-38.71-242.16,80.3-302.79,166.21-58.47,82.86-118.42,232.14-61.91,347.53,41,83.6,108.24,78.39,126.47,156.26,18.35,78.35-44.24,107.26-67.26,238.89-9.2,52.58-27.67,158.14,22.84,245.62,65.31,113.11,186.81,93.61,213.92,189,19.59,69-37.44,101.68-32.07,182.39,7.06,106.25,114.5,179,204.72,238.35C797.21,2088.16,1083.82,2276.69,1388.81,2166.68Z"/><path class="cls-4" d="M548.31,301.21c59.11,39.32-105.58,223.32-53.07,460.54,56.49,255.23,330,416.38,456.35,490.84,215.62,127.06,305.67,97.31,445.77,242.62,55.45,57.51,171,177.32,161.86,347.1-.84,15.77-12.9,191.49-146.42,277.31-151.46,97.33-344,5-510-74.57C802.53,1997,602.21,1900.94,614.26,1790.57c7.36-67.47,92.39-124.75,162.92-142.27,100.68-25,185.63,27.56,194.4,9.79,7.9-16-53.43-74.06-136.75-116.27-166.67-84.45-251-19.23-375.06-98.44-15-9.6-133.13-87.41-137.95-209.71-2.79-70.53,32-157.7,88.74-173.28,64.14-17.62,128.59,63.94,143.27,49.79,14-13.53-36.35-96.32-98.11-170.87C365,829.77,325.32,829.3,291.1,759.46c-52.2-106.54-15.88-219.74-10.42-235.93C331.8,371.75,497.77,267.59,548.31,301.21Z"/><path class="cls-5" d="M1683.77,2130.58c-50.75,8.35-136.19,22.42-223.91-19.35-159.47-76-223-287.15-215.58-445.11,6.35-135.68,81.26-258.77,231.08-505,141.11-231.87,203.86-281.52,182.08-369.8-31-125.85-190-152.29-204.22-304.54-1.71-18.27-7.56-81,30.84-124.7,65.73-74.77,215-41.17,296.39-2.18,78.48,37.61,185.86,124.37,191.81,234.46,4.31,79.77-48.29,104-29.36,170,19,66.38,78,61.85,150.36,150.82,28.9,35.55,86.9,106.9,85.67,193.57-1.6,112.08-100.78,148.31-81.16,231.15,14.17,59.86,70.59,60.51,100.35,123.22,39.17,82.56-10.88,182-53.64,264.24C2094.13,1824.19,1958.3,2085.37,1683.77,2130.58Z"/><path class="cls-4" d="M1532.84,381.28c-27.83,54.2,172.55,123.13,232.48,322.82,64.48,214.86-73,450-136.5,558.7-108.37,185.42-188.28,200.81-232.44,368.3-17.47,66.29-53.88,204.39,24,327.78,7.23,11.46,89.79,138.06,225.74,146.48,154.2,9.54,259.85-140.23,350.88-269.28,55-78,164.88-233.75,109.68-311.4-33.75-47.46-121.42-54.8-181.6-38.41-85.89,23.4-127.53,98.33-141.54,88.68-12.61-8.68,9-77.83,53.8-144.33,89.52-133,180-119.42,239.79-230.7,7.25-13.48,63.17-121.19,15.6-214.83-27.43-54-90-104.74-139-92.68-55.42,13.64-69.57,101.71-86.5,97.25-16.18-4.26-13.07-87.37,2-169.07,22.15-120,51.66-137,48.08-203.62-5.48-101.67-80.06-171.28-90.93-181.13C1724.57,343.53,1556.63,334.94,1532.84,381.28Z"/><path class="cls-6" d="M733.08,2061.83c29.69-13.33,79.67-35.78,111.34-88.48,57.57-95.81,17.22-229.41-41.89-310.14-50.78-69.35-133.33-108.09-298.42-185.58-155.49-73-205.95-77.23-225.32-131.41-27.62-77.24,47-146.75,1.26-232-5.49-10.23-24.34-45.38-59.86-55-60.81-16.46-127.81,53.45-157.1,102.46-28.25,47.28-54.56,130.58-19.21,190.73,25.61,43.58,61.83,38,74.91,79.4,13.16,41.67-19.54,59.9-26.59,132.12-2.81,28.85-8.46,86.76,22.49,132,40,58.56,105,43,123.61,93.55,13.45,36.53-16.08,56.6-9.85,100.08,8.2,57.24,69.37,92.21,120.66,120.63C409.51,2043.68,572.47,2134,733.08,2061.83Z"/><path class="cls-4" d="M201.16,1086.36c33.63,18.86-48,125.27-9.77,251.55,41.1,135.88,195.81,211.87,267.31,247,122,59.91,169.51,40.1,251.35,113,32.39,28.85,99.88,89,101.94,181.27.19,8.58.9,104.22-67.87,156.18-78,59-186.08,16.88-279.21-19.37-56.27-21.9-168.69-65.66-166.71-125.91,1.21-36.83,44.88-71.35,82.36-83.74,53.48-17.69,101.64,7.28,105.66-2.71,3.61-9-32-37.89-78.84-57.32-93.72-38.86-136.67-.08-207.13-37.86-8.54-4.58-75.68-41.85-83.33-107.87-4.41-38.07,10.85-86.71,40.92-97.48,34-12.18,72.25,29.33,79.62,21.06,7-7.9-23.65-50.65-60.16-88.48-53.64-55.57-75.14-54.19-96.54-90.6-32.65-55.54-17.64-118.32-15.36-127.32C86.83,1133.48,172.41,1070.24,201.16,1086.36Z"/><path class="cls-7" d="M1697,923.19c-23.68,312.5-107.17,590.86-137.27,901.09q-2.55,25.83-4.52,52l-673.54,27.57q-45.68,1.91-91.61,3.77-23,.91-46,1.88l-29.42,1.21c-.83-10.58-2.28-21.12-2.28-31.69v0c-27.62-332.64-53.08-666-79.62-1000.24C624.52,781,701.23,702.38,805.17,699.41a273.42,273.42,0,0,1,27.37-110c51.85-106.53,171.37-177.77,312.9-173.94,155.16,8.58,307.74,115.63,343.46,206.09,13.13,33.27,10.48,64.27-13.64,87.34,21.29,1.73,44.62,8.9,67.93,20.05,65.1,31.08,129.83,93.08,148.67,153.34a.11.11,0,0,0,0,.09C1696.18,896.22,1698.08,909.94,1697,923.19Z"/><path class="cls-7" d="M937.1,1870.13,794,1957.24,546.9,2096.09l-83.06-78.58v-87.38c0-22.78,24.22-42.24,55.15-43.46Z"/><path class="cls-7" d="M702.74,2088.43l-88.63,50L473.75,2244l-106.57-93v-87.74c0-22.88,25.76-42.57,56.94-44l195.63-8.83Z"/><path class="cls-8" d="M1706,962.87q-33.87,447.23-67.76,896.51-3.53,46.11-7,92.2l-834.72,37.23Q756,1476.14,715.24,961c-8.19-97.39,68.07-176,171.24-179.33,2.34-64.1,26.46-122.4,66.17-169.32,61.41-72.52,159.62-117.46,271.68-114.85,181.77,4.24,322.05,132.15,327.47,291.12C1645.63,796,1713.25,871.44,1706,962.87Z"/><path class="cls-9" d="M1638.19,1859.38q-3.53,46.11-7,92.2l-834.72,37.23Q756,1476.14,715.24,961c-8.19-97.39,68.07-176,171.24-179.33,2.34-64.1,26.46-122.4,66.17-169.32-.22,42.42,1.25,78.52,2.19,86.53,8.64,74.45,24.25,153.78,59.44,220.43,61.07,115.6,181,173.82,272.08,257.2,115.27,105.5,105.21,228,79.37,373.32-15.79,88.64-4.61,183.12,80.12,230.37C1506.58,1814.05,1583,1823.54,1638.19,1859.38Z"/><path class="cls-10" d="M794,1957.24,546,2096.09l-82.32-77.88.14-2.35v-85.73c0-22.78,24.22-42.24,55.15-43.46L712.34,1879Z"/><path class="cls-7" d="M1854.93,1950v81.94l-1304.8,64.16v-87c0-22.7,22.87-42.18,53.56-43.5L1808,1913.45C1835.39,1912.26,1854.93,1928.63,1854.93,1950Z"/><path class="cls-8" d="M1937.77,2079.15v43.39c0,28.46-22.84,52.74-50,54.25l-1378.13,77c-30.95,1.73-56.13-21.55-56.13-52v-46c0-30.46,24.74-56.37,55.69-57.89l1378.76-67.39C1915,2029.2,1937.77,2050.92,1937.77,2079.15Z"/><path class="cls-11" d="M1937.77,2079.15v43.39c0,28.46-22.84,52.74-50,54.25l-1378.13,77c-30.95,1.73-56.13-21.55-56.13-52v-39.94c48.33-11.16,118.54-18.25,190.07,7,126.72,44.69,184-26.37,328-28.51,142.15-2.07,260.57,42,360.51,20.37,99-21.4,168.21-65.94,323.23-44.83C1765.14,2130.77,1868.74,2093.87,1937.77,2079.15Z"/><path class="cls-12" d="M1854.93,1969.34v62.59l-1304.8,64.16v-81.64a295.43,295.43,0,0,1,95.09,17.66c126.72,45.47,183.19-25.24,327.21-26.5,142.14-1.19,260.14,43.63,360.08,22.59,99-20.79,165.55-64.91,320.57-42.85C1726.19,1995.75,1799.7,1983.14,1854.93,1969.34Z"/><polygon class="cls-10" points="1008.99 957.32 1008.33 895.19 1412.79 895.19 1412.22 957.32 1008.99 957.32"/><path class="cls-13" d="M886.47,781.69l-81.41-82.28a273.63,273.63,0,0,1,27.42-110C843.63,661.65,886.47,781.69,886.47,781.69Z"/><path class="cls-14" d="M1452.45,1441.86c.31,3.37,70.27,2.7,294.26,16.67l16.79,1c271.79,17.25,398.61,33.46,399.61,28.45,1.18-6-174.76-47.91-395.16-57.91C1593.49,1422.2,1452,1437.05,1452.45,1441.86Z"/><path class="cls-15" d="M1285.56,1489.23c-.9,20.3,122.39,64.65,240.51,28.35,31.92-9.8,94.24-28.95,101.62-69.32,9.18-50.13-71.53-104.74-128.61-127.31-92.28-36.48-195.15-17.78-198.36,3-2.62,17,60.6,37.67,56.58,49.3-2.29,6.62-24.25,4.12-85,9.5-21.7,1.93-30.7,3.29-32.22,8.33-3.69,12.29,40.46,35.59,43,36.92,39.15,20.4,67.43,19.23,68.2,27.57C1352.45,1468.38,1286.2,1474.5,1285.56,1489.23Z"/><path class="cls-16" d="M1574.32,1424.28c-22,12.7-43.64-12.26-84.64-8.71-54,4.68-72.74,52.92-116.17,79.27-13.62,8.26-31.19,15.28-54.23,18.06,44.57,16.86,126.84,29.25,206.79,4.68,31.92-9.8,94.24-28.95,101.62-69.32,4.15-22.66-10.1-46.24-32.21-67.36C1592.69,1405,1584.84,1418.2,1574.32,1424.28Z"/><path class="cls-17" d="M1932.93,1458.45c-36.12,1.21-60.16,21.42-66.59,27a91.27,91.27,0,0,0-15.45,16.84c-10.93,16.5-13.17,34.81-12.74,49.16.59,19.52,52.88-17.26,62.07-34.62s73.81-51.27,73.81-51.27A104.13,104.13,0,0,0,1932.93,1458.45Z"/><path class="cls-18" d="M2448.65,399.37V681.28c0,14-3.21,27-10.05,38a68.88,68.88,0,0,1-10.54,13.6,71.92,71.92,0,0,1-52.36,20.36l-178.33-4.41-3.17-.07-68.77,82.53-10.24,12.32a14.43,14.43,0,0,1-19.74-2.17l-82.19-97.14L1838,740c-44.35-1.11-79.68-36.62-79.68-79.32V365.5c0-25.4,12-46.39,31.7-59.4,5.25-3.52,10.17-7.63,16.31-7.63h0a77.92,77.92,0,0,1,30.79-5.08l538,28.6C2416.23,324.2,2448.65,358.6,2448.65,399.37Z"/><path class="cls-19" d="M2462.45,390.81V672.72c0,19.57-8.45,37.17-21,50.08a71.07,71.07,0,0,1-12.64,10.12,73.41,73.41,0,0,1-42,11.8l-181.7-4.48-7.58,8.63-71.41,81.84c-.21.21-.39.41-.64.62a14.37,14.37,0,0,1-21.27-.79L2024,735.78l-175.49-4.35c-44.39-1.1-79.88-36.59-79.88-79.29V356.94c0-20.43,7.63-38.59,21.16-51.71a70.55,70.55,0,0,1,13.59-10.59A78.53,78.53,0,0,1,1848,284l539.47,29C2428.57,315.18,2462.45,350,2462.45,390.81Z"/><path class="cls-8" d="M2249.48,529.12c-1.31,84.36-70,146.89-150.73,140.56-77.92-6.1-139.11-74.56-139.11-153.7,0-79.81,62.16-144.29,141.35-143.35C2183.09,373.6,2250.81,444,2249.48,529.12Z"/><path class="cls-20" d="M2044.6,503.83c0,9.49-7.46,16.84-16.53,16.43s-16.32-8.38-16.29-17.8,7.36-16.81,16.41-16.46S2044.65,494.33,2044.6,503.83Z"/><path class="cls-21" d="M2191.82,510A17,17,0,0,1,2174,526.91a18.27,18.27,0,0,1-17.25-18.4,17,17,0,0,1,17.65-17A18.27,18.27,0,0,1,2191.82,510Z"/><path class="cls-22" d="M2139.81,585.21a7.52,7.52,0,0,1-7-7.54c.15-16.9-13.22-31.36-29.71-32.19s-29.67,12.1-29.77,28.78a6.51,6.51,0,0,1-6.86,6.63,7.38,7.38,0,0,1-6.77-7.42c.13-24.38,19.54-43.36,43.51-42.22,24.23,1.14,43.93,22.36,43.68,47.22A6.7,6.7,0,0,1,2139.81,585.21Z"/><path class="cls-23" d="M2440.64,722.8a68.57,68.57,0,0,1-12.22,10.12,72.35,72.35,0,0,1-52.54,20.36l-178.42-4.41-71.39,81.84c-.2.21-.38.41-.62.62l-10.25,12.32a14.43,14.43,0,0,1-19.74-2.17l-82.19-97.14L1838,740c-44.35-1.11-79.68-36.62-79.68-79.32V365.5c0-25.4,12-47.25,31.7-60.27a66.23,66.23,0,0,1,13.49-9.73c1.07.66,1.75-.48,2.82,3h0c39.87,24.16,80.53,67.69,72.25,128C1868,503.13,1907.68,576,1985.41,601.77c37.18,12.39,83,13.69,136.35-.46,39.55-10.5,78.15-14.23,114.15-11.85,96.45,6.39,174.46,55.56,203.42,129.91C2439.81,720.55,2440.23,721.63,2440.64,722.8Z"/><path class="cls-24" d="M1740.55,1490.62s3-29.41-4.37-38.6-14.46-28.19-16.88-18.46.57,23-2.19,22.59-21.14-1.84-21.14-1.84,6.11,34.25,22.59,39.3S1738.77,1511.55,1740.55,1490.62Z"/><path class="cls-25" d="M2295.17,2682.64c9.65,15.4,8.15,22.61,6.49,25.89-4.87,9.61-19.74,2.57-55.8,10.71a61.81,61.81,0,0,1-22.74,1.58c-8.95-1.15-19.73-4.72-19.54-7.11.07-.87,1.59-1.37,2.17-1.56,9.9-3.22,71.29-29.31,71.29-29.31Z"/><path class="cls-26" d="M2296.3,2646.44l-1.86,36.89S2280,2696,2274.5,2683c-3.95-9.32-6.58-35.26-6.58-35.26Z"/><polygon class="cls-27" points="2114.11 2683.65 2133.78 2723.84 2155.65 2717.97 2146.45 2679.82 2114.11 2683.65"/><path class="cls-28" d="M2143.11,2746.13c9.43-13.9,19.16-13.75,20.18-22.73.81-7.05-4.3-15.07-11-17.62-9.43-3.58-19.54,4.61-21.83,6.46-15.51,12.56-9.21,29-24.14,38-3,1.81-7.85,3.9-12.61,9.4-2,2.34-7,8.12-5.36,11.56,1.94,4,11.82,2.81,21.22,1.69,11.28-1.34,16.91-2,22-6C2138.59,2761.43,2135.83,2756.86,2143.11,2746.13Z"/><path class="cls-29" d="M2324.57,1765.86a1203.87,1203.87,0,0,1-7.46,218.37c-8.18,64.74-15.11,76.38-15.66,120.73-1.2,96.5,30.79,107.65,45.43,215.4,16.16,119-7.74,216.58-17.23,253.84a689.14,689.14,0,0,1-24.73,77.58c-10.17,10.46-27.22,8.18-45.18,6-15.49-107.84-32.06-209.17-47.55-317q-51.75-242-103.49-483.92Z"/><path class="cls-30" d="M2259.74,2657.83c-15.49-107.84-32.06-209.17-47.55-317q-51.75-242-103.49-483.92l215.87-91c.31,5.62.47,11.05.71,16.57-96.3,98.72-110.69,171.79-105.64,220.4,6.12,59,40.84,85.56,41.63,171.71.56,61.6-16.95,73.91-12.36,129.16,5.91,71.14,39.76,108.61,58,148.48,17.67,38.54,27.45,94.4,6.32,176.74-3,8.57-5.79,16.25-8.34,22.86C2294.75,2662.24,2277.7,2660,2259.74,2657.83Z"/><path class="cls-31" d="M2200.37,1858.27c-46.77,96.32-71,171.09-83.67,217.08-7.75,28.05-14.46,57.16-13.49,94.53a291.75,291.75,0,0,0,23.19,105.78,562,562,0,0,1,37.11,104.64c31.9,129.48,10.27,241.83-8.54,307l-38.22,17.87a2181.21,2181.21,0,0,1-121.21-339.5c-20.9-78.4-37-139.91-43.67-219.18-7-83.61-6.11-216.87,49.21-380.57Q2100.73,1812.07,2200.37,1858.27Z"/><path class="cls-32" d="M2110,1136.94c-82.4,21.28-144.8,41.5-169.59,87.64-26.18,48.73,24.42,79.59,45.81,180,32.74,153.69-51.76,219.12-13.1,373.4a405.54,405.54,0,0,0,48.67,114.45c28.83,19.8,74.26,46.3,134.2,61.85,87.22,22.63,127.61,1.92,242.19-1,187.42-4.81,219.84,47,301.35,6.73,82.39-40.69,136.51-136.65,115.22-174-12.74-22.35-45.67-5-97-29.49-66.13-31.56-59.7-82.65-114.45-121.48-78.64-55.78-144.18,12.56-211.51-36-68.12-49.15-86.68-180.87-66.17-261.89,13.39-52.92,9.08-108.91,17.81-162.8a34.17,34.17,0,0,0-2.38-19.25c-12.94-29.48-69-30.71-111.26-31.24C2165.27,1123,2116.77,1135.19,2110,1136.94Z"/><path class="cls-33" d="M2684.85,1901.87c-27.25-15.07-17.31-65-57.7-87.75-37.5-21.1-62.58,12.64-116.23.94-68.82-15-70.66-79.92-136.69-95.21-47.47-11-59,19.68-125.57,26.49s-156.06-13.45-217.19-79.46c-26-28.05-41.75-59-51.35-88-13,59-27.76,116.21-7,199a405.54,405.54,0,0,0,48.67,114.45c28.83,19.8,74.26,46.3,134.2,61.85,87.22,22.62,127.61,1.92,242.19-1,187.42-4.81,219.84,47,301.35,6.73,52.66-26,93.65-74.55,110.9-116C2741.14,1903.74,2704.63,1912.81,2684.85,1901.87Z"/><path class="cls-34" d="M2049.72,996.27s-19.46,45.15-18.39,75.62,35.12,25.42,35.12,25.42l.3,19.24a41.62,41.62,0,0,1-24.08,38.41l-13.11,6.09s89.77,11.57,135.11-26.45l-14-.21a41.64,41.64,0,0,1-40.31-34l-1.51-8.12S2116.32,996.43,2049.72,996.27Z"/><path class="cls-35" d="M1953.7,1208.37a232.27,232.27,0,0,0-57.07,62.32c-53.7,86.88-20.54,170-68.74,205.65-13.78,10.2-38.84,19.93-87.11,8.33L1723.93,1496s-10.21,113.14,124.83,103.21S2033.39,1415,2033.39,1415Z"/><path class="cls-36" d="M2067.06,1038.13c4.53-.76,7.81-6.85,11.08-5.39,3.42,1.52,3.76,10,1.4,16.14a21.33,21.33,0,0,1-7.53,9.55,56.09,56.09,0,0,1,11.73,21.54c6,21.58-4.25,40.17-8.24,50.89-18,48.32,22.09,119,62.47,153.07,32.81,27.68,46,14.37,66.09,37.52,39.2,45.06-5,101.83,18.52,164.9,35.84,95.9,193.32,112.26,199.84,112.86,2.57.23,4.29.37,7,.57,70.48,5.29,177.29,13.3,246.8-50,52-47.31,71.32-123.77,61.69-188.9-2.53-17.13-13.17-82.08-70.87-131-9.16-7.77-63.38-53.65-131.09-48.65-35.86,2.65-42,15.87-70.1,10.34-38.41-7.58-64.35-39.78-80.44-59.75-29.6-36.74-19.57-45.94-40.14-63.51-40.28-34.43-81.46-1.36-123.92-31.17-41.85-29.38-21.9-75.6-62-100.71-41.39-25.9-115.11-9.55-128.13,26.46C2020,993.84,2053.18,1040.44,2067.06,1038.13Z"/><path class="cls-37" d="M1758.31,1865.17s-30.47,25.13-65.19,7.37c-31-15.86-5.26-97.41,21.57-105.7,9-2.76,23.48.64,33.26,8.77,5.77,4.8,6.84,8.76,16.43,16.4,8.85,7.06,12.13,7,14.06,11.1,2.42,5.09,1.89,14.86-13.29,35.53,8.74-4.29,17.09-3.83,21.25,1.1a13.13,13.13,0,0,1,2.51,6.42C1789.92,1857.18,1778,1865.65,1758.31,1865.17Z"/><path class="cls-38" d="M1445.72,2256.1s-12,28.13-17.5,38.33,21.18,38.43,25.1,36.08-3.13-25.1,0-32.94,14.12-42.17,11.77-47.76S1445.72,2256.1,1445.72,2256.1Z"/><path class="cls-39" d="M1620.91,2728s9.15,26.77,4.32,30.2-63,2.66-66.91,1.75,39.81-31.47,47.21-31.95A140.14,140.14,0,0,1,1620.91,2728Z"/><path class="cls-40" d="M1791.39,2745.25s-7.84,18.33-2.92,21.49,75.36,6.5,74.11,5-51.93-24.36-51.93-24.36Z"/><path class="cls-41" d="M1843.83,2355.37a1346.86,1346.86,0,0,1-33.18,392l-20.39.75c-10.79-22.59-24.23-57.7-27-101.71-2.7-42.76,6.49-65.21,8.81-100.32,2.34-35.33-2-87.14-35.59-153.2Z"/><path class="cls-42" d="M1708.35,2364.56c3,42.84-4.22,76.79-14.87,103.47s-18.25,29.68-26.52,55.61c-13.35,41.88-3.28,64.57-6.8,104.08-2.29,25.72-10.62,61.64-38.1,103.85l-21.09.29a1122.79,1122.79,0,0,1,9.08-360.19Z"/><path class="cls-43" d="M1830.58,1980.42c-3.27,84.95,14.44,144.14,34.92,223.76,53.29,207.17,41,224.53,33.63,231.51-26.28,25-60.72-14.53-168.09-11.37-87.4,2.58-114.76,30.24-187.59,12.66-36.24-8.74-86.13-29.25-85.37-50.44.43-11.95,16.76-18.23,29.88-27.16,27.56-18.77,41.24-49.45,60.47-167.09,5.39-32.91,19.6-124,41.2-222.37,7.64-34.78,14.14-61.08,35.3-71,27.34-12.79,54.19,17.31,111.68,24.39a582.57,582.57,0,0,0,94.87,4.25C1829.61,1940.54,1831.51,1956.26,1830.58,1980.42Z"/><path class="cls-44" d="M1530.51,2413.7c39-13.31,41.34-40,82.78-69.84,92.39-66.45,185-8.63,217.56-56,36.82-53.48-69.36-144.69-32.61-238.93,7.25-18.58,18.73-33.84,32-46.39.3,73.51,16.65,129.09,35.3,201.6,53.29,207.17,41,224.53,33.63,231.51-26.28,25-60.72-14.53-168.09-11.37-87.4,2.58-114.76,30.24-187.59,12.66a271.35,271.35,0,0,1-50.6-17.58A109.87,109.87,0,0,0,1530.51,2413.7Z"/><path class="cls-45" d="M1831.48,1927.58s158.86,51.56,267.68-41l28.65,32.72s-130.25,201.26-328.27,88.08Z"/><path class="cls-46" d="M1753.88,1860.79l4.15,29.84a38.61,38.61,0,0,0,28.64,32.08l25.15,6.45s-89,36.36-149.79-26.46l26.78.9a38.59,38.59,0,0,0,38.81-29.44l3-12.24Z"/><path class="cls-47" d="M2099.16,1886.62s4-37.76,51.9-25.83,10.35,4.55-5.17,27-18.08,31.56-18.08,31.56S2092.39,1902.5,2099.16,1886.62Z"/><path class="cls-48" d="M1433.73,2254.19s35.19-321,191.2-355.25l24.89,143s-126.91,53.65-178.32,212.23Z"/><path class="cls-49" d="M1721.57,1876.12c-7.73-2.3-30.5-16.33-34.18-37.57-2.51-14.47,6.23-21,2.4-35.92-4.34-17-17.65-16.57-27.34-33.77-11.3-20.06-9.74-50,3.79-67.77,10.9-14.35,20.7-9.17,40.08-27.93,17.12-16.59,13.77-24.81,25.32-32.89,22.48-15.72,45.53,8.17,82.28,4.93,51.06-4.5,57-55.06,96.48-52.81,36.27,2.06,75.07,47.28,76.46,85.73.56,15.41-4.81,22.83.59,37,8.29,21.78,28.71,19.15,41.79,41.49,9.9,16.9,12.78,43.27,1,57.13-13.85,16.23-37.19,2.75-51.09,18.66-15,17.12,4.7,41.21-9.88,59.43-13.77,17.21-45.86,15-64.14,11.58-22-4.17-42.66-13.57-64.08-20.16C1801.24,1871,1760.64,1887.76,1721.57,1876.12Z"/><polygon class="cls-10" points="912.43 1065.1 911.52 1002.96 1480.02 1002.96 1479.22 1065.1 912.43 1065.1"/><polygon class="cls-10" points="1003.07 1174.42 1002.45 1112.28 1389.09 1112.28 1388.55 1174.42 1003.07 1174.42"/></g></g></g></svg>