<?xml version="1.0" standalone="no"?>
<!DOCTYPE svg PUBLIC "-//W3C//DTD SVG 20010904//EN"
 "http://www.w3.org/TR/2001/REC-SVG-20010904/DTD/svg10.dtd">
<svg version="1.0" xmlns="http://www.w3.org/2000/svg"
 width="512.000000pt" height="512.000000pt" viewBox="0 0 512.000000 512.000000"
 preserveAspectRatio="xMidYMid meet">

<g transform="translate(0.000000,512.000000) scale(0.100000,-0.100000)"
fill="#000000" stroke="none">
<path d="M3071 5036 c31 -53 114 -132 234 -222 186 -140 290 -262 375 -440 22
-46 48 -112 57 -147 l17 -63 -41 -85 c-23 -46 -61 -106 -85 -133 -113 -130
-282 -181 -465 -142 -35 7 -63 12 -63 11 0 -1 32 -23 70 -49 201 -133 487
-389 616 -550 290 -363 408 -738 364 -1161 -22 -216 -71 -369 -174 -544 -49
-85 -85 -129 -186 -231 -154 -156 -267 -233 -570 -390 -245 -126 -283 -157
-337 -268 -53 -111 -76 -236 -77 -429 -1 -88 2 -164 5 -167 7 -8 190 18 294
41 859 187 1570 816 1865 1648 88 249 129 483 137 771 12 450 -64 807 -256
1199 -252 512 -654 915 -1164 1165 -221 108 -344 151 -609 214 l-27 6 20 -34z"/>
<path d="M1300 4782 c-651 -365 -1119 -1026 -1254 -1772 -44 -243 -47 -619 -7
-856 122 -723 523 -1334 1136 -1736 l120 -79 3 34 c4 41 -31 215 -50 251 -7
14 -39 63 -70 108 -144 211 -212 421 -211 658 0 143 15 233 63 382 50 152 128
302 240 463 218 312 322 637 337 1050 8 242 -12 402 -83 631 -62 201 -95 385
-114 629 -6 83 -15 180 -18 218 l-7 67 -85 -48z"/>
<path d="M2845 3385 c-167 -31 -298 -98 -410 -210 -126 -125 -175 -245 -175
-425 0 -131 -16 -260 -40 -321 -27 -69 -63 -118 -160 -225 -154 -168 -239
-296 -271 -409 -21 -74 -17 -254 6 -335 73 -251 232 -428 457 -506 101 -35
267 -43 393 -19 211 39 507 161 685 280 322 217 515 499 575 842 18 100 20
328 4 439 -42 304 -212 574 -472 747 -213 142 -378 182 -592 142z m18 -218
c71 -30 76 -69 26 -222 -17 -55 -34 -107 -36 -115 -2 -8 13 16 34 55 47 86
140 187 197 214 29 14 62 21 104 21 363 0 566 -317 549 -855 -6 -188 -25 -275
-89 -405 -32 -67 -58 -102 -122 -165 -101 -100 -206 -160 -376 -215 -115 -38
-127 -44 -155 -82 -54 -72 -199 -204 -267 -242 -94 -52 -159 -70 -258 -70
-147 0 -275 67 -360 189 -175 254 -174 486 4 681 l51 56 165 3 c189 3 243 15
299 68 20 19 49 41 65 49 l29 15 -39 5 c-95 13 -146 56 -146 124 0 28 8 44 31
67 l30 31 38 -18 c52 -25 130 -46 176 -46 59 0 104 24 184 101 111 105 182
131 238 87 51 -40 59 -75 65 -293 5 -194 5 -198 18 -145 8 30 16 107 19 171 6
129 -8 203 -54 273 -26 40 -70 86 -83 86 -4 0 -35 -23 -70 -51 -170 -137 -330
-204 -435 -185 -49 10 -108 65 -136 129 -45 104 -24 238 57 359 19 28 33 52
31 54 -1 2 -34 -6 -71 -17 -81 -24 -86 -21 -86 59 0 59 20 115 53 150 64 69
240 112 320 79z"/>
<path d="M2945 2153 c-27 -2 -61 -6 -75 -9 -22 -5 -21 -7 18 -24 27 -12 46
-29 53 -47 12 -29 32 -162 46 -298 8 -78 9 -74 21 125 7 113 15 217 18 233 5
22 2 27 -13 25 -10 -1 -40 -3 -68 -5z"/>
</g>
</svg>
