<svg xmlns="http://www.w3.org/2000/svg" xmlns:xlink="http://www.w3.org/1999/xlink" viewBox="0 0 2659.78 2700.67"><defs><style>.cls-1{isolation:isolate;}.cls-2{fill:url(#linear-gradient);}.cls-3{fill:#fff;mix-blend-mode:screen;opacity:0.16;}.cls-4{fill:url(#linear-gradient-2);}.cls-5{fill:url(#linear-gradient-3);}.cls-6{fill:url(#linear-gradient-4);}.cls-7{fill:url(#linear-gradient-5);}.cls-8{fill:#f27b70;}.cls-9{fill:#904444;}.cls-10{fill:#f7b7a1;}.cls-11{fill:url(#linear-gradient-6);}.cls-12{fill:#231f20;opacity:0.4;}.cls-13{fill:#2aaca2;}.cls-14{fill:url(#linear-gradient-7);}.cls-15{fill:#f59579;}.cls-16{fill:#ef5755;}.cls-17{fill:#f79b8c;}.cls-18{fill:#ad5251;}</style><linearGradient id="linear-gradient" x1="520.19" y1="842.89" x2="1089.33" y2="842.89" gradientUnits="userSpaceOnUse"><stop offset="0" stop-color="#ffc444"/><stop offset="1" stop-color="#f36f56"/></linearGradient><linearGradient id="linear-gradient-2" x1="1517.4" y1="1223.54" x2="2326.55" y2="1223.54" xlink:href="#linear-gradient"/><linearGradient id="linear-gradient-3" x1="1577.8" y1="2055.91" x2="2659.78" y2="2055.91" gradientUnits="userSpaceOnUse"><stop offset="0" stop-color="#e38ddd"/><stop offset="1" stop-color="#9571f6"/></linearGradient><linearGradient id="linear-gradient-4" x1="284.58" y1="1386.4" x2="1121.86" y2="1386.4" xlink:href="#linear-gradient-3"/><linearGradient id="linear-gradient-5" x1="0" y1="2111.02" x2="1310.36" y2="2111.02" xlink:href="#linear-gradient"/><linearGradient id="linear-gradient-6" x1="668.46" y1="1922.75" x2="2019.54" y2="1922.75" gradientUnits="userSpaceOnUse"><stop offset="0" stop-color="#311944"/><stop offset="1" stop-color="#a03976"/></linearGradient><linearGradient id="linear-gradient-7" x1="864.24" y1="1776.89" x2="1950.35" y2="1776.89" gradientUnits="userSpaceOnUse"><stop offset="0" stop-color="#ff9085"/><stop offset="1" stop-color="#fb6fbb"/></linearGradient></defs><g class="cls-1"><g id="Layer_2" data-name="Layer 2"><g id="Illustration"><path class="cls-2" d="M679.63,470.4c0-1.73-.09-3.45-.28-5.18a17.78,17.78,0,0,1,.15-5c-.25-5.78-.69-11.57-1.5-17.49-1.18-8.73,9.63-18,17.94-12.85A891.55,891.55,0,0,1,808.6,512.78c15.58,13.53,31.74,27.27,44.69,43.44,11.7,14.59,20,32.79,17.36,51.85-1.66,12.09-8.53,22.75-11.13,34.29-1.19,5.33-1.36,7.6-.61,12.29.05.31.07.49.1.7,0,0,.1.1.23.48,0,.1.14.34.27.63,21.09-11.46,39.54-28,56.57-44.57,3.53-3.44,8.6-4.47,12.7-1.12,21.82,17.73,37.22,40.45,43.28,68.1,6.27,28.68-.38,58.28-16.47,82.57a100.15,100.15,0,0,1-15.4,18.16c-.5.47-1,.92-1.54,1.39-.84,2.46-1.11,3.65-.62,5.9a9.41,9.41,0,0,0,2.44,4.5c4.17,3.4,9.63,4,16.2,4,16.7,0,34.56-9.7,52.39-10.63a48,48,0,0,1,47.23,29.28c6.79,15.81,8.46,34,7.53,51-.88,16.31-4.73,33.73-14.35,47.25-10.77,15.14-26.93,22.73-45.27,23.5-16.15.69-33.12-5.56-49.05-2.19-14.24,3-19.81,18.61-19.28,31.82.63,15.55,8.72,30.43,19,41.69a77,77,0,0,0,90.93,16.83,79.13,79.13,0,0,0,20.6-14.73c6-5.83,16.06-1.8,17.81,5.84,15.72,68.58-5.75,142.25-53.32,193.55a175.93,175.93,0,0,1-20.89,19.5c-7.66,5.93-17.34,10.32-26.14,14.3a5.86,5.86,0,0,1-5.49-.4c-40.24,16.49-85.66,15.36-128.42,15.33-46.36,0-92.63-4-134.12-26.42-36.8-19.86-66.29-51.22-93-82.81-29.71-35.14-65.32-82.21-40.11-129.41,4.11-7.7,14.88-8.22,21.55-4.34a14.51,14.51,0,0,0,8.56,1.77,26.6,26.6,0,0,0,11.91-4.82,31.81,31.81,0,0,0,9.63-10.54,27,27,0,0,0,3.79-13.92c.16-23.85-22.13-43.41-42.13-54.74-13.69-7.76-28.44-13.41-42.76-19.84-7.36-3.31-14.66-6.79-21.77-10.59-5.07-2.71-9.38-5.79-10.68-11.87-1-4.77-.56-10.68-.46-15.55.64-31.73,9.59-62.95,24.83-90.71,7-12.67,15.89-28.77,29.72-34.83,18.68-8.18,34,5.59,48.4,15.48,11.17,7.66,23.54,15,37.45,15.24,9.18.16,20.14-3.31,24.16-12.57a20.44,20.44,0,0,0,.93-11.76A46.21,46.21,0,0,0,679.18,739c-6.79-10.88-16.83-18.65-26.92-26.27-23.12-17.44-47.37-36.88-50.88-67.76-4-35.13,15.25-67.71,36.11-94.34,17-21.71,41-48,42.08-77.41,0-.93,0-1.86.06-2.78Z"/><path class="cls-3" d="M647.67,609.05c11.45-7.25,26.36-5.72,39-2.62a126.37,126.37,0,0,1,38.21,16.83c12.5,8.06,23.17,18.45,33.12,29.44,2.32,2.56,4.55,5.21,6.74,7.89-11.88-43.2-25-86.13-39.58-128.45-2.14-6.21,7.05-9.63,9.55-3.56q15.51,37.63,28.67,76.09a.36.36,0,0,0,0-.09,69.27,69.27,0,0,1,5.61-8.86,131.67,131.67,0,0,1,13.88-16.58,118.77,118.77,0,0,1,16-14.2c5.7-4,12.21-6.09,19-7.57,1.46-.32,2.1,1.6,1.37,2.59a108.88,108.88,0,0,1-12.67,15.17c-4.77,4.52-9.75,8.78-14.33,13.5s-9,9.62-13.22,14.64c-2.16,2.57-4.2,5.39-6.53,7.79-1.51,1.56-3.36,3.51-5.47,4.41,4.76,14.27,9.36,28.6,13.58,43.07q16.18,55.46,28.44,112c2.81-4.44,5.94-8.66,9.09-12.87,7.52-10,15.37-19.78,23.65-29.16s17.12-18.32,26.15-27,18.21-17.09,30.47-20.06a2,2,0,0,1,2.51,2.7c-4.58,10.87-13.21,18.86-21.49,27s-16.39,16.68-24.19,25.41-15.49,17.53-22.79,26.69c-3.73,4.68-7.23,9.54-11,14.2-1.7,2.12-3.48,4.18-5.34,6.15a42.07,42.07,0,0,1-3.62,3c.45,2.15,1,4.29,1.39,6.44a1488.81,1488.81,0,0,1,24.34,169.5c2.51-4.9,5.28-9.67,8.24-14.35q13.89-22,29.39-42.93t32.43-40.54c5.49-6.29,11-12.68,16.83-18.64a63.29,63.29,0,0,1,10.22-8.86c3.76-2.45,7.9-3.93,11.76-6.21,1.78-1,4.77.69,3.47,2.89-2.16,3.68-3.49,7.62-5.65,11.26a67.92,67.92,0,0,1-7,9.48c-5.47,6.33-11.33,12.34-16.84,18.64-11,12.59-21.75,25.49-32,38.7S869,938.78,859.7,952.66c-4.75,7.06-9.6,14.15-13.68,21.63-1.91,3.49-3.59,7.1-5.37,10.66-.19.38-.37.79-.56,1.2q2.94,40.41,4,80.84.69,26.73.5,53.46c.53,1.82,1,3.66,1.5,5.6a3.58,3.58,0,0,1-1.6,4.11c-.06,4.43-.11,8.87-.2,13.3q-.32,14.79-.9,29.59,2.29-4.33,4.69-8.54a294.08,294.08,0,0,1,23.36-35,322.66,322.66,0,0,1,60.78-59.64c11.67-8.79,25.83-21.41,41.46-19.16a2.8,2.8,0,0,1,2.08,3.88c-5.18,12.62-18.62,18.93-29.07,26.64A342.93,342.93,0,0,0,916,1106.72,368,368,0,0,0,863.61,1168c-7.31,10.74-13.65,22.38-21.5,32.75,0,.66-.06,1.34-.11,2-.17,3-.24,6-.55,9-.39,3.67-1.74,7.14-2.88,10.64-1,3.08-5,4.78-8,4.3a7.8,7.8,0,0,1-6.28-6.66c-2.09-11.53-.31-23.49.22-35.16.52-11.18,1-22.37,1.26-33.56.36-13.42.49-26.84.52-40.27-.31-.46-.61-.92-.92-1.37-4.68-6.73-9.24-13.53-14.21-20.06a302,302,0,0,0-32.53-36.3c-24.07-22.84-51.47-41-81.36-55.32-9.32-4.46-18.83-8.51-28.42-12.36-4.79-1.93-9.66-3.66-14.3-6a29.1,29.1,0,0,1-7.46-4.65c-1.7-1.63-2.53-3.9-3.54-6-.82-1.68.43-3.68,2-4.33,4.26-1.8,7.55-2.31,12.13-1.17a121.07,121.07,0,0,1,15.15,5.13c9.08,3.58,18.1,7.31,27,11.38a301.6,301.6,0,0,1,46.15,26.49,322.06,322.06,0,0,1,72.62,69.66c2.59,3.4,5.14,6.86,7.61,10.36,0-.9,0-1.81,0-2.72q-1-68.6-7.86-136.93c-1.54-15.48-3.37-30.94-5.34-46.39-2.75-1.95-5.42-4-8.1-5.91-5.89-4.15-11.68-8.39-17.88-12.09-13-7.77-26.27-14.72-40.52-20a208.73,208.73,0,0,0-43.39-10.64c-7.24-1-14.5-1.37-21.76-2a102.1,102.1,0,0,1-21.61-4.48c-1.93-.6-1.24-3.12.13-3.82a45.81,45.81,0,0,1,7.63-3.53,84.39,84.39,0,0,1,9.2-1.78c6.32-1.1,13-.56,19.33,0a196,196,0,0,1,35.87,6.43c23.87,6.63,47.13,16.92,67,31.81,3.78,2.82,8,6,11.92,9.39a1697,1697,0,0,0-39.34-198.52c-1.84-1.85-3.59-3.83-5.42-5.82-4.76-5.22-9.67-10.28-14.66-15.28a213,213,0,0,0-32.56-27.15,106.49,106.49,0,0,0-32.56-14.66,128.26,128.26,0,0,0-18.08-2.82c-6.25-.63-12.26-.39-18.44-1.68-4-.83-5.9-6.49-2.06-8.92Z"/><path class="cls-4" d="M2271.4,1056c-7.28-12.9-21.15-16.36-33.51-8-16.08,10.94-34,23.72-54,25.28-11.59.91-24.91-4.47-30.07-15.47-4.11-8.78,4.32-16.21,12.43-21.41,14.44-9.27,30.6-15.34,44-26.4,55.49-45.92,53.62-127.4,34.91-190.32-13.94-46.88-35.8-91.47-41.94-140.41-1.75-13.91-17.73-22.16-30.22-16.42-76.22,35-158.06,74.1-202,149.49-20,34.4-31.24,72.85-27.8,112.88,1.42,16.63,6.65,33.4,6,50.16-.53,13.14-5.78,22.68-17.73,23.76-43.28,3.92-49.76-56.14-53-87.15-1.72-16.81-22.18-22.39-34.44-13.28-37.94,28.17-75.46,58.65-98.24,100.93-20.13,37.36-25.7,86.88-5.8,125.56,10.16,19.74,26,33.31,42.82,47.15,11.25,9.24,25,22.46,22.09,34.79-.89,3.83-2.24,6.77-6.35,11.53-2.56,3-9.52,8-14.16,10.18-11.52,5.51-25,7.81-36.45,4.33-40.71-12.37-58.19-65.3-71.22-100.7-4.42-12-22.15-15.92-31.46-7.47-33.9,30.76-47.48,74.6-45.3,119.52,2.34,47.82,25.13,91.62,56.19,127.17,16.7,19.11,35.7,36.29,55.38,52.25,9,7.3,18.19,14.34,27.5,21.23,7,5.2,19.4,11.56,22.16,20.63,5.19,16.94-19.21,31.93-32.39,35.13-22.41,5.43-45.36.45-65.82-9.3-51.19-24.39-78.85-79.11-103.79-127-9-17.31-33.6-13.41-37.05,5.72-25.47,141,55.13,286.07,178.6,353.4,7.27,4,14.71,7.6,22.26,11a376.51,376.51,0,0,0,37.57,18.72c61.92,26.69,129.63,35,196.59,32,68.94-3.19,139.51-18.51,203.77-43.71,58.57-23,114.09-59.85,144.15-116.64,29.82-56.35,31.13-131.38-12.08-181.34a20,20,0,0,0-23.06-5.48c-25,10.23-59.72,23-86.28,11.42-31.25-13.64-17.25-50.6.6-69.46,27.86-29.45,71.88-35.84,106.91-53.38,9.43-4.72,21.27-10.14,28.51-17.86,8.5-9,6.56-25.51,6.67-37.1a447.69,447.69,0,0,0-4.58-70.18A424.51,424.51,0,0,0,2271.4,1056Z"/><path class="cls-3" d="M2197.46,896.64c-2.81-9.65-20.13-4.11-26.37-2.58-11.12,2.74-22.11,8.46-32.3,13.61a280.77,280.77,0,0,0-28.91,16.86c-6.83,4.57-13.55,9.43-20,14.61,3.79-9.89,7.52-19.79,11.45-29.62,12.94-32.38,28.58-64.09,39.67-97.15,2.7-8-9.18-12.61-13.37-5.64-16.11,26.78-27.8,56.59-40.14,85.26q-18.14,42.13-34.86,84.85c-7.45,19-14.57,38.14-21.56,57.31,0-.15-.07-.34-.11-.49-3.82-17.28-8.69-34.42-13.76-51.37-5-16.55-10.34-33-16.43-49.14-3.21-8.49-6.37-17.07-10-25.39a66.85,66.85,0,0,0-5.63-10.48c-2.65-3.92-6.47-6-9.55-9.49-1.83-2.07-5.9-.5-5.66,2.34.35,4.1-.68,8-.1,12.17a64.08,64.08,0,0,0,3.14,11.77c2.85,8.14,6.17,16.13,9.08,24.25,5.82,16.26,11.44,32.6,16.56,49.1q7.47,24.11,13.6,48.58c2.1,8.34,4.36,16.74,6.86,25,.34,1.14.73,2.32,1.11,3.48q-15.36,43.89-29.11,88.33-28.85,93.29-49.25,188.83c-5.81-22.67-14.62-44.71-22.65-66.62-8.84-24.13-18.25-48.07-27.77-72-5-12.42-9.62-25-16.15-36.67a312.15,312.15,0,0,0-21.88-33.11,3.22,3.22,0,0,0-5.85,2.46c2.12,12.68,4.44,25.13,7.79,37.54s8.39,24.17,13.15,36.11c9.17,23,18,46.12,26.83,69.25,8.67,22.73,18.17,45.43,24.71,68.89a249,249,0,0,1,6.59,35c.83,6.39,1.94,12.73,2.74,19.13,0,.26.16.54.21.8q-10.69,56.61-18.91,113.67-7.52,52.76-12.93,105.82c-.33,3.23-.57,6.47-.89,9.7-2.64-2.73-5.31-5.34-7.88-7.74a172,172,0,0,0-44.32-30.08,186.72,186.72,0,0,0-51.23-16c-8.92-1.37-17.94-2.4-26.94-1.33-9.6,1.15-17.25,5.57-25.54,10.09-2.88,1.57-2.3,6.35.93,7.11,7.6,1.77,14.76,4.85,22.48,6.31s15.55,1.7,23.26,2.91a162.86,162.86,0,0,1,45,13.73,178.91,178.91,0,0,1,38.75,24.93c6,5.12,11.49,10.73,17,16.41,1.88,2,3.74,4,5.63,6.06-.25,3-.58,6-.82,9-1.48,18.4-3.32,35.89,2.18,53.78,2.25,7.31,14.37,10.57,18,2.35,3.13-7.12,6.08-14.09,7.28-21.84s1.52-15.73,2.13-23.53c1.24-15.69,2.46-31.39,3.91-47.08q4.13-44.62,9.87-89.09c4.09-5.4,8.18-10.8,12.52-16a477.59,477.59,0,0,1,45.64-47.53,386.27,386.27,0,0,1,110.16-70.5c11.37-4.77,23-8.57,34.66-12.65,5.93-2.08,12-4.22,15.62-9.69,3.89-5.83,3.86-14.36-1.89-19.08-6.72-5.51-15-2.81-17.79,3.75-.37.13-.84.29-1.54.5-2.5.77-5,1.42-7.5,2.25-5,1.64-9.86,3.47-14.72,5.36q-15.59,6-30.68,13.26a395.27,395.27,0,0,0-55,32.12c-31.68,22.08-60.17,48.28-84,78.63q10.59-72.8,25.43-144.89,11.61-56.37,25.47-112.32c6.08-4.24,12-8.65,17.92-12.78,15.32-10.71,31.2-20.76,47.3-30.24a553.1,553.1,0,0,1,49.83-26c8.3-3.81,16.8-7.28,25-11.28,8.42-4.11,16.62-8,21.07-16.44,1.25-2.38,0-4.59-2.26-5.55-9-3.77-18.27-1.08-27.29,1.89a238,238,0,0,0-25.76,10.67,550.88,550.88,0,0,0-51.8,27.56,465.53,465.53,0,0,0-46.55,32.33q28-108.4,64.71-214.22c3.71-10.6,7.62-21.14,11.47-31.69,4.28-3.38,8.37-7.07,12.47-10.41,8.56-7,17.36-13.75,26.54-19.9a280.56,280.56,0,0,1,29.84-17.43c10-5,20.56-8.64,30.79-13.22,5.77-2.58,24.09-8.25,21.39-17.45Z"/><path class="cls-5" d="M2635.56,1529.82c1.22-2.57,2.51-5.13,4-7.62a28.46,28.46,0,0,0,3.19-7.6c4.35-8.56,9-17,14.31-25.4,7.81-12.37-2.12-33.89-18.24-31.78-76.9,10.06-152.9,25.6-227.3,47.57-32.88,9.7-66.76,19.33-97.47,34.82-27.72,14-52.79,35.76-62,66.36-5.82,19.43-2.79,40.26-6.82,59.49-1.86,8.87-3.17,12.43-7.54,19-.29.43-.45.69-.63,1-.07,0-.23.1-.68.57-.12.13-.45.43-.85.77-24-31.85-40.43-69.55-54.75-106.32-3-7.63-9.9-12.68-18.41-10.46-45.19,11.76-84.11,35.47-112.32,73.08-29.24,39-39.59,88.3-32,136.09a167.65,167.65,0,0,0,10.75,38.06c.45,1,.93,2.09,1.38,3.14-.42,4.3-.86,6.29-3.13,9.35a15.58,15.58,0,0,1-6.79,5.12c-8.65,2.26-17.34-.55-27.23-5.1-25.22-11.56-45.53-38.49-71.83-52.17-30.45-15.85-66.1-11.42-91.54,11.69-21.15,19.2-36.18,45.47-46.53,71.87-9.91,25.25-16.1,54.22-10.88,81.27,5.84,30.3,25,52.9,52.2,66.71,23.93,12.16,53.88,14.42,75.61,30.49,19.43,14.36,17.11,41.76,7.2,61.35-11.67,23.06-34.14,40-57.46,49.89-52.46,22.29-112.93,6.8-149-37.24a132,132,0,0,1-21-36.44c-5-12.95-23-13.81-30.94-3.47-71,92.79-89.33,218.87-52.82,329.16a291.32,291.32,0,0,0,18.13,43.86c7.48,14.24,19.08,27.53,29.63,39.63a9.71,9.71,0,0,0,8.57,3.16c49.44,52.65,118.83,82.25,183.45,111.66,70.07,31.89,142.72,57.76,220.84,52.52,69.28-4.65,135.45-31.7,197.57-61,69.1-32.62,155.34-79.17,149.77-167.86-.9-14.47-16.8-22.67-29.57-21.39a24.1,24.1,0,0,1-14.14-3.24,44,44,0,0,1-14.67-15.5c-4.69-8.41-6.16-13.45-7.29-22.54a44.69,44.69,0,0,1,3.88-23.64c16.17-36.15,63.33-50.35,101.36-53.68,26-2.29,52.21-.65,78.28-.51,13.39.08,26.82-.13,40.18-1,9.52-.61,18.17-2.29,24.33-10.58,4.82-6.5,8.19-15.75,11.39-23.16,20.91-48.39,28.9-101.72,25-154.16-1.78-23.94-4.18-54.43-20.89-73.11-22.57-25.23-55.22-15-83.8-10-22.15,3.88-45.88,6.42-67.06-2.79-14-6.07-28.16-18.88-27.86-35.64.12-6.36,2.76-12.77,6.71-18.4,5.64-8,12.89-14.3,21.23-19.81,17.78-11.76,38.29-16.58,58.78-21.12,47-10.42,97-23.09,123.57-67.33,30.24-50.3,23.63-112.79,10.47-167.41-10.74-44.51-28.91-100.85-10.25-145.94.6-1.43,1.23-2.84,1.84-4.26Z"/><path class="cls-3" d="M2588.3,1761.32c-12.31-18.83-35.89-26.8-57.15-30.82-23-4.35-46.19-4.27-69.32-.9-24.43,3.55-47.71,11.88-70.3,21.63-5.29,2.28-10.47,4.74-15.63,7.28,47.7-57.07,97.11-112.88,148.3-166.77,7.52-7.92-4-19.42-12-12q-49.36,46.17-95.76,95.18v-.15a115.75,115.75,0,0,0-2.36-17.25,220.35,220.35,0,0,0-9.55-34.61c-4-11.1-8.44-22.29-14.44-32.49-5.85-10-14.25-17.62-23.41-24.52-2-1.5-4.27,1-3.86,3,2.23,10.84,4.55,21.35,8.69,31.64,4.07,10.12,8.68,20,12.34,30.27s7,20.74,9.9,31.23c1.49,5.37,2.61,11,4.48,16.28,1.2,3.39,2.66,7.6,5.22,10.43-17,18.27-33.84,36.75-50.19,55.7q-62.65,72.63-120.13,149.57c-1.19-8.64-3-17.17-4.87-25.7-4.47-20.29-9.58-40.48-15.63-60.37s-13.23-39.46-20.93-58.75c-7.56-19-15.73-38.37-32.2-51.31-2.2-1.73-5.58-.74-5.66,2.35-.57,19.59,7,37.62,13.88,55.57,7,18.13,13.27,36.51,19,55.06s11.32,37.17,16,56c2.41,9.64,4.35,19.39,6.79,29,1.11,4.37,2.36,8.71,3.82,13a68.2,68.2,0,0,0,3.39,7.07c-2.17,2.94-4.4,5.84-6.54,8.79-55.77,76.48-106.86,156.7-153.59,239.29-.42-9.14-1.32-18.24-2.55-27.34q-5.83-42.81-14.82-85.12c-5.93-28.14-12.87-56-21.07-83.6-4-13.29-7.84-26.72-12.58-39.76-2.53-7-5.35-14.15-9.34-20.43s-9.22-11.37-13.47-17.48c-2-2.82-7.69-2.24-7.25,2,.74,7,0,13.91.79,20.9a110.8,110.8,0,0,0,4,19.13c3.89,13.33,8.6,26.45,12.58,39.77,8,26.61,15.3,53.48,21.71,80.52s11.92,54.3,16.47,81.72c2.31,13.94,4.75,28,5.77,42.1.47,6.59.52,13.19.76,19.79,0,.73,0,1.47,0,2.2q-32.3,59-61.84,119.37-19.45,39.88-37.58,80.4c-2.06,2.38-4.07,4.84-6.12,7.43a6,6,0,0,0-.42,7.31c-3,6.74-6,13.46-8.86,20.23q-9.73,22.57-19,45.33c-.33-5.42-.75-10.8-1.21-16.13a488.49,488.49,0,0,0-11.13-69,536.84,536.84,0,0,0-50.72-132c-11.57-21.33-24.27-50.15-49.46-57.51a4.62,4.62,0,0,0-5.78,4.41c-.9,22.64,15.07,41.44,25.54,60.29A569.91,569.91,0,0,1,1840,2328.3,611,611,0,0,1,1876.83,2457c3.63,21.25,5.21,43.2,9.92,64.28-.41,1-.82,2.06-1.22,3.1-1.79,4.63-3.78,9.23-5.35,13.94-1.93,5.82-2.29,12-3,18-.61,5.34,4.31,10.69,9.15,12,5.6,1.54,10.9-1.16,14.08-5.73,11.1-16,16.66-35.26,23.9-53.27,6.92-17.25,14-34.46,21.22-51.57,8.71-20.52,17.76-40.9,27-61.2.78-.47,1.55-1,2.34-1.43,11.71-6.94,23.29-14.07,35.29-20.52a501.06,501.06,0,0,1,74.17-32.42c52.09-17.91,106-26.51,161-27.51,17.16-.32,34.32.12,51.46.91,8.57.4,17.13,1.14,25.71.84,4.87-.17,9.83-.26,14.49-1.89,3.68-1.27,6.5-4.13,9.46-6.59,2.4-2,1.9-5.86,0-7.92-5.19-5.64-9.81-8.68-17.52-10.12a202,202,0,0,0-26.42-2.67c-16.19-.86-32.4-1.45-48.6-1.42a502.55,502.55,0,0,0-88,8.22,534.72,534.72,0,0,0-157.71,55.19c-6.25,3.36-12.48,6.81-18.65,10.42.65-1.36,1.25-2.74,1.9-4.1q48.81-102.93,106.25-201.47c13-22.31,26.42-44.41,40-66.4,5.49-1.05,11-2.33,16.31-3.33,11.77-2.22,23.43-4.64,35.35-5.95,25-2.77,49.83-4.15,75-2.23a345.05,345.05,0,0,1,72.89,13.83c11.62,3.49,22.86,7.91,34.29,11.93a167.9,167.9,0,0,0,35.72,8.13c3.32.41,4-3.86,2.43-5.86-2.85-3.58-5.65-7.62-9.1-10.6-3.89-3.36-8.45-6.13-12.68-9-8.77-6-19.21-9.78-29.16-13.34a325.9,325.9,0,0,0-58.63-15c-40.64-6.44-82.87-6.92-123.2,1.87-7.65,1.66-16.1,3.51-24.47,6a2815.94,2815.94,0,0,1,196.24-272.83c4-1.52,8.06-3.29,12.19-5.06,10.79-4.6,21.7-8.86,32.69-13,22-8.26,44.6-14.84,67.89-18.56,19.4-3.11,39.94-3.31,59.29.28,10,1.86,19.62,4.93,29.27,8.2,9.88,3.34,18.79,7.85,29,10.17,6.58,1.49,13.39-5.75,9.27-12.07Z"/><path class="cls-6" d="M307.18,1256.9c4.75-14,17.73-20,31.44-14.07,17.84,7.74,37.85,17,57.8,14.75,11.55-1.27,23.65-9,26.65-20.8,2.4-9.4-7.26-15.12-16.2-18.73-15.92-6.41-32.92-9.35-48.11-17.73-63.07-34.77-76.44-115.17-69.79-180.46,4.95-48.67,18.12-96.56,15-145.78-.88-14,13.28-25.07,26.62-21.78,81.4,20.14,169.11,43.33,226.33,109.2,26.11,30.06,44.28,65.74,48.38,105.71,1.7,16.61-.31,34,3.46,50.4,3,12.81,9.91,21.2,21.85,20,43.26-4.22,38.41-64.44,35.76-95.5C665,1025.31,684,1016,697.76,1022.68c42.52,20.6,85.07,43.55,115.34,80.83,26.74,33,41.46,80.56,29.12,122.28-6.3,21.29-19.29,37.57-33.28,54.31-9.33,11.17-20.33,26.72-15.21,38.3,1.59,3.59,3.46,6.22,8.39,10.13,3.06,2.43,10.83,6,15.8,7.37,12.35,3.27,26,3,36.63-2.54,37.69-19.75,45-75,51.19-112.22,2.11-12.6,18.78-19.77,29.51-13.21,39,23.9,60.56,64.43,66.79,109,6.63,47.41-7.6,94.7-31.47,135.42-12.84,21.89-28.31,42.32-44.67,61.67-7.48,8.85-15.2,17.48-23,26-5.92,6.41-16.9,15-17.93,24.39-1.93,17.62,24.83,27.79,38.37,28.47,23,1.17,44.65-8,62.94-21.41,45.73-33.52,62.7-92.43,78.28-144.11,5.63-18.7,30.51-19.45,37.46-1.3,51.34,133.82-.8,291.34-109.54,380.51-6.41,5.25-13,10.21-19.83,14.93a377,377,0,0,1-33.41,25.4c-55.87,37.77-120.82,58.61-187.19,68.06-68.32,9.73-140.51,7.84-208.34-4.93-61.83-11.65-123.25-37.52-163.38-87.71-39.81-49.8-55.1-123.27-22-180.41a20,20,0,0,1,21.63-9.69c26.45,5.39,63,11.48,86.9-4.86,28.15-19.23,7.51-52.93-13.55-68.15-32.86-23.73-77.29-21.79-115-32.49-10.15-2.88-22.79-6-31.35-12.23-10-7.3-11.2-23.83-13.47-35.2a449.27,449.27,0,0,1-8.59-69.8,424.76,424.76,0,0,1,22.27-152.55Z"/><path class="cls-3" d="M350.1,1086.55c1-10,19-7.8,25.43-7.45,11.44.61,23.3,4.18,34.27,7.34a277.43,277.43,0,0,1,31.55,11.18c7.56,3.21,15.07,6.72,22.36,10.61-5.57-9-11.09-18-16.78-27-18.75-29.41-40-57.64-57.1-88-4.14-7.38,6.67-14.1,12.09-8,20.82,23.31,37.87,50.42,55.33,76.28q25.68,38,50.08,76.86c10.86,17.28,21.43,34.75,31.87,52.28,0-.16,0-.34,0-.5.53-17.7,2.12-35.43,3.94-53,1.77-17.19,4-34.32,7-51.34,1.56-9,3.07-18,5.11-26.82a65.29,65.29,0,0,1,3.57-11.35c1.87-4.34,5.23-7.12,7.6-11.1,1.42-2.38,5.71-1.6,6,1.24.42,4.09,2.17,7.78,2.37,11.94a64.26,64.26,0,0,1-.89,12.15c-1.28,8.53-3,17-4.39,25.51-2.7,17.06-5.17,34.17-7.11,51.33q-2.86,25.08-4.32,50.27c-.5,8.58-1.16,17.26-2.08,25.8-.13,1.18-.28,2.41-.44,3.62q23.28,40.26,45.07,81.35,45.75,86.27,83.62,176.33c1.47-23.35,6-46.65,9.82-69.67,4.18-25.37,9-50.64,13.87-75.87,2.55-13.13,4.78-26.32,9-39a312.75,312.75,0,0,1,15.31-36.62,3.22,3.22,0,0,1,6.21,1.33c.29,12.84.33,25.51-.64,38.33s-3.74,25.31-6.19,37.93c-4.72,24.3-9.07,48.67-13.43,73-4.29,23.94-9.39,48-11.44,72.29a249.24,249.24,0,0,0,.06,35.63c.38,6.43.47,12.87.88,19.31,0,.26-.05.55-.06.82q21.08,53.64,39.78,108.14,17.22,50.46,32.45,101.56c.92,3.12,1.76,6.25,2.67,9.37,2.09-3.18,4.23-6.24,6.3-9.08a172,172,0,0,1,37.93-37.81,186.65,186.65,0,0,1,47.35-25.32c8.51-3,17.18-5.71,26.22-6.33,9.64-.66,18,2.26,27,5.15,3.12,1,3.45,5.8.41,7.16-7.14,3.16-13.6,7.52-20.91,10.39s-15,4.57-22.31,7.2a163.46,163.46,0,0,0-41.62,21.87,179.46,179.46,0,0,0-33.42,31.73,234.64,234.64,0,0,0-13.58,19.28c-1.49,2.28-2.94,4.65-4.41,7,.81,2.91,1.69,5.81,2.48,8.72,4.89,17.8,10,34.64,7.9,53.25-.85,7.59-12.14,13.06-17.22,5.66-4.42-6.43-8.6-12.71-11.23-20.11s-4.43-15.16-6.48-22.7c-4.14-15.2-8.27-30.4-12.62-45.53Q741.93,1720,728,1677.4c-5-4.54-10-9.08-15.29-13.4a476.81,476.81,0,0,0-53.7-38.18,386.56,386.56,0,0,0-121.38-48.71c-12.06-2.57-24.23-4.14-36.41-6-6.21-.93-12.55-1.9-17.16-6.6-4.91-5-6.47-13.38-1.69-19.1,5.57-6.66,14.25-5.56,18.17.36.39.06.88.13,1.6.21,2.6.29,5.2.46,7.79.81,5.18.69,10.33,1.57,15.47,2.52,11,2,21.85,4.44,32.62,7.3a396.57,396.57,0,0,1,60,21.3c35.24,15.77,68.13,36.21,97.19,61.58q-24-69.54-52-137.6-21.91-53.22-46-105.6c-6.77-3-13.43-6.26-20-9.21-17-7.67-34.52-14.58-52.12-20.89a550.5,550.5,0,0,0-53.8-16.25c-8.87-2.2-17.86-4-26.67-6.43-9-2.46-17.82-4.72-23.77-12.22-1.67-2.1-.89-4.5,1.18-5.87,8.11-5.38,17.75-4.47,27.16-3.24a234.93,234.93,0,0,1,27.3,5.68,553.51,553.51,0,0,1,56,17.42,464.93,464.93,0,0,1,51.76,23.08c-31.78-67.52-66.19-133.83-103.53-198.39-5.62-9.73-11.42-19.35-17.18-29-4.83-2.52-9.53-5.38-14.18-7.89-9.72-5.27-19.63-10.27-29.8-14.61A277.94,277.94,0,0,0,407.09,1107c-10.81-3.1-21.81-4.66-32.71-7.25-6.16-1.47-25.21-3.61-24.28-13.15Z"/><path class="cls-7" d="M40.88,1728.73c-2-2-4.06-4-6.29-5.88a29,29,0,0,1-5.53-6.13c-6.93-6.64-14.12-13.07-21.88-19.24-11.46-9.1-9.19-32.69,6.72-36,75.91-15.89,152.78-26.3,230.27-30.13,34.23-1.69,69.39-3.78,103.49.7,30.78,4,61.64,16.33,80.4,42.19,11.91,16.41,15.93,37.08,26.07,53.9,4.69,7.77,7.1,10.68,13.39,15.43l.92.72c.06,0,.24,0,.82.32l1.06.45c12.1-38,15.21-79,16.58-118.43.29-8.19,5.17-15.24,13.94-16,46.53-3.81,91.1,5.73,130.14,31.92,40.48,27.16,66.51,70.27,75.15,117.88a167.45,167.45,0,0,1,2.41,39.48c-.07,1.14-.19,2.28-.26,3.42,1.82,3.92,2.88,5.65,6,7.79a15.56,15.56,0,0,0,8.09,2.59c8.92-.71,16.19-6.24,24-13.8,20-19.24,30.27-51.36,50.59-73,23.5-25,58.62-32.59,90.26-19.18,26.3,11.15,49.16,31,67.64,52.49,17.69,20.56,33.1,45.86,37.11,73.13,4.48,30.52-6.17,58.18-27.26,80.19-18.58,19.38-46.1,31.41-61.32,53.74-13.6,20-2.36,45.06,13.47,60.29,18.62,17.91,45.42,26.47,70.7,28.13,56.88,3.71,108.85-30.86,128.34-84.34a131.4,131.4,0,0,0,7.76-41.31c.46-13.88,17.17-20.63,28.06-13.49,97.66,64.15,156.58,177.11,158.51,293.28a290.92,290.92,0,0,1-2.63,47.38c-2.36,15.91-8.92,32.29-14.89,47.19a9.74,9.74,0,0,1-7,5.82c-29.3,66-85,116.85-136.32,165.95-55.62,53.23-115.65,101.63-191.12,122.47-66.94,18.48-138.32,14.78-206.64,7.61-76-8-172.77-23.46-196.79-109-3.92-14,8.38-27,20.85-30a24,24,0,0,0,12.28-7.73,44.05,44.05,0,0,0,8.74-19.47c1.64-9.49,1.37-14.73-.56-23.69a44.79,44.79,0,0,0-11.47-21c-27.2-28.79-76.4-26.63-113.4-17.22-25.32,6.44-49.49,16.63-74.06,25.37-12.62,4.49-25.36,8.72-38.26,12.33-9.19,2.57-17.9,3.84-26.45-2-6.7-4.54-12.94-12.17-18.4-18.1-35.71-38.78-60.85-86.48-74.48-137.27-6.22-23.18-14-52.76-4.42-75.91,13-31.26,47.19-32.37,75.82-37.07,22.18-3.64,45.43-9.08,62.38-24.76,11.2-10.36,20.35-27.12,14.53-42.84-2.21-6-6.82-11.14-12.41-15.15-8-5.74-16.88-9.24-26.57-11.7-20.67-5.23-41.62-3-62.47-.53-47.75,5.66-99.16,10.22-138.86-22.76-45.15-37.51-59.53-98.68-65.13-154.57-4.57-45.57-6-104.75-38.52-141.15-1-1.15-2.09-2.28-3.13-3.41Z"/><path class="cls-3" d="M161.91,1931.66c5.4-21.85,25-37.15,43.76-48C226,1872,247.88,1864.42,270.8,1860c24.25-4.72,49-4.53,73.52-2.79,5.73.41,11.45,1,17.15,1.72-63.86-38.13-128.92-74.51-195-108.48-9.71-5-2.63-19.64,7.35-15.25q61.85,27.31,121.8,58.25a.58.58,0,0,0-.05-.14,117.88,117.88,0,0,1-3.46-17.07,219.09,219.09,0,0,1-2.41-35.82c.15-11.82.61-23.83,2.9-35.44,2.24-11.34,7.64-21.33,14-30.86,1.39-2.08,4.36-.5,4.63,1.52,1.47,11,2.75,21.66,2.24,32.75-.51,10.89-1.6,21.72-1.66,32.65s.27,21.87,1,32.75c.36,5.55,1.18,11.26,1.14,16.83,0,3.61,0,8.06-1.49,11.57,22.11,11.64,44.08,23.53,65.76,36Q461.29,1886,540.94,1939.7c-1.73-8.55-2.84-17.2-3.88-25.87-2.5-20.63-4.32-41.38-5.19-62.14s-.53-41.62.37-62.37c.88-20.39,2.19-41.41,13.46-59.06,1.51-2.36,5-2.55,6.12.34,7,18.31,5.84,37.81,5.24,57.05-.61,19.41-.48,38.84.21,58.25s1.58,38.83,3.35,58.19c.91,9.9,2.3,19.74,3.18,29.64.39,4.48.64,9,.67,13.5a65.54,65.54,0,0,1-.86,7.79c3,2.06,6.07,4.06,9.08,6.13,77.87,53.8,152.58,112.66,224,175.19-2.63-8.76-4.78-17.64-6.62-26.65q-8.62-42.33-14.11-85.24c-3.69-28.52-6.34-57.13-7.7-85.86-.66-13.85-1.42-27.82-1.25-41.69.08-7.45.38-15.12,2.07-22.37s5-13.77,7-21c.92-3.31,6.51-4.65,7.49-.54,1.62,6.91,4.55,13.15,6.14,20a109.71,109.71,0,0,1,2.56,19.36c.73,13.88.62,27.8,1.24,41.69,1.26,27.77,3.23,55.55,6.09,83.19s6.68,55.19,11.43,82.57c2.42,13.92,4.75,28,8.46,41.64,1.73,6.37,3.86,12.63,5.81,18.94.21.69.46,1.39.71,2.08q50,45.08,97.76,92.26,31.55,31.23,62,63.5c2.73,1.57,5.44,3.22,8.23,5a5.93,5.93,0,0,1,2.8,6.76c5,5.38,10.07,10.75,15,16.17q16.63,18.09,32.93,36.5c-1.49-5.21-2.87-10.44-4.19-15.62a488.26,488.26,0,0,1-12.28-68.84,535.81,535.81,0,0,1,4.31-141.35c3.88-23.95,6.35-55.35,27.69-70.61a4.64,4.64,0,0,1,6.93,2.25c8.31,21.09-.55,44.1-4.21,65.35a570.76,570.76,0,0,0-7.55,66,611.42,611.42,0,0,0,7.72,133.69c3.58,21.26,9.35,42.5,11.87,63.95l2.17,2.52c3.21,3.78,6.61,7.48,9.65,11.4,3.74,4.85,6.1,10.55,8.77,16,2.33,4.84-.54,11.52-4.67,14.37-4.79,3.3-10.67,2.51-15.19-.76-15.75-11.42-27.36-27.79-40.13-42.4q-18.36-21-37.06-41.67-22.5-24.75-45.67-48.87c-.89-.19-1.78-.4-2.67-.58-13.35-2.69-26.63-5.6-40.09-7.72a502.66,502.66,0,0,0-80.71-6.13c-55.08.3-108.84,10-161.08,27.19-16.3,5.37-32.35,11.45-48.27,17.85-8,3.2-15.79,6.73-24,9.28-4.65,1.45-9.36,3-14.29,3-3.9,0-7.51-1.76-11.11-3.1-2.92-1.08-3.72-4.91-2.62-7.48,3.05-7,6.4-11.42,13.2-15.33a200.86,200.86,0,0,1,24.06-11.25c15-6.15,30.1-12,45.41-17.38a501.81,501.81,0,0,1,85.77-21.28,533.93,533.93,0,0,1,167.1,0c7,1.1,14,2.31,21,3.67-1.05-1.07-2.08-2.17-3.14-3.24q-80.06-81-166.79-155.11-29.46-25.15-59.7-49.45c-5.54.81-11.12,1.41-16.5,2.23-11.84,1.78-23.65,3.36-35.34,6.05-24.52,5.65-48.4,12.53-71.5,22.63a345.11,345.11,0,0,0-64.23,37.12c-9.81,7.13-19,15-28.42,22.58a168.65,168.65,0,0,1-31.05,19.47c-3,1.48-5.07-2.31-4.22-4.73,1.5-4.32,2.81-9,5.09-13,2.56-4.46,5.95-8.57,9-12.7,6.3-8.58,14.91-15.58,23.13-22.23A326.78,326.78,0,0,1,531.31,2115c36.23-19.5,75.93-33.89,116.9-38.91,7.78-.95,16.36-2,25.08-2.43A2815.09,2815.09,0,0,0,398,1880.9c-4.32-.1-8.7-.45-13.17-.76-11.71-.78-23.42-1.19-35.15-1.46-23.54-.52-47,.72-70.21,4.89a176.3,176.3,0,0,0-55.87,19.83c-8.86,5.07-16.89,11.13-24.92,17.41-8.22,6.41-15.15,13.61-24,19.17-5.72,3.58-14.54-1-12.73-8.32Z"/><path class="cls-8" d="M2040.17,509.92a139.45,139.45,0,0,0-22.52,8.74A103.33,103.33,0,0,0,2008.1,498c-14.18-23.13-57.32-22.29-62.64,8.18-4.32,24.68-1.16,48.48-.35,73.44.79,24.69,26.27,50.11,52.6,40.08,28.11-10.7,59.71-21.78,80.79-43.94,26.72-28.08.31-76.62-38.33-65.84Z"/><path class="cls-8" d="M2460.48,1318c-5.71-13-22.43-24.25-37.17-18.24-7.28,3-14.31,5.9-21,9.28a158.42,158.42,0,0,0-4.4-19.59c-4-12.72-20.41-14.52-27.59-3.61-13.12,19.92-9.61,47.35-3.37,69.25,3,10.6,12.28,16.68,22.84,17.39,21.25,1.44,39-6,57.75-15.14,14-6.76,18.75-26,12.9-39.34Z"/><path class="cls-8" d="M2604.41,2401a82.52,82.52,0,0,0-27.49-.76c2-15.08,4.46-30.17.06-44.67-5.18-17.12-27.13-23.68-40.13-10.6-23.43,23.6-18.93,59.87-23.85,89.94-3.43,21,8.58,41.45,31.76,41.7,20.87.21,50.2-2.25,67.64-14.51,21.62-15.19,22.4-54.67-8-61.1Z"/><path class="cls-8" d="M339.9,2499.51c-6.06-23.62-36.13-30.2-53-14A54.21,54.21,0,0,0,276,2501c-16.22-14.61-35-26.68-53.93-26.17-8,.21-16,6.93-15.5,15.49,1.83,29.8,31.33,59,47.88,82.45,11.94,16.93,35.91,22.94,51.79,6.67,20.3-20.8,41.41-49.6,33.62-80Z"/><path class="cls-8" d="M246.76,1425c-9.11-8.22-20.76-9.54-31.59-4.08-12.54,6.32-17.78,16.9-22.78,29.33-.74,1.84-1.29,3.17-1.83,4.41a74.4,74.4,0,0,0-9.06-6.35c-9.17-5-21.51-7.18-31.32-3-10.57,4.44-19.9,14.83-15.58,27.42,11,32.09,38.56,72.06,77.64,57,33.67-13,66.31-76,34.52-104.64Z"/><path class="cls-8" d="M492,654.42c-14.52-4-26.15,5-33.23,16.7a83.82,83.82,0,0,0-4.58,8.79c-3.21-4.89-5.66-10.19-10.31-14-19.71-16.32-45.41-.76-41.39,24.09,3.08,19,23.31,42.69,40,51.52,24.3,12.86,45.64-2,55.88-24.13,8.54-18.42,23.7-54.66-6.35-62.94Z"/><path class="cls-8" d="M842.89,269.8c-12.4,7.24-20.52,18.72-28.71,30.26-10.57-11.43-21.32-22.15-36.25-30.35-18.55-10.19-43.49,6.77-36.87,28.35s17,36.8,30.68,54.4c12.48,16.07,26.5,32.24,49.13,29.25,33.41-4.41,67.81-53.11,70.1-84.32,1.82-24.71-28.33-39.12-48.08-27.59Z"/><path class="cls-8" d="M1987.69,246.52c-17.65,0-25.49,15.08-31.23,30.41a25.32,25.32,0,0,1-3.08,6.44c-.11-.13-.22-.29-.38-.52-3.66-5.65-8.47-9.29-14.38-12.23-10.1-5-25.55.84-24.51,14a10.66,10.66,0,0,0-1.25,4.89,45.78,45.78,0,0,0-.88,8.67,34.38,34.38,0,0,0,5.91,19.07c8,12.23,22.73,18.77,37,19.34,30.34,1.2,53.77-22.62,58.27-51.52,2.45-15.65-5.84-38.57-25.5-38.57Z"/><path class="cls-8" d="M1030.63,53.41c-12-3.55-21.32,1.44-32.2,5.77-2.31.92-4.68,1.69-7,2.53l-.15-3.13c-.37-9.28-.11-19.65-8.12-25.84-4.66-3.6-10.34-5.23-15.8-2-16.83,9.85-13.06,40.21-13.05,57,0,13.36,12.27,20.89,24.42,18.6,19.43-3.65,52.63-7.42,62.46-27,5.16-10.25.89-22.53-10.54-25.92Z"/><path class="cls-9" d="M1585.45,22C1068.5-103.89,876.56,340.17,896.7,610S788,908.08,824.2,1016.83s-48.34,229.58,24.16,338.33,785.41,169.17,870,80.56,116.8-185.28,88.61-298,104.72-181.26,72.5-310.15,169.16-692.77-294-805.54Z"/><path class="cls-10" d="M1994.93,1638.45s19.71,114.38,34,208.24c0,0-52.82,54.91-59.53,57.59s-138.29,8-149-2.68,5.37-157.09,22.82-183.94,53.7-83.24,63.1-96.67,88.61,17.46,88.61,17.46Z"/><path class="cls-10" d="M749,1516.27s-14.76,146.34,4,314.17c13,116.27,205.42,126.2,208.1,128.89s53.7-53.71,52.36-83.25,4-100.69-17.45-153.06-52.36-145-77.88-165.13-100.69-40.28-108.74-37.59-60.42-4-60.42-4Z"/><path class="cls-11" d="M2019.54,1637.11s-21.48-261.36-290-365.19c0,0-77,85.92-82.34,84.14s-653.4-211.24-653.4-211.24C816.59,1177,681,1438,668.46,1504.19c0,0,69.36,106.06,298.5,147.24l-3.58,393.82S912,2563.45,858,2700.67h1082c-13.83-55.92-79-331.34-123.56-727.92-.73-6.41,113.67-299.85,113.67-299.85s30.44,3.58,89.5-35.79Z"/><path class="cls-12" d="M1059.87,1260.32c-12.72-3.16-27.35,4.08-38.8,9.13a313.84,313.84,0,0,0-33.91,17.49c-10.82,6.45-22,12.16-32.68,18.9-12.39,7.84-22.62,17.31-32.17,28.32a439,439,0,0,0-83.91,148.52c-11.67,35.58-16.24,74.5-5.76,111a29.32,29.32,0,0,0,6.14,11c-2.4-.63-4.78-1.27-7.11-2q-13.95-4.31-27.64-9.47a316.72,316.72,0,0,1-50.82-24.8,231.5,231.5,0,0,1-40.87-30.59,201.61,201.61,0,0,1-17.67-19.06c-5.34-6.58-10.09-14-15.88-20.15-3.73-3.94-10.53.14-9,5.27,4.74,16.47,17.85,31.58,29.26,43.92a245.59,245.59,0,0,0,42.45,36c16.59,11.24,35,19.87,53.51,27.4q14.17,5.74,28.77,10.29c9.8,3.09,20.44,7.42,30.82,7.06a9.06,9.06,0,0,0,7.55-13.45,24.86,24.86,0,0,0,6.42-1.15c14.89-4.82,24.88-20.17,20.36-35.87-1-3.3-1.82-6.61-2.5-10-.16-.78-.29-1.56-.43-2.34-.08-.37-.22-1.13-.32-1.79-.06-.3-.1-.6-.17-.9.06.29.1.45.14.68,0-.19-.05-.38-.06-.52a175.08,175.08,0,0,1-.32-21.73c.11-1.72.24-3.43.4-5.14,0-.35.16-1.47.26-2.42s.33-2.28.4-2.68c.28-1.72.6-3.43.93-5.14,1.44-7.31,3.29-14.54,5.44-21.68,2-6.76,4.35-13.44,6.85-20,1.1-2.88,2.25-5.74,3.41-8.6.16-.39.86-2,1.25-2.95.57-1.27,1.34-3,1.48-3.35q7.47-16.82,16.14-33.07A499.42,499.42,0,0,1,961,1375.25c.15-.22.24-.33.36-.5.69-.87,1.37-1.74,2.06-2.6q2.79-3.48,5.66-6.88c5.06-6,9.71-12.23,14.32-18.59,3.33-4.6,6.34-9.42,9.72-14l.27-.36.2-.25c.68-.87,1.37-1.73,2.06-2.58q3.44-4.26,7-8.39c8-9.2,18.21-17,28.41-23.71,11.14-7.29,26.29-12.77,34.22-23.68,3.47-4.76-.15-12.07-5.44-13.39Z"/><path class="cls-13" d="M886,1565.81c.11.47.07.13-.35-2a1.46,1.46,0,0,0,0,.22c.11.6.22,1.19.32,1.79Z"/><path class="cls-12" d="M2017.62,1628.33c-7.54-1.4-14,4.92-20.06,8.61q-8.91,5.4-18.13,10.25l-1.93,1a39.47,39.47,0,0,0,1.69-3.86c3.39-9.48,3-22,3.54-32,.56-9.34.86-18.72.87-28.09,0-19.91-1.2-40.07-6-59.47-4.23-17.18-14.8-34.17-24.14-49.13a223.35,223.35,0,0,0-15.49-21.8c-4.71-5.84-11.12-14-18.8-15.58a6.66,6.66,0,0,0-8,4.55c-2,6.89,1.06,15.45,2.77,22.21,2,7.83,3.86,15.72,5.36,23.67,2.71,14.43,1.8,29.17,3.44,44.8a447.87,447.87,0,0,1,2.93,49.39c-.09,18.06-2.05,35.83-3.25,53.82-1,14,11.12,25.91,24.07,28.16a8.43,8.43,0,0,0-1.81,3.4,4.43,4.43,0,0,0,2,4.8c5.54,3.87,14.4-1.13,19.79-3.31,6.83-2.76,13.64-5.62,20.2-9q9.28-4.73,18.26-10,4.36-2.57,8.63-5.25c3.73-2.34,7.63-4.58,8.61-9.21.68-3.19-.91-7.29-4.51-8Z"/><path class="cls-12" d="M1831.32,2075c-3.19-5.72-15.62-3-20.47-1.39-7.24,2.43-16.53,5.52-25,7.89-10.74,3-21.36,6.61-31.95,10.33a30.59,30.59,0,0,0-11.42-23.15,28.93,28.93,0,0,0-37.94,2.26c-8.76,8.61-16.31,18.72-24.66,27.78q-6.63,7.22-13.45,14.24a31.48,31.48,0,0,0-4.45,2.25c-7,4.39-14.23,7.67-20.09,13.74-9.16,9.5-17.59,19.73-26.69,29.32s-18.32,18.79-27.74,27.91q-22.35,19.07-45.15,37.56-14.47,11.74-29,23.45-6.9,5.63-13.84,11.23-2.89,2.34-5.8,4.63c-1,.78-2,1.56-3,2.33l-1,.75q-15.84,11.74-32.64,22.11c-3.72,2.29-7.07,4.9-10.55,7.49.85-.66-5.33,3.76-5.94,4.22-2.78,2.16-4.32,4.85-6.58,7.45.21-.27.18-.28-.84.73-1.61-.75-3.2-1.5-4.74-2.29q-15.69-8.07-30.67-17.39c-10-6.21-19.8-12.77-29.41-19.59q-6.74-4.8-13.36-9.76c-2-1.53-4.06-3.08-6.09-4.62,1,.72-3.55-2.77-4.92-3.85-18.73-14.81-36.88-30.35-54.91-46-19.21-16.7-38.26-34.47-58.85-49.46a188.69,188.69,0,0,0-34.39-20.27,20.11,20.11,0,0,0-6.3-8.9c-7.83-6.19-13.37-8.65-23.11-9.63-3.45-.35-6.92-.64-10.38-1-8.56-.92-17.13-1.78-25.69-2.67-9-.93-18-1.89-27.05-2.93-4.06-.47-8.1-1-12.15-1.47l-3.12-.42c-1.78-.24-3.55-.49-5.33-.76-17-2.49-33.73-6-50.54-9.42-8.41-1.71-16.76-3.56-25.25-4.88a84.3,84.3,0,0,0-17.15-1.3,49,49,0,0,0-8.29,1.06,14.08,14.08,0,0,0-4.56,1.51c-2.37,1.46-3,1.6-2,.44-12.73,3.14-15.81,19.18-7.43,28.17,2.05,2.19,5,6.78,8,9.42a65.73,65.73,0,0,0,13.69,9.56,181.24,181.24,0,0,0,29.11,11.41,245.51,245.51,0,0,0,25.66,6.12c8.37,3.78,16.76,7.54,25.1,11.38,13.16,6.05,26.61,11.68,39.49,18.31,6.13,3.16,11.94,6.83,18.07,10,2.69,1.41,5.33,2.92,7.88,4.57,1.48,1,2.9,2,4.32,3,.62.45,3.89,3.08,2.77,2.13,21.64,18,42.78,36.35,65,53.58,24.62,19.06,49.84,37.37,74.84,55.93,22.5,16.69,44.6,36.07,69.38,49.31,28.26,15.11,60,18.26,90.81,9.43,29.15-8.37,54-25.75,76.6-45.47,21.25-18.55,41.16-38.73,61.53-58.25q16.55-15.87,32.8-32.14c25.77-21.48,51.08-43.51,75.16-66.87q15.23-14.79,29.74-30.28c8.34-8.92,17.08-18,24.83-27.65,16.81-3.1,33.76-6,50.29-10.13,8.45-2.15,17-4,25.14-7.33s18.92-14.11,13.55-23.74Z"/><path class="cls-10" d="M1303.5,942.54s7.22,84.91-73.4,134.26c-87.71,53.7-236.29,68-236.29,68S1120.91,1359.64,1316,1374s413.52-102,413.52-102-257.78-30.43-189.76-302.52c0,0-164.68-64.45-175.43-62.67s-60.86,35.81-60.86,35.81Z"/><path class="cls-14" d="M1426.84,2316.88s-635.57-326.46-555.65-806c59-354.32,476.56-320.85,590.74-147.69,0,0,136.71-159.47,314.16-85.92,269.32,111.64,278.7,674.24-349.25,1039.59Z"/><path class="cls-15" d="M1528.41,1050.26c.4-24.25,3.94-51.11,11.38-80.86,0,0-164.68-64.45-175.43-62.67s-60.86,35.81-60.86,35.81,7.22,84.91-73.4,134.26c-5.16,3.15-10.54,6.17-16.08,9.06,105.09,21.15,216.57,8.09,314.39-35.6Z"/><path class="cls-10" d="M1137.91,523.65s-80.55-10.73-89.5,75.18S1129,704.46,1129,704.46s35.8,320.42,300.74,349.07,333-372.34,336.55-440.37c0,0-184.39-195.12-195.13-318.64,0,0-209.44,220.18-433.21,229.13Z"/><path class="cls-15" d="M1135.27,594.6c-1.79-8.89-4.85-17-10.58-24.13s-13.69-11.86-23-12.24a24.28,24.28,0,0,0-11.56,2.38,16.24,16.24,0,0,0-4.61,3.12c-1.39,1.47-1.84,3.9-2.51,5.78-.85,2.41,2.27,4.76,4.37,3.36,1.23-.83,1.4-.48,2.93-.91.94-.26,1.79-.84,2.72-1.17a13.18,13.18,0,0,1,6-.46,15.5,15.5,0,0,1,9.8,5.47,21.84,21.84,0,0,1,3.73,7.35,18.63,18.63,0,0,0-8.83,4.7c-7.24,6.77-10,18.53-11.57,28-1.74,10.4-3.5,24,4.61,32.19,9.07,9.2,22.91,4.31,30.26-4.36,6.07-7.18,8.89-15.65,9.91-24.89.88-8-.09-16.28-1.69-24.18Z"/><path class="cls-16" d="M1268.2,1826.68l-.33,0a14.55,14.55,0,0,0-7.53-.49c-5.73.29-10.34,2.45-15.18,5.25-2.74,1.58-5.45,3.21-8.17,4.81-.23-.15-.47-.3-.69-.46Q1228,1830,1219.9,1824c-2.9-2.12-5.77-4.25-8.63-6.42q-2.14-1.62-4.28-3.25c-.22-.16-.43-.33-.62-.48q-33.4-26.16-65.59-53.84c-1.57-1.35-12.08-9.59-7.38-6-2.85-2.21-5.7-4.44-8.55-6.66-5.5-4.28-11-8.58-16.29-13.08s-10.62-9.44-16.22-13.77c-5.89-4.55-8.63-6.61-14.66-12.08-19-17.18-36.94-35.88-49.07-58.58a168,168,0,0,1-14.89-39.21c-1.7-7-3.52-14-4.33-21.22s-.28-14.58-1-21.85c-.44-4.37-6-6.4-8.53-2.31-6.9,11.15-8.76,26-9.79,38.85-1.08,13.27,1.06,27.19,4.49,40,7.2,27,20.68,53.23,37,75.77,34.82,48,78.68,89.9,124.67,127.16q10,8.13,20.28,16c-2.6.87-5.17,1.83-7.78,2.62-11.44,3.49-23.07,6.08-34.65,9-23,5.76-46.23,8.94-69.69,12-25.24,3.33-50.7,11-76.22,11.54a2.43,2.43,0,0,0-1.21,4.48c11.94,8.13,24.95,9.59,39.07,10.24,12.75.57,25.6,1.47,38.36,1.33,25.16-.26,50.54-2.61,75.54-5.22a388.18,388.18,0,0,0,75.56-15.91c.55-.17,1.1-.38,1.65-.56.7.47,1.38,1,2.08,1.45,11.56,7.77,22.94,11.16,36.78,8.09,12.87-2.85,19.45-17.25,16.61-29.25a34.55,34.55,0,0,0-1.9-5.61c7.28-5.37,10.85-11.41,13-20.3,2.71-11.12-5.08-19.14-15.54-20.39Z"/><path class="cls-16" d="M1234.12,1617c-.36-2.11-.84-4.2-1.22-6.31-.24-1.41-.48-2.82-.7-4.23q-.53-3.66-.2-1.16c-1.31-9.07-2.17-17.06-2.73-27.85-.47-9.28-1.08-18.49-.79-27.8.31-9.89,2.42-20.92-1.77-30.17-2-4.49-9.47-6.43-13.42-3.52-9,6.63-12.33,19.2-15,29.61a189.69,189.69,0,0,0-5.6,31.88,160.56,160.56,0,0,0,.34,30c1.5,13.12,2.47,27.63,11.78,37.84,9.07,10,26.29,4.64,29.63-7.82,1.84-6.84.83-13.57-.35-20.45Z"/><path class="cls-16" d="M1612.53,1643.39c-12-17.12-34.68,2.5-44.2,12.65-13.23,14.1-24.54,30.36-35,46.55-10.21,15.77-20.31,32.2-28.26,49.24-.73,1.57-1.4,3.16-2.12,4.74-2.73-.65-5.47-1.25-8.18-2-9.66-2.5-19.09-5.71-28.68-8.43-18.66-5.33-37.14-11.41-55.39-18-17.65-6.34-35.08-13.36-52.29-20.81-8.9-3.85-17.76-7.81-26.59-11.81-8.64-3.91-19.56-9.47-29.34-8.32-3.74.44-8,3.89-6.3,8.28,3.62,9.2,12.23,15.93,19.93,21.72q12.66,9.56,25.54,18.82c17.38,12.58,35.06,24.74,53.36,36,18.88,11.56,38.91,22.26,59.73,29.92,9.77,3.58,19.78,6.59,29.82,9.28h0c0,.37-.06.74-.07,1.12a20.62,20.62,0,0,0,10.28,17.93,22.48,22.48,0,0,0,10.48,2.83c7.35.49,14.18-4.36,17.93-10.28a60.65,60.65,0,0,0,5.37-11.34c9.46-5.62,14.31-17.13,12.88-27.75a28,28,0,0,0-1.22-5.09c1.16-3,2.32-6.11,3.53-9.14,6.31-15.71,12.62-30.83,20.58-45.82A484,484,0,0,1,1591,1679.2a95.57,95.57,0,0,1,13.4-15.51c4.74-4.52,13.26-13,8.13-20.3Z"/><path class="cls-16" d="M1742.11,1624.87c-11.54,3.07-21.84,8-32.28,13.82s-19.23,15.09-27.82,23.3-17.62,17.3-26.58,23.29c-10.38,6.93-20.63,14-31.35,20.42-14.18,8.47-38.67,18-33,38.93,2.59,9.66,12.12,15.66,21.93,15.25,9-.36,16.94-6,24.29-10.65,22.68-14.47,43.5-30.26,60.89-50.94a312,312,0,0,0,25.23-34.39c7.23-11.5,12.73-23.82,21.4-34.44,1.65-2,.16-5.35-2.67-4.59Z"/><path class="cls-16" d="M1859,1728.14a9.07,9.07,0,0,0-10.57-1.37c-7.08,3.49-9.41,10.06-12.54,16.79-3.25,7-7,13.86-10.71,20.65a399.71,399.71,0,0,1-23.62,38.53c-7.77,11-18.14,22.82-28.67,34.44s-21.92,22.91-33.38,33.86c-6.36,6.09-12.37,12.59-16.91,20.19a44,44,0,0,0-3.24,6.71c.93-2.19,1.2-5.62-1,2.23a18.25,18.25,0,0,0,1.8,13.81c6.66,11.38,21.56,12.37,32.34,7.17,8.44-4.07,15.35-10.48,22-16.94,23.77-23.09,46.4-47.24,64-75.45,9.31-14.89,17.43-31.26,22.12-48.23a137.66,137.66,0,0,0,4.32-26.61c.65-9.13,1.23-19.07-6-25.78Z"/><path class="cls-16" d="M1699.3,2075.6a19.14,19.14,0,0,0-6.52-4.49c-8.63-6-20.43-5.87-30.56-7.6-11.37-2-22.77-4-34.09-6.26C1616,2054.84,1604,2052,1592,2049a21.22,21.22,0,0,0-4.63-12.59c-5.56-7-15.44-10.68-24.14-8.17-3.76-.56-7.54-1.07-11.33-1.48a169.63,169.63,0,0,0-17.75-.93c-1.94,0-3.85.11-5.76.19,3.29-7.68,3.67-16.53-1.13-24a27.94,27.94,0,0,0-30.45-12.39c-12.23,2.93-22.82,10.68-33.7,16.78-1.85,1-3.72,2-5.57,3a43.21,43.21,0,0,0-17.4-.09,49.37,49.37,0,0,0-6.9,3.05s-.12,0-.37.12a10.53,10.53,0,0,0-9,5.42q2.74-2.64-2,2.93a17.54,17.54,0,0,0-2.33,8.23c-5.63,2.71-11.28,5.37-17,7.93-4.47,2-9,4-13.48,5.92l-4.22,1.76c-2.88,1.18-5.77,2.33-8.66,3.48-43.43,17.18-87.79,29.4-133.65,37.88-12.19,2.26-24.41,5.39-36.51,6.74-13.41,1.5-30.81-.54-41.48,8.79-4,3.46-5.25,11.42-2,15.81,7.86,10.72,21.69,12.39,34.08,14.44a344.09,344.09,0,0,0,40.35,4.59c25.54,1.11,51.07-3.33,76-8.95,47.43-10.69,93.83-29.59,137.62-50.43l1.81-.89.21,0c7.62-1.18,15.29-2.48,23-3.64,22.83,5.93,46.19,9.64,69.29,14.29,23.77,4.78,47.51,9.75,71.52,13.18,13,1.86,25.9,3.47,39.06,3.61,11.82.13,26.76,1.18,37.06-5.65a18.27,18.27,0,0,0,6.83-4.71,12.75,12.75,0,0,0,0-17.63Z"/><path class="cls-10" d="M2029,1846.69s-180.19,63.23-389.75-4.27-303.32-133.38-323-156-36-153.18-77.13-174.18-24.82,58.21-22.82,91.3c0,0-45.45-13.85-65.84-76.83s-50.13-55.33-57.2-41.6c0,0-13.48-24.23-34.07-19.73s-19.46,31.3-19.46,31.3-27.69,7.31-29.53,39.72c0,0-19.34,12.22-15.42,45.66s20,78.4,83.35,137.46,114.24,98.86,132.4,111.66,250,228.4,489.17,258.46,352.13-121.37,329.32-242.95Z"/><path class="cls-10" d="M754.38,1826.41s171.85,94,397.41,64.45,333-77.88,357.12-96.67,65.79-153.06,111.44-166.49,14.77,68.48,6.71,100.7c0,0,58.4-22.16,90.63-80.56s61.08-45.64,65.78-30.88c0,0,18.13-21.48,38.27-13.42s14.09,34.23,14.09,34.23,26.85,12.09,22.83,44.31c0,0,17.45,15.44,7.38,47.66s-45.64,92-120.83,139-134.26,77.2-155.07,86.59-296,180.8-544.87,168.28-286.41-170.06-290.89-297.16Z"/><path class="cls-15" d="M1507.71,1792.55c-5.13-.1-8.69,2.3-13.21,4.54q-7.82,3.86-15.71,7.53-15,7-30.22,13.28-30.37,12.48-61.73,22.4-30.67,9.67-62.09,16.76c-10.46,2.35-21,4.23-31.46,6.57-5.65,1.27-11.28,2.58-16.94,3.76-4.31.9-7.61,1.43-9.86,5.29a2.34,2.34,0,0,0,.36,2.78c3.26,3.09,6.47,2.71,10.9,2.28,5.73-.57,11.47-1.19,17.19-1.9,10.3-1.27,20.51-3.47,30.65-5.63q33.44-7.12,66.14-17.21,32-9.88,63.06-22.56,15.12-6.17,30-12.94c8.93-4.08,22.3-7.83,28.08-16,2.71-3.83-1-8.86-5.14-9Z"/><path class="cls-15" d="M1727.38,1871.64c-20.32,11.73-39.68,25.38-59.74,37.6s-40.46,24.06-61.06,35.42c-41.16,22.72-83.4,43.48-125.8,63.76-4.84,2.31-1.37,10.83,3.7,8.78,43.69-17.69,86-38.32,127.46-60.68q31.08-16.74,61.42-34.79c20.43-12.16,41.75-24.25,60.78-38.52,6.71-5,.92-16-6.76-11.57Z"/><path class="cls-15" d="M1782.57,1620.67c-1.43-3.19-6.25-.87-5.48,2.31.42,1.73-1.27,4.17-2,5.65-1.17,2.46-2.39,4.9-3.61,7.34-2.18,4.36-4.5,8.67-6.93,12.89a277.76,277.76,0,0,1-56.31,69.22c-4.07,3.57-8.25,7-12.56,10.31-3.33,2.54-6.86,4.89-10.25,7.38a1,1,0,0,0-1.12-.47,30.12,30.12,0,0,1-3.33,1.09,2.9,2.9,0,0,0-2,3.49,17.88,17.88,0,0,0,1.58,5c1.2,2.6,4.62,2.89,6.87,1.8,4.82-2.31,9.25-6.08,13.5-9.31s8.44-6.54,12.49-10a245.13,245.13,0,0,0,23.08-22.5,234.71,234.71,0,0,0,36.32-53.24c2.57-5.22,5-10.52,7.17-15.91,1.92-4.75,4.8-10,2.54-15.1Z"/><path class="cls-15" d="M1832.13,1640.11c-3.4,3.41-5.61,8.5-7.92,12.69-2.6,4.76-5.2,9.52-7.93,14.2q-7.92,13.53-16.9,26.42a350.55,350.55,0,0,1-40.63,48.32q-6.42,6.36-13.18,12.39c-2.1,1.86-4.22,3.71-6.37,5.52a35.18,35.18,0,0,0-2.83,2.73c-.09,0-.18,0-.28,0a10.09,10.09,0,0,0-4.61,6,4.19,4.19,0,0,0,6.08,4.68,42.22,42.22,0,0,0,6.78-4c2.2-1.75,4.33-3.6,6.45-5.46q6.14-5.34,12-11,11.73-11.28,22.32-23.69a304.93,304.93,0,0,0,36.79-53.73q4.42-8.25,8.3-16.77c2.29-5.08,5.37-11.14,5.6-16.77a2.17,2.17,0,0,0-3.67-1.52Z"/><path class="cls-15" d="M1856.11,1684.31c-3.15,5.26-5.1,11.32-7.51,16.94s-5.2,11.35-8,16.94a248,248,0,0,1-18.57,31.27,226,226,0,0,1-23.18,27.93q-6.55,6.72-13.61,12.95c-2.34,2.05-4.82,4-7,6.21-1,1-1.74,2.68-2.8,3.55-.63.53-1.89.41-1,.52a1.49,1.49,0,0,0-1.29.73c-2.12,3.37,2.37,4.89,5,4.76,5.06-.26,9.61-4.89,13.23-8a223.36,223.36,0,0,0,22.83-22.8,231.33,231.33,0,0,0,35.73-55.07,179.08,179.08,0,0,0,6.61-16.92c1.93-5.68,3.92-11.72,4.17-17.76.11-2.51-3.38-3.29-4.6-1.25Z"/><path class="cls-15" d="M1159.57,1631c-1.08-2.27-1.8-4.21-3.49-6.14s-3.55-3.71-5.27-5.61c-3.62-4-7-8.18-10.27-12.45a187.77,187.77,0,0,1-16.74-26.71,294.1,294.1,0,0,1-24.41-62.19A109.63,109.63,0,0,1,1096,1498c-.23-3.38-.21-6.76-.24-10.14,0-2.51.33-5.62-1.65-7.47a1.07,1.07,0,0,0-1.25-.16c-4.23,2.07-3.77,10.49-3.73,14.39a106.92,106.92,0,0,0,1.91,18.45c2.27,12.32,6.33,24.22,10.69,36,7.75,20.83,17,41.35,30.14,59.41a124.11,124.11,0,0,0,12.05,14.34,84.43,84.43,0,0,0,6.46,6.09c2.59,2.14,4.75,2.87,8,3.74a1.14,1.14,0,0,0,1.26-1.65Z"/><path class="cls-15" d="M1111.12,1633.35c-2-5.13-6.89-9.84-10.16-14.25a351.13,351.13,0,0,1-36.68-61.91,279.43,279.43,0,0,1-14.86-38.55A108.53,108.53,0,0,1,1045,1497c-.54-6.62.72-13.5-.34-20-.13-.79-1.17-.72-1.54-.19-3.3,4.52-3.62,10.81-3.77,16.23a85.85,85.85,0,0,0,1.75,18.08c2.33,12.32,6.69,24.26,11.29,35.89a355.67,355.67,0,0,0,32.83,63.63q4.88,7.47,10.12,14.69c1.59,2.18,3.24,4.3,4.9,6.42s3.72,5.24,6.36,6.48c4,1.87,6-1.15,4.5-4.86Z"/><path class="cls-15" d="M1090.32,1681c-5.85-8.26-15-13.77-22-21a141.36,141.36,0,0,1-19.16-25.56c-12.35-20.65-19.86-43.67-26.94-66.53-2.1-6.78-4.3-13.56-6.07-20.44-.86-3.35-1.67-6.71-2.33-10.11s-.86-7.17-1.62-10.69c-.31-1.4-2.24-1.2-2.65,0-1.93,5.7-1.11,12.52-.15,18.34,1.06,6.36,3,12.61,4.74,18.81,3.45,12.37,7,24.73,11.27,36.84,8,22.45,18.44,44.12,34.49,62,7.57,8.42,17.52,19,29.48,20.06a1.11,1.11,0,0,0,1-1.65Z"/><path class="cls-17" d="M1896.64,1424.39q-4.8-8.62-10.31-16.82a265.16,265.16,0,0,0-59.25-63.39c-13.35-10.19-27.49-19.68-44.26-22.91-9.38-1.8-20.64-2.72-30,.14-7.21,2.2-17.73,7.9-17.44,16.59.24,7.32,6,13.18,9.59,16.72,1.28,1.24,7.21,5.75,4,3.25,2.12,1.67,4.19,3.32,6.34,5-2-1.55-5.56-4,3.7,2.88,1.89,1.4,3.82,2.76,5.73,4.15,1.28.92,2.53,1.87,3.82,2.79-2.42-1.75-7.15-4.85,3.77,2.91,2.51,1.78,5.13,3.38,7.67,5.1s5,3.52,7.42,5.28l.29.21c1.39,1.15,2.82,2.26,4.2,3.41a264.66,264.66,0,0,1,28.52,27.2c1.94,2.19,3.84,4.4,5.71,6.66.93,1.12,1.84,2.27,2.76,3.41,3.62,4.49-.11-.51-.53-.69,1.76.76,4,5.53,5.14,7.1q3.12,4.5,6,9.13c3.75,6,6.76,12.57,11.06,18.14,10,12.91,31.7,17,43.51,3.87,10.7-11.93,9.95-26.67,2.47-40.11Z"/><path class="cls-17" d="M1919.41,1542.54c-.55-3.29-2.12-6.32-3.56-9.32a34,34,0,0,0-7.94-11.24,21.25,21.25,0,0,0-10.1-6.33c-6.41-1.58-11.55,0-15.58,5.37a15.25,15.25,0,0,0-.93,1.34c-.11.21-.47,1.07-.84,1.94-.29.65-1.66,3.89-1.77,4.33a18,18,0,0,0-.47,3,36.1,36.1,0,0,0-.9,6c0,.7-.14,1.4-.21,2.09a58,58,0,0,0-1,9.2,66.65,66.65,0,0,1-.51,7.21c-.34,2.31-.69,4.62-1,6.93l.81-6c-.51,3.49-1.34,7-1.4,10.53-.06,4.42,1.19,10.16,3.62,13.92,2.78,4.27,7.18,8.3,12.32,9.47l5.47.74a20.66,20.66,0,0,0,10.41-2.81c3.76-1.62,8-6.56,10-10a34.49,34.49,0,0,0,3.57-9.73,60.76,60.76,0,0,0,1.3-16.08,98.4,98.4,0,0,0-1.21-10.44Z"/><path class="cls-15" d="M970.08,1881.3c-16.64-7.77-35.69-9.43-53.47-13.41a477.35,477.35,0,0,1-54.42-15.62c-3.91-1.4-6.47,4.75-2.82,6.68a273.72,273.72,0,0,0,53.69,21.79c17.84,5.08,38,10,56.42,5.15,2-.52,2.61-3.66.6-4.59Z"/><path class="cls-15" d="M1943.9,1859.46c-4-2.18-7.52-4.22-12-5.06-5.14-1-10.18-.64-15.36-.38-10.53.49-21.06,2.08-31.54,3.25-10.17,1.14-20.3,2.56-30.44,4-7.65,1.08-19.13,2.66-24,9.36a1.39,1.39,0,0,0,.21,1.67c5.76,5.6,17.43,5.25,24.9,5,10.53-.29,21-.75,31.53-1.41,10.14-.64,20.37-.94,30.45-2.25,5.19-.68,10.35-1.09,15.29-2.88,4.54-1.64,7.79-4.43,11.5-7.38,1.27-1,.79-3.25-.51-4Z"/><path class="cls-12" d="M1089.72,1243.05c-1.55-6-7.34-8-12.06-11.14a118.27,118.27,0,0,1-12.71-10c-8.42-7.45-16.49-15.31-24.27-23.4a602.75,602.75,0,0,1-44.92-52.18c-4.16-5.44-13.33-.64-9.48,5.55a374.93,374.93,0,0,0,43.6,57.42c8,8.65,16.3,17.07,25,25a152.81,152.81,0,0,0,13.19,10.76c4.74,3.42,11,8.46,17.16,5.91,3.24-1.35,5.42-4.17,4.47-7.88Z"/><path class="cls-18" d="M1871.43,649.14c-6.85-3.63-13-7.62-20.27-10.34-6.88-2.57-14-4.53-20.72-7.48a191.94,191.94,0,0,1-38.8-23.29c-24.8-18.79-46-42.2-66.41-65.49-43.26-49.3-84.31-101.33-113.66-160.31a387.94,387.94,0,0,1-21-51.26q-4.21-12.69-7.4-25.7c-.92-3.75-1.66-7.53-2.49-11.29,3-6.26,4.37-15.19-2.2-19.06-11.15-6.55-22.66,5.43-29.77,12.49q-23.78,23.65-48.61,46.23c-65.76,59.91-142.18,110.69-224.69,144.27-85.45,34.77-179.17,51-271.12,39.39-11.46-1.45-22.81-3.78-34.37-4.21-4.36-.16-6.45,6.56-2.3,8.53,19.89,9.4,43.31,12.24,64.95,15a417.14,417.14,0,0,0,70,2.92,538.43,538.43,0,0,0,136.25-23C1326,490,1405.21,442.91,1476.82,387c18-14,35.5-28.68,52.77-43.55,8.34-7.17,16.48-14.53,24.55-22,3.27-3,7-6.1,10.63-9.32,1.19,6.2,2.49,12.38,4,18.5a343,343,0,0,0,16.35,48.19c13.53,32.41,30.84,62.75,50.73,91.66s41.75,56.33,64.32,83.11c21.18,25.14,42.87,50.19,68.28,71.18,14.35,11.85,29.69,22.69,46.56,30.64,8.37,3.94,17.35,8.1,26.47,9.9,10,2,18.37.67,28-2,6.25-1.72,7.86-11,1.86-14.22Z"/><path class="cls-18" d="M971.25,852.84c12.49-42,17.46-86.31,17.3-130.08-.08-21.65-1.1-43.29-2.59-64.89-.75-10.86-1.67-21.66-3-32.45-1.4-11.13-2.15-22.73-6-33.3-1.17-3.15-6.18-3.79-7.06,0-4.24,18.26-2.37,39-2.08,57.63.31,19.84.27,39.69-.47,59.52-1.47,39.1-5,78.27-14.11,116.41-8.8,37.05-26.66,71-35.77,107.83-4.73,19.11-6,38.26-2.88,57.72,3,18.23,10.75,37.48,6.4,56.1-4,17.12-15.67,31.49-18.95,48.88-2.65,14.07-1.78,35.2,13.64,41.91,4,1.75,9.94,1.58,12.2-2.72,2.75-5.22-1.6-12.68-2.58-17.76-3.06-15.75,4.23-28.83,10.69-42.62,8.69-18.56,11.74-35.81,8.67-56.17-2.9-19.13-8.83-37.18-7.44-56.77C939.85,924,960.51,889,971.25,852.84Z"/><path class="cls-18" d="M1089.46,752.55c-17.26-13.63-31.16,31.15-34.4,41.68-7.42,24.06-11,49.27-12.59,74.35-3.37,52.49,3.11,104.93,2,157.43-.29,14.7-1.19,29.4-2.93,44-1.63,13.66-7.93,30-.35,42.57a4.2,4.2,0,0,0,5.64,1.48c10.62-5.86,12.77-17.71,14.63-28.88a352.76,352.76,0,0,0,4.19-37.09c1.47-24.92.71-49.9-.44-74.82-2.16-47-6.23-94.9,1.07-141.68a256.53,256.53,0,0,1,8.89-38.39c1.91-6,3.84-12.09,6-18,1.19-3.23,3.07-14.46,6.37-15.75,2.52-1,4.51-4.75,1.82-6.89Z"/><path class="cls-18" d="M1174.85,962.13c-2.21-3.94-9-4.43-11.09,0-4.26,9.14-3.85,20.24-4.65,30.16q-1.21,15.11-2.66,30.23c-1,9.81-2.39,19.52-4,29.25A87.24,87.24,0,0,0,1151,1068c.11,5.35,1.3,9.16,3.26,14.11,1,2.61,3.91,3.55,6.11,1.61,3.85-3.39,6.61-6.07,8.79-10.8a63.25,63.25,0,0,0,4.92-15.16c2-10.89,3.43-22,4.55-33a241.22,241.22,0,0,0,1.27-31.34c-.28-10,0-22.32-5.06-31.28Z"/><path class="cls-18" d="M1826.75,717.91c-3-6.36-12.2-1.69-10.87,4.58,7.77,36.41,10,72.31-1.83,108.18-5.7,17.21-14.45,32.73-24.92,47.44-10.33,14.51-21.73,28.55-29,45s-8.88,32.71-6.33,50.25c2.65,18.12,9.33,36,8.5,54.46-.81,18.17-13.28,31.64-22.35,46.4-9.26,15.07-13.87,31.75-16.14,49.17-2.4,18.44-2.45,37.07-4.43,55.55-1.94,18-9.72,34.46-11.25,52.33-.33,3.8,4,5.24,6.88,4,16.5-7.51,21.16-26.09,23.92-42.62,2.86-17,3.38-34.31,4.71-51.51,1.25-16.15,3.25-33,10.07-47.93,7.72-16.86,21.19-30.51,26.18-48.73,10.24-37.35-19-73.55-5.4-110.37,6.19-16.7,17.86-31,28-45.35,10.59-15,19.44-30.61,25.69-47.89,13.9-38.49,16.3-85.3-1.52-122.89Z"/><path class="cls-18" d="M1667.41,1002.37c2.88-6.52,9.26-16.56,7.43-23.79a3.46,3.46,0,0,0-3.31-2.52c-7.65.74-13.48,9.76-17.12,15.91-4.84,8.18-8.31,17.54-11,26.64-5.65,19.24-6.73,39.14-4.33,59,1.33,11,3.22,22,2.83,33.07s-3.43,22.22-6.79,32.93c-3.21,10.2-6.72,20.32-10.11,30.47a77.34,77.34,0,0,0-4.06,33.23c.28,3.31,4.64,6,7.23,3,7.17-8.42,12-16.14,15.54-26.74,3.38-10.12,6.36-20.42,9.43-30.64,6.47-21.51,9.17-41.71,6-64.05-2.79-19.85-5.23-38.76-1-58.64a140.26,140.26,0,0,1,9.25-27.85Z"/><path class="cls-18" d="M1513.52,190.16c-14.15,13-29.39,24.58-42.82,38.37s-27.28,26.94-41.82,39.46a657.51,657.51,0,0,1-93,66.48,681.71,681.71,0,0,1-214.46,82.21,615,615,0,0,1-63.63,9.32c-21.49,2-43,2.27-64.23,6.27-3.59.68-3.38,6.24,0,7.06,19.3,4.69,38.75,4.49,58.49,3.52,19.56-1,39-2.89,58.42-5.59a612.56,612.56,0,0,0,115.26-27.13,668.38,668.38,0,0,0,207-115.62,636.07,636.07,0,0,0,48.37-44.2c16.16-16.37,28.05-34.95,39.42-54.74,2.57-4.48-3.3-8.8-7-5.41Z"/><path class="cls-18" d="M1415.82,127.09c-22.49,17.77-44,36.8-65.89,55.3-21.51,18.19-44.64,34.36-68.45,49.38-24.51,15.47-49.73,29.84-75.15,43.75-26.67,14.6-53.39,29.71-81.15,42.15a240.73,240.73,0,0,1-51,16.87c-8.37,1.68-16.76,3.55-25.27,4.34s-17.51-1-25.48,1.84c-1.17.42-2,2.11-.8,3.06,5.33,4.42,11.56,5.06,18.3,6a161,161,0,0,0,25,1.73c15.6-.26,31.54-4.24,46.42-8.72,31.63-9.54,61.19-24.31,90.4-39.49,53.67-27.9,106.38-57.7,153.71-95.64,26.36-21.14,50.12-45.57,64.36-76.7a3.21,3.21,0,0,0-5-3.88Z"/><path class="cls-18" d="M1811.41,490.87a2.37,2.37,0,0,0-.77,0c-.74-2.2-3.62-3.81-5.21-5.23-4.13-3.68-8-7.53-12.31-11.08-8.46-7-16.83-14.13-24.79-21.75a401.92,401.92,0,0,1-43.57-48.89,429.4,429.4,0,0,1-62.27-116.23c-4-11.47-7.28-23.12-10.31-34.87-3.17-12.3-7.11-24.71-9.5-37.16-.94-4.91-8.5-3.64-8.54,1.15-.08,11.83-.52,23.13.76,34.94a315.84,315.84,0,0,0,5.82,33.69,382,382,0,0,0,21.6,66.78,373.59,373.59,0,0,0,77.85,115.89,355,355,0,0,0,29.37,26.82c10.25,8.31,22.58,18.75,36,14.17,4.37-.86,7.75-2.57,10.46-6.81s0-10.07-4.64-11.39Z"/><path class="cls-18" d="M1839.2,415.31l-1.34-1.74c1.24,1.65.9,1.21-1-1.3.27.29-2.8-3-1.82-1.88-3.36-3.89-6.65-7.68-10.34-11.29-24.46-23.89-46.24-49.8-64.69-78.63-10.45-16.32-19-33.45-27.37-50.91-8.49-17.74-17.36-36.41-23.09-55.21-.33-1.06-2.13-.92-2,.28,1.59,17,2.75,33.33,6.78,50,4.1,17,10.23,33.21,17.24,49.19a331.79,331.79,0,0,0,56.56,88.4c5.26,5.86,10.64,11.71,16.39,17.1,7.18,6.75,15.53,14.38,26.23,11.68,7.27-1.82,11.31-8.73,8.5-15.67Z"/><path class="cls-9" d="M1378.1,538.79a15.34,15.34,0,0,0-4.53-9.57c-5.14-5.27-12.65-8.72-19.58-10.88a54.64,54.64,0,0,0-19.78-2.1c-7.17.49-14.83,2-20.62,6.45a39.25,39.25,0,0,0-7.43,6.9c-1.76,2.27-3.68,5.45-3.34,8.43l0,.16c0,.32,0,.63,0,1.16s0,1,0,1.45c.1,2.13,2,4.84,4.35,5l1.11.09.94.06.71.24a6.75,6.75,0,0,0,3.57-.07l.6-.13.13,0,0,0c.83-.17.61-.12.18,0,1.78-.35,3.49-.8,5.24-1.24.17,0,.55-.1.91-.18l.43-.06c1.09-.14,2.18-.2,3.26-.33a39.31,39.31,0,0,0,4.34-.91c.37-.07,1-.2,1.22-.23.63-.09,1.26-.17,1.89-.23,1.27-.12,2.54-.2,3.81-.22h1.49c1,.14,2,.19,3,.35,1.26.2,2.5.46,3.73.78,1.07.27,5.2,1.71,1,.2.47.15.93.32,1.39.48l.4.16c.55.29,1.19.47,1.76.72,1.15.51,2.29,1.07,3.39,1.68l1.1.65c.92.74,1.88,1.48,2.82,2.17a16,16,0,0,0,5.7,2.63,13.5,13.5,0,0,0,2.46.68c7.11,1.14,16-4.56,14.64-12.79-.09-.54-.24-.94-.35-1.43Z"/><path class="cls-9" d="M1669.54,597.55c-8.42-9.53-19.27-16.18-31.92-18.42a53.56,53.56,0,0,0-17.32-.4c-4.09.62-7.46,2.23-11.08,4.16-3.36,1.79-5.17,4.4-7.19,7.49-2.73,4.17.79,11,5.63,11.57a93.64,93.64,0,0,0,14.21.34c2-.08,4-.19,6-.18l1,.13c1.17.15,2.34.36,3.49.61s2.08.49,3.11.79l.7.24a41.94,41.94,0,0,1,5.74,2.74c.39.22.76.46,1.15.69.76.58,1.53,1.14,2.26,1.76s1.59,1.39,2.34,2.14a12,12,0,0,0,.86.89c2.15,2.53,4.46,4.47,7.84,5.16a13.16,13.16,0,0,0,9.75-1.94c5-3.71,8.14-12.41,3.4-17.77Z"/><path class="cls-15" d="M1488,756.45l.09,0a8.93,8.93,0,0,0-4.31-1.53,24.36,24.36,0,0,0-3.43.26c-1.4.25-2.79.48-4.17.79-2.25.53-4.34,1.53-6.58,2.13-.48.13-1,.24-1.43.35,0,0-1,.17-1.3.21l-1.65.17a45.27,45.27,0,0,1-7,.25c-.53,0-2-.57-.67,0s-.21,0-.69-.12c-1.09-.17-2.18-.39-3.26-.66-2.11-.51-4.2-1.13-6.27-1.77l-.2,0-.25-.12c-.4-.18-.8-.35-1.19-.54a31.55,31.55,0,0,1-3.14-1.7c-1.86-1.16-3.83-2.11-5.63-3.35-3.79-2.6-8.34,2-7.19,5.92,3.54,11.83,14.89,19.38,26.52,22a45.81,45.81,0,0,0,19.4,0,23.56,23.56,0,0,0,9.33-3.58,22.86,22.86,0,0,0,4.33-3.88,10.48,10.48,0,0,0,2.75-7.55,6.78,6.78,0,0,0-4.08-7.19Z"/><path class="cls-15" d="M1480.31,755.2c.33-.05.67-.13,1-.19-1.13.2-1.29.23-1,.19Z"/><path class="cls-8" d="M1288.19,722.19c.5-11.75-6.91-22.69-17.15-28-9.45-4.87-20.39-6.88-30.87-8-11.43-1.22-24.25,2.39-32.08,11.19-8.79,9.91-11.1,24.54-3.72,36,5.88,9.14,15.13,14.86,25.26,18.29,10.84,3.67,22.76,4.76,33.95,2.12,12.31-2.92,24.61-12.42,24.51-26.19a21.16,21.16,0,0,0-.26-2.12,33.12,33.12,0,0,0,.36-3.34Z"/><path class="cls-8" d="M1707.08,788.42c.49-11.74-6.91-22.7-17.16-28-9.44-4.87-20.39-6.88-30.86-8-11.43-1.23-24.25,2.39-32.08,11.19-8.79,9.9-11.1,24.54-3.72,36,5.88,9.14,15.13,14.84,25.25,18.28,10.85,3.67,22.77,4.77,34,2.12,12.32-2.91,24.61-12.41,24.52-26.19,0-.73-.19-1.4-.26-2.11a33.32,33.32,0,0,0,.36-3.35Z"/><path class="cls-15" d="M1500.1,830.94c-4.57,2.48-7.4,7.42-11.21,10.9a54,54,0,0,1-11.05,7.78,49.69,49.69,0,0,1-26.17,5.51c-8.72-.44-17.12-3.72-24.35-8.5-3.9-2.59-7-5.8-10.29-9.09-3.47-3.51-7.18-6.55-10.35-10.39-3-3.68-7.76.46-7.16,4.17.88,5.5,2.42,11.71,5.69,16.29a62.58,62.58,0,0,0,12.4,12.83,67.46,67.46,0,0,0,32.75,14.17c12.59,1.71,25.22-.92,36.69-6.17a66.36,66.36,0,0,0,15.31-9.85c4.77-4.06,11.36-10,12.36-16.41,1.29-8.39-6.44-15.67-14.62-11.24Z"/><path class="cls-9" d="M1365,616.75c-11.39,19-32.39,28.37-53.85,21.21-9.87-3.29-19.29-9.72-25.07-18.45-3.68-5.56-6.13-11.79-10.12-17.15-3.08-4.14-10.61-9.41-14.69-3.22s1.64,14.72,4.13,20.44a79.28,79.28,0,0,0,11,18.89,65.37,65.37,0,0,0,35.29,22.4c28.38,6.86,60-6.39,75-31.42,8.36-13.92-13.39-26.58-21.72-12.7Z"/><path class="cls-9" d="M1681.51,672.23a10.44,10.44,0,0,0-10.62-8.38,13.37,13.37,0,0,0-10.18,3.6c-1.72,1.58-3.17,3.44-4.84,5.08-1.45,1.42-3.79,3.4-4.46,3.89a53.23,53.23,0,0,1-11.34,6.27c-8.37,3-16.36,3.79-24.57,1.64-16.71-4.38-27.18-19.5-32.52-36.18-2.16-6.71-12.9-7.66-14.59,0-5.81,26.4,16.19,51.16,40.23,58.53,12.19,3.74,25.8,3.24,37.9-.6,12.75-4.05,26.54-11.89,34-23.33a12.36,12.36,0,0,0,1-10.52Z"/></g></g></g></svg>