<svg width="35" height="35" viewBox="0 0 35 35" fill="none" xmlns="http://www.w3.org/2000/svg">
<path d="M17.5 0C22.2547 0 22.848 0.0174999 24.7135 0.105C26.5772 0.1925 27.846 0.48475 28.9625 0.91875C30.1175 1.36325 31.0905 1.96525 32.0635 2.9365C32.9534 3.81132 33.6419 4.86953 34.0812 6.0375C34.5135 7.15225 34.8075 8.42275 34.895 10.2865C34.9772 12.152 35 12.7452 35 17.5C35 22.2547 34.9825 22.848 34.895 24.7135C34.8075 26.5772 34.5135 27.846 34.0812 28.9625C33.6432 30.1311 32.9545 31.1896 32.0635 32.0635C31.1884 32.9531 30.1303 33.6416 28.9625 34.0812C27.8477 34.5135 26.5772 34.8075 24.7135 34.895C22.848 34.9772 22.2547 35 17.5 35C12.7452 35 12.152 34.9825 10.2865 34.895C8.42275 34.8075 7.154 34.5135 6.0375 34.0812C4.86907 33.6428 3.81067 32.9542 2.9365 32.0635C2.04646 31.1888 1.35788 30.1306 0.91875 28.9625C0.48475 27.8477 0.1925 26.5772 0.105 24.7135C0.0227499 22.848 0 22.2547 0 17.5C0 12.7452 0.0174999 12.152 0.105 10.2865C0.1925 8.421 0.48475 7.154 0.91875 6.0375C1.35666 4.86881 2.04541 3.81031 2.9365 2.9365C3.81092 2.04615 4.86925 1.35753 6.0375 0.91875C7.154 0.48475 8.421 0.1925 10.2865 0.105C12.152 0.0227499 12.7452 0 17.5 0ZM17.5 8.75C15.1794 8.75 12.9538 9.67187 11.3128 11.3128C9.67187 12.9538 8.75 15.1794 8.75 17.5C8.75 19.8206 9.67187 22.0462 11.3128 23.6872C12.9538 25.3281 15.1794 26.25 17.5 26.25C19.8206 26.25 22.0462 25.3281 23.6872 23.6872C25.3281 22.0462 26.25 19.8206 26.25 17.5C26.25 15.1794 25.3281 12.9538 23.6872 11.3128C22.0462 9.67187 19.8206 8.75 17.5 8.75ZM28.875 8.3125C28.875 7.73234 28.6445 7.17594 28.2343 6.7657C27.8241 6.35547 27.2677 6.125 26.6875 6.125C26.1073 6.125 25.5509 6.35547 25.1407 6.7657C24.7305 7.17594 24.5 7.73234 24.5 8.3125C24.5 8.89266 24.7305 9.44906 25.1407 9.8593C25.5509 10.2695 26.1073 10.5 26.6875 10.5C27.2677 10.5 27.8241 10.2695 28.2343 9.8593C28.6445 9.44906 28.875 8.89266 28.875 8.3125ZM17.5 12.25C18.8924 12.25 20.2277 12.8031 21.2123 13.7877C22.1969 14.7723 22.75 16.1076 22.75 17.5C22.75 18.8924 22.1969 20.2277 21.2123 21.2123C20.2277 22.1969 18.8924 22.75 17.5 22.75C16.1076 22.75 14.7723 22.1969 13.7877 21.2123C12.8031 20.2277 12.25 18.8924 12.25 17.5C12.25 16.1076 12.8031 14.7723 13.7877 13.7877C14.7723 12.8031 16.1076 12.25 17.5 12.25Z" fill="#F8F8F8"/>
</svg>
