<svg width="35" height="35" viewBox="0 0 35 35" fill="none" xmlns="http://www.w3.org/2000/svg">
<path d="M20.3053 17.207L16.3748 15.373C16.0318 15.2137 15.75 15.3922 15.75 15.772V19.2265C15.75 19.6062 16.0318 19.7847 16.3748 19.6255L20.3035 17.7915C20.6483 17.6305 20.6483 17.368 20.3053 17.207ZM17.5 0.699219C8.22151 0.699219 0.700012 8.22072 0.700012 17.4992C0.700012 26.7777 8.22151 34.2992 17.5 34.2992C26.7785 34.2992 34.3 26.7777 34.3 17.4992C34.3 8.22072 26.7785 0.699219 17.5 0.699219ZM17.5 24.3242C8.90051 24.3242 8.75001 23.549 8.75001 17.4992C8.75001 11.4495 8.90051 10.6742 17.5 10.6742C26.0995 10.6742 26.25 11.4495 26.25 17.4992C26.25 23.549 26.0995 24.3242 17.5 24.3242Z" fill="#F8F8F8"/>
</svg>
