<?xml version="1.0" standalone="no"?>
<!DOCTYPE svg PUBLIC "-//W3C//DTD SVG 20010904//EN"
 "http://www.w3.org/TR/2001/REC-SVG-20010904/DTD/svg10.dtd">
<svg version="1.0" xmlns="http://www.w3.org/2000/svg"
 width="300.000000pt" height="300.000000pt" viewBox="0 0 300.000000 300.000000"
 preserveAspectRatio="xMidYMid meet">

<g transform="translate(0.000000,300.000000) scale(0.100000,-0.100000)"
fill="#000000" stroke="none">
<path d="M665 2913 c-25 -189 -120 -321 -263 -365 l-43 -13 4 -760 c3 -753 3
-761 26 -840 111 -396 438 -680 1009 -879 l102 -35 103 35 c380 133 659 308
829 523 69 86 148 242 179 356 23 79 23 87 26 840 l4 760 -43 13 c-143 44
-238 176 -263 365 l-6 47 -829 0 -829 0 -6 -47z m864 -83 l22 -60 65 0 c36 0
64 -4 64 -10 0 -5 -3 -10 -7 -10 -5 0 -27 -17 -51 -38 l-42 -37 15 -50 c23
-75 17 -80 -42 -40 l-53 36 -52 -36 c-60 -40 -66 -35 -43 40 l15 50 -42 37
c-24 21 -46 38 -50 38 -5 0 -8 5 -8 10 0 6 28 10 64 10 l65 0 22 60 c12 33 25
60 29 60 4 0 17 -27 29 -60z m-4 -300 c4 -6 -5 -24 -19 -40 -23 -28 -43 -95
-49 -164 -2 -26 -9 -32 -52 -47 -66 -23 -101 -23 -214 1 -119 25 -223 25 -346
0 -114 -23 -193 -25 -239 -6 -70 29 -54 66 29 66 37 0 60 6 76 19 29 23 23 32
-48 70 -59 32 -63 58 -13 83 64 32 177 16 409 -57 78 -25 154 -45 169 -45 31
0 124 43 202 94 56 36 84 44 95 26z m825 -18 c50 -25 46 -51 -13 -83 -71 -38
-77 -47 -48 -70 16 -13 39 -19 76 -19 83 0 99 -37 29 -66 -46 -19 -125 -17
-239 6 -123 25 -227 25 -346 0 -112 -23 -149 -25 -193 -6 l-33 14 -6 90 c-3
50 -11 100 -17 111 -14 27 -8 26 42 -5 65 -41 140 -74 170 -74 15 0 85 18 155
41 236 76 359 93 423 61z m-598 -410 c-13 -4 -15 -83 -3 -136 l6 -29 28 39
c29 43 34 73 16 105 -9 18 -8 19 18 13 58 -14 78 -25 64 -34 -11 -6 -12 -23
-5 -81 l9 -72 42 60 c32 45 39 63 31 71 -9 9 -7 12 7 12 21 0 58 -20 38 -20
-6 0 -44 -47 -85 -105 -40 -57 -79 -104 -85 -105 -9 0 -13 21 -13 74 0 41 -4
77 -8 80 -5 3 -31 -24 -57 -61 -57 -77 -59 -76 -69 67 -4 52 -9 110 -13 127
l-5 33 48 -17 c27 -9 43 -18 36 -21z m-1030 -267 c25 -39 72 -99 102 -134 43
-50 56 -72 56 -97 0 -18 4 -44 10 -58 7 -20 6 -26 -8 -29 -16 -4 -16 -5 1 -12
27 -11 31 -1 18 49 -6 25 -11 59 -11 76 l0 32 59 -54 c33 -30 107 -82 164
-116 104 -62 180 -130 211 -190 21 -40 22 -39 -19 -52 -19 -6 -35 -18 -35 -25
0 -14 46 -28 71 -23 15 3 35 -72 25 -97 -5 -15 -7 -15 -22 -1 -38 39 -88 0
-89 -67 0 -23 4 -57 8 -74 8 -30 6 -34 -18 -43 -64 -24 -73 -24 -77 7 -3 27
-5 28 -47 25 -41 -3 -44 -2 -31 13 12 14 12 18 -1 26 -8 5 -22 9 -32 9 -10 0
-28 5 -40 12 -21 11 -21 11 -2 19 17 6 15 9 -17 23 -39 17 -48 31 -26 38 7 3
-6 17 -30 33 -43 29 -53 45 -27 45 23 0 18 13 -20 50 -43 41 -44 50 -5 50 35
0 38 10 10 35 -28 25 -64 85 -56 92 3 4 17 1 30 -5 13 -6 26 -8 29 -5 3 2 -8
32 -24 66 -19 42 -25 63 -17 68 7 5 6 14 -6 30 l-16 23 0 -34 c0 -19 9 -55 20
-79 23 -50 21 -58 -10 -41 -12 6 -24 10 -26 8 -9 -10 18 -75 47 -111 l31 -38
-37 7 -37 7 15 -29 c8 -16 27 -40 42 -54 l27 -25 -24 -6 c-23 -5 -23 -6 12
-39 19 -18 34 -39 32 -46 -1 -6 9 -21 22 -32 14 -11 23 -22 20 -25 -9 -9 48
-47 72 -47 25 0 40 -15 24 -25 -5 -3 -10 -12 -10 -20 0 -11 11 -13 50 -8 l50
6 -6 -32 c-7 -36 -3 -37 55 -16 56 19 53 3 -8 -56 -65 -62 -125 -77 -229 -55
-38 8 -85 22 -103 32 l-34 17 23 15 c37 24 26 39 -44 56 -37 9 -80 24 -96 32
-31 16 -29 34 3 34 29 0 23 29 -8 36 -41 10 -95 39 -117 62 -18 21 -18 21 8
28 23 5 38 34 18 34 -13 0 -91 70 -103 92 -10 18 -8 19 25 17 19 -2 38 0 42 4
4 3 -10 25 -30 47 -38 42 -74 106 -64 115 2 3 23 -5 46 -17 22 -13 44 -19 48
-15 4 4 -15 31 -43 60 -45 46 -73 85 -73 101 0 3 16 -2 35 -10 31 -12 35 -12
35 0 0 8 -5 18 -10 21 -20 12 -58 101 -66 150 l-7 50 48 -44 c27 -25 50 -40
53 -33 2 6 -8 45 -22 86 -15 41 -29 97 -32 123 l-7 48 30 -40 c37 -50 59 -69
72 -61 7 5 7 16 0 34 -17 44 -39 170 -39 224 l0 51 58 -114 c31 -63 78 -146
104 -184z m1708 146 c-7 -41 -18 -91 -25 -112 -25 -70 11 -61 68 16 l30 40 -7
-48 c-3 -26 -17 -82 -32 -123 -14 -41 -24 -80 -22 -86 3 -7 26 8 53 33 l48 44
-7 -50 c-8 -49 -46 -138 -66 -150 -5 -3 -10 -13 -10 -21 0 -12 4 -12 35 0 19
8 35 13 35 10 0 -16 -28 -55 -73 -101 -28 -29 -47 -56 -43 -60 4 -4 26 2 48
15 23 12 44 20 46 17 10 -9 -26 -73 -64 -115 -20 -22 -34 -44 -30 -47 4 -4 23
-6 42 -4 33 2 35 1 25 -17 -12 -22 -90 -92 -103 -92 -20 0 -5 -29 18 -34 26
-7 26 -7 8 -28 -22 -23 -76 -52 -116 -62 -32 -7 -38 -36 -9 -36 32 0 34 -18 3
-34 -16 -8 -59 -23 -96 -32 -70 -17 -81 -32 -44 -56 l23 -15 -34 -17 c-18 -10
-65 -24 -103 -32 -104 -22 -164 -7 -229 55 -61 59 -64 75 -8 56 58 -21 62 -20
55 16 l-6 32 50 -6 c39 -5 50 -3 50 8 0 8 -5 17 -10 20 -16 10 -1 25 24 25 24
0 81 38 72 47 -3 3 6 14 20 25 13 11 23 26 22 32 -2 7 13 28 32 46 35 33 35
34 12 39 l-24 6 27 25 c15 14 34 38 42 54 l15 29 -37 -7 -37 -7 31 38 c29 36
56 101 47 111 -2 2 -14 -2 -26 -8 -31 -17 -33 -9 -10 41 11 24 20 60 20 79 l0
34 -16 -23 c-12 -16 -13 -25 -6 -30 8 -5 2 -26 -17 -68 -16 -34 -27 -64 -24
-66 3 -3 16 -1 29 5 13 6 27 9 30 5 8 -7 -28 -67 -56 -92 -28 -25 -25 -35 10
-35 39 0 38 -9 -5 -50 -38 -37 -43 -50 -20 -50 26 0 16 -16 -27 -45 -24 -16
-37 -30 -30 -33 22 -7 13 -21 -25 -38 -33 -14 -35 -17 -18 -23 19 -8 19 -8 -2
-19 -12 -7 -30 -12 -40 -12 -10 0 -24 -4 -32 -9 -13 -8 -13 -12 -1 -26 13 -15
10 -16 -31 -13 -42 3 -44 2 -47 -25 -3 -26 -6 -28 -30 -22 -47 11 -115 49
-134 75 -36 51 -47 223 -14 236 6 2 47 -2 91 -10 106 -18 131 1 45 34 -43 17
-110 60 -110 71 0 4 23 32 51 63 32 35 87 77 155 118 58 34 132 86 165 116
l59 54 0 -32 c0 -17 -5 -51 -11 -76 -13 -50 -9 -60 18 -49 17 7 17 8 1 12 -14
3 -15 9 -8 29 6 14 10 40 10 58 0 25 13 47 56 97 77 88 146 195 207 319 49
100 52 104 55 70 2 -19 -2 -68 -8 -109z m-1166 114 c-3 -14 3 -60 15 -105 24
-88 22 -106 -13 -139 -35 -33 -85 -38 -118 -11 -26 20 -32 36 -74 182 -3 9
-13 19 -22 21 -14 3 -12 6 8 14 14 6 41 14 60 18 30 7 33 6 23 -7 -10 -12 -7
-33 14 -107 29 -101 47 -122 89 -102 35 16 38 49 13 141 -18 64 -28 84 -43 88
-19 5 -18 7 9 18 42 18 46 17 39 -11z m838 -116 c53 -34 56 -37 31 -35 -20 1
-123 -146 -123 -176 0 -10 11 -25 25 -34 21 -13 31 -15 50 -6 34 16 119 146
112 172 -5 20 -4 20 24 3 27 -16 28 -19 12 -26 -10 -5 -40 -43 -68 -85 -59
-90 -85 -104 -142 -75 -44 21 -69 59 -60 94 3 13 27 57 53 97 38 59 44 75 34
87 -19 23 -1 18 52 -16z m-1198 -16 c-6 -26 89 -187 112 -190 31 -4 57 24 64
69 l7 43 16 -37 c10 -21 17 -39 17 -42 0 -4 -159 -95 -185 -105 -5 -2 -4 3 3
12 12 14 7 29 -38 107 -29 51 -61 95 -73 99 -17 7 -15 10 24 34 52 31 58 32
53 10z m-150 -1194 c33 -26 33 -52 1 -73 -14 -10 -31 -28 -37 -42 -15 -32 -51
-31 -77 2 -28 36 -27 79 4 109 30 31 73 32 109 4z m1601 -4 c31 -30 32 -73 4
-109 -26 -33 -62 -34 -77 -2 -6 14 -23 32 -37 42 -32 21 -32 47 1 73 36 28 79
27 109 -4z m-1515 -75 c26 -26 25 -44 -3 -63 -13 -9 -30 -29 -37 -46 -14 -34
-34 -39 -68 -15 -30 21 -27 35 11 59 18 11 39 35 47 52 18 38 23 40 50 13z
m1370 -13 c8 -17 29 -41 47 -52 38 -24 41 -38 11 -59 -34 -24 -54 -19 -68 15
-7 17 -24 37 -37 46 -28 19 -29 37 -3 63 27 27 32 25 50 -13z m-1430 5 c0 -5
-11 -19 -25 -32 -28 -27 -36 -8 -8 22 17 19 33 24 33 10z m1472 -9 c10 -9 18
-23 18 -31 0 -12 -6 -10 -25 8 -38 35 -31 58 7 23z m-1315 -55 c28 -26 29 -44
4 -58 -11 -5 -25 -26 -32 -45 -16 -43 -48 -47 -86 -9 l-26 26 31 18 c17 11 36
34 43 54 15 41 33 45 66 14z m1192 -14 c7 -20 26 -43 43 -54 l31 -18 -26 -26
c-38 -38 -70 -34 -86 9 -7 19 -21 40 -32 45 -25 14 -24 28 3 57 31 33 52 29
67 -13z m-1269 7 c0 -15 -38 -56 -45 -49 -9 9 21 58 35 58 6 0 10 -4 10 -9z
m1316 -16 c9 -14 13 -29 9 -33 -7 -7 -45 34 -45 49 0 18 20 9 36 -16z m-1122
-45 c20 -19 20 -20 -3 -44 -13 -14 -26 -40 -30 -58 -9 -43 -39 -48 -77 -14
l-29 26 21 17 c27 22 44 55 44 83 0 19 4 21 28 15 15 -3 36 -15 46 -25z m966
9 c0 -27 18 -60 44 -82 l21 -17 -29 -26 c-38 -34 -68 -29 -77 14 -4 18 -17 44
-29 57 -20 21 -21 27 -9 41 29 35 79 43 79 13z m-1065 -39 c-15 -29 -35 -40
-35 -19 0 20 21 49 36 49 13 0 13 -4 -1 -30z m1115 11 c5 -11 10 -24 10 -30 0
-21 -20 -10 -35 19 -14 26 -14 30 -1 30 9 0 20 -9 26 -19z m-920 -16 c33 -17
37 -31 15 -55 -8 -9 -18 -34 -23 -56 -8 -36 -11 -39 -41 -37 -19 0 -40 8 -48
16 -13 12 -11 19 11 52 14 21 26 51 26 66 0 33 16 37 60 14z m760 -14 c0 -15
12 -45 26 -66 22 -33 24 -40 11 -52 -8 -8 -29 -16 -48 -16 -30 -2 -33 1 -41
37 -5 22 -15 47 -23 56 -22 24 -19 37 13 54 44 24 62 20 62 -13z m-843 -33
c-16 -39 -43 -53 -32 -17 9 28 24 49 36 49 5 0 3 -14 -4 -32z m881 20 c5 -7
13 -24 17 -37 11 -36 -16 -22 -32 17 -13 32 -4 43 15 20z m-673 -12 c18 -13
18 -16 5 -41 -8 -14 -14 -44 -13 -65 2 -32 -2 -39 -22 -44 -26 -7 -69 6 -80
24 -4 6 3 23 16 36 17 18 23 36 23 65 -1 36 1 39 25 39 15 0 36 -6 46 -14z
m521 -25 c0 -29 6 -47 23 -65 13 -13 20 -30 16 -36 -11 -18 -54 -31 -80 -24
-20 5 -24 12 -22 44 1 21 -5 51 -13 65 -13 25 -13 28 5 41 10 8 31 14 46 14
24 0 26 -3 25 -39z m-620 -49 c-15 -15 -16 -14 -16 9 0 14 6 31 13 38 10 10
13 8 15 -10 2 -12 -3 -29 -12 -37z m234 43 c9 -11 10 -22 2 -42 -6 -16 -10
-44 -9 -63 2 -34 1 -35 -36 -38 -26 -2 -45 2 -58 14 -16 15 -17 19 -4 37 8 12
15 41 15 64 l0 43 39 0 c22 0 44 -6 51 -15z m270 -28 c0 -23 7 -52 15 -64 13
-18 12 -22 -4 -37 -13 -12 -32 -16 -58 -14 -37 3 -38 4 -36 38 1 19 -3 47 -9
63 -15 37 3 57 53 57 l39 0 0 -43z m160 -4 c0 -22 -2 -24 -15 -13 -8 7 -15 24
-15 37 0 22 2 24 15 13 8 -7 15 -24 15 -37z m-304 29 c5 -4 10 -27 10 -52 1
-25 4 -55 8 -66 6 -18 2 -23 -24 -33 -42 -14 -87 5 -81 34 2 11 4 40 4 65 1
49 9 60 47 60 14 0 30 -4 36 -8z m-226 -24 c0 -25 -12 -58 -21 -58 -10 0 -12
31 -3 54 7 19 24 21 24 4z m404 -4 c9 -23 7 -54 -3 -54 -9 0 -21 33 -21 58 0
17 17 15 24 -4z m-274 -39 c0 -19 -4 -35 -10 -35 -11 0 -14 53 -3 63 11 12 13
8 13 -28z m140 -6 c0 -16 -4 -29 -10 -29 -5 0 -10 16 -10 36 0 21 4 33 10 29
6 -3 10 -19 10 -36z"/>
<path d="M660 1814 c0 -21 130 -197 138 -189 3 3 -11 24 -30 47 -19 24 -51 68
-71 98 -20 30 -37 50 -37 44z"/>
<path d="M641 1677 c-1 -13 82 -118 125 -157 26 -24 19 -13 -22 36 -32 39 -69
84 -81 100 -12 16 -22 25 -22 21z"/>
<path d="M606 1556 c8 -20 176 -167 183 -160 3 3 -13 19 -35 37 -21 17 -65 56
-97 86 -32 30 -55 47 -51 37z"/>
<path d="M669 1367 c37 -40 121 -103 120 -90 0 4 -35 35 -77 67 -57 43 -68 50
-43 23z"/>
<path d="M660 1281 c0 -17 136 -108 146 -98 3 3 -7 12 -24 21 -16 8 -50 31
-76 51 -25 19 -46 31 -46 26z"/>
<path d="M710 1142 c0 -14 99 -62 124 -61 12 0 2 7 -24 16 -25 9 -57 25 -72
35 -16 11 -28 15 -28 10z"/>
<path d="M850 1021 c8 -6 28 -11 44 -11 39 0 31 6 -19 14 -29 5 -36 4 -25 -3z"/>
<path d="M900 960 c14 -9 99 -15 89 -6 -2 2 -26 6 -54 10 -34 4 -45 3 -35 -4z"/>
<path d="M2316 1789 c-10 -17 -40 -60 -68 -95 -27 -36 -48 -67 -46 -69 5 -5
109 130 127 163 19 35 8 36 -13 1z"/>
<path d="M2329 1648 c-12 -18 -47 -62 -78 -98 -41 -48 -45 -56 -17 -30 46 42
130 149 123 156 -3 3 -15 -10 -28 -28z"/>
<path d="M2340 1517 c-30 -29 -73 -67 -94 -85 -22 -17 -38 -33 -35 -36 6 -7
175 139 182 158 4 9 5 16 4 16 -1 0 -27 -24 -57 -53z"/>
<path d="M2283 1342 c-78 -62 -100 -92 -29 -42 39 29 117 101 105 99 -2 0 -36
-26 -76 -57z"/>
<path d="M2320 1275 c-7 -9 -39 -32 -72 -52 -66 -41 -72 -58 -6 -19 58 34 104
73 97 80 -3 4 -12 -1 -19 -9z"/>
<path d="M2260 1131 c-14 -10 -45 -25 -70 -34 -26 -9 -36 -16 -24 -16 24 -1
124 47 124 60 0 12 -1 12 -30 -10z"/>
<path d="M2105 1020 l-30 -8 30 -1 c17 0 37 4 45 9 13 9 13 10 0 9 -8 -1 -28
-5 -45 -9z"/>
<path d="M2045 960 l-40 -7 40 -1 c22 -1 47 3 55 8 18 12 10 12 -55 0z"/>
</g>
</svg>
