<svg id="Capa_1" enable-background="new 0 0 512 512" height="512" viewBox="0 0 512 512" width="512" xmlns="http://www.w3.org/2000/svg"><g><g><path d="m365.939 72.13v414.83c0 9.69-7.85 17.54-17.54 17.54h-306.41c-9.68 0-17.53-7.85-17.53-17.54v-414.83z" fill="#eaf6ff"/><g><path d="m365.939 72.13v125.21h-30.29l-11.753 43.909-26.541-.069s-5.156-2.642-5.156-5.95v-37.89h-25.12c-26.35 0-42.15-29.29-27.66-51.31l48.65-73.9z" fill="#c8effe"/></g><path d="m341.433 72.131v414.831c0 9.686-7.852 17.537-17.537 17.537h24.505c9.686 0 17.537-7.852 17.537-17.537v-414.831z" fill="#c8effe"/><path d="m365.939 63.78v52.29h-341.48v-52.29c0-6.85 5.55-12.4 12.4-12.4h316.68c6.85 0 12.4 5.55 12.4 12.4z" fill="#f07281"/><g><path d="m365.939 63.78v52.29h-106.8l42.59-64.69h51.81c6.85 0 12.4 5.55 12.4 12.4z" fill="#eb5569"/></g><g><path d="m454.341 197.341h-94.184l-32.718 41.602c-3.527 4.485-10.732 1.991-10.732-3.715v-37.887h-25.121c-26.355 0-42.146-29.295-27.659-51.306l81.383-123.629c13.082-19.874 42.226-19.874 55.309 0l81.373 123.629c14.495 22.011-1.296 51.306-27.651 51.306z" fill="#ffd15b"/></g><g fill="#feb137"><path d="m316.707 221.43v13.798c0 5.705 7.205 8.199 10.732 3.715l32.718-41.602h-15.391c-5.755 0-11.191 2.641-14.748 7.164z"/><path d="m481.991 146.035-81.373-123.629c-9.124-13.86-26.056-18.042-39.907-12.569 6.01 2.374 11.443 6.556 15.402 12.569l81.373 123.629c14.497 22.011-1.294 51.306-27.649 51.306h24.505c26.354 0 42.145-29.295 27.649-51.306z"/></g><path d="m210.167 196.069 8.604 17.433c2.432 4.927 7.132 8.342 12.57 9.133l19.238 2.796c13.693 1.99 19.161 18.817 9.252 28.475l-13.921 13.57c-3.935 3.835-5.73 9.361-4.801 14.777l3.286 19.161c2.339 13.638-11.975 24.038-24.223 17.599l-17.207-9.046c-4.863-2.557-10.674-2.557-15.537 0l-17.207 9.046c-12.247 6.439-26.562-3.961-24.223-17.599l3.286-19.161c.929-5.416-.867-10.941-4.801-14.777l-13.921-13.57c-9.908-9.658-4.441-26.486 9.252-28.475l19.238-2.796c5.438-.79 10.138-4.205 12.57-9.133l8.604-17.433c6.124-12.408 23.818-12.408 29.941 0z" fill="#c8effe"/><g><path d="m250.579 225.429-19.238-2.795c-5.438-.79-10.138-4.205-12.57-9.133l-8.604-17.433c-6.025-12.208-23.243-12.396-29.628-.58 12.766 4.148 11.121 26.055 26.296 27.146l19.238 2.795c13.693 1.99 19.161 18.817 9.252 28.476l-13.921 13.57c-3.935 3.835-5.73 9.361-4.801 14.777l3.286 19.161c1.021 5.952-1.131 11.287-4.899 14.875l5.181 2.724c12.247 6.439 26.562-3.961 24.223-17.599l-3.286-19.161c-.929-5.416.867-10.941 4.801-14.777l13.921-13.57c9.91-9.658 4.442-26.486-9.251-28.476z" fill="#99e6fc"/></g><path d="m111.74 402.29h-18.54c-5.569 0-10.083-4.514-10.083-10.083v-18.541c0-5.569 4.514-10.083 10.083-10.083h18.541c5.569 0 10.083 4.514 10.083 10.083v18.541c-.001 5.569-4.515 10.083-10.084 10.083z" fill="#99e6fc"/><path d="m111.74 363.584h-18.54c-.332 0-.659.018-.982.05 5.107.494 9.101 4.796 9.101 10.033v18.541c0 5.237-3.993 9.539-9.101 10.033.323.031.651.05.982.05h18.541c5.569 0 10.083-4.514 10.083-10.083v-18.541c-.001-5.569-4.515-10.083-10.084-10.083z" fill="#62dbfb"/><path d="m111.74 472.749h-18.54c-5.569 0-10.083-4.514-10.083-10.083v-18.541c0-5.569 4.514-10.083 10.083-10.083h18.541c5.569 0 10.083 4.514 10.083 10.083v18.541c-.001 5.569-4.515 10.083-10.084 10.083z" fill="#99e6fc"/><path d="m111.74 434.042h-18.54c-.332 0-.659.018-.982.05 5.107.494 9.101 4.796 9.101 10.033v18.541c0 5.237-3.993 9.539-9.101 10.033.323.031.651.05.982.05h18.541c5.569 0 10.083-4.514 10.083-10.083v-18.541c-.001-5.568-4.515-10.083-10.084-10.083z" fill="#62dbfb"/></g><g><path d="m488.255 141.912-81.373-123.63c-7.535-11.448-20.215-18.282-33.918-18.282-.001 0 0 0 0 0-13.703 0-26.384 6.835-33.919 18.282l-16.851 25.598h-50.854v-17.155c0-4.142-3.358-7.5-7.5-7.5s-7.5 3.358-7.5 7.5v17.155h-116.782c-4.142 0-7.5 3.358-7.5 7.5s3.358 7.5 7.5 7.5h116.781v14.088c0 4.142 3.358 7.5 7.5 7.5s7.5-3.358 7.5-7.5v-14.088h40.98l-32.71 49.69h-247.65v-44.79c0-2.702 2.198-4.9 4.9-4.9h60.111v14.088c0 4.142 3.358 7.5 7.5 7.5s7.5-3.358 7.5-7.5v-46.243c0-4.142-3.358-7.5-7.5-7.5s-7.5 3.358-7.5 7.5v17.155h-60.111c-10.973 0-19.9 8.927-19.9 19.9v423.18c0 13.807 11.229 25.04 25.03 25.04h306.41c13.807 0 25.04-11.233 25.04-25.04v-254.487c0-4.142-3.358-7.5-7.5-7.5s-7.5 3.358-7.5 7.5v254.487c0 5.536-4.504 10.04-10.04 10.04h-306.41c-5.531 0-10.03-4.504-10.03-10.04v-363.39h237.777l-12.074 18.342c-8.345 12.678-9.027 28.225-1.825 41.587 7.203 13.364 20.567 21.342 35.749 21.342h17.622v30.387c0 5.844 3.568 10.854 9.09 12.766 3.885 1.64 11.199.492 15.037-4.415l30.466-38.738h90.541c15.184 0 28.547-7.979 35.749-21.345 7.198-13.363 6.512-28.909-1.836-41.584zm-11.351 34.433c-4.526 8.43-13.522 13.496-23.09 13.496h-93.656c-2.3 0-4.474 1.056-5.896 2.864l-27.599 35.092c-.807 1.026-2.456.456-2.456-.85l-.003-59.774c0-4.219-3.483-7.624-7.731-7.497-4.105.123-7.269 3.704-7.269 7.811v22.354h-17.089c-9.57 0-18.567-5.066-23.094-13.497-4.52-8.417-4.084-18.203 1.17-26.185l81.131-123.248c4.676-7.103 12.472-11.698 20.974-11.904 9.041-.219 17.112 4.008 22.057 11.521l81.374 123.631c5.257 7.983 5.696 17.769 1.177 26.186z"/><path d="m372.301 153.856c-4.217 0-7.636 3.419-7.636 7.636s3.419 7.636 7.636 7.636 7.636-3.419 7.636-7.636-3.419-7.636-7.636-7.636z"/><path d="m372.301 138.586c4.142 0 7.5-3.358 7.5-7.5v-80.322c0-4.142-3.358-7.5-7.5-7.5s-7.5 3.358-7.5 7.5v80.322c0 4.142 3.357 7.5 7.5 7.5z"/><path d="m138.606 300.145c-1.568 9.143 2.12 18.21 9.625 23.664 7.097 4.927 16.206 6.381 25.479 1.841l17.208-9.047c2.679-1.408 5.877-1.41 8.557 0l17.208 9.046c8.211 4.316 17.974 3.611 25.479-1.841 7.505-5.453 11.193-14.521 9.625-23.664l-3.287-19.16c-.512-2.983.477-6.026 2.645-8.139l13.92-13.57c6.643-6.475 8.989-15.979 6.123-24.801-2.866-8.823-10.35-15.132-19.531-16.466l-19.238-2.796c-2.996-.436-5.583-2.315-6.923-5.03l-8.604-17.433c-4.105-8.319-12.419-13.487-21.696-13.487s-17.59 5.168-21.696 13.487l-8.604 17.433c-1.339 2.714-3.927 4.594-6.923 5.03l-19.238 2.796c-9.181 1.334-16.665 7.644-19.531 16.466-2.867 8.823-.521 18.326 6.122 24.801l13.921 13.57c2.167 2.113 3.156 5.155 2.645 8.138zm-2.808-51.611c-2.562-2.498-3.433-6.021-2.327-9.425s3.88-5.743 7.422-6.258l19.238-2.796c7.882-1.145 14.692-6.093 18.217-13.235l8.604-17.433c1.584-3.209 4.666-5.125 8.245-5.125s6.661 1.916 8.245 5.125l8.604 17.433c3.525 7.142 10.335 12.09 18.217 13.235l19.238 2.796c3.542.515 6.316 2.854 7.422 6.258 1.106 3.403.236 6.927-2.327 9.425l-13.921 13.57c-5.703 5.56-8.304 13.565-6.958 21.416l3.287 19.16c.605 3.527-.763 6.889-3.658 8.993-2.896 2.104-6.516 2.365-9.683.7l-17.208-9.046c-7.05-3.708-15.468-3.707-22.518 0l-17.208 9.047c-3.166 1.666-6.786 1.404-9.683-.7-2.895-2.104-4.263-5.465-3.658-8.992l3.287-19.161c1.346-7.85-1.255-15.855-6.958-21.415z"/><path d="m129.323 373.667c0-9.695-7.888-17.583-17.583-17.583h-18.54c-9.695 0-17.583 7.888-17.583 17.583v18.541c0 9.695 7.888 17.583 17.583 17.583h18.541c9.695 0 17.583-7.888 17.583-17.583v-18.541zm-15 18.541c0 1.424-1.159 2.583-2.583 2.583h-18.54c-1.424 0-2.583-1.159-2.583-2.583v-18.541c0-1.424 1.159-2.583 2.583-2.583h18.541c1.424 0 2.583 1.159 2.583 2.583v18.541z"/><path d="m301.773 375.437h-132.599c-4.142 0-7.5 3.358-7.5 7.5s3.358 7.5 7.5 7.5h132.599c4.142 0 7.5-3.358 7.5-7.5s-3.358-7.5-7.5-7.5z"/><path d="m111.74 426.542h-18.54c-9.695 0-17.583 7.888-17.583 17.583v18.541c0 9.695 7.888 17.583 17.583 17.583h18.541c9.695 0 17.583-7.888 17.583-17.583v-18.541c-.001-9.695-7.889-17.583-17.584-17.583zm2.583 36.124c0 1.424-1.159 2.583-2.583 2.583h-18.54c-1.424 0-2.583-1.159-2.583-2.583v-18.541c0-1.424 1.159-2.583 2.583-2.583h18.541c1.424 0 2.583 1.159 2.583 2.583v18.541z"/><path d="m301.773 445.896h-20.163c-4.142 0-7.5 3.358-7.5 7.5s3.358 7.5 7.5 7.5h20.164c4.142 0 7.5-3.358 7.5-7.5s-3.359-7.5-7.501-7.5z"/><path d="m169.174 445.896c-4.142 0-7.5 3.358-7.5 7.5s3.358 7.5 7.5 7.5h77.221c4.142 0 7.5-3.358 7.5-7.5s-3.358-7.5-7.5-7.5z"/></g></g></svg>