<svg xmlns="http://www.w3.org/2000/svg" xmlns:xlink="http://www.w3.org/1999/xlink" viewBox="0 0 2478.06 2708.23"><defs><style>.cls-1{fill:none;}.cls-2{isolation:isolate;}.cls-3{fill:#e5e5e4;}.cls-4{fill:#d8d9d9;}.cls-5{fill:#f0efee;}.cls-6{fill:#f37368;}.cls-7{fill:#0b2b34;}.cls-8{fill:#345863;}.cls-9{fill:#f8f7f6;}.cls-10{fill:url(#linear-gradient);}.cls-11{fill:url(#linear-gradient-2);}.cls-12{fill:url(#linear-gradient-3);}.cls-13{fill:url(#linear-gradient-4);}.cls-14{fill:#fff;}.cls-15{fill:url(#linear-gradient-5);}.cls-16,.cls-21{mix-blend-mode:multiply;}.cls-16{opacity:0.81;fill:url(#linear-gradient-6);}.cls-17{fill:url(#linear-gradient-7);}.cls-18,.cls-23{fill:#231f20;}.cls-18{opacity:0.3;}.cls-19{fill:#001821;}.cls-20{fill:#f69379;}.cls-21{opacity:0.3;fill:url(#linear-gradient-8);}.cls-22{fill:#cf684a;}.cls-23{opacity:0.4;}.cls-24{fill:#f9b399;}.cls-25{fill:url(#linear-gradient-9);}.cls-26{fill:url(#linear-gradient-10);}.cls-27{fill:#f79570;}.cls-28{fill:url(#linear-gradient-11);}.cls-29{fill:url(#linear-gradient-12);}.cls-30{fill:url(#linear-gradient-13);}.cls-31{clip-path:url(#clip-path);}.cls-32{fill:#f4f7fa;}.cls-33{fill:url(#linear-gradient-14);}.cls-34{fill:url(#linear-gradient-15);}.cls-35{fill:url(#linear-gradient-16);}.cls-36{fill:url(#linear-gradient-17);}</style><linearGradient id="linear-gradient" x1="2228.46" y1="2481.94" x2="2299.3" y2="2481.94" gradientUnits="userSpaceOnUse"><stop offset="0" stop-color="#ff9085"/><stop offset="1" stop-color="#fb6fbb"/></linearGradient><linearGradient id="linear-gradient-2" x1="2146.54" y1="2578.17" x2="2233" y2="2578.17" xlink:href="#linear-gradient"/><linearGradient id="linear-gradient-3" x1="2273.11" y1="2589.03" x2="2369.09" y2="2589.03" xlink:href="#linear-gradient"/><linearGradient id="linear-gradient-4" x1="1517.26" y1="2569.91" x2="1769.62" y2="2569.91" gradientUnits="userSpaceOnUse"><stop offset="0" stop-color="#444b8c"/><stop offset="1" stop-color="#26264f"/></linearGradient><linearGradient id="linear-gradient-5" x1="1462.8" y1="2603.17" x2="1722.69" y2="2603.17" xlink:href="#linear-gradient-4"/><linearGradient id="linear-gradient-6" x1="1648.33" y1="955.45" x2="1817.83" y2="955.45" gradientUnits="userSpaceOnUse"><stop offset="0" stop-color="#311944"/><stop offset="1" stop-color="#a03976"/></linearGradient><linearGradient id="linear-gradient-7" x1="1345.27" y1="1163.16" x2="1822.28" y2="1163.16" xlink:href="#linear-gradient-6"/><linearGradient id="linear-gradient-8" x1="1347.43" y1="951.14" x2="1605.06" y2="951.14" xlink:href="#linear-gradient-6"/><linearGradient id="linear-gradient-9" x1="531.14" y1="2666.09" x2="781.68" y2="2666.09" xlink:href="#linear-gradient-4"/><linearGradient id="linear-gradient-10" x1="1065.27" y1="2665.67" x2="1315.81" y2="2665.67" xlink:href="#linear-gradient-4"/><linearGradient id="linear-gradient-11" x1="710.55" y1="1153.3" x2="1055.42" y2="1153.3" gradientUnits="userSpaceOnUse"><stop offset="0" stop-color="#444b8c"/><stop offset="0.24" stop-color="#404684"/><stop offset="0.62" stop-color="#35386d"/><stop offset="1" stop-color="#26264f"/></linearGradient><linearGradient id="linear-gradient-12" x1="827.6" y1="1182.65" x2="1244.17" y2="1182.65" xlink:href="#linear-gradient-4"/><linearGradient id="linear-gradient-13" x1="834.39" y1="1148.53" x2="1261.65" y2="1148.53" xlink:href="#linear-gradient-11"/><clipPath id="clip-path" transform="translate(0 0)"><rect class="cls-1" width="2478.05" height="2708.23"/></clipPath><linearGradient id="linear-gradient-14" x1="1930.67" y1="435.09" x2="2028.43" y2="435.09" xlink:href="#linear-gradient"/><linearGradient id="linear-gradient-15" x1="2012.34" y1="439.76" x2="2111.47" y2="439.76" xlink:href="#linear-gradient-4"/><linearGradient id="linear-gradient-16" x1="494.17" y1="731.65" x2="579.76" y2="731.65" xlink:href="#linear-gradient-4"/><linearGradient id="linear-gradient-17" x1="569.18" y1="732.4" x2="653.31" y2="732.4" xlink:href="#linear-gradient"/></defs><g class="cls-2"><g id="Layer_2" data-name="Layer 2"><g id="Illustration"><path class="cls-3" d="M2108.79,2264.76c23.42-12.21,51.06-13.9,77.13-9.7,14,2.26,28.63,6.38,38.2,16.86s11.45,29,.55,38.06c-6.49,5.41-15.57,6.26-24,6.2-20.4-.15-43-3.65-59.3,8.7-9.27,7-15.42,18.7-26.52,22.19-10.87,3.41-23.16-3-29-12.75s-6-22.06-3.41-33.14c0,0,2.73-24.12,26.33-36.42Z" transform="translate(0 0)"/><path class="cls-3" d="M2054.58,2161.16c14.43,20.44,42.31,13.54,55.19,1s18.28-30.73,23.18-48c11.21-39.57,22.51-81.07,13.88-121.28-2.58-12-7.12-24-15.61-32.89s-21.52-14.14-33.39-11c-14,3.78-22.74,17.6-29,30.72a288.93,288.93,0,0,0-28,124.13c0,20,2.45,40.91,13.79,57.35" transform="translate(0 0)"/><path class="cls-3" d="M2015.28,2190.74c15.51-18.56,18.35-45.55,11.33-68.7s-22.78-42.79-40.91-58.81a219,219,0,0,0-73-42.66c-10.55-3.66-21.67-6.53-32.77-5.43s-22.27,6.84-27.42,16.74c-7.59,14.65-.18,32.34,7.83,46.77a555.77,555.77,0,0,0,48.12,72.63c14.41,18.42,30.9,36.58,52.79,44.84s44.56,7.18,56.08-8" transform="translate(0 0)"/><path class="cls-4" d="M2054.88,2470.42c.27,0,.69-3.31,1.26-9.32.64-6.78,1.43-15.3,2.37-25.43a369,369,0,0,1,5.57-37.32,287,287,0,0,1,13.37-44.06c6.1-15.14,13.56-28.9,22.31-39.92s18.8-19.1,28.32-23.74a79.26,79.26,0,0,1,23.9-7.55c5.94-.64,9.27-1.12,9.27-1.39s-3.34-.29-9.44-.1a72.45,72.45,0,0,0-24.93,6.6c-10,4.49-20.77,12.65-29.88,23.95s-16.91,25.31-23.12,40.72a268.92,268.92,0,0,0-13.27,44.79,315.79,315.79,0,0,0-4.81,37.78c-.76,10.8-1,19.54-1.15,25.59s0,9.39.23,9.4Z" transform="translate(0 0)"/><path class="cls-4" d="M2056.55,2450.85c.13,0,.21-1.49.24-4.32,0-3.25-.05-7.34-.09-12.36-.07-10.73-.13-26.25.37-45.43.79-38.34,3.92-79.61,10-137.81,5.81-54.73,13.65-118.43,22-159.85,1.79-9.42,3.6-17.9,5.31-25.33s3-13.85,4.36-19c1.16-4.88,2.1-8.87,2.84-12,.61-2.76.87-4.23.74-4.27s-.64,1.36-1.48,4.06c-.94,3.12-2.11,7-3.54,11.87-1.58,5.14-3.18,11.52-5,18.92s-3.92,15.86-5.89,25.26c-8.3,37.54-17,90-23.24,148.33s-8.81,111.42-8.9,149.86c-.15,19.21.32,34.77.86,45.5.32,5,.59,9.11.8,12.35.23,2.82.41,4.3.54,4.29Z" transform="translate(0 0)"/><path class="cls-4" d="M2056.39,2348.48c.26,0,.2-4.6-.15-12.91s-1.69-20.29-4.09-35a462.66,462.66,0,0,0-11.59-50.92c-2.4-8.64-8-29.34-21.57-60.23-17.85-41.87-42-76-63-97.21-4.93-5.61-10.41-9.66-14.78-13.62-2.27-1.91-4.28-3.8-6.32-5.3l-5.72-3.91c-6.91-4.68-10.76-7.15-10.91-6.92-.61.84,15.45,10.2,35.77,31.64s43.72,55.35,61.43,96.86a474.51,474.51,0,0,1,21.68,59.67,516.7,516.7,0,0,1,12.32,50.41c2.72,14.54,4.32,26.41,5.28,34.62.81,8.24,1.38,12.79,1.64,12.79Z" transform="translate(0 0)"/><polygon class="cls-4" points="1958.18 2529.47 1969.02 2669.98 2149.56 2669.22 2159.25 2528.64 1958.18 2529.47 1958.18 2529.47"/><polygon class="cls-4" points="1940.52 2474.15 1940.75 2529.55 2180.78 2528.56 2180.55 2473.16 1940.52 2474.15 1940.52 2474.15"/><polygon class="cls-3" points="1941.3 2664.71 1941.37 2680.06 1952.64 2680.01 2177.44 2679.09 2177.38 2663.74 1941.3 2664.71 1941.3 2664.71"/><polygon class="cls-4" points="1963.81 2707 1952.64 2680.01 2168.84 2679.12 2156.06 2706.2 1963.81 2707 1963.81 2707"/><path class="cls-5" d="M2156.08,2574.59a5.84,5.84,0,0,1-.83,1.29l-2.69,3.59L2142.1,2593l-.46.6-.46-.63-26-35.62h1.48l-25.29,36.12-.79,1.13-.9-1.05-30.32-35.77,1.74,0-1.65,2.09-26.84,33.93-.89,1.13-.84-1.17c-9.21-12.92-17.82-25-25.59-35.91l1.47.07-31.2,35.84-.55.64-.43-.72-9.88-16.45c-1-1.77-1.88-3.23-2.54-4.37a7.08,7.08,0,0,1-.78-1.57,6.42,6.42,0,0,1,1.07,1.39c.73,1.11,1.65,2.5,2.8,4.22,2.52,3.92,6,9.34,10.37,16.14l-1-.07,30.69-36.28.77-.92.72,1c7.84,10.87,16.53,22.89,25.82,35.75l-1.73,0c8.5-10.79,17.48-22.2,26.78-34,.56-.71,1.12-1.43,1.65-2.09l.85-1.08.89,1.05c10.61,12.58,20.83,24.69,30.23,35.85l-1.69.07c9.24-13,17.83-25.08,25.55-35.95l.75-1.05.74,1.05,25.44,36-.92,0c4.59-5.54,8.23-9.95,10.89-13.15l2.91-3.42a6.34,6.34,0,0,1,1.08-1.09Z" transform="translate(0 0)"/><path class="cls-5" d="M2161.76,2527.7c0,.63-45.24,1.32-101,1.55s-101-.09-101-.7,45.23-1.32,101-1.55,101.05.09,101.05.7Z" transform="translate(0 0)"/><path class="cls-5" d="M2171.51,2680.62c0,.63-49.16,1.33-109.8,1.58s-109.81,0-109.81-.67,49.15-1.32,109.8-1.57,109.81.05,109.81.66Z" transform="translate(0 0)"/><polygon class="cls-4" points="1651.3 442.87 1513.06 464.17 1614.39 1121.55 2025.52 1058.18 1924.2 400.8 1989.03 390.81 1717.85 219.42 1684.03 0 1557.56 19.49 1574.4 128.75 1473.79 65.17 1302.64 91.55 1248.74 207.72 1651.3 442.87 1651.3 442.87"/><polyline class="cls-3" points="1614.39 1121.55 1513.06 464.17 1651.3 442.87 1248.74 207.72 1227 254.59 1377.87 313.41 1291.04 433.75 1445.37 529.97 1459.03 618.53 1363.59 633.24 1360.97 616.32 1347.26 630.37 1348.07 635.63 1341.05 636.71 1324.87 653.27 1350.19 649.37 1353.66 671.85 1371.29 683.24 1365.71 646.98 1461.14 632.27 1474.8 720.84 1438.27 726.47 1486.42 757.55 1389.12 901.97 1536.27 992.93 1435.17 1149.17 1614.39 1121.55"/><polygon class="cls-5" points="1347.26 630.37 1341.05 636.71 1348.07 635.63 1347.26 630.37 1347.26 630.37"/><polygon class="cls-5" points="1324.87 653.27 1353.66 671.85 1350.19 649.37 1324.87 653.27 1324.87 653.27"/><polygon class="cls-5" points="1459.03 618.53 1445.37 529.97 1360.97 616.32 1363.59 633.24 1459.03 618.53 1459.03 618.53"/><polygon class="cls-5" points="1461.14 632.27 1365.71 646.98 1371.29 683.24 1438.27 726.47 1474.8 720.84 1461.14 632.27 1461.14 632.27"/><polygon class="cls-4" points="1165.11 78.02 965.11 108.85 1111.22 194.19 1165.11 78.02 1165.11 78.02"/><path class="cls-3" d="M889.31,776.36l-13.65-88.57,87.68-13.52L977,762.84l-87.68,13.52ZM772.47,703.7l87.68-13.52,13.65,88.57-87.68,13.52L772.47,703.7ZM858,676.44,770.35,690,756.7,601.39l87.68-13.51L858,676.44Zm103.19-15.9-87.67,13.51-13.66-88.56L947.58,572l13.64,88.57Zm22.85-380.76a82.31,82.31,0,1,1-68.81,93.89,82.3,82.3,0,0,1,68.81-93.89ZM1251.6,888.45,1348.9,744l-48.16-31.09L1241.83,722l-8.06-52.31-17.64-11.39,10.18,66.09-79.92,12.33-13.65-88.58,54.6-8.41,16.19-16.56-72.9,11.24L1117,545.86l79.92-12.32,12.84,83.3,13.72-14-11-71.65,95.44-14.71-154.34-96.21,86.83-120.35-150.87-58.82,21.75-46.86L965.11,108.85,606.79,569.14l69.87-10.77L778,1215.75l233.44-36L958.67,837.46l217.56-33.53,52.76,342.3,35.58-5.48,33.07-5.1,101.11-156.24-147.15-91Z" transform="translate(0 0)"/><polygon class="cls-5" points="958.67 837.46 1011.43 1179.77 1228.99 1146.23 1176.23 803.93 958.67 837.46 958.67 837.46"/><path class="cls-5" d="M1009.15,442.48a82.31,82.31,0,1,0-93.89-68.81,82.31,82.31,0,0,0,93.89,68.81Z" transform="translate(0 0)"/><polygon class="cls-5" points="770.35 689.96 858.03 676.44 844.38 587.88 756.7 601.39 770.35 689.96 770.35 689.96"/><polygon class="cls-5" points="860.15 690.18 772.47 703.7 786.12 792.26 873.8 778.75 860.15 690.18 860.15 690.18"/><polygon class="cls-5" points="873.55 674.05 961.22 660.54 947.58 571.97 859.89 585.49 873.55 674.05 873.55 674.05"/><polygon class="cls-5" points="875.66 687.79 889.31 776.36 976.99 762.84 963.34 674.27 875.66 687.79 875.66 687.79"/><polygon class="cls-5" points="1146.39 736.73 1226.31 724.41 1216.13 658.32 1187.34 639.75 1132.74 648.16 1146.39 736.73 1146.39 736.73"/><polygon class="cls-5" points="1223.45 602.8 1307.85 516.44 1212.41 531.15 1223.45 602.8 1223.45 602.8"/><polygon class="cls-5" points="1116.97 545.86 1130.63 634.42 1203.53 623.19 1209.73 616.84 1196.89 533.54 1116.97 545.86 1116.97 545.86"/><polygon class="cls-5" points="1300.74 712.94 1233.77 669.71 1241.83 722.02 1300.74 712.94 1300.74 712.94"/><path class="cls-3" d="M390.51,1276.86l11.62-13.65-11.08-38.6L427.78,1198l-22.42-35,37.44-43.79a53,53,0,0,0-13.17,9.74,51.71,51.71,0,0,0-46.39-39.69c-13.26-1-26.6,3.1-37.95,10-11.59,7.08-21.5,17.29-26.87,29.77-6.73,15.62-8.94,34.28-4.76,50.77,4.42,17.41,15.15,33.63,27.21,47,20.27,22.39,47.26,50.91,47.26,50.91l2.38-.86Z" transform="translate(0 0)"/><path class="cls-3" d="M532.17,1152.71c-5.62-12.06-14.44-22.89-26.07-29.36a52.64,52.64,0,0,0-41-4.08,50.91,50.91,0,0,0-8.06,3.39l-37.45,43.79,22.42,35-36.73,26.65,11.08,38.6-11.61,13.66c8.18-2.92,36-12.64,60.67-18.91,17.41-4.43,35.32-12,48.63-24.09,12.6-11.43,21.07-28.2,24.1-44.94,2.41-13.37-.21-27.35-6-39.66Z" transform="translate(0 0)"/><path class="cls-3" d="M2328.06,914.8l2.29-17.78L2300,870.69l16.27-42.36-37.85-17.09,7.54-57.12a52.79,52.79,0,0,0-5.73,15.35,51.76,51.76,0,0,0-60.54-8c-11.68,6.36-20.61,17.11-26.34,29.11-5.85,12.26-8.59,26.23-6.3,39.61,2.87,16.77,11.18,33.62,23.68,45.16,13.2,12.19,31,19.94,48.4,24.54,29.21,7.72,67.37,16.92,67.37,16.92l1.54-2Z" transform="translate(0 0)"/><path class="cls-3" d="M2379.16,733.49c-11.29-7-24.59-11.32-37.86-10.4A52.67,52.67,0,0,0,2304.67,742a51.1,51.1,0,0,0-4.91,7.23l-7.53,57.12,37.85,17.09-16.27,42.36,30.33,26.33-2.3,17.78c5.28-6.91,23.33-30.22,40.57-48.92,12.17-13.21,23.06-29.33,27.63-46.7,4.34-16.45,2.3-35.13-4.29-50.81-5.26-12.52-15.07-22.83-26.59-30Z" transform="translate(0 0)"/><path class="cls-3" d="M518.87,257.06l4.28-8.22-10-18.16L528.57,213l-15.31-15,13.82-26.35a27.52,27.52,0,0,0-5.51,6.42,26.69,26.69,0,0,0-27.92-14.65c-6.8,1-13,4.62-18,9.42a34.46,34.46,0,0,0-10.11,18.08C464,199.57,465,209.22,469,217c4.23,8.26,11.5,15.2,19.1,20.52,12.78,8.94,29.65,20.2,29.65,20.2l1.1-.7Z" transform="translate(0 0)"/><path class="cls-3" d="M575.93,178.25c-4.22-5.43-9.9-9.87-16.5-11.78a27.17,27.17,0,0,0-21.13,2.66,26.62,26.62,0,0,0-3.67,2.63l-13.82,26.35,15.31,15-15.44,17.64,10,18.16-4.28,8.21c3.79-2.41,16.69-10.5,28.38-16.49,8.26-4.24,16.4-10.12,21.71-17.72,5-7.2,7.37-16.62,7-25.4a34.51,34.51,0,0,0-7.55-19.29Z" transform="translate(0 0)"/><path class="cls-3" d="M2005.58,504.45l10.76-11.09L2009,459.52l33.1-20.86-17.33-31.34,34.68-35.57a46,46,0,0,0-11.88,7.65,44.57,44.57,0,0,0-37.68-36.76c-11.36-1.65-23.06,1.18-33.23,6.51-10.36,5.45-19.46,13.68-24.78,24.11-6.67,13.06-9.62,29-6.95,43.41,2.83,15.23,11.15,29.79,20.77,41.93,16.19,20.4,37.8,46.45,37.8,46.45l2.11-.6Z" transform="translate(0 0)"/><path class="cls-3" d="M2134.44,405.58c-4.17-10.69-11.15-20.5-20.79-26.72a45.4,45.4,0,0,0-35.08-5.81,43.74,43.74,0,0,0-7.12,2.46l-34.68,35.57,17.33,31.33L2021,463.28l7.37,33.84-10.76,11.09c7.2-2,31.7-8.84,53.26-12.86,15.23-2.84,31.06-8.36,43.19-18,11.48-9.13,19.71-23.09,23.25-37.32,2.83-11.36,1.37-23.54-2.87-34.46Z" transform="translate(0 0)"/><path class="cls-6" d="M169.24,2238a165.87,165.87,0,0,0-71-24.43c-11.6-1.19-24.27-.85-33.58,6.18-2,1.49-3.9,3.69-3.45,6.12.32,1.79,1.83,3.1,3.28,4.2,28.88,22,72.57,24.82,104.73,7.93" transform="translate(0 0)"/><path class="cls-6" d="M167.42,2236c-16.07-12.54-32.23-25.16-45.85-40.33s-24.67-33.18-28.74-53.16c-1.23-6.06-1.62-13,2.27-17.78,36.55,28.54,65.25,65.45,72.32,111.27" transform="translate(0 0)"/><path class="cls-6" d="M168.86,2237.69c-2.75-20-3.74-40.54.85-60.19S185,2139,201.77,2127.82c6.32,14.77,3.6,31.77-.85,47.2A229.3,229.3,0,0,1,169.13,2242" transform="translate(0 0)"/><path class="cls-6" d="M204.69,2301.88c-21.75,2.64-40.69,14.11-56.93,28.81a107.65,107.65,0,0,0-32.56,55.9c21.33-1.33,39.43-16.37,52.55-33.23S190,2318,204.39,2302.21" transform="translate(0 0)"/><path class="cls-6" d="M212.47,2312.15C195,2269,201.3,2217,228.68,2179.34c12.39,44.07,7.84,93.85-16.21,132.81" transform="translate(0 0)"/><path class="cls-6" d="M259.8,2368.51a101.51,101.51,0,0,0-97.07,55.88c-1.21,2.4-2.27,5.46-.65,7.61,1.39,1.87,4.1,2,6.43,1.89,19.13-1.24,36.09-12.75,50.08-25.86s26.18-28.24,41.64-39.58" transform="translate(0 0)"/><path class="cls-6" d="M258.29,2365.44a180.73,180.73,0,0,1-1.8-101c3.55-13,9.53-26.68,21.55-32.78a4.24,4.24,0,0,1,3.29-.58,4.36,4.36,0,0,1,2.09,2.42c4.27,8.93,5.52,19.08,5.08,29s-2.5,19.65-4.54,29.34c-3.79,17.92-5.8,37.19-15.63,52.64a106.62,106.62,0,0,0-6.25,11.57c-1.86,3.93-1.88,5.32-3.58,8.43" transform="translate(0 0)"/><path class="cls-6" d="M383.59,2384.1c-9.29-35.3.57-78.11,22.82-107,1.64-2.14,3.81-4.43,6.48-4.18,4.1.39,5.16,5.84,5,10a193.51,193.51,0,0,1-34.28,101.27" transform="translate(0 0)"/><path class="cls-6" d="M394.88,2391.83c42.9,11.16,92.11.31,127.8-26a103.5,103.5,0,0,0-69.19-8.5c-23.1,5.29-44.22,15.64-58.61,34.49" transform="translate(0 0)"/><path class="cls-6" d="M404.41,2368.32c24-39.17,70.09-64.74,116-67.07-5.29,18.66-20.63,33.17-37.93,41.94s-36.63,12.59-55.68,16.28c-7.41,1.45-17.57,3-22.37,8.85" transform="translate(0 0)"/><path class="cls-6" d="M386,2254.23c6.51-22.29,13-44.77,14.84-67.93s-1.52-47.32-13.53-67.18c-22.45,43.42-24.72,94.17-2,137.45" transform="translate(0 0)"/><path class="cls-6" d="M461.53,2216c26.25-47.7,79.79-85.8,134-91.14-20.9,52-77.9,92.26-134,91.14" transform="translate(0 0)"/><path class="cls-6" d="M445,2225.39c39.14,6,72.49,31,109.07,46.12,7.82,3.23,16.26,5.82,24.66,4.72s16.68-6.73,18.56-15c1.56-6.86-1.56-14.13-6.48-19.16s-11.42-8.16-17.91-10.86c-39.84-16.59-82.56-17-124.53-6.94" transform="translate(0 0)"/><path class="cls-6" d="M422.37,2252.84c8.86,2.54,11.89,7.13,18.91,13.11a204,204,0,0,0,82.7,42.48c3.16.78,7.31,1.1,8.87-1.76,1.37-2.49-.36-5.51-2.13-7.73-12.72-15.91-30.86-26.8-49.94-33.9s-35.63-15.68-58.41-13.84" transform="translate(0 0)"/><path class="cls-6" d="M396.81,2087a156.61,156.61,0,0,0,120,40.83c2-.19,4.12-.51,5.47-2,3-3.28-.61-8.36-4.13-11.1-35.28-27.5-78-38.91-121.34-27.76" transform="translate(0 0)"/><path class="cls-6" d="M427.12,2076c42.07-31.55,99.76-41.07,149.74-24.71-18.86,18.59-45,28.58-71.36,31.32s-52.7-.17-78.38-6.61" transform="translate(0 0)"/><path class="cls-6" d="M415.07,1999.76c-3.46-35.22-1.22-63-3.66-98.4-.19-2.83-.8-6.23-3.45-7.25-3.68-1.41-6.75,3.11-8,6.87a112.81,112.81,0,0,0,15,98" transform="translate(0 0)"/><path class="cls-6" d="M412.54,2003.64c23.87-14.75,41.77-34,58.33-56.69,11.52-15.76,21.24-34.65,18.62-54-16.18-.33-31.56,8.6-42.08,20.89S430.63,1941.51,426,1957s-7.94,31.42-13.42,46.64" transform="translate(0 0)"/><path class="cls-6" d="M469.85,1987.72a470.26,470.26,0,0,0,143.56-84.65c-17.15-6.9-36.78-2.77-53.93,4.15-39.17,15.81-71.17,42.5-90.38,80.12" transform="translate(0 0)"/><path class="cls-6" d="M428.65,2022.91c26.5,2.9,53.42,4.78,79.71.39,25.85-4.32,50.27-14.57,74.42-24.73,2-.84,4.18-1.85,5.06-3.84.95-2.15-.07-4.78-1.81-6.37a15.48,15.48,0,0,0-6.35-3c-26.25-7.34-54.59-3.9-80.42,4.8s-47,19.07-70.61,32.72" transform="translate(0 0)"/><path class="cls-6" d="M277.33,2088.24c-18.08-36.5-16.91-79.09-1.29-116.7,11,16.75,12.34,38.08,10.33,58s-8.08,40.46-8.47,60.49" transform="translate(0 0)"/><path class="cls-6" d="M205.1,2051.81a162.73,162.73,0,0,0-120.95,51.52c22.53,3.55,45.73-2.27,66.23-12.27s38.7-24,56.75-38" transform="translate(0 0)"/><path class="cls-6" d="M156.54,2035.57c-22.09-1.79-43.33-4.52-64.57,2s-40.56,21.28-49.21,41.73c20.65,2.33,41.6-2.85,60.53-11.43s36.15-20.46,53.25-32.28" transform="translate(0 0)"/><path class="cls-6" d="M228.44,2036.31c-19.87-13-40.27-26.27-63.4-31.67s-49.94-1.4-66.07,16c18.72,11,41.45,12.29,63.16,12.27s48.32-.26,68.79,7" transform="translate(0 0)"/><path class="cls-6" d="M228.56,2037.36c-34-33.35-46.84-93.26-33.18-138.86a211.62,211.62,0,0,1,33.18,138.86" transform="translate(0 0)"/><path class="cls-6" d="M322,1942.86c6.4-14.88,10.91-30.51,16.66-45.67s12.89-30.07,23.74-42.11,25.88-21,42.07-21.81c-10.14,45.9-40.62,86.9-81.64,109.83" transform="translate(0 0)"/><path class="cls-6" d="M305.05,1962.56c-10.6-14.59-22.85-34.4-37.22-45.29s-33.09-17.48-50.64-13.3c17.84,31.9,51.56,54.38,87.86,58.59" transform="translate(0 0)"/><path class="cls-6" d="M308.43,1944.08c-6.95-17.66-13.95-35.5-16.76-54.26s-1.1-38.8,8.5-55.17c18.64,35.24,24.65,73.07,9.21,109.83" transform="translate(0 0)"/><path class="cls-6" d="M322.12,1834.65c10.56-34.94,42.55-60.67,77.09-72.47,4.35-1.49,9-2.73,13.51-2s9,3.82,10,8.32c1.27,5.94-3.64,11.27-8.26,15.21a262.46,262.46,0,0,1-92.3,51" transform="translate(0 0)"/><path class="cls-6" d="M322.5,1806.07c1.34-22.52,2.75-45.38,10.08-66.72s21.44-41.36,42-50.7c3.5,22.75-6.54,45.38-18.64,65s-26.7,38.06-34,59.89" transform="translate(0 0)"/><path class="cls-6" d="M322,1821.58c-8.73-25.46-9.63-57.8-24.88-80-10.65-15.5-27.72-26.06-36.9-42.49-6.11,15.34-4.24,33,2.14,48.24s16.92,28.33,28.21,40.38,20.94,21.12,31.43,33.86" transform="translate(0 0)"/><path class="cls-7" d="M322.12,2571.4c-.68,0-1.26-169.86-1.31-379.33s.46-379.37,1.14-379.37,1.27,169.82,1.31,379.37-.46,379.33-1.14,379.33Z" transform="translate(0 0)"/><path class="cls-7" d="M470.55,2062.61c.05.16-2.23,1-6.38,2.4l-17.58,5.93c-14.82,5-35.17,12.36-57.27,21.41-21.88,9.38-42.51,17-54.26,27.18a39.81,39.81,0,0,0-10.9,14.43c-1.69,4-2,6.43-2.21,6.38a5,5,0,0,1,.07-1.78,27.58,27.58,0,0,1,1.25-4.95,38.37,38.37,0,0,1,10.64-15.38c5.9-5.38,14.12-10.22,23.54-14.62s19.86-9,30.94-13.53c22.16-9.08,42.67-16.16,57.66-20.79,7.49-2.34,13.6-4.06,17.84-5.19s6.61-1.66,6.66-1.49Z" transform="translate(0 0)"/><path class="cls-7" d="M519.2,1943.1a10.17,10.17,0,0,1-1.79,1.92l-5.45,5.12-20.34,18.48-67.73,60.29c-26.43,23.53-49.28,46-65.11,63-7.93,8.46-14.17,15.46-18.43,20.35l-4.92,5.62a10.83,10.83,0,0,1-1.84,1.87,10.13,10.13,0,0,1,1.45-2.18c1-1.37,2.53-3.4,4.57-5.92,4.05-5.09,10.11-12.29,17.89-20.92,15.55-17.27,38.27-40,64.76-63.59s50.66-44.57,68.21-59.77l20.86-17.91,5.76-4.76a10.85,10.85,0,0,1,2.11-1.55Z" transform="translate(0 0)"/><path class="cls-7" d="M395.36,2052.85c-.7-.32,4.83-13.07,10.33-29.19s8.16-29.74,8.87-29.62-.93,14.07-6.55,30.41a199.81,199.81,0,0,1-8.22,20.41c-2.41,5.09-4.13,8.12-4.43,8Z" transform="translate(0 0)"/><path class="cls-7" d="M322.27,2155.65c-.13.1-1.58-1.59-4.07-4.73l-10.44-13.38c-8.76-11.33-20.88-27-34.46-44.09s-26.08-32.47-35.12-43.58c-4.27-5.28-7.84-9.71-10.67-13.2-2.49-3.14-3.81-4.93-3.68-5s1.69,1.47,4.41,4.42,6.57,7.28,11.27,12.7c9.39,10.84,22.1,26,35.71,43.18s25.52,33,33.93,44.57c4.21,5.8,7.57,10.54,9.82,13.85s3.44,5.2,3.3,5.3Z" transform="translate(0 0)"/><path class="cls-7" d="M289.73,2113.87c-.4.43-9.08-9.87-13.63-25.52a72.68,72.68,0,0,1-3.09-25.74l1.08.09c-.49,2-.84,3-1,3s-.21-1.12-.05-3.15l1.09.09a117.22,117.22,0,0,0,4.35,25c4.39,15.16,11.94,25.81,11.28,26.22Z" transform="translate(0 0)"/><path class="cls-7" d="M247.71,2061c-.31.34-3.11-3.18-9.51-5.54s-15.93-3-26.44-2.09a162.06,162.06,0,0,0-26.61,4.29c-6.72,1.67-10.82,3-11,2.63s3.8-2.18,10.49-4.3a121.18,121.18,0,0,1,26.89-5.08c10.62-.91,20.69-.09,27.26,3s9.1,7.08,8.87,7.14Z" transform="translate(0 0)"/><path class="cls-7" d="M237.75,2048.2c-.18.39-5.54-2.22-14.58-5.3a146.9,146.9,0,0,0-73.5-5.61c-9.4,1.68-15.09,3.44-15.22,3,0-.16,1.33-.73,3.87-1.65a92.21,92.21,0,0,1,11-3.09,129.69,129.69,0,0,1,74.43,5.68,90.48,90.48,0,0,1,10.42,4.72c2.38,1.29,3.65,2.06,3.57,2.21Z" transform="translate(0 0)"/><path class="cls-7" d="M322,1994c-.66.17-5.42-16.37-10.64-36.94s-8.91-37.38-8.25-37.56,5.41,16.38,10.63,37,8.92,37.37,8.26,37.54Z" transform="translate(0 0)"/><path class="cls-7" d="M322.63,1994c-.73.24-3.8-10.81-11.79-22.12-7.79-11.54-17.72-17.33-17.35-17.9.13-.26,2.87.75,6.69,3.45a53.94,53.94,0,0,1,12.67,13c8.3,11.77,10.37,23.49,9.78,23.53Z" transform="translate(0 0)"/><path class="cls-7" d="M322.12,2480.85c-.26,0-.76-4.08-2.68-11.29a160,160,0,0,0-11.35-29.41c-11.73-24-33.09-54.39-60.22-84.84-13.45-15.37-26.49-29.86-37.56-43.73a308.53,308.53,0,0,1-26.86-38.73,187.47,187.47,0,0,1-13.56-28.75c-1.25-3.55-2.16-6.31-2.66-8.23a13.57,13.57,0,0,1-.7-2.93c.22-.07,1.46,3.89,4.26,10.81A208.38,208.38,0,0,0,185,2272a324.66,324.66,0,0,0,27.12,38.2c11.12,13.74,24.18,28.14,37.65,43.53,27.2,30.53,48.51,61.33,59.94,85.7a147.3,147.3,0,0,1,10.71,29.93,83.22,83.22,0,0,1,1.5,8.52,13.86,13.86,0,0,1,.25,3Z" transform="translate(0 0)"/><path class="cls-7" d="M456.25,2329.36c.08.18-2.49,1.47-7,3.94A153.1,153.1,0,0,0,431,2345.36,207.52,207.52,0,0,0,407,2367.2c-8.41,8.87-17.06,19.18-25.9,30.23-17.67,22.16-34.19,41.78-44.08,57.44-5,7.76-8.68,14.31-11.07,18.91s-3.69,7.15-3.87,7.07a6.85,6.85,0,0,1,.65-2c.53-1.26,1.23-3.16,2.36-5.5a180.62,180.62,0,0,1,10.46-19.41c9.61-16,26-35.92,43.63-58.05,8.86-11.06,17.62-21.4,26.19-30.26A194.71,194.71,0,0,1,429.94,2344a128.39,128.39,0,0,1,18.84-11.51c2.32-1.17,4.22-1.88,5.48-2.42a6.44,6.44,0,0,1,2-.67Z" transform="translate(0 0)"/><path class="cls-7" d="M458.87,2378.5c0,.36-5.67,1.05-14.86,2.16s-21.89,2.71-35.23,6.94a105.92,105.92,0,0,0-31.56,16.56c-7.27,5.61-10.7,10.27-11,10-.12-.09.59-1.36,2.2-3.42a56.56,56.56,0,0,1,7.74-7.93A95.62,95.62,0,0,1,408,2385.26c13.67-4.32,26.59-5.58,35.82-6.33s15-.75,15-.43Z" transform="translate(0 0)"/><path class="cls-7" d="M370.52,2408.75c-.77-.44,5.92-10.66,11.12-24.42,4.87-13.88,6-26,6.89-25.91.31,0,.3,3.08-.25,8a85.28,85.28,0,0,1-4.33,18.78,91.76,91.76,0,0,1-8.62,17.23c-2.65,4.13-4.53,6.53-4.81,6.35Z" transform="translate(0 0)"/><path class="cls-7" d="M499.69,2197.41a11.18,11.18,0,0,1-2.38,1.26l-7,3.18c-3.06,1.31-6.77,3-11,5.18s-9.09,4.4-14.19,7.46l-8.11,4.6c-2.81,1.63-5.59,3.54-8.55,5.4-6,3.61-12,8.08-18.35,12.64a315.4,315.4,0,0,0-70.68,73.13c-4.33,6.54-8.59,12.68-12,18.78-1.75,3-3.57,5.87-5.09,8.72l-4.33,8.26c-2.89,5.2-4.95,10.18-7,14.45s-3.59,8-4.8,11.12c-1.19,2.87-2.16,5.21-2.93,7.09a10.58,10.58,0,0,1-1.19,2.42,11.67,11.67,0,0,1,.72-2.59c.66-1.92,1.49-4.32,2.51-7.26,1.07-3.17,2.48-7,4.43-11.33s3.88-9.39,6.68-14.67q2-4,4.22-8.39c1.48-2.9,3.27-5.79,5-8.86,3.36-6.18,7.59-12.39,11.9-19a303.05,303.05,0,0,1,71.19-73.66c6.48-4.55,12.55-9,18.61-12.56,3-1.82,5.83-3.71,8.68-5.3l8.23-4.5c5.19-3,10.17-5.11,14.44-7.17s8-3.64,11.17-4.82l7.18-2.76a11.05,11.05,0,0,1,2.56-.8Z" transform="translate(0 0)"/><path class="cls-7" d="M393.53,2268.53c-.21,0,1-4.16,5.84-8.69s13.42-8.72,23.52-9,18.79,2.54,24.75,4.83,9.47,4.26,9.36,4.55-3.88-1-9.93-2.91-14.57-4.27-24.1-4-17.71,4-22.47,7.88-6.57,7.62-7,7.38Z" transform="translate(0 0)"/><path class="cls-7" d="M377.67,2284.9c-.68-.37,5.31-9.15,6.67-21.72,1.57-12.56-2.24-22.48-1.49-22.68.27-.11,1.6,2.19,2.76,6.32a45,45,0,0,1-3.8,32.56c-2.08,3.75-3.91,5.69-4.14,5.52Z" transform="translate(0 0)"/><path class="cls-8" d="M204.81,2505.19c3.66,64.91,23.22,130.93,53.31,197.66H389c28.69-66.07,46.9-132,50.14-197.66Z" transform="translate(0 0)"/><path class="cls-9" d="M417.88,2610.22c0,.68-43.07,1.23-96.2,1.23s-96.21-.55-96.21-1.23,43.07-1.23,96.21-1.23,96.2.56,96.2,1.23Z" transform="translate(0 0)"/><path class="cls-9" d="M415,2633.74c0,.68-40.38,1.22-90.19,1.22s-90.19-.54-90.19-1.22,40.37-1.23,90.19-1.23,90.19.55,90.19,1.23Z" transform="translate(0 0)"/><path class="cls-10" d="M2266,2401.57c-14.28,5.36-25.2,17.75-31.09,31.82s-7.13,29.69-6.18,44.92c1.83,29.44,17,59.83,33.7,84.13,25.74-20.27,33.31-57.52,36-76.65,4.2-30.25-6.58-87.46-32.39-84.22" transform="translate(0 0)"/><path class="cls-11" d="M2231.35,2609.31c4.78-16.35-1.19-34.85-13.31-46.81s-29.64-17.64-46.66-17.2c-7.87.2-16.46,2.06-21.28,8.29-4.5,5.82-4.46,14.28-1.38,21s8.72,11.86,14.75,16.08c20.69,14.49,43.36,24.71,67.88,18.68" transform="translate(0 0)"/><path class="cls-7" d="M2258.43,2700.67c.15,0-.08-2.17-.57-6.05-.57-4.27-1.29-9.79-2.17-16.4-2-13.73-4.55-33.37-14.15-52.79s-23.34-34-35.27-41.51a70.44,70.44,0,0,0-14.86-7.48,41.34,41.34,0,0,0-4.32-1.33,4.34,4.34,0,0,0-1.56-.3c-.19.47,8.45,2.48,19.9,10.37,11.49,7.7,24.89,22.14,34.19,41.19s12.16,38.4,14.58,52.07c1.15,6.89,2.08,12.47,2.83,16.32s1.26,5.94,1.4,5.91Z" transform="translate(0 0)"/><path class="cls-7" d="M2270.38,2445.86a12.83,12.83,0,0,0-.43,2.62c-.21,1.94-.49,4.43-.83,7.51-.68,6.54-1.55,16-2.51,27.72-2,23.42-4.19,55.81-5.85,91.64s-2.41,68.3-2.64,91.79c-.11,11.76-.13,21.26,0,27.83,0,3.1.1,5.61.13,7.56a12.43,12.43,0,0,0,.19,2.65,11.34,11.34,0,0,0,.24-2.64c.07-1.95.16-4.46.27-7.56.18-6.84.43-16.27.73-27.81.61-23.48,1.61-55.92,3.26-91.73s3.66-68.18,5.22-91.62c.76-11.51,1.39-20.94,1.84-27.76.17-3.09.32-5.6.42-7.55a11.68,11.68,0,0,0,0-2.65Z" transform="translate(0 0)"/><path class="cls-12" d="M2273.11,2629.29c7.39-35.14,32.88-65.95,66-79.81,8.43-3.54,19.32-5.57,25.78.9s4.4,17.43.64,25.78c-15.6,34.77-54,57.94-92,55.56" transform="translate(0 0)"/><path class="cls-7" d="M2333.72,2577c0-.13-1.95.59-5.34,2a53.52,53.52,0,0,0-6.08,2.85c-2.28,1.27-5,2.49-7.75,4.34a97.26,97.26,0,0,0-8.94,6,113.21,113.21,0,0,0-9.59,7.87,124.89,124.89,0,0,0-18.54,21.49A123.29,123.29,0,0,0,2264.7,2647a109.37,109.37,0,0,0-3.51,11.91,90.43,90.43,0,0,0-2,10.6,85.83,85.83,0,0,0-.85,8.85,51,51,0,0,0-.15,6.71c.09,3.68.2,5.71.35,5.7.48,0,.06-8.16,2.15-21a99.33,99.33,0,0,1,2.24-10.41,112.93,112.93,0,0,1,3.64-11.64,128.17,128.17,0,0,1,12.7-24.84,131.41,131.41,0,0,1,18.11-21.24,121.76,121.76,0,0,1,9.31-7.9c3-2.44,6-4.35,8.68-6.17,11-7.06,18.57-10.07,18.37-10.49Z" transform="translate(0 0)"/><path class="cls-13" d="M1672.59,2468.75,1648.44,2598s123.29,68,121.15,92.29l-252.33-37.83,29.37-203,126,19.23" transform="translate(0 0)"/><path class="cls-4" d="M1572.06,2575.39a10.41,10.41,0,0,0-8.89,10.69,10,10,0,0,0,10.51,8.9c5.1-.51,10.32-6.33,9.36-11.37s-7.15-9.76-12-8.05" transform="translate(0 0)"/><path class="cls-14" d="M1769.59,2690.31l-70.27-10.54h0l70.27,10.54c.31-3.51-2-7.94-6.17-12.93,2.9,2.32,7.95,7.32,6.17,12.93" transform="translate(0 0)"/><path class="cls-4" d="M1769.59,2690.31l-70.27-10.54c-13.51-8.09-31.23-16.48-48.55-24l110.78,20.2a21.69,21.69,0,0,1,1.87,1.37c4.17,5,6.48,9.42,6.17,12.93" transform="translate(0 0)"/><path class="cls-7" d="M1652.73,2597.35c-.23,1.22-6.48.86-13.13,3.91-6.74,2.89-10.66,7.75-11.73,7.1-1.09-.42,1.85-7.5,10-11.06s15.32-1.05,14.89,0Z" transform="translate(0 0)"/><path class="cls-7" d="M1677.54,2612.26c.11,1.24-5.53,2.53-10.51,7.12-5.1,4.44-7,9.91-8.22,9.67-1.18,0-1-7.32,5.33-12.9s13.56-5.07,13.4-3.89Z" transform="translate(0 0)"/><path class="cls-7" d="M1687.83,2646.19c-1.16.09-1.95-6.31,2.22-12.59s10.34-8.1,10.72-7c.54,1.12-3.74,4.18-7.1,9.38s-4.6,10.26-5.84,10.2Z" transform="translate(0 0)"/><path class="cls-7" d="M1655,2567.28c-.69,1-6.08-1.5-13.12-2.08s-12.79.82-13.27-.34c-.58-1,5.39-4.76,13.67-4s13.47,5.51,12.72,6.39Z" transform="translate(0 0)"/><path class="cls-15" d="M1590.21,2499.67l-2.32,131.48s132.86,46.53,134.8,70.86l-255.11,4.66-4.78-205,127.41-2" transform="translate(0 0)"/><path class="cls-4" d="M1508.8,2621.54a10.42,10.42,0,0,0-7,12c1.24,5,6.92,8.39,11.85,7s9.12-8,7.34-12.77-8.67-8.44-13.14-5.94" transform="translate(0 0)"/><path class="cls-14" d="M1467.58,2706.67h0l255.11-4.66c-.28-3.51-3.29-7.49-8.24-11.73,3.24,1.8,9.07,5.9,8.24,11.73l-255.11,4.66" transform="translate(0 0)"/><path class="cls-4" d="M1467.58,2706.67l.33-20.68,244.47,3.27a21.44,21.44,0,0,1,2.07,1c5,4.24,8,8.22,8.24,11.73l-255.11,4.66" transform="translate(0 0)"/><path class="cls-7" d="M1592,2629.78c0,1.25-6.24,1.93-12.3,6-6.16,4-9.22,9.41-10.38,8.94-1.15-.22.57-7.7,8-12.55s14.93-3.58,14.69-2.43Z" transform="translate(0 0)"/><path class="cls-7" d="M1619,2640.36c.3,1.2-5.06,3.42-9.19,8.76-4.29,5.23-5.26,11-6.5,10.91-1.16.22-2.16-7.06,3.11-13.61s12.53-7.25,12.58-6.06Z" transform="translate(0 0)"/><path class="cls-7" d="M1634.74,2672.11c-1.13.29-3-5.91.1-12.79s8.85-9.7,9.39-8.67c.73,1-3,4.74-5.43,10.43s-2.82,10.88-4.06,11Z" transform="translate(0 0)"/><path class="cls-7" d="M1589.2,2599.76c-.5,1.14-6.25-.47-13.28.13s-12.48,2.94-13.15,1.87c-.74-.88,4.53-5.59,12.82-6.19s14.2,3.2,13.61,4.19Z" transform="translate(0 0)"/><path class="cls-7" d="M1410.26,1478.74l3.39,130.08,38.42,403.87s-12.26,196.71-20,307.78c-6.76,96.46,12.74,263.62,12.74,263.62l162.35-4.23,43.53-560.32,27-349.44,54.8-182.67-322.19-8.69Z" transform="translate(0 0)"/><polygon class="cls-7" points="1811.51 1508.3 1822.53 2077.19 1669.3 2504.09 1662.41 2529.73 1564.81 2508.82 1612.2 1478.74 1811.51 1508.3 1811.51 1508.3"/><path class="cls-8" d="M1675.43,1601.64a13.69,13.69,0,0,1,.12,2.54c0,1.83,0,4.29.06,7.44,0,6.72,0,16.32-.07,28.61,0,24.84-.72,60.78-1.9,105.18-2.59,88.79-8.54,211.39-19.28,346.4-10.52,135.08-22.85,257.06-31.88,345.31-4.6,44-8.33,79.64-10.94,104.48-1.33,12.19-2.39,21.72-3.11,28.39-.38,3.12-.67,5.56-.89,7.38a18.71,18.71,0,0,1-.4,2.49,13.4,13.4,0,0,1,.09-2.53c.15-1.83.34-4.28.59-7.42.6-6.68,1.45-16.23,2.55-28.45,2.37-24.87,5.78-60.57,10-104.6,8.48-88.32,20.46-210.3,31-345.34,10.74-135,17-257.47,20.17-346.2,1.44-44.37,2.48-80.29,2.85-105.12.28-12.28.49-21.87.65-28.59.09-3.14.18-5.61.24-7.43a14.9,14.9,0,0,1,.18-2.54Z" transform="translate(0 0)"/><path class="cls-8" d="M1533.74,1512.1c.18,0,.08,2.16-.53,6a89.85,89.85,0,0,1-4.19,15.82,103.69,103.69,0,0,1-79.18,67.06,89.77,89.77,0,0,1-16.29,1.54c-3.86,0-6-.28-6-.47,0-.57,8.55-.24,21.85-3.16a107.75,107.75,0,0,0,77.6-65.73c5.07-12.64,6.15-21.16,6.72-21Z" transform="translate(0 0)"/><path class="cls-8" d="M1683.93,1532.8a8.35,8.35,0,1,1-8.57-8.14,8.35,8.35,0,0,1,8.57,8.14Z" transform="translate(0 0)"/><path class="cls-8" d="M1815.67,1595.23c-.22.26-5.09-3.32-11.73-10.44a128.7,128.7,0,0,1-32.43-67.64c-1.39-9.64-1.12-15.67-.79-15.68.5,0,1,5.92,2.9,15.3a150,150,0,0,0,31.93,66.62c6.12,7.35,10.46,11.47,10.12,11.84Z" transform="translate(0 0)"/><path class="cls-16" d="M1648.33,820.6c1.49,1.14,76.89,42.15,97.48,70.08s56.79,156.17,56.79,156.17,10.6-1,14.09,8.27-2.17,17.2-2.17,17.2l-67.44,18L1648.33,820.6Z" transform="translate(0 0)"/><path class="cls-17" d="M1484.49,764.22s-124.37,78.37-134.6,132.89-1.27,157.41,5.54,193.18c3.28,17.19,24.27,119.55,35.69,221.28,12.36,110,10.08,250.52,10.08,250.52h421.08c-10.09-99-24.88-187.18-46.48-259.52l-25.55-308.36-61.33-136.29-46.61-42.86-157.82-50.84" transform="translate(0 0)"/><path class="cls-7" d="M1495.72,1562.09a23.24,23.24,0,0,1-.57-4.36c-.26-3.16-.59-7.32-1-12.51-.82-10.86-1.81-26.6-2.92-46.06-2-39.22-4.72-92.82-7.73-152.05s-6.58-113.07-10-151.88c-1.64-19.4-3.13-35.1-4.23-45.93-.49-5.18-.88-9.33-1.18-12.49a24.46,24.46,0,0,1-.2-4.38c.12,0,.4,1.47.83,4.31.44,3.14,1,7.27,1.75,12.42,1.49,10.8,3.31,26.48,5.23,45.87,3.94,38.79,7.82,92.52,10.87,151.93s5.13,113.17,6.81,152.1c.81,19.2,1.47,34.85,1.94,46.1.18,5.2.32,9.36.43,12.54a24.72,24.72,0,0,1-.06,4.39" transform="translate(0 0)"/><path class="cls-18" d="M1651.49,1324.09a128,128,0,0,1-53.71-12.4c-28.41-13.31-52-35.22-72.34-59.08a419.37,419.37,0,0,1-51.64-76.12c-1.2-11-2.32-20.22-3.3-27.33-.72-5.15-1.31-9.28-1.75-12.42a21.36,21.36,0,0,0-.83-4.31h0a24.46,24.46,0,0,0,.2,4.38c.3,3.16.69,7.31,1.18,12.49.62,6.11,1.37,13.76,2.19,22.75a421.05,421.05,0,0,1-36.08-98.91c13.63-5.23,32.07-12.28,51-19.44a652.75,652.75,0,0,0,201.92,211.54c10.63,7,22.82,16.17,22,28.86-.7,11-11.12,18.63-21.27,22.82a98.14,98.14,0,0,1-37.57,7.17" transform="translate(0 0)"/><path class="cls-19" d="M1473.8,1176.49q-1.17-2.22-2.31-4.44c-.82-9-1.57-16.64-2.19-22.75-.49-5.18-.88-9.33-1.18-12.49a24.46,24.46,0,0,1-.2-4.38h0a21.36,21.36,0,0,1,.83,4.31c.44,3.14,1,7.27,1.75,12.42,1,7.11,2.1,16.33,3.3,27.33" transform="translate(0 0)"/><path class="cls-20" d="M1833.27,1175.19s-34.5,65-53.09,92.93-47.79,33.18-71.68,41.14-61.06-6.63-86.28-14.6-194.72-218.48-194.72-218.48l159.22-47.73,6,10.15s91.91,122,105.18,118,78.32-34.51,78.32-34.51C1791.22,1118.19,1833.27,1175.19,1833.27,1175.19Z" transform="translate(0 0)"/><polygon class="cls-20" points="1586.72 1028.45 1427.5 1076.18 1572.29 1003.96 1586.72 1028.45"/><path class="cls-20" d="M1579.82,1047.27s11.4-9.16,25.24-5.5,31.55,14,32.77,16.49,0,7.94,0,7.94,14.66,4.89,17.11,11,3,17.72,3,17.72,13.43,4.27,17.1,12.21,0,19.54,0,19.54,15.88,3.67,17.71,10.39,0,17.93,0,17.93-36,.61-42.75-7.44-5.5-19-5.5-19l18.56-2.51-36.88-3.6s-23.21-.61-23.81-22c0,0-22-6.71-22.6-14.65s0-10.39,0-10.39l22.6-9.16s-25.24,1.68-22.6-18.93Z" transform="translate(0 0)"/><path class="cls-20" d="M1803.05,1069s56.44,73.34,71.89,153c0,0,12.61,54.53-4.78,74.41s-71,39.78-124.35,0l15.89-164-3.71-44.8,45.06-18.68Z" transform="translate(0 0)"/><path class="cls-20" d="M1833.27,1182.06s-.84-17.4,0-39.78-38.35-70-38.35-70L1758,1087.63l3.28,39.56,72,54.87Z" transform="translate(0 0)"/><path class="cls-21" d="M1422.82,824.46s75.36-21.53,110.07,37.09,57.41,129.2,57.41,129.2,9.58,0,13.16,18,0,23.92,0,23.92l-10.77,6s-9.71-16.75-20.4-15.56-159,58.62-159,58.62l-61-52.64s-32.29-147.14,70.59-204.57" transform="translate(0 0)"/><path class="cls-7" d="M1407.59,1076.8a6.11,6.11,0,0,1,1.48,1l4.41,3.57-.36-.07c10-4.17,32.88-13.27,64.73-25.58,15.94-6.14,34.11-13.1,54.11-20.5,10-3.67,20.43-7.53,31.41-11.18a80.53,80.53,0,0,1,8.65-2.46,14.4,14.4,0,0,1,9.34,2.47c5.35,3.49,9.28,8.38,12.65,13.75l-2.06-.56,10.77-6-.57.54c1.2-2.76,1.47-6.95,1.32-10.65a74.18,74.18,0,0,0-1.42-11.56,35.58,35.58,0,0,0-3.74-10.89c-1.77-3.22-4.94-6.1-8-6.41l-1.16-.12-.32-1-.35-1.05a794.48,794.48,0,0,0-39.18-95.24q-5.28-10.65-10.66-20.53c-3.67-6.54-7.14-13-11.25-18.55A78,78,0,0,0,1498.33,831a90,90,0,0,0-30.65-8.76,126.11,126.11,0,0,0-24.26-.54,144.86,144.86,0,0,0-15.29,1.85c-3.47.57-5.28,1-5.31.89a4.38,4.38,0,0,1,1.28-.49c.88-.26,2.18-.64,3.91-1a117.55,117.55,0,0,1,15.3-2.45,121.42,121.42,0,0,1,24.56,0A90.77,90.77,0,0,1,1499.3,829a79.83,79.83,0,0,1,30.18,25.31c4.32,5.78,7.83,12.19,11.55,18.75s7.27,13.45,10.84,20.56a767.47,767.47,0,0,1,39.57,95.55l.35,1.07-1.48-1.08c5.31.6,8.5,4.31,10.69,8a38.29,38.29,0,0,1,4.11,11.87,78,78,0,0,1,1.46,12.06c0,4.1.13,8-1.79,12.33l-.13.32-.44.24-10.77,6-1.27.71-.79-1.27c-3.07-5-7-9.74-11.6-12.75a11.57,11.57,0,0,0-7.42-2.08c-2.6.57-5.36,1.43-8.09,2.31-10.9,3.56-21.37,7.37-31.38,11l-54.25,20L1413.38,1082l-.21.08-.15-.14-4.18-3.83a6.79,6.79,0,0,1-1.25-1.31Z" transform="translate(0 0)"/><path class="cls-7" d="M1589.94,994.42c-.2.7-10.67-4.31-28.78-5-18.05-1-43,4.06-68.49,14.69s-48.11,22.12-65.51,27.89a167.42,167.42,0,0,1-20.83,6c-5,1-7.82,1.34-7.85,1.15s2.67-1,7.56-2.34,11.89-3.6,20.36-6.84c17-6.25,39.33-17.93,65.09-28.72s51.36-15.54,69.79-14a84.13,84.13,0,0,1,21.34,4.06,48.22,48.22,0,0,1,5.5,2.15c1.23.54,1.85.88,1.82,1" transform="translate(0 0)"/><path class="cls-7" d="M1729.22,910.5c.86-.12,8.26,47.69,16.53,106.77s14.28,107.09,13.42,107.21-8.25-47.68-16.52-106.78-14.29-107.08-13.43-107.2Z" transform="translate(0 0)"/><path class="cls-20" d="M1743.14,1296.41a199.73,199.73,0,0,0,79.86-95.49c7.25-18.33,11.78-38.18,9.53-57.77s-12-38.89-28.47-49.69-40-11.42-55.28,1" transform="translate(0 0)"/><path class="cls-22" d="M1748.78,1094.48s2.86-3.41,10-6.55c7-3.17,18.85-5.38,32.47-1.55,13.64,3.55,27.72,15.16,35.64,32,8.29,16.7,9.75,38.13,5,58.77-9.73,41.6-33.57,73.53-53.27,92.55a182.83,182.83,0,0,1-25.31,20.62c-3.17,2.2-5.76,3.7-7.51,4.72a11.13,11.13,0,0,1-2.76,1.41c-.16-.24,3.43-2.53,9.57-7.12a212,212,0,0,0,24.46-21.21,202.92,202.92,0,0,0,29.46-37.71c9.23-15.43,17.79-33.66,22.31-53.92s3.22-40.75-4.6-56.87c-7.5-16.22-20.7-27.41-33.68-31.08-13-3.94-24.41-2.18-31.38.57s-10.29,5.73-10.5,5.41Z" transform="translate(0 0)"/><path class="cls-22" d="M1697.88,1156.62c-.12-.47,4.77-2,12.42-5a300.12,300.12,0,0,0,29.11-13.66c22.15-12,39.92-22.31,40.44-21.41.21.38-4,3.3-11,7.76s-16.77,10.46-28,16.42a190.41,190.41,0,0,1-29.82,13c-8,2.56-13.08,3.33-13.17,3Z" transform="translate(0 0)"/><path class="cls-22" d="M1579.82,1047.27c.37.06-.62,3.28,1.34,8.71a14,14,0,0,0,7.28,7.08,31.18,31.18,0,0,0,13.92,2.31l4.79-.24-4.43,1.85-22.51,9.36.63-.72a44.94,44.94,0,0,0,0,8.46,6.75,6.75,0,0,0,1,3.81,14.65,14.65,0,0,0,3.1,3c5,3.58,11.31,6.13,17.84,8.25l.88.29,0,.9c.18,5.25,2,10.78,6.37,14.45s10.25,5.75,16.19,6.15h.1l36.89,3.51,13,1.25-13,1.77-18.56,2.54,1.33-1.36a27.36,27.36,0,0,0,3.12,14.91,17.77,17.77,0,0,0,2.23,3.12,11.47,11.47,0,0,0,3,2,39.2,39.2,0,0,0,7.79,2.35c10.13,2,20.57,2.36,30.58,2.36l-1.51,1.31a69.14,69.14,0,0,0,.8-9.81c0-3.07-.13-6.8-1.39-8.79-1.51-2.2-4.4-3.79-7.17-5.05a55.05,55.05,0,0,0-8.75-3l-1.5-.38.41-1.51c1.82-6.58,2.59-14.17-.47-19.59-3.46-5.23-9.89-8.33-15.62-10.43l-.89-.33,0-.89a97.27,97.27,0,0,0-1.1-10.15c-.6-3.13-1.13-6.76-2.78-8.75-4-4.35-10.06-6.78-15.29-8.79l-1-.37.2-1c.49-2.47.87-5.45.12-7.22-1.18-1.38-3.74-3-5.69-4.23a123.08,123.08,0,0,0-12.3-6.63c-7.92-3.58-15.06-6.5-21.14-6.31a32.59,32.59,0,0,0-13.52,3.36c-2.91,1.43-4.3,2.45-4.37,2.35s1.19-1.29,4.06-2.93a31.3,31.3,0,0,1,13.8-4c6.47-.38,13.86,2.47,21.93,5.93a121.88,121.88,0,0,1,12.62,6.51c1.09.64,2.17,1.32,3.26,2.07a12.81,12.81,0,0,1,3.28,2.91c1.27,3.17.62,5.86.19,8.74l-.76-1.33a64.78,64.78,0,0,1,8.48,3.56,26,26,0,0,1,8,5.82c2.41,3.17,2.62,6.51,3.39,9.89a97,97,0,0,1,1.23,10.45l-.94-1.22a47.8,47.8,0,0,1,9.27,4.26,23.84,23.84,0,0,1,8,7.26,20.67,20.67,0,0,1,2.53,10.89,41.53,41.53,0,0,1-1.65,11.08l-1.09-1.89a55.39,55.39,0,0,1,9.31,3.13c3,1.4,6.18,2.9,8.48,6.11a12.1,12.1,0,0,1,1.66,5.33,40.66,40.66,0,0,1,.28,5.16,72.9,72.9,0,0,1-.82,10.28l-.19,1.3h-1.32c-10.23,0-20.66-.33-31.26-2.4a41.6,41.6,0,0,1-8.49-2.58,14.69,14.69,0,0,1-4-2.75,20.93,20.93,0,0,1-2.63-3.69,30.35,30.35,0,0,1-3.47-16.78l.08-1.2,1.24-.17,18.57-2.48.06,3-36.88-3.68h.1c-6.71-.51-13.1-2.66-17.93-7s-7-10.71-7.14-16.41l.91,1.2c-6.77-2.29-13.1-4.87-18.51-8.84a16.62,16.62,0,0,1-3.58-3.62,9.31,9.31,0,0,1-1.36-5,44.27,44.27,0,0,1,.21-9.12l.08-.51.55-.22,22.68-9,.36,1.61a32.08,32.08,0,0,1-14.57-2.82,14.81,14.81,0,0,1-7.56-7.91c-1.81-5.82-.38-9.2-.51-9Z" transform="translate(0 0)"/><path class="cls-23" d="M1411.11,1035.29c31.35-21.92,60.5-39,97.23-50.33a89.94,89.94,0,0,1,26.65-4.19,74.74,74.74,0,0,1,32,7c-1.82-.23-3.74-.43-5.74-.57q-3.39-.29-7.07-.29c-17.61,0-40.09,4.85-62.72,14.29-25.76,10.79-48,22.47-65.09,28.72-5.88,2.25-11.05,4-15.29,5.34" transform="translate(0 0)"/><path class="cls-19" d="M1409.2,1036.63l1.91-1.34c4.24-1.33,9.41-3.09,15.29-5.34,17-6.25,39.33-17.93,65.09-28.72,22.63-9.44,45.11-14.29,62.72-14.29q3.68,0,7.07.29c2,.14,3.92.34,5.74.57l.76.36a106.7,106.7,0,0,0-10.85-.56c-47.5,0-94.11,31-145.24,48.34l-2.49.69" transform="translate(0 0)"/><path class="cls-14" d="M1539.66,880.52c.14.43-5.88-.17-14.32,5.14a51.05,51.05,0,0,0-13,12.3c-4.28,5.56-8.09,12.67-12.58,20.43s-10.08,16.27-18.77,22.78A63.23,63.23,0,0,1,1449.27,953a70.8,70.8,0,0,1-36.9-6.26c-11.77-5.46-23.29-14.72-28.31-28.25a36,36,0,0,1-1.21-20.79,26.91,26.91,0,0,1,11.68-16.58,26,26,0,0,1,19.31-3.49,21.58,21.58,0,0,1,14.48,12,27.62,27.62,0,0,1,2,17.77,35.81,35.81,0,0,1-7.53,15,47.83,47.83,0,0,1-25,15.61c-18,4.39-33.09-.73-41.52-6a45.53,45.53,0,0,1-9.07-7.22,18.14,18.14,0,0,1-2.56-3.13c.3-.33,3.6,4.4,12.24,9.3a54.48,54.48,0,0,0,40.35,4.89,45.74,45.74,0,0,0,23.59-15.11,33.15,33.15,0,0,0,6.85-13.92,24.87,24.87,0,0,0-1.92-15.93,18.64,18.64,0,0,0-12.55-10.36,23.08,23.08,0,0,0-17,3.17,23.85,23.85,0,0,0-10.29,14.75,33,33,0,0,0,1.13,19c4.57,12.39,15.4,21.29,26.67,26.54a68.4,68.4,0,0,0,35.33,6.16,60.88,60.88,0,0,0,30.49-11c8.32-6.09,13.87-14.19,18.41-21.82s8.57-14.76,13.1-20.38a50.42,50.42,0,0,1,13.71-12.25,29.45,29.45,0,0,1,10.91-4,13.63,13.63,0,0,1,4-.13Z" transform="translate(0 0)"/><path class="cls-14" d="M1731.21,934.92a11.93,11.93,0,0,1-3.25,0c-2.13-.1-5.26-.36-9.27-.73-8-.6-19.67-2.39-33.89-1.24a65.62,65.62,0,0,0-22.26,5.87c-7.4,3.58-14.5,9.45-18.37,17.86-4,8.1-4.86,18.92.62,27.08,5.39,7.87,17.17,12.29,26.51,8.13a17.57,17.57,0,0,0,9.17-11.23,29.42,29.42,0,0,0,0-14.85c-2.34-9.7-8.51-17.93-15.47-24-14.29-12.25-31.82-16.2-45.91-16.24a121.08,121.08,0,0,0-33.43,4.83c-7.74,2.15-11.93,3.72-12,3.47a13.4,13.4,0,0,1,2.93-1.43c2-.81,4.89-2,8.74-3.2a113,113,0,0,1,33.78-5.88c14.43-.24,32.7,3.55,47.79,16.26,7.37,6.32,13.94,14.85,16.57,25.44a32.37,32.37,0,0,1,0,16.44,20.66,20.66,0,0,1-10.84,13.2c-11.21,4.83-24.09-.21-30.36-9.25-6.27-9.48-5-21.34-.69-30,4.26-9.05,12-15.32,19.85-19a66.62,66.62,0,0,1,23.2-5.73c14.62-.89,26.23,1.27,34.21,2.23l9.19,1.31a13.09,13.09,0,0,1,3.19.62Z" transform="translate(0 0)"/><path class="cls-14" d="M1774.17,961.61c.36.13-.11,2.65-2.13,6.21a33.55,33.55,0,0,1-26.16,16.28c-4.08.24-6.54-.46-6.51-.83,0-.93,10-.46,19.92-6.79,10-6.09,14.06-15.31,14.88-14.87Z" transform="translate(0 0)"/><path class="cls-14" d="M1674.79,839.5c.31.19-.57,2.43-3.27,5.2a27.25,27.25,0,0,1-27.9,6.16c-3.61-1.37-5.36-3-5.16-3.34.35-.83,8.68,3.66,19.31,1.15,10.7-2.2,16.36-9.79,17-9.17Z" transform="translate(0 0)"/><path class="cls-14" d="M1474.58,1014.92c.58.8-12.09,8.05-21.07,22.9-9.23,14.7-10,29.28-11,29.12-.37,0-.71-3.65.22-9.45a60.55,60.55,0,0,1,23.51-38.13c4.76-3.43,8.16-4.76,8.33-4.44Z" transform="translate(0 0)"/><path class="cls-14" d="M1561.74,1018.73c-.82.39-4.61-6.28-10.59-13.47s-11.74-12.24-11.19-13,7.39,3.39,13.6,11,8.94,15.15,8.18,15.46Z" transform="translate(0 0)"/><path class="cls-14" d="M1741.14,1110.2c-.38.4-3.7-2.77-9.91-6.46a66.33,66.33,0,0,0-54.2-5.87c-6.86,2.28-10.77,4.66-11.06,4.19-.19-.25,3.34-3.35,10.29-6.27a60.46,60.46,0,0,1,56.17,6.09c6.16,4.33,8.94,8.12,8.71,8.32Z" transform="translate(0 0)"/><path class="cls-14" d="M1570.68,1239.86c0,.37-5,.07-13.51,2.22-8.63,2-20.15,7.6-34,15.37-7,3.81-14.63,8.06-23.49,11.41a73.31,73.31,0,0,1-29.71,5,76.11,76.11,0,0,1-32.2-8.56,72.38,72.38,0,0,1-26.55-23.91,74.86,74.86,0,0,1-12.5-33.51,50.26,50.26,0,0,1,.68-17.23c1.28-5.54,4-10.9,8.26-14.58a18.47,18.47,0,0,1,15.56-3.89c5.16.9,10.28,4.31,11.74,9.53s-.65,10.38-3.85,13.59a26.77,26.77,0,0,1-11,6.68,43.19,43.19,0,0,1-21.71.44,47.49,47.49,0,0,1-15.09-6.27,42.89,42.89,0,0,1-8-6.53,13.56,13.56,0,0,1-2.24-2.8c.26-.28,3.28,3.79,10.86,8.29a48.24,48.24,0,0,0,14.82,5.61,42.06,42.06,0,0,0,20.64-.84,24.75,24.75,0,0,0,10-6.23c2.78-2.92,4.4-7.18,3.12-11.2-2.46-8.17-15.86-10.6-22.92-4.2-7.52,6.6-9.16,18.42-7.79,29.28a72.44,72.44,0,0,0,12,32.1,69.62,69.62,0,0,0,25.4,23,73.69,73.69,0,0,0,30.88,8.39c20.92,1.29,38.18-8.18,52-15.45,13.95-7.52,25.87-13,34.74-14.61a41.77,41.77,0,0,1,5.87-.94,26.5,26.5,0,0,1,4.35-.27,14.87,14.87,0,0,1,3.57.18Z" transform="translate(0 0)"/><path class="cls-14" d="M1803,1456.91a34.06,34.06,0,0,1-5.3,4.27,63.66,63.66,0,0,1-17.59,8.45,67.51,67.51,0,0,1-30.77,2.24,66.66,66.66,0,0,1-36.13-18.78,69.66,69.66,0,0,1-13.73-19.67c-3.5-7.58-5.85-16.41-4.91-25.58a32.57,32.57,0,0,1,4.1-13.39,21.53,21.53,0,0,1,11.14-9.45c9.82-3.59,20.81.78,28.09,7.93,15,15,15.61,41.55,2.5,59.74-13.19,18.41-38.46,27.07-61.53,22.13a79,79,0,0,1-31.41-14.36c-9.27-6.78-16.51-15.61-23.15-24.15s-13.3-16.91-21.62-22.85a59.55,59.55,0,0,0-27.61-10.75,62.19,62.19,0,0,0-28.14,2.79c-8.75,3-16.21,8.33-23.09,13.87s-13.51,11.17-20.84,15.3a70.58,70.58,0,0,1-22.54,8.2,70.46,70.46,0,0,1-65.74-22,68.39,68.39,0,0,1-11-16.1,36.08,36.08,0,0,1-2.56-6.3c.47-.32,3,9.22,14.47,21.57a72.55,72.55,0,0,0,25,17,70.18,70.18,0,0,0,39.48,3.58,68.26,68.26,0,0,0,21.74-8.11c7-4,13.5-9.65,20.43-15.24s14.61-11.18,23.8-14.43a64.82,64.82,0,0,1,29.42-3.06,62.3,62.3,0,0,1,29,11.19c8.79,6.24,15.56,14.88,22.28,23.37s13.65,17,22.59,23.56a76.23,76.23,0,0,0,30.19,13.78c22,4.74,46-3.59,58.42-20.85,12.37-17,11.72-42.15-2-55.88-6.71-6.67-16.73-10.51-25.14-7.42-8.63,3-12.85,12.15-13.61,20.52-.92,8.62,1.2,17,4.53,24.31a67.49,67.49,0,0,0,13.12,19.12,65.09,65.09,0,0,0,34.84,18.62,67.38,67.38,0,0,0,30.13-1.68c16.17-4.85,23-12.07,23.24-11.56Z" transform="translate(0 0)"/><path class="cls-7" d="M1678.1,702.65c16.84-7.82,27.38-25.07,33.58-42.57s9.06-36.09,16-53.33c5.13-12.85-.52-33.34,11-41,14.44-9.56,14.28-34.92,8.7-47.59-6.06-13.79-22.52-24-23.65-28.4-2.93-11.47,7-23.89,3.35-35.13-8.72-26.43-30.24-22.94-30.24-22.94-9.81-11.89-23.07-27.59-44.61-33.16-23.33-6-57.74-10.52-78.52,1.72s-36,20.39-42.74,43.55" transform="translate(0 0)"/><path class="cls-20" d="M1699.4,541.48A113.47,113.47,0,0,0,1588.1,435.2l-5.88-.11c-63.39,2.62-96.6,57.93-92.23,121.24l-5.5,207.89L1633,864.05l9.32-49V755.7s61-8.42,62.84-69.29c.87-29.4-2.27-90.06-5.75-144.93Z" transform="translate(0 0)"/><path class="cls-7" d="M1684.4,586.89a8.69,8.69,0,0,1-8.53,8.63,8.31,8.31,0,0,1-8.84-8,8.7,8.7,0,0,1,8.53-8.63,8.33,8.33,0,0,1,8.84,8Z" transform="translate(0 0)"/><path class="cls-7" d="M1686.76,567.83c-1.1,1.11-7.6-3.87-17-4s-16.29,4.43-17.28,3.27c-.5-.52.64-2.55,3.67-4.67a23.88,23.88,0,0,1,13.86-4,22.84,22.84,0,0,1,13.47,4.61c2.84,2.25,3.78,4.32,3.24,4.82Z" transform="translate(0 0)"/><path class="cls-7" d="M1593.68,586.89a8.68,8.68,0,0,1-8.53,8.63,8.31,8.31,0,0,1-8.83-8,8.7,8.7,0,0,1,8.53-8.63,8.31,8.31,0,0,1,8.83,8Z" transform="translate(0 0)"/><path class="cls-7" d="M1593.58,563.6c-1,1.23-8-3-17.3-2.14s-15.71,6.16-16.83,5.11c-.53-.46.36-2.59,3.15-5a23.92,23.92,0,0,1,13.34-5.49,22.94,22.94,0,0,1,13.9,3.12c3.06,1.93,4.22,3.89,3.74,4.44Z" transform="translate(0 0)"/><path class="cls-7" d="M1626.57,641.15c0-.54,5.8-1.44,15.24-2.49,2.4-.2,4.67-.64,5.1-2.26.59-1.72-.37-4.31-1.47-7.11L1638.68,611c-9.37-26.07-16.11-47.49-15-47.86s9.5,20.47,18.87,46.53l6.45,18.42c.86,2.73,2.36,5.83,1.08,9.4a6,6,0,0,1-4,3.42,16.23,16.23,0,0,1-4.06.5c-9.49.35-15.38.29-15.41-.24Z" transform="translate(0 0)"/><path class="cls-7" d="M1593.7,547.93c-1.13,2.46-10.34.49-21.39.91-11.06.2-20.15,2.68-21.41.28-.55-1.14,1.18-3.4,4.95-5.56a37.27,37.27,0,0,1,32.6-.91c3.89,2,5.75,4.11,5.25,5.28Z" transform="translate(0 0)"/><path class="cls-7" d="M1682.82,543.87c-1.68,2.1-8.08-.22-15.84-.45-7.73-.51-14.33,1.18-15.8-1.07-.65-1.09.42-3.2,3.32-5.16a23,23,0,0,1,25.51,1.23c2.7,2.23,3.55,4.43,2.81,5.45Z" transform="translate(0 0)"/><path class="cls-7" d="M1535.47,439.46A46.1,46.1,0,0,0,1589.86,485c10.29-1.89,21.58-7.09,30.48-1.6,9.38,5.76,9.77,19.89,18.08,27.11,11.87,10.31,30.76.63,45.85,5.11,11.64,3.45,18.92,14.58,26.65,23.95s19.33,18.26,31,14.81c-.74-10.47-1.5-21.05-4.62-31.07s-8.85-19.59-17.64-25.32c-4.82-3.14-10.42-5.05-14.89-8.66-9.68-7.81-11.91-21.39-17.88-32.29a50.54,50.54,0,0,0-38.49-25.53c-13.26-1.35-26.92,2.62-39.84-.64-9.55-2.4-17.89-8.6-27.57-10.44-18.84-3.58-36.36,9.94-50,23.41" transform="translate(0 0)"/><path class="cls-7" d="M1595.77,466.28c-8.44-2.42-25.73-7.89-30.25-15.22-9.85-15.92-27.19-26.78-44.92-25.81s-34.75,15-38.37,33.68c-21.45.16-42.38,13.64-52.67,33.91s-9.54,46.52,1.91,66.07c3,5.11,6.8,10.23,6.88,16.28.11,7.5-5.44,13.44-9.35,19.64-10.69,16.92-9.88,40.14-1.63,58.56s14.07,24.88,25.82,28.57c23,7.22.13,53.46,38.38,53.46l7.71-137a13.44,13.44,0,0,0,3.58,1.32c22.64,5.12,25.62-39.09,20.57-51.74,8.2-7.27,16.47-14.65,22.72-23.88s11.76-34.43,10.42-45.77c8.16.47,42.91-11,39.2-12.06Z" transform="translate(0 0)"/><path class="cls-20" d="M1502.45,599.3c-1-.47-41.62-13.09-41,28.56s42.3,32.43,42.35,31.24-1.36-59.8-1.36-59.8Z" transform="translate(0 0)"/><path class="cls-22" d="M1490.85,643.51c-.18-.13-.71.52-1.93,1.1a7.28,7.28,0,0,1-5.42.19c-4.42-1.55-8.23-8.48-8.55-16a24.13,24.13,0,0,1,1.88-10.42c1.23-3.07,3.17-5.22,5.37-5.65a3.71,3.71,0,0,1,4.32,1.92c.57,1.16.32,2,.54,2.07s.88-.72.52-2.43a4.62,4.62,0,0,0-1.68-2.59,5.49,5.49,0,0,0-4-1c-3.21.27-6.06,3.27-7.48,6.57a24.6,24.6,0,0,0-2.35,11.65c.39,8.38,4.8,16.17,10.85,17.82a7.78,7.78,0,0,0,6.62-1.2c1.28-1,1.48-2,1.33-2Z" transform="translate(0 0)"/><path class="cls-7" d="M1433.37,665.7a25.82,25.82,0,0,1-4.69,39.16,17.06,17.06,0,0,0,12.64,4.33c1.62,5.25-5.76,8.83-7.26,14.11-.89,3.18.56,6.65,2.92,9s5.48,3.65,8.58,4.77a93,93,0,0,0,28.78,5.51c5.71.18,12.13-.49,15.81-4.86,3.07-3.63,3.36-8.78,3.49-13.53q.52-17.74,1-35.5c.11-3.5.14-7.25-1.83-10.13-2.26-3.29-6.47-4.5-10.33-5.49l-50.47-12.87" transform="translate(0 0)"/><path class="cls-7" d="M1643.8,671.28c0,.87-7.27,1.36-16.17,1.11s-16.1-1.16-16.08-2,7.26-1.35,16.17-1.1,16.1,1.16,16.08,2Z" transform="translate(0 0)"/><path class="cls-22" d="M1642.31,755.7s-55.46-8.49-87.77-33.16c0,0,17,50.79,87.7,52.23l.07-19.07Z" transform="translate(0 0)"/><path class="cls-24" d="M664.44,2627.41c-.71-.26,8.61-53.62,8.61-53.62l114.66,14.48-15.34,59.9-67.92,2.27-40-23" transform="translate(0 0)"/><path class="cls-25" d="M659.67,2625.54l-.12,7.44s-126.78,49.15-128.41,73.07l250.54,1.74-2.83-83.39c-37.36,17-76.37,18.66-119.18,1.14" transform="translate(0 0)"/><path class="cls-7" d="M750.85,2669.9a8.5,8.5,0,0,1-2.12-.27c-4.86-1.27-9-7.72-7.34-12.45a11.1,11.1,0,0,1,9.71-6.74,6.41,6.41,0,0,1,3.13.76h0a10.25,10.25,0,0,1,6.08,11.41,9.94,9.94,0,0,1-9.44,7.3" transform="translate(0 0)"/><path class="cls-14" d="M781.68,2707.79l-250.54-1.74c-.8-5.23,3.89-9.1,7.11-11.1-4.3,4.05-6.88,7.82-7.11,11.1l250.54,1.74m0,0-.68-20.05h0l.68,20.05" transform="translate(0 0)"/><path class="cls-7" d="M781.68,2707.79l-250.54-1.74c.23-3.28,2.81-7.05,7.11-11.1a23.71,23.71,0,0,1,2.87-1.53L781,2687.74l.68,20.05" transform="translate(0 0)"/><path class="cls-7" d="M658.67,2633.68c0,1.22,6.15,1.82,12.14,5.79s9.16,9.14,10.29,8.67c1.13-.24-.65-7.56-8-12.25s-14.71-3.34-14.45-2.21Z" transform="translate(0 0)"/><path class="cls-7" d="M632.32,2644.36c-.29,1.18,5,3.3,9.11,8.51,4.27,5.08,5.28,10.68,6.5,10.63,1.15.21,2.05-6.95-3.2-13.32s-12.38-7-12.41-5.82Z" transform="translate(0 0)"/><path class="cls-7" d="M617.17,2675.71c1.11.27,2.86-5.83-.24-12.55s-8.8-9.43-9.32-8.41c-.7,1,3,4.62,5.45,10.18s2.9,10.65,4.11,10.78Z" transform="translate(0 0)"/><polyline class="cls-24" points="1180.13 2628.36 1181.18 2572.91 1070.93 2579.93 1074.58 2647.74 1142.49 2650.01 1180.13 2628.36"/><path class="cls-26" d="M1187.27,2625.12l.12,7.44s126.79,49.15,128.42,73.07l-250.54,1.74,2.82-83.4c37.37,17,76.37,18.67,119.18,1.15" transform="translate(0 0)"/><path class="cls-7" d="M1096.11,2669.48a10,10,0,0,1-9.46-7.3,10.26,10.26,0,0,1,6.07-11.41,6.52,6.52,0,0,1,3.13-.76,11.08,11.08,0,0,1,9.7,6.75c1.7,4.72-2.47,11.18-7.34,12.45a8.34,8.34,0,0,1-2.1.27" transform="translate(0 0)"/><path class="cls-14" d="M1065.26,2707.37l.68-20.06-.67,20.06h0m250.55-1.74h0c-.23-3.28-2.82-7.05-7.12-11.1,3.23,2,7.92,5.87,7.12,11.1h0" transform="translate(0 0)"/><path class="cls-7" d="M1065.27,2707.37l.67-20.06,239.88,5.69a23.71,23.71,0,0,1,2.87,1.53c4.3,4,6.89,7.82,7.12,11.1h0l-250.55,1.74" transform="translate(0 0)"/><path class="cls-7" d="M1188.28,2633.25c0,1.23-6.15,1.82-12.14,5.8-6.1,3.82-9.16,9.14-10.29,8.66-1.13-.23.64-7.55,8-12.24s14.71-3.34,14.45-2.22Z" transform="translate(0 0)"/><path class="cls-7" d="M1214.63,2643.94c.29,1.18-5,3.3-9.12,8.51s-5.28,10.68-6.49,10.63c-1.16.2-2-6.95,3.2-13.33s12.38-7,12.41-5.81Z" transform="translate(0 0)"/><path class="cls-7" d="M1229.77,2675.29c-1.11.27-2.85-5.83.24-12.55s8.8-9.44,9.33-8.42c.7,1-3,4.62-5.45,10.18s-2.9,10.66-4.12,10.79Z" transform="translate(0 0)"/><path class="cls-7" d="M922.52,595.14c-14.48,41.66-30.74,86.55-17.44,128.6,5.09,16.1,14.27,31,16.45,47.77,2.68,20.48-5.45,40.68-8,61.17-4.25,33.46-5.06,72.77,18,97.36,29.31-15.62,61-8.6,61-8.6,3.1-10.19,10.69-44.22,10.08-54.85-4.83-83.14-2.12-243.5,22.82-333.28,0,0-79.92-4.33-102.9,61.83Z" transform="translate(0 0)"/><path class="cls-24" d="M1154.1,620.31l1.53-21.74-129.45-31.49c-40.09-6.31-85.72,31.88-90.32,72.2-5.1,44.79-9.57,99.68-6,133.48,7.29,68,58.53,79.17,58.53,79.17l-2.23,70.27a73,73,0,0,0,74.13,75.31,78,78,0,0,0,76.6-73.56l17.16-303.64Z" transform="translate(0 0)"/><path class="cls-7" d="M948.73,688.61a8.67,8.67,0,0,0,7.9,9.15,8.3,8.3,0,0,0,9.31-7.35,8.67,8.67,0,0,0-7.89-9.15,8.29,8.29,0,0,0-9.32,7.35Z" transform="translate(0 0)"/><path class="cls-7" d="M948.67,668.64c1,1.18,7.81-3.33,17.12-2.84s15.88,5.5,16.94,4.41c.53-.48-.46-2.57-3.32-4.88a23.71,23.71,0,0,0-13.5-4.93,22.87,22.87,0,0,0-13.7,3.67c-3,2-4,4-3.54,4.57Z" transform="translate(0 0)"/><path class="cls-7" d="M1040,692.56a8.65,8.65,0,0,0,7.89,9.14,8.28,8.28,0,0,0,9.31-7.34,8.65,8.65,0,0,0-7.89-9.15,8.28,8.28,0,0,0-9.31,7.35Z" transform="translate(0 0)"/><path class="cls-7" d="M1040,675c1,1.18,7.83-3.33,17.12-2.83s15.89,5.49,16.95,4.4c.53-.48-.45-2.57-3.33-4.88a23.71,23.71,0,0,0-13.5-4.93,22.88,22.88,0,0,0-13.69,3.67c-3,2-4,4-3.55,4.57Z" transform="translate(0 0)"/><path class="cls-7" d="M1002.78,742.3c.07-.52-5.66-1.81-15-3.49-2.36-.36-4.59-.95-4.9-2.59-.47-1.74.65-4.25,1.94-7l7.94-17.74c11.07-25.26,19.2-46.09,18.18-46.52s-10.81,19.68-21.88,45q-4,9.34-7.65,17.86c-1,2.66-2.74,5.64-1.7,9.26a6,6,0,0,0,3.72,3.68,16.26,16.26,0,0,0,4,.75c9.41,1,15.26,1.33,15.32.8Z" transform="translate(0 0)"/><path class="cls-27" d="M988.46,852.11s47.52,5.2,93.83-19.53c0,0-25.17,46-94.64,36.34l.81-16.81Z" transform="translate(0 0)"/><path class="cls-27" d="M1007.5,767a16.8,16.8,0,0,1,15.35-5.47,15.36,15.36,0,0,1,10.28,6.21c2.28,3.41,2.56,8.11.17,11.13-2.69,3.4-8,4-12.35,2.46s-8.05-4.6-11.54-7.69a10.45,10.45,0,0,1-2.51-2.89,3.11,3.11,0,0,1,.19-3.47" transform="translate(0 0)"/><path class="cls-7" d="M1039.52,652.09c1.2,2.41,10.31.17,21.31.25,11-.14,20.14,2,21.32-.37.52-1.16-1.27-3.35-5.09-5.39a37.08,37.08,0,0,0-32.48.09c-3.81,2.06-5.59,4.27-5.06,5.42Z" transform="translate(0 0)"/><path class="cls-7" d="M950.57,646.52c1.53,2.19,8,.33,15.76.61,7.73,0,14.16,2.14,15.78,0,.71-1-.21-3.21-3-5.36a22.89,22.89,0,0,0-25.41-.5c-2.84,2-3.84,4.17-3.17,5.24Z" transform="translate(0 0)"/><path class="cls-7" d="M1042.8,767.57c.18.85-8.65,3.39-19.72,5.68s-20.18,3.45-20.35,2.61,8.65-3.38,19.71-5.68,20.18-3.45,20.36-2.61Z" transform="translate(0 0)"/><path class="cls-7" d="M1198.84,1381.37c0,4.15,29.18,82.67,29.18,82.67s61.73,144.36,47.33,284.93c-5,49.22-54.61,357.62-54.61,357.62s-17.75,228.27-24.8,327.21c-7.48,105-9.54,142.38-9.54,142.38l-124.35,4L1036.74,2140l-23-354.14L886,2229.5S855.53,2364,838.89,2420.77s-54.31,177.56-54.31,177.56l-116.21-17.22s12.52-211.62,23.6-262.91,47.82-235.4,47.82-235.4l32.58-179,34.81-291.31,30.33-112,37.7-126.68,323.63,7.63Z" transform="translate(0 0)"/><path class="cls-8" d="M995.72,1688.65c-.85.08-5.69-47.29-10.79-105.78s-8.55-106-7.69-106.07,5.7,47.28,10.8,105.79,8.54,106,7.68,106.06Z" transform="translate(0 0)"/><path class="cls-8" d="M1217.35,1501c.12.13-1.39,1.79-4.49,4.37a74.13,74.13,0,0,1-14.44,9.14,82.21,82.21,0,0,1-102.14-24.12,73.22,73.22,0,0,1-8.82-14.64c-1.62-3.69-2.24-5.85-2.07-5.91.57-.3,3.61,8.22,12.62,19.17a83.2,83.2,0,0,0,99.47,23.49c13-5.76,19.49-12,19.87-11.5Z" transform="translate(0 0)"/><path class="cls-8" d="M1004.42,1488.74c-.07-.15.81-.82,2.72-1a10.5,10.5,0,0,1,7.58,2.54,10.38,10.38,0,0,1,3.42,11.43,12.47,12.47,0,0,1-11.86,8.55,13,13,0,0,1-11.44-9.12,12,12,0,0,1,2.6-11.65,12.59,12.59,0,0,1,6.82-4.08c1.87-.35,2.89-.09,2.89.09.18.52-4.31.58-8,5.38a9.94,9.94,0,0,0-1.59,9.35c1.19,3.43,4.7,6.73,8.83,6.91s7.82-3,9-6.38a8.14,8.14,0,0,0-2.18-8.84c-4.4-4.18-8.86-2.65-8.82-3.16Z" transform="translate(0 0)"/><path class="cls-8" d="M898.8,1478.34c.31,0,.06,4.61-2.54,11.48a61.88,61.88,0,0,1-41.35,36.8c-7.12,1.77-11.69,1.51-11.7,1.19-.06-.55,4.38-1.06,11.07-3.31a68.76,68.76,0,0,0,40-35.55c3-6.39,4-10.73,4.57-10.61Z" transform="translate(0 0)"/><path class="cls-28" d="M861.27,965.29s-30.66,28-46.29,67.33c-21.2,53.43-101.55,235.83-103.05,267.19S706,1364,728.36,1370s106,3,106,3l221-92.59-16.43-94-199.63,50.89s-18.4-94.72,1-136.34,70-168.12,70-168.12-33.59,16.86-49.09,32.43Z" transform="translate(0 0)"/><path class="cls-29" d="M986.58,910.48s10.94,56,46.47,52.22,82.65-68.43,82.65-68.43,87.43-16.54,115.41,6.17,3.26,199.83-3.09,269.44-15.88,150.45-15.88,150.45,17.64,79.07,10.15,92.64c-20.6,37.32-174.27,67.86-303.27,63.44-29.5-1-72.33-41.87-74.87-50.76s-5-28.05,8.28-41.94-22.29-197.28-22.29-197.28-7.94-53.13,4.25-76.09,76-177.48,76-177.48c24.31-12.32,49-14.57,76.22-22.38Z" transform="translate(0 0)"/><path class="cls-24" d="M1041,1201.84s99.75-7.77,110.12,0,76.87,80.33,78.6,87.24,0,15.55,0,15.55,19,17.27,13,21.59-11.23,0-17.27,0-19-19.86-19-19.86l18.13,33.87s-9.5.2-17.27,0-26.78-29.55-26.78-29.55l-19-21.6,28.49,51.24s-2.59,13.08-12.09,7.69-41.45-36.47-41.45-36.47-55.28-52.69-57-62.19L1053,1266.41l-12-64.57Z" transform="translate(0 0)"/><path class="cls-24" d="M848.36,1237.37s-14.77-36.19-20.33-35.51-31.76,18.74-28.14,31.39S830,1242,830,1242l18.34-4.67Z" transform="translate(0 0)"/><path class="cls-30" d="M1130,956.27c7.45-42.2,49.09-70.52,90.56-59.68,10.71,2.8,19.67,7.84,24.52,16.43,19.42,34.35,19.42,109,12,140.38S1179.37,1329,1154,1348s-218,96.66-319.59,25l230-135.9L1122.62,998l7.38-41.72Z" transform="translate(0 0)"/><path class="cls-7" d="M1226.26,1160.53a10.09,10.09,0,0,1-.49,2.15l-1.76,6.22c-1.69,5.61-4.09,13.58-7.17,23.76-6.4,20.57-15.7,50.35-28.62,86.69-3.23,9.08-6.73,18.56-10.63,28.35-4.13,9.7-7.73,20.08-14.3,29.77-7.35,9.3-17.89,15.35-28.66,20.82a309.82,309.82,0,0,1-34.58,14.19c-24.17,8.3-50,15.3-77,21.7-13.55,3.08-27.19,6.47-41.4,9a240.89,240.89,0,0,1-43.6,3.76,177.24,177.24,0,0,1-55.45-9.11c-8.82-3.06-16.92-6.53-25.39-10.16-8.24-4.32-14.9-10.54-20.51-17.52l-1.14-1.41,1.67-.85c50.61-25.64,94.63-53.56,133-76.36s70.52-41.4,93.84-55l-.34.45L1074,1198.1q1.59-6.42,2.48-10c.22-1,.4-1.87.55-2.56a3.3,3.3,0,0,1,.13-.87c.38,0-.35,4.77-2.39,13.66s-5.26,22-9.67,39l-.07.29-.27.17-93.34,55.84c-38.19,23-82.13,51.13-132.88,77l.52-2.26c5.28,6.54,11.85,12.65,19.5,16.6,7.94,3.39,16.52,7,25,10a174.74,174.74,0,0,0,54.49,8.93,237.75,237.75,0,0,0,43-3.71c14-2.43,27.76-5.81,41.24-8.86,26.94-6.35,52.76-13.26,76.8-21.46a305,305,0,0,0,34.3-13.91c10.63-5.32,21-11.32,27.8-19.89,6.23-9.06,10-19.58,14.15-29.14,3.94-9.73,7.49-19.16,10.8-28.21,13.15-36.18,22.78-65.85,29.54-86.3,3.31-10.11,5.9-18,7.72-23.59.87-2.56,1.55-4.58,2.06-6.11a14.8,14.8,0,0,1,.79-2.06Z" transform="translate(0 0)"/><path class="cls-7" d="M1041,1201.84c0,.22-3.49,1-9.87,2.19l-27.08,4.86c-22.87,4-54.49,9.46-89.29,16s-66.26,13-88.71,18.65a121.13,121.13,0,0,0-25.51,9.54c-5.68,3.07-8.54,5.26-8.71,5s.6-.7,1.92-1.8a59.59,59.59,0,0,1,6.18-4.29c5.6-3.42,14.3-7.38,25.53-10.62,22.49-6.21,53.86-13,88.72-19.6s66.55-11.66,89.51-15.14c11.49-1.72,20.8-3,27.25-3.89s10-1.19,10.06-1Z" transform="translate(0 0)"/><path class="cls-7" d="M897.49,980.49c.18.12-1.56,3.49-4.86,9.49l-14,25.38c-11.57,21.49-27.63,51.5-38,87.26s-10.64,70.23-5.68,94a153,153,0,0,0,8.06,27.64c2.56,6.32,4.2,9.74,4,9.87a9.17,9.17,0,0,1-1.49-2.34c-.82-1.6-2.25-3.88-3.58-7a133.54,133.54,0,0,1-9.11-27.67c-5.59-24-5.67-59.09,4.84-95.33s27-66.23,39.08-87.48c6.12-10.63,11.27-19.1,14.9-24.92s5.72-9,5.91-8.87Z" transform="translate(0 0)"/><path class="cls-14" d="M997.11,1391.29c-.55,0-.08-5.79-1-14.9a102.86,102.86,0,0,0-30-63.14c-6.52-6.44-11.26-9.7-10.95-10.15.15-.27,5.38,2.35,12.45,8.53a92.43,92.43,0,0,1,30.69,64.61c.32,9.39-1,15.09-1.26,15Z" transform="translate(0 0)"/><path class="cls-14" d="M1092.3,1372c-.59,0-.33-7.71-2.21-19.84a135.57,135.57,0,0,0-5.06-20.89,134.59,134.59,0,0,0-25.72-45.57,134.65,134.65,0,0,0-15.27-15.13c-9.41-7.89-16.14-11.64-15.84-12.15.11-.18,1.85.63,4.92,2.28a88.34,88.34,0,0,1,12.31,8.15,118.87,118.87,0,0,1,16.06,15,126.15,126.15,0,0,1,26.28,46.59,118.41,118.41,0,0,1,4.51,21.47,88.43,88.43,0,0,1,.61,14.75c-.18,3.48-.38,5.39-.59,5.39Z" transform="translate(0 0)"/><path class="cls-14" d="M1188.19,1271.88c-.48.33-4.87-6-13.53-14.83a146.69,146.69,0,0,0-16.33-14.19,143.75,143.75,0,0,0-47.28-23.21,144.75,144.75,0,0,0-21.21-4.25c-12.26-1.48-20-1.06-20-1.64,0-.22,1.9-.46,5.4-.73a94.94,94.94,0,0,1,14.83.17,126.46,126.46,0,0,1,21.74,3.66,133.82,133.82,0,0,1,48.26,23.7,127.06,127.06,0,0,1,16.19,15,93.84,93.84,0,0,1,9.19,11.63c1.94,2.93,2.91,4.59,2.74,4.72Z" transform="translate(0 0)"/><path class="cls-14" d="M1227.27,1166.86c-.69.81-16.31-16.49-41.82-28.27-25.37-12.09-48.66-13.06-48.47-14.1,0-.35,5.79-.59,15,.72a126.41,126.41,0,0,1,65.11,30.55c6.91,6.26,10.42,10.86,10.16,11.1Z" transform="translate(0 0)"/><path class="cls-14" d="M1251.61,1061.29c-.49.16-1.83-3.47-5-8.7a62.12,62.12,0,0,0-37.19-27.75c-5.92-1.56-9.79-1.81-9.77-2.33,0-.34,3.94-.89,10.24.16a54.59,54.59,0,0,1,38.65,28.85c2.8,5.75,3.39,9.69,3.07,9.77Z" transform="translate(0 0)"/><path class="cls-14" d="M828.75,1128.91c-.38.9-11.73-5.66-27.18-4.89-15.45.48-26.25,7.93-26.7,7.06-.21-.28,2.13-2.58,6.79-5a48.16,48.16,0,0,1,39.92-1.61c4.85,2.07,7.37,4.17,7.17,4.48Z" transform="translate(0 0)"/><path class="cls-14" d="M876.83,1012.56c-.5.83-10.24-6.48-24.56-7.77-14.3-1.57-25.3,3.66-25.62,2.75-.18-.33,2.31-2.12,7-3.76a45.79,45.79,0,0,1,37.16,3.72c4.23,2.52,6.3,4.77,6.07,5.06Z" transform="translate(0 0)"/><path class="cls-14" d="M816.94,1239.5c.13.53-7.17,2.37-18.4,6.79a180.76,180.76,0,0,0-74.95,55.16c-7.55,9.4-11.48,15.82-12,15.54-.18-.11.64-1.81,2.3-4.79a113.27,113.27,0,0,1,7.9-12.11,160.24,160.24,0,0,1,75.93-55.87,111.11,111.11,0,0,1,13.91-4c3.35-.7,5.21-1,5.26-.77Z" transform="translate(0 0)"/><path class="cls-14" d="M849.36,1354.19c-.2.11-1.13-1.29-2.66-3.92a77.94,77.94,0,0,1-5.44-11.71,111.57,111.57,0,0,1,2.19-83.43,78.16,78.16,0,0,1,6-11.4c1.67-2.56,2.68-3.9,2.86-3.79.49.29-3,6-6.86,16a122.55,122.55,0,0,0-2.14,81.86c3.33,10.18,6.51,16.11,6,16.36Z" transform="translate(0 0)"/><path class="cls-14" d="M969.63,1293.46c-.16.29-4.41-1.66-10.1-6.55A67.42,67.42,0,0,1,937,1234.75c.33-7.49,1.84-11.92,2.16-11.84.52.09-.19,4.6.05,11.84a75.63,75.63,0,0,0,21.82,50.54c5.1,5.14,8.87,7.72,8.58,8.17Z" transform="translate(0 0)"/><path class="cls-14" d="M902.3,933.74c.51-.65,5.68,3.67,7.5,11.4s-.75,13.92-1.5,13.57.16-6-1.54-12.83-5.14-11.54-4.46-12.14Z" transform="translate(0 0)"/><path class="cls-14" d="M1257.65,988.33c-.46.3-2.87-3.22-7.81-7.81a62.45,62.45,0,0,0-48.24-16.21c-6.71.66-10.76,2-10.94,1.51-.13-.29,3.71-2.42,10.64-3.7A56.46,56.46,0,0,1,1251.4,979c4.74,5.2,6.53,9.23,6.25,9.38Z" transform="translate(0 0)"/><path class="cls-7" d="M1114.88,1140a131.37,131.37,0,0,1,35.7-33c38.16-24.17,59.24-67.85,41.76-100.31-26.06-48.4,49.93-75.17,33.26-112.46-9.29-20.82-17.23-20.57-26.69-41.3-14.81-32.47-8.45-70-7.59-105.71,1.7-71-13.38-157.29-74-201.18l.15.57a129.62,129.62,0,0,0-23.28-11.6,83.59,83.59,0,0,0-18.83-5.22c-7.69-1-15.52-.47-23.21-.63l-8.14.12c-5.09.14-10.32-.15-15.31,1a27,27,0,0,0-12.45,6.69l-7.76,16.21c-16.89,2.41-33.43,10.47-46.58,21.58C940,593.33,925.58,619,911.61,644a212.7,212.7,0,0,0,73.69-47.45l-8.07,13c14.43,2.95,29.52-3.51,40.43-13.41,7.69-7,13.67-15.47,19.11-24.35,2.7,18.22,13.62,35.09,27.88,47.09,12.84,10.8,28.11,18.13,44,23.67a99,99,0,0,0-.06,10.48c2,39,30.21,77.05,18,114.14-9,27.22-37.75,44.77-45.15,72.47s8.93,56.51,8.5,85.33c-.61,40.4-33.09,72.46-47.72,110.12-18.89,48.62-25.86,122.68,2.51,166.45l26-1.64,44.15-59.93Z" transform="translate(0 0)"/><path class="cls-8" d="M977.08,595.18c.19.35,4.19-1.28,9.83-5.34a76.75,76.75,0,0,0,29.22-44.49c1.48-6.79,1.39-11.1,1-11.14-1.08-.25-3,16.93-14.51,34.1-11.2,17.34-26.19,26-25.53,26.87Z" transform="translate(0 0)"/><path class="cls-8" d="M916.3,755.37c.29-.11-1.06-3.42-2.22-9.67s-1.87-15.44-1.21-26.83,1.81-25,3.41-40,4.11-31.47,9.13-48.07,12.31-31.56,21.32-43.53a165.89,165.89,0,0,1,27.76-28.54c8.81-7.25,16.45-12.5,21.72-16.12s8.24-5.59,8.1-5.82-3.31,1.4-8.83,4.68A221.77,221.77,0,0,0,973,556.79a158.39,158.39,0,0,0-28.78,28.53c-9.39,12.17-17.05,27.53-22.08,44.46s-7.43,33.62-9,48.73-2.28,28.75-2.69,40.27.66,21,2.34,27.21a50.82,50.82,0,0,0,2.32,7.08c.7,1.55,1.1,2.34,1.22,2.3Z" transform="translate(0 0)"/><g class="cls-31"><path class="cls-8" d="M1183.68,717.55c.24,0,.33-3.07.29-8.66a119.88,119.88,0,0,0-3.48-23.38c-4.48-19.55-16.56-45-34.74-69.41-18-24.6-38-43.7-50.19-59.18a190.55,190.55,0,0,1-13.59-19c-2.9-4.7-4.34-7.41-4.6-7.29s.86,3,3.44,8a145.49,145.49,0,0,0,12.82,19.83c11.9,16.09,31.51,35.42,49.33,59.73,18,24.19,30.16,48.93,35.17,68,5.4,19,4.75,31.49,5.55,31.43Z" transform="translate(0 0)"/><path class="cls-7" d="M2478.06,2706.67c0,.87-554.78,1.56-1239,1.56C554.66,2708.23,0,2707.54,0,2706.67s554.66-1.57,1239.09-1.57c684.19,0,1239,.71,1239,1.57Z" transform="translate(0 0)"/></g><path class="cls-32" d="M1839.39,580.18,1876,515.63a173,173,0,1,1,41.43,46.08l.07.08-78.13,18.39Z" transform="translate(0 0)"/><path class="cls-33" d="M2006.76,507.25l7.39-12-13.29-28.72,25.38-25.18-21.67-24.5,23.86-38.61a41.79,41.79,0,0,0-9.08,9.17,40.75,40.75,0,0,0-40.91-25.3c-10.46.79-20.34,5.63-28.33,12.41-8.17,6.91-14.65,16.06-17.33,26.42-3.35,13-2.82,27.77,2.43,40.1,5.54,13,15.86,24.36,26.85,33.27,18.49,15,42.94,33.93,42.94,33.93l1.76-1Z" transform="translate(0 0)"/><path class="cls-34" d="M2102.05,393.49c-5.83-8.71-14-16.08-23.85-19.71a41.46,41.46,0,0,0-32.43,1.78,40.55,40.55,0,0,0-5.87,3.61L2016,417.78l21.67,24.51-25.37,25.18,13.28,28.71-7.39,12c6-3.26,26.52-14.19,44.95-22.05,13-5.55,26-13.62,35-24.63,8.43-10.42,13-24.5,13.33-37.89.27-10.7-3.46-21.28-9.41-30.16Z" transform="translate(0 0)"/><path class="cls-32" d="M727.94,863.26l-31.11-54.82a146.8,146.8,0,1,0-35.17,39.14l-.06.06,66.34,15.62Z" transform="translate(0 0)"/><path class="cls-35" d="M567.28,794l5.64-11.06L559.28,758.7l20.48-23.83-20.7-20,18.23-35.5a36.46,36.46,0,0,0-7.32,8.67,35.81,35.81,0,0,0-37.61-19.33c-9.11,1.43-17.44,6.36-24,12.85-6.68,6.63-11.72,15.1-13.35,24.37-2,11.6-.53,24.53,4.92,35,5.77,11,15.6,20.24,25.85,27.29,17.25,11.84,40,26.74,40,26.74l1.47-1Z" transform="translate(0 0)"/><path class="cls-36" d="M642.88,687.66c-5.73-7.22-13.4-13.12-22.27-15.61a35.7,35.7,0,0,0-33.2,7.39l-18.23,35.5,20.71,20L569.4,758.75,583,783l-5.64,11.06c5.05-3.27,22.26-14.28,37.86-22.45,11-5.78,21.88-13.75,28.91-24,6.67-9.72,9.69-22.38,9.05-34.14-.51-9.39-4.51-18.4-10.34-25.78Z" transform="translate(0 0)"/></g></g></g></svg>