<svg xmlns="http://www.w3.org/2000/svg" xmlns:xlink="http://www.w3.org/1999/xlink" viewBox="0 0 1902.32 1738.75"><defs><style>.cls-1{isolation:isolate;}.cls-2{fill:url(#linear-gradient);}.cls-3{fill:url(#linear-gradient-2);}.cls-4{fill:url(#linear-gradient-3);}.cls-5{fill:url(#linear-gradient-4);}.cls-6{fill:url(#linear-gradient-5);}.cls-13,.cls-7{mix-blend-mode:multiply;}.cls-8{fill:url(#linear-gradient-7);}.cls-9{fill:url(#linear-gradient-8);}.cls-10{fill:url(#linear-gradient-9);}.cls-11{fill:#331b47;}.cls-12{fill:url(#linear-gradient-11);}.cls-13{fill:#e6e6e7;}</style><linearGradient id="linear-gradient" x1="231.99" y1="570.45" x2="1670.33" y2="570.45" gradientUnits="userSpaceOnUse"><stop offset="0" stop-color="#ff8f84"/><stop offset="1" stop-color="#fa6fba"/></linearGradient><linearGradient id="linear-gradient-2" x1="231.99" y1="570.45" x2="1670.33" y2="570.45" gradientUnits="userSpaceOnUse"><stop offset="0" stop-color="#444b8b"/><stop offset="1" stop-color="#26264f"/></linearGradient><linearGradient id="linear-gradient-3" x1="424.58" y1="919.17" x2="548.71" y2="919.17" gradientTransform="translate(-432.52 1405.81) rotate(-90)" gradientUnits="userSpaceOnUse"><stop offset="0" stop-color="#311944"/><stop offset="1" stop-color="#9f3976"/></linearGradient><linearGradient id="linear-gradient-4" x1="378" y1="1658.49" x2="595.3" y2="1658.49" gradientTransform="translate(-1171.85 2145.14) rotate(-90)" xlink:href="#linear-gradient-3"/><linearGradient id="linear-gradient-5" x1="377.99" y1="416.27" x2="595.3" y2="416.27" gradientTransform="matrix(1, 0, 0, 1, 0, 0)" xlink:href="#linear-gradient-3"/><linearGradient id="linear-gradient-7" x1="1353.61" y1="919.17" x2="1477.73" y2="919.17" gradientTransform="translate(496.5 2334.84) rotate(-90)" xlink:href="#linear-gradient-3"/><linearGradient id="linear-gradient-8" x1="1307.02" y1="1658.49" x2="1524.32" y2="1658.49" gradientTransform="translate(-242.82 3074.16) rotate(-90)" xlink:href="#linear-gradient-3"/><linearGradient id="linear-gradient-9" x1="1307.02" y1="416.27" x2="1524.32" y2="416.27" gradientTransform="matrix(1, 0, 0, 1, 0, 0)" xlink:href="#linear-gradient-3"/><linearGradient id="linear-gradient-11" x1="191.92" y1="322.17" x2="1710.4" y2="322.17" gradientTransform="matrix(1, 0, 0, 1, 0, 0)" xlink:href="#linear-gradient-3"/></defs><g class="cls-1"><g id="Layer_2" data-name="Layer 2"><g id="Illustration"><rect class="cls-2" x="231.99" y="508.39" width="1438.34" height="124.13"/><rect class="cls-3" x="231.99" y="508.39" width="1438.34" height="124.13"/><rect class="cls-4" x="-172.42" y="857.1" width="1318.13" height="124.13" transform="translate(1405.81 432.52) rotate(90)"/><rect class="cls-5" x="406.39" y="1549.84" width="160.52" height="217.3" transform="translate(2145.14 1171.85) rotate(90)"/><rect class="cls-6" x="377.99" y="384.23" width="217.3" height="64.07"/><g class="cls-7"><rect class="cls-6" x="377.99" y="384.23" width="217.3" height="64.07"/></g><rect class="cls-8" x="756.61" y="857.1" width="1318.13" height="124.13" transform="translate(2334.84 -496.5) rotate(90)"/><rect class="cls-9" x="1335.41" y="1549.84" width="160.52" height="217.3" transform="translate(3074.16 242.82) rotate(90)"/><rect class="cls-10" x="1307.02" y="384.23" width="217.3" height="64.07"/><g class="cls-7"><rect class="cls-10" x="1307.02" y="384.23" width="217.3" height="64.07"/></g><path class="cls-11" d="M1901.59,0c-12.55,25.75-154.74,94-188.4,94.9-31.67.85-1492.4.85-1524.06,0C155.47,94,13.27,25.75.72,0-11.67,59.39,139,260.1,139,260.1H1763.34S1914,59.39,1901.59,0Z"/><polygon class="cls-12" points="1670.33 384.23 231.99 384.23 191.92 260.1 1710.4 260.1 1670.33 384.23"/><path class="cls-13" d="M1307,384.23V448.3h46.59v60.09H951.16V632.52h402.45v945.71H1307v160.52h217.3V1578.23h-46.59V632.52h192.6V508.39h-192.6V448.3h46.59V384.23h146L1710.4,260.1h52.94S1890.88,90.18,1901.59,16.77V0h0c-12.55,25.75-154.74,94-188.4,94.9-15.84.43-388.93.64-762,.64V384.23Z"/></g></g></g></svg>