<svg xmlns="http://www.w3.org/2000/svg" viewBox="0 0 1197.97 1163.37"><defs><style>.cls-1{isolation:isolate;}.cls-2{fill:#6a5687;}.cls-3,.cls-5{mix-blend-mode:multiply;}.cls-4,.cls-5{fill:#e6e6e7;}</style></defs><g class="cls-1"><g id="Layer_2" data-name="Layer 2"><g id="Illustration"><path class="cls-2" d="M333.52,766c-17.91-61.5-35.22-121-53.42-183.42,20.23,4.88,37.25,9.22,54.37,13,46.38,10.37,92.31,10.75,136.91-8,30.84-13,56.07-31.58,62.41-67.46,4.24-24-3.22-41.81-24.37-53.92-58.5-33.49-119.55-36.16-181.23-11-35.14,14.35-68.88,32.13-103.22,48.42-4.87,2.32-9.58,5-17,8.83L131.61,370.18c19.09-9.51,37.06-19.46,55.8-27.62,72.41-31.52,146.92-54.34,227.17-44.28,32.73,4.1,65.56,10.33,97.2,19.53C577.89,337,610.53,386.05,619,451.43c11.19,86.46-32.9,146.08-99.54,193.17-12.83,9.06-26.34,17.15-44.15,28.68,35.62,13.08,66.91,28,99.9,35.64,29.61,6.86,57-7.76,77.85-28.61,19-19,35.23-41.06,51.2-62.85,19.82-27.07,36.49-56.56,57.42-82.68C803.52,482.53,861,460.52,926.24,455c81.22-6.87,143.66,29.38,195.73,86.61,53.38,58.68,74.51,130,75.89,208.36,1.27,72.13-7.59,142.22-38.43,208.15-60.6,129.52-200.17,172.39-323.91,116.68-31-13.94-52.88-38.49-68.87-67.35-26.1-47.15-38.41-98.52-36-152.36.78-17.91,8.31-35.52,12.75-53.27l5.66.82c1.26,6.93,2.33,13.9,3.82,20.77C765.53,882,803,915.82,860.17,929.12c90.54,21.07,203.24-27.24,245.74-105.19,22.36-41,27.36-85.56,22.83-131a312.47,312.47,0,0,0-14.6-67.85c-25.07-74.8-114.6-99.54-172.73-46.05-28,25.8-52.36,56.6-74,88.11-33.79,49.11-75.71,86.41-135.31,94.92-32.69,4.67-66.95-1.65-100.51-3.09-4.77-.21-9.53-.86-17.11-1.56,6.21,15,11.67,27.51,16.59,40.22,16.7,43.16,29.93,87.19,26,134.17-3.62,43.1-12.69,85.13-33.09,123.75-23.07,43.69-62.09,68.27-106.77,84.56-126.62,46.17-292.1,28.07-400.65-94.92C49.56,969.35,10.31,881.16,1.13,781c-3.58-39,2.33-78.93,4-118.43.07-1.67,1.23-3.29,1.91-5,8.54,32.91,15.48,65.64,25.57,97.36,22,69,53.79,132.65,106.48,184.24,36.49,35.73,79.78,57.63,129.67,67.15,57.53,11,114.79,14.88,171.07-6.43,38.24-14.48,70.27-36.88,95.55-69.81,45-58.6,17.42-164.52-80.11-175.79C415,749.6,375.43,749.46,333.52,766Z"/><path class="cls-2" d="M576.3,96.21C623.35,199.57,705.19,246.53,810.76,257c64.64,6.41,122.86-14.45,176.42-49.33A387.56,387.56,0,0,0,1026,178.12c8.09-6.86,13.63-7.47,20.65,1.29,27.78,34.67,56,69,86.1,106-17.42,11.5-33.06,23.2-49.93,32.73-98.44,55.59-202.72,72.24-311.7,39.34-77.3-23.34-140.68-67.09-177.64-142.19C575.38,178.38,569.9,139.57,576.3,96.21Z"/><path class="cls-2" d="M829.36,0l110,95.08c-1.26,2.57-1.68,4.71-3,5.89-32.88,29.91-65.66,59.95-99.14,89.18-3.26,2.86-13,3.08-16.3.37C786.3,162.11,752.37,132.86,717.2,103Z"/><g class="cls-3"><path class="cls-4" d="M247.06,1138.56c88.15,34.36,185.73,31.27,267.22,1.56,44.68-16.29,83.71-40.87,106.78-84.56,15.5-29.36,24.45-60.69,29.45-93C527.49,1066,388.32,1128.84,247.06,1138.56Z"/><path class="cls-4" d="M1195,750c-1.38-78.4-22.5-149.68-75.89-208.36-36.62-40.25-78.38-70.1-128.19-81.89Q968.63,520,941.7,576.24c58.16-49.78,145-24.61,169.57,48.85a313.06,313.06,0,0,1,14.6,67.85c4.52,45.43-.47,90-22.83,131-42.5,78-155.2,126.26-245.75,105.19-46.06-10.72-79.33-34.75-97.16-74.36q-15.66,17.88-31.85,34.79a285.54,285.54,0,0,0,35.5,117.89c16,28.86,37.89,53.41,68.87,67.35,123.73,55.71,263.3,12.84,323.9-116.68C1187.4,892.18,1196.25,822.09,1195,750Z"/></g><path class="cls-5" d="M1063.06,199.73q-6.42,37.78-15,75.83-7.72,34.4-16.95,67.85a481.42,481.42,0,0,0,51.7-25.31c16.87-9.53,32.51-21.23,49.93-32.73C1108.57,255.63,1085.58,227.6,1063.06,199.73Z"/></g></g></g></svg>