<?xml version="1.0" standalone="no"?>
<!DOCTYPE svg PUBLIC "-//W3C//DTD SVG 20010904//EN"
 "http://www.w3.org/TR/2001/REC-SVG-20010904/DTD/svg10.dtd">
<svg version="1.0" xmlns="http://www.w3.org/2000/svg"
 width="512.000000pt" height="512.000000pt" viewBox="0 0 512.000000 512.000000"
 preserveAspectRatio="xMidYMid meet">

<g transform="translate(0.000000,512.000000) scale(0.100000,-0.100000)"
fill="#000000" stroke="none">
<path d="M2611 5109 c-142 -24 -292 -183 -330 -349 -15 -63 -13 -196 3 -255
41 -156 142 -263 297 -315 239 -81 456 57 578 367 l20 51 -75 -34 c-188 -87
-313 -58 -344 81 -35 157 214 329 429 294 99 -15 297 -147 445 -295 158 -157
272 -335 352 -544 l32 -85 79 -6 c54 -4 98 -14 136 -32 218 -100 286 -377 138
-565 -67 -84 -151 -129 -262 -139 l-57 -6 -18 -66 c-9 -36 -30 -97 -46 -135
-15 -38 -28 -70 -28 -71 0 -1 34 -19 75 -39 71 -35 125 -88 125 -123 0 -6 13
-14 30 -18 16 -4 38 -17 49 -31 l19 -24 420 0 419 0 -3 23 c-1 12 -8 63 -14
112 -54 413 -226 828 -492 1183 -89 119 -302 339 -423 437 -278 226 -632 404
-980 491 -55 14 -130 36 -167 49 -136 49 -281 65 -407 44z"/>
<path d="M2038 5040 c-275 -58 -602 -189 -832 -335 -926 -586 -1373 -1684
-1121 -2750 107 -452 342 -872 675 -1205 58 -58 143 -136 190 -173 l85 -68 7
103 c18 265 69 507 152 724 34 89 46 136 46 175 0 75 23 176 55 244 92 194
459 549 582 563 31 3 51 -1 78 -17 34 -20 37 -20 70 -4 37 18 46 33 19 33 -29
0 -196 61 -290 106 -257 122 -465 319 -584 553 -36 71 -100 247 -100 275 0 9
-21 15 -57 19 -81 9 -140 31 -197 75 -222 169 -183 513 72 630 40 18 79 27
134 30 l77 5 17 46 c144 394 407 693 769 873 103 51 183 82 282 108 108 29 26
23 -129 -10z"/>
<path d="M2325 3369 c-124 -18 -227 -60 -276 -112 -98 -104 -82 -284 38 -418
l45 -50 32 22 c108 72 264 119 396 119 132 0 288 -47 396 -119 l32 -22 45 50
c125 140 136 323 25 427 -39 38 -75 56 -145 77 l-53 16 0 -50 c0 -81 -29 -118
-91 -119 -56 0 -80 33 -87 120 l-5 70 -146 -1 c-80 -1 -173 -5 -206 -10z"/>
<path d="M4176 2541 c-69 -113 -205 -210 -335 -241 -70 -17 -207 -15 -267 3
-67 20 -146 59 -191 95 -37 29 -39 29 -68 14 -37 -19 -221 -82 -241 -82 -26 0
-14 -15 24 -31 34 -14 39 -14 67 3 52 31 95 24 173 -29 140 -95 261 -210 388
-368 98 -122 140 -226 150 -371 4 -65 14 -109 36 -163 91 -225 142 -460 166
-774 l7 -88 85 68 c47 37 132 114 190 172 382 385 629 868 714 1403 18 110 40
424 31 438 -4 6 -175 10 -449 10 l-443 0 -37 -59z"/>
</g>
</svg>
