<svg width="120" height="124" viewBox="0 0 120 124" fill="none" xmlns="http://www.w3.org/2000/svg">
<path d="M54.6253 13.7749C57.7447 11.3071 62.0805 11.3071 65.1999 13.7749L102.23 43.0253C106.946 46.7501 104.416 54.5235 98.4908 54.5543H21.3269C15.409 54.5235 12.8717 46.7501 17.5956 43.0253L54.6253 13.7749ZM59.9088 41.0588C61.3932 41.0588 62.8169 40.4495 63.8665 39.3648C64.9161 38.2802 65.5058 36.809 65.5058 35.2751C65.5058 33.7411 64.9161 32.27 63.8665 31.1853C62.8169 30.1007 61.3932 29.4913 59.9088 29.4913C58.4244 29.4913 57.0008 30.1007 55.9512 31.1853C54.9015 32.27 54.3118 33.7411 54.3118 35.2751C54.3118 36.809 54.9015 38.2802 55.9512 39.3648C57.0008 40.4495 58.4244 41.0588 59.9088 41.0588ZM26.3269 62.266V85.4011H37.5209V62.266H26.3269ZM44.9835 62.266V85.4011H56.1775V62.266H44.9835ZM63.6402 62.266V85.4011H74.8342V62.266H63.6402ZM82.2968 62.266V85.4011H93.4908V62.266H82.2968ZM15.1329 102.752C15.1329 97.4313 19.312 93.1128 24.4612 93.1128H95.3565C100.506 93.1128 104.685 97.4313 104.685 102.752V104.68C104.685 105.703 104.292 106.684 103.592 107.407C102.892 108.13 101.943 108.536 100.953 108.536H18.8642C17.8746 108.536 16.9255 108.13 16.2258 107.407C15.526 106.684 15.1329 105.703 15.1329 104.68V102.752Z" fill="#327A6D"/>
</svg>
