<svg width="117" height="116" viewBox="0 0 117 116" fill="none" xmlns="http://www.w3.org/2000/svg">
<path d="M96.9034 14.7874H20.8868C15.2302 14.7874 10.6306 19.0761 10.6306 24.3499V91.2874C10.6306 96.5611 15.2302 100.85 20.8868 100.85H96.9034C102.56 100.85 107.16 96.5611 107.16 91.2874V24.3499C107.16 19.0761 102.56 14.7874 96.9034 14.7874ZM96.9034 91.2874H20.8868C20.6117 91.2874 20.4234 91.2109 20.3414 91.2109C20.3076 91.2109 20.2883 91.2204 20.2835 91.2491L20.2256 24.5698C20.2593 24.522 20.4765 24.3499 20.8868 24.3499H96.9034C97.2847 24.3546 97.4922 24.4837 97.5067 24.3881L97.5646 91.0674C97.5308 91.1152 97.3136 91.2874 96.9034 91.2874Z" fill="#327A6D"/>
<path d="M30.1882 33.3718H59.1469V62.0593H30.1882V33.3718ZM63.9733 71.6218H30.1882V81.1843H88.1056V71.6218H68.7998H63.9733ZM68.7998 52.4968H88.1056V62.0593H68.7998V52.4968ZM68.7998 33.3718H88.1056V42.9343H68.7998V33.3718Z" fill="#327A6D"/>
</svg>
