<svg xmlns="http://www.w3.org/2000/svg" viewBox="0 0 1530.66 1559.97"><defs><style>.cls-1{fill:#dfc0a0;}.cls-2{fill:#cda78b;}</style></defs><g id="Layer_2" data-name="Layer 2"><g id="Illustration"><path class="cls-1" d="M648,1469.09c37.4-38.47,67.3-88.93,72.55-154.13.07-.89.1-1.8.1-2.7,0-105.21-1.58-210.42-2.13-315.63-.28-52.09-.32-104.19.21-156.28.46-45.5,10.88-100.4-1.47-144.48A105.17,105.17,0,0,0,702.32,664a30.38,30.38,0,0,1-5.48-20.21c24.63-263.71,47.92-525.78,50-595.52a30.17,30.17,0,0,0-4.79-17.17c-67.23-105-166.3,77-199.09,231.59C511.75,410,359,1085.86,329.36,1134c-22.82,37.07-226.57,220.33-319.3,302.85C-8.5,1453.4,0,1484,24.39,1488.65L372,1554.5C472.42,1573.54,576.69,1542.41,648,1469.09Z"/><path class="cls-2" d="M674.52,638.41a81,81,0,0,1,21.22,17.23q3.07-32.94,6.13-65.8c-24.62-11.15-50.74-14-73.6-7.87-20.33,5.41-35.24,17-44.69,25.21-78.36,68.23-80.12,164-81.53,240.93-.38,20.8-.75,40.43-2.4,58.75-5.86,64.83-11.36,132.23-16.34,200.29l-.24,3.29,60.47,4.49q5.88-97,13-193.86c6.68-90-10.5-200.07,57.31-272,6.53-6.92,14-13.41,23-16.34C649.3,628.74,663.11,632.07,674.52,638.41Z"/><path class="cls-1" d="M882.69,1469.09c-37.4-38.47-67.3-88.93-72.54-154.13-.08-.89-.11-1.8-.11-2.7,0-105.21,1.58-210.42,2.13-315.63.28-52.09.32-104.19-.21-156.28-.46-45.5-10.88-100.4,1.47-144.48A105.17,105.17,0,0,1,828.34,664a30.38,30.38,0,0,0,5.48-20.21c-24.63-263.71-47.91-525.78-50-595.52a30.17,30.17,0,0,1,4.79-17.17c67.23-105,166.3,77,199.09,231.59,31.24,147.26,184,823.16,213.64,871.34,22.81,37.07,226.56,220.33,319.29,302.85,18.56,16.51,10.08,47.14-14.33,51.76l-347.56,65.85C1058.24,1573.54,954,1542.41,882.69,1469.09Z"/><path class="cls-2" d="M856.14,638.41a81,81,0,0,0-21.22,17.23q-3.07-32.94-6.12-65.8c24.61-11.15,50.73-14,73.59-7.87,20.33,5.41,35.24,17,44.7,25.21,78.35,68.23,80.11,164,81.53,240.93.38,20.8.74,40.43,2.39,58.75,5.86,64.83,11.36,132.23,16.34,200.29l.24,3.29-60.47,4.49q-5.86-97-13-193.86c-6.68-90,10.5-200.07-57.31-272-6.53-6.92-14-13.41-23-16.34C881.36,628.74,867.55,632.07,856.14,638.41Z"/></g></g></svg>