<?xml version="1.0" standalone="no"?>
<!DOCTYPE svg PUBLIC "-//W3C//DTD SVG 20010904//EN"
 "http://www.w3.org/TR/2001/REC-SVG-20010904/DTD/svg10.dtd">
<svg version="1.0" xmlns="http://www.w3.org/2000/svg"
 width="980.000000pt" height="982.000000pt" viewBox="0 0 980.000000 982.000000"
 preserveAspectRatio="xMidYMid meet">

<g transform="translate(0.000000,982.000000) scale(0.100000,-0.100000)"
fill="#000000" stroke="none">
<path d="M4520 9799 c-842 -73 -1620 -343 -2318 -802 -537 -354 -1042 -860
-1397 -1397 -142 -216 -339 -592 -458 -877 -254 -604 -384 -1426 -337 -2113
75 -1079 449 -2017 1134 -2845 119 -143 360 -391 506 -519 494 -435 1082 -774
1705 -981 369 -124 682 -191 1095 -237 178 -20 748 -17 935 5 932 109 1721
414 2410 932 236 178 335 264 561 489 221 222 311 324 478 546 598 793 934
1761 963 2770 19 678 -122 1441 -370 2012 -125 285 -284 594 -394 763 -355
544 -907 1103 -1440 1458 -641 427 -1378 689 -2203 783 -160 19 -714 27 -870
13z m760 -1544 c452 -69 814 -236 1096 -507 190 -183 292 -337 367 -554 79
-227 102 -420 94 -774 -6 -261 -19 -425 -42 -555 -16 -88 -13 -95 41 -95 44 0
115 -50 151 -106 41 -63 54 -126 54 -247 0 -220 -81 -452 -224 -639 -84 -111
-127 -181 -235 -385 -151 -283 -263 -459 -405 -635 -292 -363 -642 -593 -1008
-663 -108 -20 -378 -20 -518 1 -333 49 -666 247 -946 564 -179 203 -309 398
-495 745 -61 114 -133 239 -160 278 -28 40 -77 110 -110 157 -117 167 -181
365 -183 565 -2 138 14 205 64 273 36 50 103 92 145 92 47 0 52 12 38 93 -37
220 -56 722 -35 928 30 289 117 544 249 728 68 96 244 274 347 351 117 88 153
109 294 180 230 115 487 187 801 224 91 11 510 -2 620 -19z m-1617 -5724 c6
-236 11 -302 26 -364 61 -238 242 -588 456 -882 236 -324 420 -512 742 -758
26 -20 332 238 494 416 302 331 588 795 703 1139 36 108 44 176 52 461 5 185
10 260 19 263 12 5 916 -276 1164 -361 398 -137 630 -256 841 -432 85 -72 150
-145 150 -170 0 -18 -200 -223 -338 -346 -639 -570 -1364 -933 -2204 -1101
-201 -40 -333 -55 -620 -68 -207 -9 -324 -9 -525 0 -285 13 -439 33 -684 87
-880 195 -1634 603 -2261 1225 -104 102 -188 192 -188 200 0 46 140 178 311
292 195 131 415 226 849 367 354 115 993 320 1001 321 3 0 9 -130 12 -289z
m1610 190 c100 -103 115 -129 98 -173 -8 -23 -239 -278 -299 -331 -20 -18 -19
-20 151 -442 l171 -423 -44 -59 c-94 -124 -363 -380 -437 -415 -20 -10 -34 -2
-116 60 -52 39 -132 109 -178 154 -84 82 -209 236 -209 258 0 6 75 198 167
426 l166 414 -135 138 c-77 79 -150 164 -172 201 l-39 63 114 114 114 114 276
0 276 0 96 -99z"/>
<path d="M3975 7050 c-89 -24 -212 -86 -296 -149 -138 -105 -286 -286 -357
-438 -26 -56 -27 -64 -26 -213 1 -206 46 -545 110 -834 13 -60 22 -111 20
-114 -3 -2 -26 38 -51 89 -128 255 -187 302 -274 224 -52 -47 -71 -105 -71
-215 0 -154 64 -330 164 -453 89 -109 119 -160 257 -429 77 -150 175 -330 216
-400 144 -239 303 -429 460 -547 135 -102 341 -189 496 -210 101 -14 438 -14
547 0 220 27 455 147 632 323 184 182 311 376 551 842 137 267 165 315 250
419 99 123 167 307 167 452 0 108 -16 158 -65 209 -84 88 -142 49 -259 -175
-38 -73 -71 -130 -73 -127 -2 2 9 73 26 157 37 192 87 478 101 587 12 91 8
117 -20 132 -10 5 -114 17 -230 25 -958 67 -1523 279 -2072 777 -54 48 -106
88 -115 87 -10 0 -49 -9 -88 -19z"/>
</g>
</svg>
