<svg xmlns="http://www.w3.org/2000/svg" viewBox="0 0 1226.68 1646.09"><defs><style>.cls-1{isolation:isolate;}.cls-2{fill:#a7535d;}.cls-3{fill:#6a5687;}.cls-4{fill:#331b47;}.cls-5{fill:#beb4bd;}.cls-6{fill:#e6e6e7;mix-blend-mode:multiply;}.cls-7{fill:#f5e8d7;}</style></defs><g class="cls-1"><g id="Layer_2" data-name="Layer 2"><g id="Illustration"><rect class="cls-2" x="592.27" width="42.14" height="242.94"/><rect class="cls-2" x="532.52" y="65.36" width="161.65" height="42.14"/><rect class="cls-3" x="426.64" y="557.74" width="373.41" height="1088.35"/><polygon class="cls-4" points="426.64 557.74 800.05 557.74 613.34 196.2 426.64 557.74"/><rect class="cls-4" x="426.64" y="906.19" width="373.41" height="42.14"/><polygon class="cls-5" points="1226.68 942.83 800.05 731.99 800.05 1646.09 1226.68 1646.09 1226.68 942.83"/><polygon class="cls-5" points="0 942.83 426.64 731.99 426.64 1646.09 0 1646.09 0 942.83"/><polygon class="cls-4" points="1226.68 963.67 800.05 752.83 800.05 711.15 1226.68 921.99 1226.68 963.67"/><polygon class="cls-4" points="0 963.67 426.64 752.83 426.64 711.15 0 921.99 0 963.67"/><path class="cls-4" d="M136.23,1003.56h178a0,0,0,0,1,0,0v548.09a0,0,0,0,1,0,0H112.39a0,0,0,0,1,0,0V1027.39A23.83,23.83,0,0,1,136.23,1003.56Z"/><path class="cls-4" d="M912.44,1003.56h201.85a0,0,0,0,1,0,0v548.09a0,0,0,0,1,0,0h-178a23.83,23.83,0,0,1-23.83-23.83V1003.56A0,0,0,0,1,912.44,1003.56Z" transform="translate(2026.73 2555.2) rotate(180)"/><polygon class="cls-6" points="800.05 557.74 634.41 237 634.41 107.5 694.17 107.5 694.17 65.36 634.41 65.36 634.41 0 613.34 0 613.34 1646.09 738.26 1646.09 800.05 1646.09 1226.68 1646.09 1226.68 963.67 1226.68 942.83 1226.68 921.99 800.05 711.15 800.05 557.74"/><circle class="cls-7" cx="613.34" cy="731.99" r="80.82" transform="translate(-337.95 648.09) rotate(-45)"/><path class="cls-4" d="M504.25,1214.12H722.43a15.83,15.83,0,0,1,15.83,15.83v416.14a0,0,0,0,1,0,0H488.42a0,0,0,0,1,0,0V1229.95A15.83,15.83,0,0,1,504.25,1214.12Z"/></g></g></g></svg>