<svg xmlns="http://www.w3.org/2000/svg" xmlns:xlink="http://www.w3.org/1999/xlink" viewBox="0 0 1789.51 1549.04"><defs><style>.cls-1{isolation:isolate;}.cls-2{fill:url(#linear-gradient);}.cls-3{fill:url(#linear-gradient-2);}.cls-4{fill:#e6e6e7;}.cls-4,.cls-5{mix-blend-mode:multiply;}.cls-5{opacity:0.3;fill:url(#linear-gradient-3);}</style><linearGradient id="linear-gradient" y1="774.52" x2="1290.98" y2="774.52" gradientUnits="userSpaceOnUse"><stop offset="0" stop-color="#311944"/><stop offset="1" stop-color="#9f3976"/></linearGradient><linearGradient id="linear-gradient-2" x1="1125.57" y1="774.68" x2="1789.51" y2="774.68" gradientUnits="userSpaceOnUse"><stop offset="0" stop-color="#444b8b"/><stop offset="1" stop-color="#26264f"/></linearGradient><linearGradient id="linear-gradient-3" x1="150.32" y1="777.24" x2="1290.97" y2="777.24" xlink:href="#linear-gradient"/></defs><g class="cls-1"><g id="Layer_2" data-name="Layer 2"><g id="Illustration"><path class="cls-2" d="M1291,198.15C1010,41,666.93,108.38,464.89,342.27,263.21,575.73,250.63,914.71,427.9,1160c98.28,136,229.83,223.82,393.8,260.31,163.55,36.4,319.25,12.24,466.45-67.13-240,224-677.61,289.17-1006.5,17.4-349.41-288.72-374.8-805-70.13-1126.8C520.78-82.84,1005.33-64.15,1291,198.15Z"/><path class="cls-3" d="M1789.51,775l-38.44,12.47q-105.46,34.28-211,68.44c-4.21,1.36-4.09,3.88-4.08,7.11q0,126.81,0,253.62v7.08c-1.92-2.49-3-3.84-4-5.25q-74.38-102.33-148.66-204.74c-3-4.12-5.29-5.23-10.42-3.55q-121.17,39.74-242.5,79c-1.22.39-2.47.68-4.84,1.34,1.71-2.4,2.79-4,3.9-5.48q74.65-102.74,149.42-205.41c2.83-3.87,2.46-6.17-.16-9.77q-75.12-103-150-206.23c-.86-1.19-1.67-2.42-3.19-4.64,12.46,4,23.85,7.65,35.23,11.34q106.89,34.71,213.74,69.55c3.75,1.23,5.52.46,7.71-2.56Q1456.37,535.07,1530.64,433c1.46-2,2.94-4,5.41-7.33v6.87q0,126.56-.14,253.11c0,5.36,1.73,7.26,6.63,8.84q122.54,39.52,244.94,79.46A22.1,22.1,0,0,1,1789.51,775Z"/><path class="cls-4" d="M1383.35,913.73q74.18,102.48,148.66,204.74c1,1.41,2.12,2.76,4,5.25v-7.08q0-126.81,0-253.62c0-3.23-.14-5.75,4.08-7.11q105.54-34,211-68.44L1789.51,775a22.1,22.1,0,0,0-2-1.08Q1665,734.13,1542.54,694.46c-4.9-1.58-6.65-3.48-6.63-8.84q.3-126.55.14-253.11L1372.93,910.18C1378.06,908.5,1380.37,909.61,1383.35,913.73Z"/><path class="cls-5" d="M1291,198.15C1196.08,111,1079.23,50.8,954.16,21.16c-448.93,26.26-803.84,355.09-803.84,757,0,394.51,342,718.64,779.29,755.22,137.78-27.89,263.62-91.6,358.54-180.17-147.2,79.37-302.9,103.53-466.45,67.13C657.73,1383.8,526.18,1296,427.9,1160c-177.27-245.27-164.69-584.25,37-817.71C666.93,108.38,1010,41,1291,198.15Z"/></g></g></g></svg>