<svg xmlns="http://www.w3.org/2000/svg" viewBox="0 0 201.09 210.9"><defs><style>.cls-1{fill:#c5edd0;}.cls-2{fill:#f2ab4e;}.cls-3{fill:#ffb9a1;}.cls-4{fill:#ffe2cc;}.cls-5{fill:#ffda88;}.cls-6{fill:#bec4ed;}.cls-7{fill:#440829;}.cls-8{fill:#959cdb;}</style></defs><g id="Layer_2" data-name="Layer 2"><g id="Objects"><path class="cls-1" d="M0,100.55A100.55,100.55,0,1,1,100.55,201.09,100.55,100.55,0,0,1,0,100.55"/><path class="cls-2" d="M84.11,68.54c1.46-1.33-2-1.73-2.73-1.32a8.82,8.82,0,0,0-5.87,6.84,2,2,0,0,1,0,.23A20.4,20.4,0,0,1,84.11,68.54Z"/><path class="cls-3" d="M101.2,100.55a4.2,4.2,0,0,0,2.58-1.08,16,16,0,0,0,1.24-2,10.58,10.58,0,0,1-7.29,1.3A3.75,3.75,0,0,0,101.2,100.55Z"/><path class="cls-4" d="M97,137.21a15.49,15.49,0,0,0,1.68.28c1.46,0,2.93,0,4.39,0,.76,0,1.51,0,2.27-.08,2-.33,4-.47,6-1a33,33,0,0,0,24.3-22.73,237.59,237.59,0,0,0,7.22-34.34,89.27,89.27,0,0,0,1.24-15.57c-.9,2.53-2.23,4.44-3.73,3.49-1.56-2.31-1.48-5.39-2.29-8-.54,2.77-2.27,5.82-5.42,5.88A26.27,26.27,0,0,1,121,62.66a5.54,5.54,0,0,1-3-3.95c-.29,1.32-1,2.06-2.95,1.91-3.39.06-6.7.09-10.06.31-5.12.28-13,1.34-14.6-5.11-.43,2.16-1.78,6.86-4.75,5.11-1.11-1.35-1.41-3.27-1.76-5C81.42,63.46,78,63.8,71,64.91c-2.11.16-4.46,1.17-6.48.3-1.15-1-1.31-2.76-1.8-4.15C62.14,62.77,60.66,70.39,58,67c-.18-.39-.35-.79-.51-1.19.13,3,.42,6,.8,9a259.52,259.52,0,0,0,6,31.14C68,123.65,78.7,135,97,137.21Zm18.67-70.32c.63-1.43,2.48-1.72,3.88-1.51,2.85.53,5.12,2.62,6.7,5,1,1.4,2.9,5,.28,5.62-.93.16-1.54-1-2.28-1.4-2.31-1.92-5.31-3.18-7.94-4.64A2.44,2.44,0,0,1,115.65,66.89Zm-.05,13.88c3.69-.59,4.59,7.2,1,7.53A3,3,0,0,1,114,86C113.63,84.27,113.49,81.35,115.6,80.77ZM96.83,97a6.92,6.92,0,0,0,5,.45,10.16,10.16,0,0,0,2.29-.61c.64-.23,1.58-1.29,2.08-.36a4.73,4.73,0,0,1-5.21,4.73A5.83,5.83,0,0,1,96.3,98.3C95,97.68,95.39,96.18,96.83,97Zm-4,16.25c.76-.58,1.39.24,1.94.68a14.75,14.75,0,0,0,7.58,1.42c2.47-.32,5.26-.28,7.09-2.17a.92.92,0,0,1,1.27.16c1.28,2.21-5.87,3.52-7.32,3.27C101.92,116.62,90.42,116.1,92.86,113.25ZM87.82,86a3.06,3.06,0,0,1-2.6,2.3c-3.62-.33-2.72-8.12,1-7.53C88.3,81.35,88.15,84.27,87.82,86ZM75.56,70.34c1.57-2.33,3.85-4.43,6.7-5,1.39-.2,3.25.09,3.87,1.52a2.43,2.43,0,0,1-.63,3c-2.64,1.46-5.63,2.72-8,4.64-.73.43-1.34,1.57-2.27,1.4C72.66,75.34,74.61,71.74,75.56,70.34Z"/><path class="cls-4" d="M60.38,100h0c-1.34-6.23-2.7-12.48-3.67-18.78A6,6,0,0,0,55.42,80c-1.92-1.86-4.42.07-5.05,2.18-1.87,6.07,1.34,13.88,4.08,19.33a13.46,13.46,0,0,0,5.95,5.36A3.65,3.65,0,0,0,62,107c-.42-1.64-.81-3.28-1.2-4.92h0a8,8,0,0,1-2-1.59A15,15,0,0,1,53,85.24a4.82,4.82,0,0,0-1.12-1.18c-.33-.27-1-.59-.79-1.11.91-.79,2.85.87,3.51,1.55a11.06,11.06,0,0,1,2.32,6.2c-.36,2-.43,4.1.85,5.82A26.19,26.19,0,0,0,60.38,100Z"/><path class="cls-2" d="M126.29,74.29c0-.08,0-.16,0-.23a8.82,8.82,0,0,0-5.87-6.84c-.78-.41-4.2,0-2.74,1.32A20.34,20.34,0,0,1,126.29,74.29Z"/><path class="cls-3" d="M53.51,86c-.84,4.31.52,9.66,4,12.47-1.27-2.42-1.78-5.38-2.64-7.9A20.89,20.89,0,0,0,53.51,86Z"/><path class="cls-3" d="M102.34,139.86a9.48,9.48,0,0,1-1.3,0l-.63,0-1.69,0a18.25,18.25,0,0,1-2.54-.3,44.08,44.08,0,0,1-9-2.14c0,.77-.07,1.63-.09,2.3.44.33.82.79,1.22,1,8.41,6.64,18.05,6.07,25.38-1.53,0-.31,0-.62,0-.93a34.61,34.61,0,0,1-8.85,1.44C104,139.78,103.19,139.83,102.34,139.86Z"/><path class="cls-4" d="M143.56,101.35c-.7.58-1.33,1.5-2.33,1.45a1,1,0,0,1-.35,0c0,.19-.07.37-.12.55-.29,1.24-.58,2.48-.88,3.72,3.22.37,6-2.56,7.5-5.17,2.24-3.77,7.11-22.13.29-22.65-.76-.15-1.78.76-2.62,1.22-1,6.94-2.25,13.74-3.77,20.53a14,14,0,0,0,1.78-3,18.25,18.25,0,0,0,1.67-4.18c0-3.72-.16-7.73,2.87-10.42.6-.58,2.09-1.86,2.64-.67.12.44-.2.88-.42,1.23l-.37.54A19.19,19.19,0,0,1,145.84,97a1.41,1.41,0,0,0-.28.34A10.56,10.56,0,0,1,143.56,101.35Z"/><path class="cls-4" d="M70.13,160.57a16.63,16.63,0,0,1-3.27,1.63c2.36,3.89,3.51,8.41,5,12.68a100.15,100.15,0,0,1,17.54,1.63,44.6,44.6,0,0,1,11.29,3.27c.87-1,3.54-1.5,4.47-2,7.93-2.61,16.54-2.43,24.74-1.84.67-1.38,2.47-7.21,4.36-11.54a49.77,49.77,0,0,1-4.35-3.44c-3.81-3.21-8-6.3-11.52-9.74-1.5-1.74-3.81-3.25-4.34-5.56-.19-1.7-.32-3.42-.35-5.13a18.89,18.89,0,0,1-15.23,5.82h.07c-4-.55-8.26-1.35-11.27-4.27l-.19-.19a19.68,19.68,0,0,1-.39,5.33,21.71,21.71,0,0,1-3.52,3.65A71.76,71.76,0,0,1,70.13,160.57Z"/><path class="cls-5" d="M151.4,138.84c.24,10.25,1.89,20.46,2.53,30.69l-1.57-.71c-.73-.81-1.38-1.67-2.09-2.52l-.37-.51c-5-6.49-12.59-12.88-21.29-10.9a5.08,5.08,0,0,0-1.74.69,65.8,65.8,0,0,1-10.21-9.47c-.78-.82-.67-2-.77-3.06-.08-1.5-.11-3-.19-4.49a8.82,8.82,0,0,0-.08-.92,35.48,35.48,0,0,0,18.7-15.23A50.26,50.26,0,0,0,139.39,109l.07,0c0,.16,0,.31-.05.47-.19,8.87.08,17.77.26,26.65.11,4.56.85,9.06.92,13.63,1,1.53.12-4.8.23-5.43.09-10.18.15-20.38.75-30.55-.1-1.54.16-3.16.05-4.71a9.28,9.28,0,0,0,6.37-3.8c3.06-3.92,4.34-10,4.93-14.53.48-4.06,1.25-10.9-2.86-13.06a5.26,5.26,0,0,0-1.83-.6,5.46,5.46,0,0,0-2.83.72c.78-5.94,1.9-16.23-.19-20.22a3.54,3.54,0,0,0-.35-1.83c-1.31-.87-1.42,1.61-1.51,2.41a36.12,36.12,0,0,1-1.88,6.38c-.68-3.61-1.51-7.2-2.34-10.78a.44.44,0,0,0,0-.09,1.05,1.05,0,0,0-2.08-.2c-.41,4.7-1,10.47-7.27,9.13-3.69-.69-9.81-1-10-5.88-.38-2.47-.48-5-1.06-7.42a1.77,1.77,0,0,0-.69-1.15,1,1,0,0,0-1.57.73,4,4,0,0,0,.16,1.49c0,.12,0,.23,0,.33-.14,2.53,0,5.11-.65,7.56-3.27,0-6.54.15-9.81.34-4,0-10.5,1.5-13.26-2.26-1.22-2.47-1.18-5.39-1.41-8.08a1.08,1.08,0,0,0-1.87-.62c-1,2.8-.8,6-1.68,8.93-.34.91-.48,2.2-1.38,2.73a2,2,0,0,1-.72-1.42,69.91,69.91,0,0,1-.39-9.27,1,1,0,0,0-1.59-.81,1.54,1.54,0,0,0-.56.85c-.39,1.52-.66,3.06-1.06,4.58-.79,2.83-1.75,6.2-4.5,7.75a54.42,54.42,0,0,1-11.81,2.19,27.51,27.51,0,0,1-2.22-9,1,1,0,0,0-2,.31c-.2,2.12-.62,4.32-.76,6.49a10.09,10.09,0,0,1-1.21,4.91,42.85,42.85,0,0,1-2.09-9.16c-.14-.59-.11-1.33-.6-1.75-.47-.27-.86.3-1,.7a11.44,11.44,0,0,0-.28,3.3c-1,3.06-.06,11.31-.09,13.22.13,1.91.35,3.81.59,5.7a4.92,4.92,0,0,0-4.3-.57,5.35,5.35,0,0,0-3,2.76c-3.15,5-.28,17.73,5,24.55a15.19,15.19,0,0,0,2.57,2.66c0,.49.09,1,.07,1.45.12,3.32.31,6.85.33,10.24.21,10.94-.83,22.38.31,33.07a.23.23,0,0,0,.25-.23c0-1.65-.08-3.32,0-5,.34-9.73.64-19.45,1.18-29.16a81.18,81.18,0,0,0,.07-9.08,6.3,6.3,0,0,0,2.09.49,6,6,0,0,0,1.76-.18A53.2,53.2,0,0,0,67.21,121a35.38,35.38,0,0,0,17.71,15.48,3.14,3.14,0,0,0,0,.75,63.73,63.73,0,0,1-.39,8.85,70.8,70.8,0,0,1-10,8.92,6,6,0,0,0-2.93-.77,19.23,19.23,0,0,0-10,2.34,27.79,27.79,0,0,0-8,6.38c-1.81,2-3.5,4-5.27,6l-.13,0c.12-1.91.21-3.83.3-5.73.35-6.16.55-12.32.69-18.48.42-13,.8-26-.42-39a318.52,318.52,0,0,1-1.32-35.22A64.07,64.07,0,0,1,49,53.85c4.09-16.82,16.65-32.37,33.76-37a76.11,76.11,0,0,1,14-2.77c1.18-.16,2.37-.19,3.55-.34,1,.51,2.19.27,3.26.41a78.44,78.44,0,0,1,14.47,2c14.4,3.25,26.67,13.83,33.07,27,7.29,16.07,2.73,40.27,1.55,57.74A305.59,305.59,0,0,0,151.4,138.84Z"/><path class="cls-6" d="M169.12,188.76a33.15,33.15,0,0,1-3.59,1.13,1,1,0,0,0-.51.7,5.34,5.34,0,0,1-.32,3.46c-1.73,2.86-5.53,3-8.53,3.07-.63-.14-1.32.3-1.08.9-2.73,1.17-5.46,2.27-8.24,3.26-2,.7-4,1.35-6,1.92.31-1.54.38-3.73.5-4.23.81-6.76,3.17-13.2,5.7-19.51.38-1,.77-1.89,1.15-2.82a.25.25,0,0,0-.45-.21l-.2.49c-2.76,6.84-5.9,13.57-7.3,20.86a28.39,28.39,0,0,0-1,5.85c-.75.19-1.5.38-2.25.55l-2,.43c-20.71,4.39-43,5.92-63.82,1.27-3-.66-5.88-1.44-8.76-2.36a65.27,65.27,0,0,0-2.35-12.06c-1.65-5.09-3.5-10.17-5.48-15.14-.16-.42-.32-.83-.49-1.24-.37-.58-1.23-.49-1.16.27.23.38.44.74.66,1.13,3.61,6.41,5,13.8,6.28,21,.36,1.82.65,3.63.9,5.47q-3.15-1.06-6.26-2.37c-2.31-1-4.6-2-6.85-3.2-.54-.17-1.64-1.11-2.51-1.49a1,1,0,0,0-.94-.87c-2.57-.21-7.27-.16-8.34-3-.32-1,0-2-.36-2.93-.93-1.12-2.87-1.12-3.63-2.49-.38-2.88,2.12-5.3,3.84-7.34a33.47,33.47,0,0,1,10.41-7.16c1.36-.71,3.28-1.09,4.4-2.25,3.84-5.24,8.95-10.89,15.24-12.79a15.07,15.07,0,0,1,6.55-.53l-1.78,1.2c-1.27.83-2.57,1.61-3.87,2.41a2.43,2.43,0,0,0-.77.56c-.12-.17-.21-.33-.34-.49a2.3,2.3,0,0,0-.71-.62c-.34-.17-.69-.19-.88.22a3.1,3.1,0,0,0,.38,1.77c.63,1.43,1.39,3.05,2,4.57,1.1,2.51,2,5.27,2.81,7.89.43,1.68.87,3.18,2.92,3.13A84.48,84.48,0,0,1,100.43,182a1.07,1.07,0,0,0,.9-.4,1,1,0,0,0,.69-.1,29,29,0,0,1,4.75-1.73c7.47-2.09,15.39-2.1,23.07-1.42A1.62,1.62,0,0,0,132,177c.75-2.16,1.55-4.31,2.37-6.44,1.21-3.26,2.58-6.47,3.69-9.76.1-.4.24-.89,0-1.24a.73.73,0,0,0-.56,0c-.69.24-1.45,1.33-2.24,2.84-2.16-1.89-4.44-3.64-6.68-5.45a2.51,2.51,0,0,1,.7-.15,18.15,18.15,0,0,1,6.27.32c.49.14,1,.29,1.41.46,5.63,2.17,9.48,7.55,13.25,12.09.71,1.14,2.15,1.06,3.29,1.54a34.87,34.87,0,0,1,9.87,5.2,19.3,19.3,0,0,1,6.87,8C170.88,185.87,171,188.16,169.12,188.76Z"/><path class="cls-3" d="M148.61,85.87a.37.37,0,0,0,0-.11,15.31,15.31,0,0,0-2.74,6.51,21.75,21.75,0,0,0-.07,3.6c.38-.55.75-1.11,1.08-1.68A12.93,12.93,0,0,0,148.61,85.87Z"/><path class="cls-7" d="M165.68,175.59a32.91,32.91,0,0,0-8-4.47c-.56-.21-1.1-.45-1.65-.69,0-.15,0-.31-.05-.46a1.21,1.21,0,0,0,.05-.43c-.3-4.37-.73-8.73-1-13.1a287.15,287.15,0,0,1-.49-49c.87-12.42,2.62-24.87,2.9-37.37.53-12.31-.79-25.36-8.53-35.45-7.42-10.33-18.29-18.35-30.87-21-1.32-.3-14.09-2.91-17.4-1.68-2.38-1-10.48.67-11.95.9C68,16.33,52.76,31.63,47.15,51.47,44.82,59.19,44.87,67.3,45,75.29c.19,9.62.78,19.23,1.38,28.83.65,9.1,1.39,18.23,1.14,27.37-.32,7.33-.71,14.66-.74,22-.11,5.47-.29,10.93-.63,16.39,0,0,0,.08,0,.12-3.79,1.81-7.6,3.75-10.62,6.74-3.89,3.68-9.53,11-1.58,13.66-.69,4.13,3.25,6.2,6.8,6.48.82,0,2.5.42,3.54.15,2.23,2.33,5.35,3.59,8.18,5,13.14,5.91,27.61,8.4,42,8.78a168.55,168.55,0,0,0,35.65-3,90.81,90.81,0,0,0,24.21-7.33c.68-.52,2.67-.92,3.3-1.75,4.5.27,10.49-1.66,9.16-7.2,1.94-.62,4.53-1,5.45-3.08C173.54,183.44,169.37,178.55,165.68,175.59ZM47.33,70.68A64.08,64.08,0,0,1,49,53.85c4.09-16.82,16.63-32.37,33.75-37a78.85,78.85,0,0,1,14-2.76c1.18-.15,2.37-.19,3.55-.34,1,.51,2.19.27,3.26.4A78.46,78.46,0,0,1,118,16.16c14.4,3.25,26.68,13.83,33.07,27,7.29,16.08,2.73,40.27,1.55,57.74a307.55,307.55,0,0,0-1.23,37.91c.25,10.25,1.9,20.45,2.54,30.69l-1.57-.71c-.73-.81-1.38-1.67-2.08-2.52-5-6.67-12.74-13.44-21.67-11.4a5.33,5.33,0,0,0-1.74.68,67.16,67.16,0,0,1-10.21-9.46c-.78-.83-.67-2-.77-3.07-.07-1.5-.12-3-.19-4.49,0-.25,0-.58-.07-.92a35.64,35.64,0,0,0,18.7-15.23A50.26,50.26,0,0,0,139.4,109l.06,0c0,.16,0,.31-.05.47-.2,8.88.08,17.77.26,26.65.11,4.56.85,9.06.92,13.62,1,1.54.12-4.79.23-5.41.09-10.19.15-20.38.75-30.56-.1-1.54.16-3.16.05-4.71,7.9-.88,10.41-11.52,11.3-18.33.54-4.59,1.45-12.69-4.69-13.66a5.46,5.46,0,0,0-2.83.72c.78-5.94,1.9-16.23-.2-20.22a3.56,3.56,0,0,0-.34-1.83c-1.3-.87-1.43,1.6-1.51,2.41a35.5,35.5,0,0,1-1.87,6.38c-.7-3.61-1.51-7.2-2.35-10.78a1.14,1.14,0,0,0,0-.15s0,.07,0,.11h0a1,1,0,0,0-2.07-.26c-.43,4.7-1,10.47-7.28,9.13-3.69-.69-9.81-1-10-5.88-.37-2.46-.47-5-1-7.42a1.8,1.8,0,0,0-.69-1.15,1,1,0,0,0-1.57.73,4,4,0,0,0,.16,1.49,3.25,3.25,0,0,1,0,.33c-.12,2.52,0,5.11-.64,7.56-3.27,0-6.54.15-9.8.34-4.06,0-10.51,1.5-13.27-2.26-1.22-2.48-1.18-5.38-1.41-8.09a1.08,1.08,0,0,0-1.87-.61c-1,2.81-.8,6-1.68,8.93-.34.92-.49,2.2-1.38,2.73h0a2.07,2.07,0,0,1-.72-1.42,69.83,69.83,0,0,1-.39-9.26,1,1,0,0,0-1.59-.82,1.53,1.53,0,0,0-.56.86c-.38,1.51-.66,3-1,4.57-.8,2.83-1.76,6.2-4.51,7.76a54.9,54.9,0,0,1-11.81,2.18,27.26,27.26,0,0,1-2.21-9,1.05,1.05,0,0,0-2,.31c-.2,2.12-.62,4.32-.77,6.49a10,10,0,0,1-1.2,4.91,42.85,42.85,0,0,1-2.09-9.16c-.15-.59-.11-1.33-.6-1.75-.48-.27-.86.3-1,.7A11.14,11.14,0,0,0,55.76,59c-1,3.05-.06,11.3-.1,13.22.15,1.9.36,3.8.6,5.69a5,5,0,0,0-7.33,2.18c-3.62,5.79.73,21.81,7.56,27.22,0,.49.09,1,.07,1.45.12,3.32.31,6.85.32,10.25.22,10.94-.81,22.37.32,33.06a.24.24,0,0,0,.25-.23c0-1.66-.08-3.32,0-5,.35-9.72.65-19.44,1.19-29.15a83,83,0,0,0,.08-9.08,6.18,6.18,0,0,0,2.09.49,5.93,5.93,0,0,0,1.75-.18,53.1,53.1,0,0,0,4.66,12.13,35.4,35.4,0,0,0,17.71,15.47,3.13,3.13,0,0,0,0,.75,64,64,0,0,1-.4,8.86,71.36,71.36,0,0,1-10,8.91,5.9,5.9,0,0,0-2.94-.77,19.34,19.34,0,0,0-10,2.33c-5.58,2.74-9.27,7.91-13.3,12.42l-.12,0c.11-1.91.2-3.82.3-5.74.35-6.15.53-12.31.68-18.48.42-13,.8-26-.42-38.95A318.52,318.52,0,0,1,47.33,70.68Zm9.61,20a11.06,11.06,0,0,0-2.32-6.2C54,83.82,52,82.16,51.11,83c-.25.52.46.84.79,1.11A4.82,4.82,0,0,1,53,85.24a15,15,0,0,0,5.82,15.23,8,8,0,0,0,2,1.59h0c.39,1.64.78,3.28,1.2,4.92a3.65,3.65,0,0,1-1.64-.07,13.46,13.46,0,0,1-5.95-5.36c-2.74-5.45-6-13.26-4.08-19.33.63-2.11,3.13-4,5.05-2.18a6,6,0,0,1,1.3,1.19c1,6.3,2.33,12.55,3.67,18.78h0a26.19,26.19,0,0,1-2.59-3.48C56.51,94.8,56.58,92.7,56.94,90.7Zm.57,7.81C54,95.7,52.67,90.35,53.51,86a20.89,20.89,0,0,1,1.36,4.57C55.73,93.13,56.24,96.09,57.51,98.51Zm.75-23.74c-.38-3-.67-6-.8-9,.16.4.33.8.51,1.19,2.69,3.44,4.17-4.18,4.75-5.89.49,1.39.65,3.13,1.8,4.15,2,.87,4.37-.14,6.48-.3C78,63.8,81.42,63.46,83.84,56c.35,1.68.65,3.6,1.76,5,3,1.75,4.32-3,4.75-5.11,1.59,6.45,9.48,5.39,14.6,5.11,3.36-.22,6.67-.25,10.06-.31,1.92.15,2.66-.59,2.95-1.91a5.54,5.54,0,0,0,3,3.95,26.27,26.27,0,0,0,11.64,2.43C135.77,65,137.5,62,138,59.21c.81,2.63.73,5.71,2.29,8,1.5,1,2.83-1,3.73-3.49a89.27,89.27,0,0,1-1.24,15.57,237.59,237.59,0,0,1-7.22,34.34,33,33,0,0,1-24.3,22.73c-1.94.52-4,.66-6,1-.76,0-1.51.09-2.27.08-1.46.07-2.93.08-4.39,0a15.49,15.49,0,0,1-1.68-.28C78.7,135,68,123.65,64.23,105.91A259.52,259.52,0,0,1,58.26,74.77ZM145.84,97a19.19,19.19,0,0,0,3.61-12.53l.37-.54c.22-.35.54-.79.42-1.23-.55-1.19-2,.09-2.64.67-3,2.69-2.88,6.7-2.87,10.42A18.25,18.25,0,0,1,143.06,98a14,14,0,0,1-1.78,3c1.52-6.79,2.81-13.59,3.77-20.53.84-.46,1.86-1.37,2.62-1.22,6.82.52,2,18.88-.29,22.65-1.48,2.61-4.28,5.54-7.5,5.17.3-1.24.59-2.48.88-3.72.05-.18.08-.36.12-.55a1,1,0,0,0,.35,0c1,0,1.63-.87,2.33-1.45a10.56,10.56,0,0,0,2-4A1.41,1.41,0,0,1,145.84,97Zm0-4.77a15.31,15.31,0,0,1,2.74-6.51.37.37,0,0,1,0,.11,12.93,12.93,0,0,1-1.74,8.32c-.33.57-.7,1.13-1.08,1.68A21.75,21.75,0,0,1,145.86,92.27Zm-32.13,46c0,.31,0,.62,0,.93-7.33,7.6-17,8.17-25.38,1.53-.4-.24-.78-.7-1.22-1,0-.67.11-1.53.09-2.3a44.08,44.08,0,0,0,9,2.14,18.25,18.25,0,0,0,2.54.3l1.69,0,.63,0a9.48,9.48,0,0,0,1.3,0c.85,0,1.7-.08,2.54-.15A34.61,34.61,0,0,0,113.73,138.27Zm-27,9a19.68,19.68,0,0,0,.39-5.33l.19.19c3,2.92,7.27,3.72,11.27,4.27h-.07a18.89,18.89,0,0,0,15.23-5.82c0,1.71.16,3.43.35,5.13.53,2.31,2.84,3.82,4.34,5.56,3.48,3.44,7.71,6.53,11.52,9.74a49.77,49.77,0,0,0,4.35,3.44c-1.89,4.33-3.69,10.16-4.36,11.54-8.2-.59-16.81-.77-24.74,1.84-.93.48-3.6.94-4.47,2a44.6,44.6,0,0,0-11.29-3.27,100.15,100.15,0,0,0-17.54-1.63c-1.49-4.27-2.64-8.79-5-12.68a16.63,16.63,0,0,0,3.27-1.63,71.76,71.76,0,0,0,13-9.67A21.71,21.71,0,0,0,86.69,147.25Zm82.43,41.51a35.35,35.35,0,0,1-3.58,1.13,1,1,0,0,0-.52.71,5.35,5.35,0,0,1-.32,3.46c-1.73,2.85-5.53,3-8.53,3.06-.62-.14-1.32.3-1.08.9a112.8,112.8,0,0,1-14.29,5.18c.32-1.54.38-3.73.5-4.23.94-7.77,3.91-15.12,6.84-22.33.14-.29-.31-.48-.44-.21-2.81,7-6.07,13.88-7.5,21.35a28.39,28.39,0,0,0-1,5.85c-.75.19-1.5.38-2.26.55-24.21,5.36-50.68,6.94-74.55-.66a65.11,65.11,0,0,0-2.35-12.06c-1.78-5.52-3.81-11-6-16.38-.37-.58-1.22-.49-1.16.27,4.1,6.67,5.57,14.51,7,22.17.35,1.81.64,3.63.9,5.48a92.43,92.43,0,0,1-13.12-5.58c-.54-.18-1.63-1.11-2.5-1.49a1,1,0,0,0-.95-.87c-2.56-.21-7.26-.17-8.34-3-.32-1,0-2-.36-2.94-.93-1.12-2.87-1.12-3.64-2.49-.37-2.88,2.13-5.31,3.85-7.35a33.56,33.56,0,0,1,10.41-7.15c1.37-.7,3.28-1.1,4.41-2.25C55.63,163,63,155.28,72.32,156.58l-1.78,1.21c-1.27.83-2.57,1.61-3.87,2.41a2.69,2.69,0,0,0-.77.55c-.12-.15-.22-.32-.33-.48-.33-.44-1.24-1.15-1.6-.4a3,3,0,0,0,.39,1.76c.62,1.43,1.38,3.06,2,4.58,1.09,2.51,1.94,5.27,2.79,7.9.44,1.66.88,3.17,2.93,3.12A84.52,84.52,0,0,1,100.43,182a1,1,0,0,0,.89-.39,1.17,1.17,0,0,0,.71-.09,28.1,28.1,0,0,1,4.75-1.74c7.45-2.08,15.38-2.1,23.06-1.42A1.63,1.63,0,0,0,132,177c.74-2.16,1.54-4.31,2.36-6.44,1.21-3.26,2.58-6.47,3.69-9.76.09-.4.24-.89,0-1.25-.81-.32-1.79.93-2.79,2.86-2.17-1.88-4.46-3.64-6.69-5.45a2.43,2.43,0,0,1,.7-.15,18.15,18.15,0,0,1,6.27.32c6.41,1.75,10.59,7.64,14.66,12.55.71,1.13,2.16,1.06,3.28,1.54a35,35,0,0,1,9.88,5.21,19.11,19.11,0,0,1,6.87,8C170.88,185.87,171,188.16,169.12,188.76Z"/><path class="cls-7" d="M75.28,76c.93.17,1.54-1,2.27-1.4,2.32-1.92,5.31-3.18,8-4.64a2.43,2.43,0,0,0,.63-3c-.62-1.43-2.48-1.72-3.87-1.52-2.85.54-5.13,2.64-6.7,5C74.61,71.74,72.66,75.34,75.28,76Zm.23-1.9a8.82,8.82,0,0,1,5.87-6.84c.78-.41,4.19,0,2.73,1.32a20.4,20.4,0,0,0-8.62,5.75A2,2,0,0,0,75.51,74.06Z"/><path class="cls-7" d="M85.22,88.3a3.06,3.06,0,0,0,2.6-2.3c.33-1.73.48-4.65-1.63-5.23C82.5,80.18,81.6,88,85.22,88.3Z"/><path class="cls-7" d="M116.29,69.92c2.63,1.46,5.63,2.72,7.94,4.64.74.43,1.35,1.56,2.28,1.4,2.62-.62.67-4.22-.28-5.62-1.58-2.34-3.85-4.43-6.7-5-1.4-.21-3.25.08-3.88,1.51A2.44,2.44,0,0,0,116.29,69.92Zm4.12-2.7a8.82,8.82,0,0,1,5.87,6.84c0,.07,0,.15,0,.23a20.34,20.34,0,0,0-8.62-5.75C116.21,67.21,119.63,66.81,120.41,67.22Z"/><path class="cls-7" d="M116.57,88.3c3.62-.33,2.72-8.12-1-7.53-2.11.58-2,3.5-1.63,5.23A3,3,0,0,0,116.57,88.3Z"/><path class="cls-7" d="M96.3,98.3a5.83,5.83,0,0,0,4.65,2.91,4.73,4.73,0,0,0,5.21-4.73c-.5-.93-1.44.13-2.08.36a10.16,10.16,0,0,1-2.29.61,6.92,6.92,0,0,1-5-.45C95.39,96.18,95,97.68,96.3,98.3Zm8.72-.88a16,16,0,0,1-1.24,2,4.2,4.2,0,0,1-2.58,1.08h0a3.75,3.75,0,0,1-3.47-1.83A10.58,10.58,0,0,0,105,97.42Z"/><path class="cls-7" d="M101.2,100.55Z"/><path class="cls-7" d="M103.42,116.61c1.45.25,8.6-1.06,7.32-3.27a.92.92,0,0,0-1.27-.16c-1.83,1.89-4.62,1.85-7.09,2.17a14.75,14.75,0,0,1-7.58-1.42c-.55-.44-1.18-1.26-1.94-.68C90.42,116.1,101.92,116.62,103.42,116.61Z"/><path class="cls-2" d="M84.92,136.52a3.14,3.14,0,0,0,0,.75,63.73,63.73,0,0,1-.39,8.85,70.8,70.8,0,0,1-10,8.92,6,6,0,0,0-2.93-.77,19.23,19.23,0,0,0-10,2.34,27.79,27.79,0,0,0-8,6.38c.71-19.45,1.35-38.95.44-58.36a15.19,15.19,0,0,0,2.57,2.66c0,.49.09,1,.07,1.45.12,3.32.31,6.85.33,10.24.21,10.94-.83,22.38.31,33.07a.23.23,0,0,0,.25-.23c0-1.65-.08-3.32,0-5,.34-9.73.64-19.45,1.18-29.16a81.18,81.18,0,0,0,.07-9.08,6.3,6.3,0,0,0,2.09.49,6,6,0,0,0,1.76-.18A53.2,53.2,0,0,0,67.21,121,35.38,35.38,0,0,0,84.92,136.52Z"/><path class="cls-2" d="M149.9,165.79c-5-6.49-12.59-12.88-21.29-10.9a5.08,5.08,0,0,0-1.74.69,65.8,65.8,0,0,1-10.21-9.47c-.78-.82-.67-2-.77-3.06-.08-1.5-.11-3-.19-4.49a8.82,8.82,0,0,0-.08-.92,35.48,35.48,0,0,0,18.7-15.23A50.26,50.26,0,0,0,139.39,109l.07,0c0,.16,0,.31-.05.47-.19,8.87.08,17.77.26,26.65.11,4.56.85,9.06.92,13.63,1,1.53.12-4.8.23-5.43.09-10.18.15-20.38.75-30.55-.1-1.54.16-3.16.05-4.71a9.28,9.28,0,0,0,6.37-3.8A354.2,354.2,0,0,0,149.9,165.79Z"/><path class="cls-2" d="M150.06,77.72a5.26,5.26,0,0,0-1.83-.6,5.46,5.46,0,0,0-2.83.72c.78-5.94,1.9-16.23-.19-20.22a3.54,3.54,0,0,0-.35-1.83c-1.31-.87-1.42,1.61-1.51,2.41a36.12,36.12,0,0,1-1.88,6.38c-.68-3.61-1.51-7.2-2.34-10.78a.44.44,0,0,0,0-.09,1.05,1.05,0,0,0-2.08-.2c-.41,4.7-1,10.47-7.27,9.13-3.69-.69-9.81-1-10-5.88-.38-2.47-.48-5-1.06-7.42a1.77,1.77,0,0,0-.69-1.15,1,1,0,0,0-1.57.73,4,4,0,0,0,.16,1.49c0,.12,0,.23,0,.33-.14,2.53,0,5.11-.65,7.56-3.27,0-6.54.15-9.81.34-4,0-10.5,1.5-13.26-2.26-1.22-2.47-1.18-5.39-1.41-8.08a1.08,1.08,0,0,0-1.87-.62c-1,2.8-.8,6-1.68,8.93-.34.91-.48,2.2-1.38,2.73a2,2,0,0,1-.72-1.42,69.91,69.91,0,0,1-.39-9.27,1,1,0,0,0-1.59-.81,1.54,1.54,0,0,0-.56.85c-.39,1.52-.66,3.06-1.06,4.58-.79,2.83-1.75,6.2-4.5,7.75a54.42,54.42,0,0,1-11.81,2.19,27.51,27.51,0,0,1-2.22-9,1,1,0,0,0-2,.31c-.2,2.12-.62,4.32-.76,6.49a10.09,10.09,0,0,1-1.21,4.91,42.85,42.85,0,0,1-2.09-9.16c-.14-.59-.11-1.33-.6-1.75-.47-.27-.86.3-1,.7a11.44,11.44,0,0,0-.28,3.3c-1,3.06-.06,11.31-.09,13.22.13,1.91.35,3.81.59,5.7a4.92,4.92,0,0,0-4.3-.57,80.19,80.19,0,0,1,.73-14.4A55,55,0,0,1,88.05,20c-3.85,6.94-4.91,14.69-5.13,22.63a45.48,45.48,0,0,0,6.2-11.37c1.07-2.92,1.91-6,3.94-8.41s5.77-3.62,8.3-1.82q2.64,8.7,5.28,17.37A29.54,29.54,0,0,0,106.58,22a40.19,40.19,0,0,1,20.08,21c.51-7.13-4.07-13.5-8.42-19.17,14.45,5,25.86,16.39,30,31.12C150.24,62.31,150.46,70,150.06,77.72Z"/><path class="cls-8" d="M59.87,197.52c.36,1.82.65,3.63.9,5.47q-3.15-1.06-6.26-2.37c.08-.53.17-1.05.26-1.58a50.42,50.42,0,0,0-.7-20.47,11.58,11.58,0,0,1-.48-2.09C57.2,182.89,58.58,190.28,59.87,197.52Z"/><path class="cls-8" d="M141.3,199c.81-6.76,3.17-13.2,5.7-19.51l-.09.49a66.65,66.65,0,0,0-.06,21.33c-2,.7-4,1.35-6,1.92C141.11,201.66,141.18,199.47,141.3,199Z"/><path class="cls-8" d="M72.32,156.59l-1.78,1.2c-1.27.83-2.57,1.61-3.87,2.41a2.43,2.43,0,0,0-.77.56c-.12-.17-.21-.33-.34-.49a2.3,2.3,0,0,0-.71-.62,3.66,3.66,0,0,1,.09-.81,5,5,0,0,1,.83-1.72A15.07,15.07,0,0,1,72.32,156.59Z"/><path class="cls-8" d="M137.46,159.53c-.69.24-1.45,1.33-2.24,2.84-2.16-1.89-4.44-3.64-6.68-5.45a2.51,2.51,0,0,1,.7-.15,18.15,18.15,0,0,1,6.27.32c.49.14,1,.29,1.41.46a4.92,4.92,0,0,1,.53,1.81C137.45,159.42,137.46,159.47,137.46,159.53Z"/></g></g></svg>