<?xml version="1.0" ?><svg id="Multicolor" viewBox="0 0 100 112" xmlns="http://www.w3.org/2000/svg"><defs><style>.cls-1{fill:#fff0ed;}.cls-2{fill:#e04122;}.cls-3{fill:#ff6242;}.cls-4{fill:none;}.cls-10,.cls-11,.cls-16,.cls-17,.cls-18,.cls-4,.cls-7{stroke:#45413c;stroke-linecap:round;stroke-linejoin:round;}.cls-13,.cls-5{fill:#45413c;}.cls-5{opacity:0.15;}.cls-18,.cls-6{fill:#f0f0f0;}.cls-7{fill:#00b8f0;}.cls-8{fill:#009fd9;}.cls-9{fill:#fff;}.cls-10{fill:#ffcebf;}.cls-11{fill:#8ca4b8;}.cls-12{fill:#ffb59e;}.cls-14,.cls-16{fill:#ffdf3d;}.cls-15{fill:#ffef9e;}.cls-17{fill:#ff6196;}</style></defs><title/><g id="Background"><g data-name="New Symbol 25" id="New_Symbol_25-18"><circle class="cls-1" cx="49.992" cy="56.215" r="40"/></g></g><g id="Scene"><path class="cls-2" d="M23.531,33.726a.661.661,0,0,0,.715-.21c5.774-7.075,6.413-10.025,5.415-13.415h0a5.368,5.368,0,0,0-3.323-3.375h0c-4.055-1.51-5.505,2.766-6.175,4.2-.939-.593-4.778-3.783-7.466-.2h0a5.364,5.364,0,0,0-.973,4.635h0C12.716,28.758,14.85,30.894,23.531,33.726Z"/><path class="cls-3" d="M13.5,23.452c1.9-2.539,4.384-1.681,6-.753a1.573,1.573,0,0,0,2.19-.622c.89-1.718,2.463-3.741,5.447-2.629A5.6,5.6,0,0,1,30,21.791a9.43,9.43,0,0,0-.341-1.69,5.364,5.364,0,0,0-3.323-3.374c-4.055-1.511-5.505,2.765-6.174,4.2-.94-.593-4.779-3.783-7.467-.2a5.361,5.361,0,0,0-.973,4.635,9.34,9.34,0,0,0,.626,1.607A5.6,5.6,0,0,1,13.5,23.452Z"/><path class="cls-4" d="M23.531,33.726a.661.661,0,0,0,.715-.21c5.774-7.075,6.413-10.025,5.415-13.415h0a5.368,5.368,0,0,0-3.323-3.375h0c-4.055-1.51-5.505,2.766-6.175,4.2-.939-.593-4.778-3.783-7.466-.2h0a5.364,5.364,0,0,0-.973,4.635h0C12.716,28.758,14.85,30.894,23.531,33.726Z"/><path class="cls-2" d="M78.567,27.7a.435.435,0,0,0,.433.236c6-.607,7.681-1.687,8.8-3.738h0a3.55,3.55,0,0,0,.025-3.13h0c-1.19-2.6-3.866-1.28-4.85-.922-.162-.717-.465-4-3.4-3.582h0a3.546,3.546,0,0,0-2.621,1.712h0C75.834,20.323,75.834,22.319,78.567,27.7Z"/><path class="cls-3" d="M78.679,18.208c2.076-.3,2.834,1.263,3.157,2.454a1.04,1.04,0,0,0,1.314.733c1.219-.387,2.9-.6,3.775,1.316a3.7,3.7,0,0,1,.244,2.435,6.278,6.278,0,0,0,.63-.949,3.546,3.546,0,0,0,.024-3.13c-1.189-2.6-3.865-1.28-4.849-.922-.162-.717-.465-4-3.4-3.582a3.544,3.544,0,0,0-2.621,1.712,6.171,6.171,0,0,0-.458,1.043A3.7,3.7,0,0,1,78.679,18.208Z"/><path class="cls-4" d="M78.567,27.7a.435.435,0,0,0,.433.236c6-.607,7.681-1.687,8.8-3.738h0a3.55,3.55,0,0,0,.025-3.13h0c-1.19-2.6-3.866-1.28-4.85-.922-.162-.717-.465-4-3.4-3.582h0a3.546,3.546,0,0,0-2.621,1.712h0C75.834,20.323,75.834,22.319,78.567,27.7Z"/><path class="cls-2" d="M60.03,14.991a.347.347,0,0,0,.391.04c4.218-2.3,5.115-3.61,5.3-5.461h0a2.82,2.82,0,0,0-.948-2.3h0c-1.676-1.541-3.232.254-3.844.821-.34-.476-1.576-2.793-3.6-1.58h0a2.824,2.824,0,0,0-1.395,2.066h0C55.747,10.423,56.363,11.888,60.03,14.991Z"/><path class="cls-3" d="M57.181,7.992c1.432-.859,2.47.052,3.075.826a.828.828,0,0,0,1.191.132c.774-.661,1.943-1.334,3.176-.2a2.942,2.942,0,0,1,.931,1.712,4.885,4.885,0,0,0,.169-.892,2.82,2.82,0,0,0-.948-2.3c-1.676-1.541-3.232.254-3.843.821-.341-.476-1.577-2.793-3.6-1.58a2.824,2.824,0,0,0-1.395,2.066,5.016,5.016,0,0,0-.015.907A2.953,2.953,0,0,1,57.181,7.992Z"/><path class="cls-4" d="M60.03,14.991a.347.347,0,0,0,.391.04c4.218-2.3,5.115-3.61,5.3-5.461h0a2.82,2.82,0,0,0-.948-2.3h0c-1.676-1.541-3.232.254-3.844.821-.34-.476-1.576-2.793-3.6-1.58h0a2.824,2.824,0,0,0-1.395,2.066h0C55.747,10.423,56.363,11.888,60.03,14.991Z"/><ellipse class="cls-5" cx="51.047" cy="92.09" rx="14.548" ry="1.984"/><path class="cls-6" d="M51.047,41.174c-6.823.133-13.225,5.149-13.225,13.886h4.629v9.919H59.643V55.06h4.629C64.272,46.323,57.87,41.307,51.047,41.174Z"/><path class="cls-7" d="M42.451,64.979V90.106H48.8l.724-16.4a1.525,1.525,0,1,1,3.048,0l.725,16.4h6.347V64.979Z"/><rect class="cls-8" height="3.968" width="17.193" x="42.451" y="64.979"/><path class="cls-4" d="M42.451,64.979V90.106H48.8l.724-16.4a1.525,1.525,0,1,1,3.048,0l.725,16.4h6.347V64.979Z"/><path class="cls-9" d="M51.047,45.141A13.153,13.153,0,0,1,63.788,55.06h.484c0-8.737-6.4-13.753-13.225-13.886-6.823.133-13.225,5.149-13.225,13.886h.484A13.155,13.155,0,0,1,51.047,45.141Z"/><path class="cls-4" d="M51.047,41.174c-6.823.133-13.225,5.149-13.225,13.886h4.629v9.919H59.643V55.06h4.629C64.272,46.323,57.87,41.307,51.047,41.174Z"/><line class="cls-4" x1="59.643" x2="59.643" y1="55.06" y2="50.693"/><line class="cls-4" x1="42.451" x2="42.451" y1="55.06" y2="50.693"/><path class="cls-10" d="M47.08,41.822v.013a3.977,3.977,0,0,0,7.935,0v-.013a14.129,14.129,0,0,0-3.967-.649A14.129,14.129,0,0,0,47.08,41.822Z"/><path class="cls-11" d="M42.485,91.429A1.318,1.318,0,0,1,41.3,89.51a3.965,3.965,0,0,1,3.474-2.049h.661a3.968,3.968,0,0,1,3.474,2.049,1.319,1.319,0,0,1-1.187,1.919Z"/><path class="cls-11" d="M54.373,91.429a1.318,1.318,0,0,1-1.186-1.919,3.965,3.965,0,0,1,3.474-2.049h.661A3.968,3.968,0,0,1,60.8,89.51a1.319,1.319,0,0,1-1.187,1.919Z"/><path class="cls-10" d="M61.991,61.673h0a2.315,2.315,0,0,1-2.315-2.314v-4.3h4.629v4.3A2.314,2.314,0,0,1,61.991,61.673Z"/><path class="cls-10" d="M40.17,65.64h0a2.314,2.314,0,0,1-2.315-2.314V55.06h4.629v8.266A2.314,2.314,0,0,1,40.17,65.64Z"/><path class="cls-10" d="M60.309,30.66a1.63,1.63,0,0,0-1.323-1.586V28.015a7.935,7.935,0,0,0-15.869,0v1.059a1.619,1.619,0,0,0,.166,3.206,7.936,7.936,0,0,0,15.537,0A1.637,1.637,0,0,0,60.309,30.66Z"/><circle class="cls-12" cx="46.753" cy="31.652" r="0.992"/><circle class="cls-12" cx="55.35" cy="31.652" r="0.992"/><path class="cls-4" d="M53.035,33.966a3.3,3.3,0,0,1-3.967,0"/><path class="cls-13" d="M48.076,28.015a.992.992,0,1,0,.992.992.992.992,0,0,0-.992-.992Z"/><path class="cls-13" d="M54.027,28.015a.992.992,0,1,0,.992.992.992.992,0,0,0-.992-.992Z"/><path class="cls-14" d="M61.782,31.774h0c-.8-2.391-.812-3.3-.812-7.225h0c0-6.274-7.591-9.439-11.9-5.13a6.613,6.613,0,0,0-6.613,6.613v3.306c2.567,0,3.164-1.685,6.613-6.613.588,1.4,2.311,2.57,3.967,3.307,5.362,1.377-2.34,3.956,4.987,8.42a7.97,7.97,0,0,1-2.906,3.024c.349,1.776,1.591,4.305,2.757,5.129,1.243.879,1.775,2.512,1.775,4.586l1.815-4.537A15.819,15.819,0,0,0,61.782,31.774Z"/><path class="cls-15" d="M60.97,26.532v.161h.01c-.009-.607-.01-1.307-.01-2.144h0c0-6.274-7.591-9.439-11.9-5.13a6.613,6.613,0,0,0-6.613,6.613v1.983A6.612,6.612,0,0,1,49.068,21.4C53.379,17.094,60.97,20.259,60.97,26.532Z"/><path class="cls-4" d="M61.782,31.774h0c-.8-2.391-.812-3.3-.812-7.225h0c0-6.274-7.591-9.439-11.9-5.13a6.613,6.613,0,0,0-6.613,6.613v3.306c2.567,0,3.164-1.685,6.613-6.613.588,1.4,2.311,2.57,3.967,3.307,5.362,1.377-2.34,3.956,4.987,8.42a7.97,7.97,0,0,1-2.906,3.024c.349,1.776,1.591,4.305,2.757,5.129,1.243.879,1.775,2.512,1.775,4.586l1.815-4.537A15.819,15.819,0,0,0,61.782,31.774Z"/><line class="cls-4" x1="49.068" x2="49.068" y1="22.725" y2="19.419"/><path class="cls-16" d="M58.283,35.608,57.8,49.867a1.323,1.323,0,0,0,1.321,1.372H73.573A1.324,1.324,0,0,0,74.9,49.867l-.48-14.259Z"/><path class="cls-10" d="M75.531,33.982a1.629,1.629,0,0,0-1.56-1.353L73.8,31.584a7.935,7.935,0,1,0-15.663,2.555l.171,1.045a1.62,1.62,0,0,0,.68,3.138,7.936,7.936,0,0,0,15.334-2.5A1.636,1.636,0,0,0,75.531,33.982Z"/><path class="cls-13" d="M63.193,33.328a.98.98,0,0,0-.161.013.992.992,0,0,0,.158,1.971,1.1,1.1,0,0,0,.161-.013.992.992,0,0,0-.158-1.971Z"/><path class="cls-13" d="M69.066,32.369a.982.982,0,0,0-.161.014.991.991,0,0,0,.159,1.97.98.98,0,0,0,.161-.013.992.992,0,0,0-.159-1.971Z"/><circle class="cls-12" cx="62.312" cy="37.143" r="0.992"/><circle class="cls-12" cx="70.796" cy="35.759" r="0.992"/><path class="cls-4" d="M64.979,39.114a3.576,3.576,0,0,0,3.915-.638"/><path class="cls-14" d="M68.3,23.1a1.252,1.252,0,0,0-.971.953,3.06,3.06,0,0,1,.794,1.49,5.283,5.283,0,0,1-.191,2.9c.155.947,3.493,3.428,5.334,4.386a.653.653,0,0,0,.949-.628l-.3-4.689A4.762,4.762,0,0,0,68.3,23.1Z"/><path class="cls-15" d="M68.3,23.1a1.25,1.25,0,0,0-.971.953,3.056,3.056,0,0,1,.794,1.49c.031.146.055.291.074.434a1.322,1.322,0,0,1,.627-.284,4.745,4.745,0,0,1,5.158,2.923l-.063-1.1A4.762,4.762,0,0,0,68.3,23.1Z"/><path class="cls-4" d="M68.3,23.1a1.252,1.252,0,0,0-.971.953,3.06,3.06,0,0,1,.794,1.49,5.283,5.283,0,0,1-.191,2.9c.155.947,3.493,3.428,5.334,4.386a.653.653,0,0,0,.949-.628l-.3-4.689A4.762,4.762,0,0,0,68.3,23.1Z"/><path class="cls-14" d="M64.371,23.072a3.288,3.288,0,0,1,3.748,2.474c1.407,6.682-10.055,10.65-11.808,8.221-.771-1.067-.578-2.908,1.035-2.964a.39.39,0,0,0,.345-.5C56.858,26.734,60.016,23.783,64.371,23.072Z"/><path class="cls-15" d="M64.338,24.927A3.288,3.288,0,0,1,68.087,27.4c.02.1.037.19.051.284a5.281,5.281,0,0,0-.019-2.138,3.289,3.289,0,0,0-3.749-2.474c-4.238.692-7.342,3.505-6.737,6.95C58.2,27.455,60.892,25.489,64.338,24.927Z"/><path class="cls-4" d="M64.371,23.072a3.288,3.288,0,0,1,3.748,2.474c1.407,6.682-10.055,10.65-11.808,8.221-.771-1.067-.578-2.908,1.035-2.964a.39.39,0,0,0,.345-.5C56.858,26.734,60.016,23.783,64.371,23.072Z"/><path class="cls-10" d="M28.568,66.963a2.645,2.645,0,0,1-1.4-4.889l10.58-6.612a2.649,2.649,0,0,1,3.123.235l5.863,5.025a2.638,2.638,0,0,0,3.414.025L62.58,50.384a2.644,2.644,0,0,1,3.386,4.063L53.53,64.81a7.908,7.908,0,0,1-10.243-.071L38.9,60.978l-8.933,5.583A2.626,2.626,0,0,1,28.568,66.963Z"/><path class="cls-17" d="M34.461,55.887l2.072,8.431a3.544,3.544,0,0,1,2.314-.992c1.355,0,3.78,6.061,7.935,6.061a11.255,11.255,0,0,0,6.91-2.424l-2.865-9.258s-1.653,1.708-2.7,1.708-5.518-5.951-8.274-5.951C38.428,53.462,34.461,55.887,34.461,55.887Z"/><path class="cls-18" d="M50.827,57.705,62.685,46.792A5.089,5.089,0,1,1,69.3,54.516L53.692,66.963Z"/><path class="cls-10" d="M64.305,51.338a2.314,2.314,0,0,1-2.315,2.315h-5a15.506,15.506,0,0,1-11.9-5.546l-3.327-3.964a2.314,2.314,0,1,1,3.544-2.975l3.327,3.962a10.892,10.892,0,0,0,8.356,3.894h5A2.314,2.314,0,0,1,64.305,51.338Z"/><path class="cls-18" d="M58.874,48.088l6.446-.62a3.306,3.306,0,0,1,.634,6.581l-6.445.62a3.3,3.3,0,0,1-.636,0Z"/><path class="cls-17" d="M30.393,66.3,28.127,62.79A6.638,6.638,0,0,0,22,59.778a.66.66,0,0,0-.518.988l4.351,7.584a.663.663,0,0,0,.926.231Z"/><path class="cls-10" d="M36.811,64.788a1,1,0,0,1-.36-1.14l.764-2.179A2.4,2.4,0,0,1,40.268,60l1.131.4a2.4,2.4,0,0,1,1.469,3.053L42.1,65.628a1,1,0,0,1-.992.667A8.073,8.073,0,0,1,36.811,64.788Z"/><path class="cls-10" d="M60.8,63.675a1,1,0,0,1-1.111-.441l-1.207-1.967a2.4,2.4,0,0,1,.789-3.3l1.021-.627a2.4,2.4,0,0,1,3.3.789L64.79,60.1a1,1,0,0,1-.11,1.191A8.059,8.059,0,0,1,60.8,63.675Z"/></g></svg>