<svg width="123" height="124" viewBox="0 0 123 124" fill="none" xmlns="http://www.w3.org/2000/svg">
<path fill-rule="evenodd" clip-rule="evenodd" d="M23.8101 15.5928C22.8434 15.5928 21.9815 16.2663 21.649 17.2791L15.7463 35.3013C15.56 35.8712 15.465 36.4673 15.465 37.0673V44.2366C15.465 48.2904 18.4087 51.5807 22.0403 51.5807C25.672 51.5807 28.6182 48.2904 28.6182 44.2366C28.6182 48.2929 31.5619 51.5807 35.1936 51.5807C38.8252 51.5807 41.7714 48.2904 41.7714 44.2366C41.7714 48.2929 44.7151 51.5807 48.3468 51.5807C51.9784 51.5807 54.9196 48.2955 54.9247 44.2417C54.9247 48.2955 57.8684 51.5807 61.5 51.5807C65.1317 51.5807 68.0753 48.2904 68.0753 44.2366C68.0753 48.2929 71.0216 51.5807 74.6532 51.5807C78.2849 51.5807 81.226 48.2955 81.2286 44.2417C81.2311 48.2955 84.1748 51.5807 87.8064 51.5807C91.4381 51.5807 94.3818 48.2904 94.3818 44.2366C94.3818 48.2929 97.3255 51.5807 100.96 51.5807C104.591 51.5807 107.535 48.2904 107.535 44.2366V37.0673C107.535 36.4673 107.44 35.8712 107.254 35.3013L101.351 17.2816C101.018 16.2663 100.157 15.5928 99.1899 15.5928H23.8101Z" fill="#327A6D"/>
<path fill-rule="evenodd" clip-rule="evenodd" d="M25.695 54.7424V74.7157H19.3013C18.9621 74.7157 18.6369 74.8511 18.397 75.0921C18.1572 75.3331 18.0225 75.6601 18.0225 76.0009V78.5715C18.0225 78.9124 18.1572 79.2393 18.397 79.4803C18.6369 79.7214 18.9621 79.8568 19.3013 79.8568H103.699C104.038 79.8568 104.363 79.7214 104.603 79.4803C104.843 79.2393 104.978 78.9124 104.978 78.5715V76.0009C104.978 75.6601 104.843 75.3331 104.603 75.0921C104.363 74.8511 104.038 74.7157 103.699 74.7157H97.305V54.7424C96.2344 54.3135 95.2455 53.7022 94.3818 52.9353C93.7187 53.523 92.9819 54.0208 92.19 54.4159V74.7157H30.81V54.4159C30.0181 54.0208 29.2813 53.523 28.6182 52.9353C27.7589 53.6936 26.7768 54.3105 25.695 54.7424ZM92.19 49.7118C92.4074 49.4933 92.612 49.2594 92.8038 49.01H92.19V49.7118ZM95.9598 49.01C96.3464 49.5135 96.7989 49.9623 97.305 50.3441V49.01H95.9598ZM25.695 50.3441C26.2037 49.9653 26.6565 49.5161 27.0402 49.01H25.695V50.3441ZM30.1962 49.01H30.81V49.7118C30.5903 49.4916 30.3853 49.2572 30.1962 49.01ZM21.8588 84.9979C21.5196 84.9979 21.1944 85.1333 20.9545 85.3744C20.7147 85.6154 20.58 85.9423 20.58 86.2832V105.562C20.58 106.244 20.8495 106.898 21.3291 107.38C21.8087 107.862 22.4592 108.133 23.1375 108.133H99.8625C100.541 108.133 101.191 107.862 101.671 107.38C102.151 106.898 102.42 106.244 102.42 105.562V86.2832C102.42 85.9423 102.285 85.6154 102.045 85.3744C101.806 85.1333 101.48 84.9979 101.141 84.9979H21.8588Z" fill="#327A6D"/>
<path d="M44.8762 67.0042H37.2038C36.4975 67.0042 35.925 67.5796 35.925 68.2894V73.4306C35.925 74.1404 36.4975 74.7158 37.2038 74.7158H44.8762C45.5825 74.7158 46.155 74.1404 46.155 73.4306V68.2894C46.155 67.5796 45.5825 67.0042 44.8762 67.0042Z" fill="#327A6D"/>
<path d="M49.9913 69.5747H42.3188C41.6125 69.5747 41.04 70.1501 41.04 70.86V73.4306C41.04 74.1404 41.6125 74.7158 42.3188 74.7158H49.9913C50.6975 74.7158 51.27 74.1404 51.27 73.4306V70.86C51.27 70.1501 50.6975 69.5747 49.9913 69.5747Z" fill="#327A6D"/>
<path d="M57.6637 74.7158C59.7825 74.7158 61.5 72.9895 61.5 70.86C61.5 68.7305 59.7825 67.0042 57.6637 67.0042C55.545 67.0042 53.8275 68.7305 53.8275 70.86C53.8275 72.9895 55.545 74.7158 57.6637 74.7158Z" fill="#327A6D"/>
</svg>
